<svg xmlns="http://www.w3.org/2000/svg" viewBox="0 0 255.75 73.41"><path d="M87.23,58.23c-2.64,0-4,1.91-4,5.58,0,4.11,1.47,6.16,4.26,6.16,1.91,0,3.08-1,3.81-2.93l1,.44c-.73,2.49-2.64,3.67-5.58,3.67a7.14,7.14,0,0,1-5.14-1.91,6.75,6.75,0,0,1-2.05-5,6.44,6.44,0,0,1,2.2-5.14,7.3,7.3,0,0,1,5.43-2.2,5.44,5.44,0,0,1,3.38,1,2.5,2.5,0,0,1,1.32,1.91,1.31,1.31,0,0,1-1.32,1.32c-.73,0-1.47-.58-1.61-1.76a1.67,1.67,0,0,0-1.77-1.17Zm178.82-2.94V80.4h-1.61L243.15,53.23V72.62a9.15,9.15,0,0,0,.44,3.67,4.65,4.65,0,0,0,4.11,1.9h.59v1.47h-11.6V78.19c2.2-.14,3.67-.73,4.26-1.9a13.06,13.06,0,0,0,.44-3.67V56.17c0-2.94-.44-4.55-1.18-5.28L237,50.15h-.29V48.68h9.84l17.91,22.47V55a5.57,5.57,0,0,0-1.32-4,4.33,4.33,0,0,0-3.09-.88h-.58V48.68h11.3v1.47h-.44a4.38,4.38,0,0,0-3.67,1.91,8.47,8.47,0,0,0-.59,3.23Zm-46.24-3.23-1.91-1.47-4.11-.29h-5V62.63H212a6,6,0,0,0,3.37-.73c.59-.74.74-1.76.74-3.52v-.15h1.76V68.65h-1.76V68.5c0-1.76-.15-2.93-.74-3.52-.44-.44-1.61-.73-3.37-.73H208.8v7.34c0,2.93.29,4.7.73,5.43.59.73,1.76,1.17,4,1.17h1.77c2.93,0,5.13-.88,6.31-2.64A17.86,17.86,0,0,0,224.21,70h1.47l-.44,9.69H198.52V78.19h.73c1.77,0,2.79-.14,3.23-.88s.74-2.49.74-5V56a11.68,11.68,0,0,0-.74-5c-.44-.73-1.47-.88-2.93-.88h-.44V48.68h23.63l.59,7.78h-1.47a20.59,20.59,0,0,0-2.05-4.4ZM178,58.23h1.47V68.65H178V68.5c0-1.76-.14-2.93-.88-3.52a6.25,6.25,0,0,0-3.52-.73h-3.08v7.34c0,2.93.14,4.7.73,5.43.44.73,1.62,1.17,3.82,1.17h1.76c2.94,0,5.14-.88,6.31-2.64A15.08,15.08,0,0,0,185.89,70h1.47l-.59,9.69H160.2V78.19h.73c1.62,0,2.65-.14,3.09-.88s.73-2.49.73-5V56c0-2.5-.15-4.26-.73-5s-1.47-.88-3.09-.88h-.29V48.68h23.79l.44,7.78H183.4a15.46,15.46,0,0,0-1.91-4.4,6.66,6.66,0,0,0-2.2-1.47l-4-.29h-4.84V62.63h3.08a6.25,6.25,0,0,0,3.52-.73c.74-.74.88-1.76.88-3.52v-.15ZM119.83,56c0-2.8-.3-4.26-.74-5-.59-.73-1.76-.88-3.52-.88h-.44V48.68h15v1.47h-.58c-1.62,0-2.94.15-3.38.88s-.74,2.21-.74,5V66.45c0,4.26.45,7.19,1.18,8.37,1.32,2.2,3.67,3.37,7.34,3.37a10.11,10.11,0,0,0,5.43-1.46,7.18,7.18,0,0,0,3.38-3.82,27,27,0,0,0,.59-6.46V55.73c0-1.91-.3-3.38-1-4.11a4.58,4.58,0,0,0-3.38-1.47h-.29V48.68h11v1.47h-.44l-2.5.88c-1.17.74-1.76,2.06-1.76,4V68.5c0,4.12-1.17,7-3.38,9-2.2,2.06-5.43,2.94-9.24,2.94-4.7,0-8.37-1.47-10.58-4.41-1.76-1.91-2.2-4.4-1.9-7.34V56ZM86.5,49.86a10.53,10.53,0,0,1,6.61,2.2c2.64,2.2,4,6.17,4,12.19A19.48,19.48,0,0,1,95,73.79L93.4,76a9.65,9.65,0,0,1-14.24-.73,20.7,20.7,0,0,1-2.94-11.45,18.47,18.47,0,0,1,2.2-9.55,8.75,8.75,0,0,1,8.08-4.4ZM69.62,64.1c0,6.31,2.49,11,7.63,14a16.71,16.71,0,0,0,9,2.35L88,80.25l-6.9,3.82c-1.62.73-2.35,1.47-2.35,2.2s.44,1,1.17,1l1.91-1a6.58,6.58,0,0,1,4.26-1.91c2.2,0,4.84,1,7.78,3.23l3.23,2.2a12.58,12.58,0,0,0,6.31,1.62c5.43,0,8.37-2.65,9.11-7.78H111c-.74,2.2-2.5,3.23-5.14,3.23a20.08,20.08,0,0,1-7.34-1.77,30.37,30.37,0,0,0-11-2.49l-.74.29,5.58-3.23a15.89,15.89,0,0,0,8.37-5.87,14.35,14.35,0,0,0,3.08-9.54A16.08,16.08,0,0,0,99,52.5c-3.23-2.94-7-4.4-12.19-4.4s-9.39,1.46-12.48,4.4-4.69,6.9-4.69,11.6Zm-22.76-11-12,26.57H33.65L21.17,53.09V70.71c0,2.64.29,4.4,1,5.28.44,1.47,1.62,2.2,3.67,2.2H26v1.47H15V78.19h.29A3.73,3.73,0,0,0,19,76a15.12,15.12,0,0,0,.74-5.58V56c0-2.8-.3-4.26-.74-5s-1.46-.88-3.23-.88H15V48.68H25.57L36.29,72.62,47.15,48.68H57.58v1.47H56.7c-1.77,0-2.94.44-3.53,1.18s-.73,2.2-.73,4.7V72.32c0,2.5.29,4.26,1,5,.29.74,1.17.88,2.93.88h1.18v1.47H42.16V78.19h.74c1.76,0,2.78-.14,3.22-.88s.74-2.49.74-5V53.09ZM260.47,23.87c0,2.94-1,4.41-3.23,4.7l-3.67.29V19.47H255c2.06,0,3.53.29,4.26,1a4.46,4.46,0,0,1,1.17,3.37Zm9.25,16.45V39.14c-1.61,0-3.67-1.47-5.87-4.4-1.91-2.94-3.38-4.7-4.55-5.44,3.82-.73,5.87-2.49,5.87-5.43a4.88,4.88,0,0,0-2.93-4.4c-1.47-.88-4-1.47-7.35-1.47l-8.36.59v.88h.29a3.43,3.43,0,0,1,2.35.59l.59,3.37V34.88l-.59,3.53c-.15.44-.88.73-2.2.73h-.74v1.18h11V39.14h-.88c-1.32,0-2.05-.29-2.2-.73a8.5,8.5,0,0,1-.59-3.53V30h.3a8.33,8.33,0,0,1,2.49.44l3.09,4.26c1.76,2.93,3.23,4.84,4.26,5.58Zm-31.27-6.91-.29,6.91H219.37V39.14h.44c1.32,0,2.05-.29,2.2-.73a8.5,8.5,0,0,0,.59-3.53V23.43A6.9,6.9,0,0,0,222,20.2c-.15-.44-.88-.73-1.91-.73h-.29v-.88h16.73l.15,5.28h-.88a7.63,7.63,0,0,0-1.32-2.93c-.74-.89-2.35-1.47-4.55-1.47h-3.23v8.66h2.2a3.23,3.23,0,0,0,2.2-.59c.44-.14.74-.88.74-2.2v-.15H233v7.34h-1.17v-.29a8.27,8.27,0,0,0-.45-2.49l-2.49-.45h-2.2v5.44a14,14,0,0,0,.44,3.67c.29.44,1.32.73,2.79.73h1.17q3.3,0,4.41-1.76a16.87,16.87,0,0,0,1.9-4Zm-36-12.91c2.64,1.46,4,4.69,4,9.25,0,3.52-.74,6.16-2.5,7.92a10.09,10.09,0,0,1-5.87,1.47c-1.18,0-1.91-.29-2.2-.73a12.88,12.88,0,0,1-.44-4.26V19.47l1.9-.15a9.76,9.76,0,0,1,5.14,1.18Zm3.67-.3a24.73,24.73,0,0,0-10.57-1.91h-4.4l-3.08.3v.88h.44a3.89,3.89,0,0,1,2.49.73l.15,3.53V34.88L191,38.41a3.61,3.61,0,0,1-2.2.73h-.73v1.18h8.8l7.34-.74c4.56-1.47,6.76-4.84,6.76-10,0-4.41-1.62-7.64-4.85-9.4Zm-26-.73a4.17,4.17,0,0,0-2.65,1.47l-.29,2V40.76h-.88L161.08,21.67V35.18c0,1.46,0,2.2.3,2.49a3.83,3.83,0,0,0,2.93,1.47h.44v1.18h-8.22V39.14h.15a3.08,3.08,0,0,0,2.93-1.47l.3-2.49V23.73c0-2.06-.3-3.23-1-3.67L157,19.47h-.29v-.88h6.6l12.78,15.56V23c0-1.47-.3-2.49-.74-2.79l-2.49-.73h-.15v-.88h7.78v.88ZM141.11,31.8h-6.9l3.38-8.37,3.52,8.37Zm9,7.34c-.73,0-1.47-.29-1.61-.73L147,35.47,139.65,18h-1l-6.9,16.88-1.62,3.23a8.75,8.75,0,0,1-2,1h-.15v1.18h6.75V39.14h-.14c-1.47,0-2.2-.59-2.2-1.76l.88-3.23.58-1.18h7.78L143,36.2l.44,1.91c0,.74-.73,1-2.2,1h-.15v1.18h9.25V39.14Zm-27.6,1.18H110.72V39.14h.3c1.61,0,2.64-.29,2.64-1l-1.47-2.64-3.67-4.4-3.38,3.81-1.46,2.79c0,.88.73,1.47,1.91,1.47h.29v1.18H97.07V39.14h.15c2-.29,4.25-1.76,6.46-4.4l4.11-4.7-5.58-6.61-2.79-3.38a4,4,0,0,0-2.2-.58h-.15v-.88h10.42v.88h-.44c-1.17,0-1.76.29-1.76,1l1.32,1.9,3.67,4.7L114,22.7a8.65,8.65,0,0,0,1.18-1.91c0-.74-.74-1.32-2.2-1.32h-.3v-.88H121v.88h-.29a4,4,0,0,0-2.94,1l-3.08,3.23-3.53,4.11,5.44,6.9,3.23,3.67,2.64.73v1.18ZM84.3,25.19v7.34H83.12v-.29a5.2,5.2,0,0,0-.58-2.49l-2.35-.45H78v5.44a9.68,9.68,0,0,0,.44,3.67c.3.44,1.18.73,2.65.73h1.32c2.2,0,3.67-.59,4.55-1.76a12.23,12.23,0,0,0,1.76-4h1.18l-.44,6.91H70.79V39.14h.29a3.9,3.9,0,0,0,2.5-.73,19.56,19.56,0,0,0,.15-3.53V23.43a15.88,15.88,0,0,0-.15-3.23,3.61,3.61,0,0,0-2.2-.73h-.3v-.88H87.53L88,23.87h-1a5.49,5.49,0,0,0-1.17-2.93c-.74-.89-2.21-1.47-4.41-1.47H78v8.66h2.21a4.13,4.13,0,0,0,2.35-.59c.29-.14.58-.88.58-2.2v-.15ZM54.49,19.47a3.93,3.93,0,0,0-2.49.59,8.61,8.61,0,0,0-.44,3.37v12c0,1.62.14,2.64.44,2.94s1.17.73,2.93.73h1.18q3.07,0,4.4-1.76a9,9,0,0,0,1.76-4h1.18l-.15,6.91H44.22V39.14H45c1.17,0,1.91-.29,2.2-.73a13.53,13.53,0,0,0,.44-3.53V23.43a11.14,11.14,0,0,0-.44-3.37,4.28,4.28,0,0,0-2.49-.59h-.44v-.88h11v.88ZM28.8,31.8H21.61l3.52-8.37L28.8,31.8ZM26,18,19.26,34.88c-1,2.5-2.2,4-3.67,4.26h-.3v1.18h6.9V39.14H21.9c-1.47,0-2.2-.59-2.2-1.76l1-3.23L21.17,33H29L31,38.11c0,.74-.73,1-2.2,1h-.29v1.18h9.25V39.14h-.15a2.2,2.2,0,0,1-1.76-.73l-1.47-2.94L27,18Z" transform="translate(-15 -18)" fill="#1d1d1b" fill-rule="evenodd"/></svg>