<svg xmlns="http://www.w3.org/2000/svg" viewBox="0 0 560.76 209.8"><defs><style>.cls-1{fill:#231f20;}</style></defs><title>Asset 1</title><g id="Layer_2" data-name="Layer 2"><g id="Layer_2-2" data-name="Layer 2"><polygon class="cls-1" points="60.51 8.85 60.5 8.85 60.51 8.85 60.51 8.85"/><polygon class="cls-1" points="401.51 0.06 395.5 0.06 340.01 55.54 340.01 0.06 316.88 0.06 316.88 116.95 340.01 116.95 340.01 61.56 345.55 56.02 385.21 116.95 413.36 116.95 362.6 38.97 401.51 0.06"/><polygon class="cls-1" points="548.91 0.06 542.9 0.06 487.41 55.54 487.41 0.06 464.27 0.06 464.27 116.95 487.41 116.95 487.41 61.56 492.95 56.02 532.61 116.95 560.76 116.95 510 38.97 548.91 0.06"/><path class="cls-1" d="M262.44,95.05c-1.47-6.93-2.51-12.83-4.22-19.71a22.6,22.6,0,0,0-14.63-16.49c-.69-.25-1.39-.48-2.12-.67-2.3-.61-4.7-.84-7.57-1.33l1.2-.28c2.53-.59,4.77-1.09,7-1.7,4.83-1.35,9.5-4.43,13.27-7.75,6.27-5.52,8.64-12.59,8.14-20.85A22.23,22.23,0,0,0,255,9.85a39.54,39.54,0,0,0-12.71-7.08A54.31,54.31,0,0,0,226,0l-1.73,0H177V117h23V59h13a56.13,56.13,0,0,1,7.54.55c6.39,1,11,3.94,12.38,10.21,2.84,13,9.57,44.49,10.14,47.15h24C265.51,109.61,264,102.33,262.44,95.05ZM221.07,54a47.41,47.41,0,0,1-6.7.69H200V3.77h18.83c6.37.16,11.38,2,15.07,7.15a29.83,29.83,0,0,1,5.29,14.46,32.08,32.08,0,0,1-4.41,20.36C231.72,51,227,52.92,221.07,54Z"/><path class="cls-1" d="M69.1,0H64.93L0,152.92H4.62l52-122.37L91.13,117h25.6C111.07,101.42,75,12.85,69.1,0Z"/><path class="cls-1" d="M147.16,194.7a4.3,4.3,0,0,0-1-1.11,4.65,4.65,0,0,0-1.33-.74,4.47,4.47,0,0,0-1.55-.27,5.16,5.16,0,0,0-2.52.58,4.69,4.69,0,0,0-1.68,1.54,6.81,6.81,0,0,0-.94,2.2,11.24,11.24,0,0,0-.29,2.54,10.46,10.46,0,0,0,.29,2.45,6.73,6.73,0,0,0,.94,2.15,4.82,4.82,0,0,0,1.68,1.52,5,5,0,0,0,2.52.58,4.05,4.05,0,0,0,3.15-1.24,5.67,5.67,0,0,0,1.39-3.24h4.25a10,10,0,0,1-.87,3.38,8.08,8.08,0,0,1-1.84,2.58,7.9,7.9,0,0,1-2.69,1.62,9.72,9.72,0,0,1-3.39.56,10.28,10.28,0,0,1-4.13-.79,9,9,0,0,1-3.09-2.2,9.75,9.75,0,0,1-1.94-3.29,12.29,12.29,0,0,1-.67-4.08,12.67,12.67,0,0,1,.67-4.15,10,10,0,0,1,1.94-3.35,8.85,8.85,0,0,1,3.09-2.24,10.11,10.11,0,0,1,4.13-.81,10.29,10.29,0,0,1,3.12.47,8.39,8.39,0,0,1,2.63,1.39A7.46,7.46,0,0,1,151,193a8,8,0,0,1,.95,3.08h-4.25A3.71,3.71,0,0,0,147.16,194.7Z"/><path class="cls-1" d="M166.79,195.29a10,10,0,0,1,1.93-3.35,8.8,8.8,0,0,1,3.1-2.24,11,11,0,0,1,8.27,0,8.9,8.9,0,0,1,3.08,2.24,10,10,0,0,1,1.93,3.35,12.41,12.41,0,0,1,.67,4.15,12,12,0,0,1-.67,4.08,9.73,9.73,0,0,1-1.93,3.29,9.07,9.07,0,0,1-3.08,2.2,11.22,11.22,0,0,1-8.27,0,9,9,0,0,1-3.1-2.2,9.73,9.73,0,0,1-1.93-3.29,12,12,0,0,1-.67-4.08A12.41,12.41,0,0,1,166.79,195.29Zm4,6.6a6.73,6.73,0,0,0,.94,2.15,4.82,4.82,0,0,0,1.68,1.52,5.76,5.76,0,0,0,5,0,4.82,4.82,0,0,0,1.68-1.52,6.73,6.73,0,0,0,.94-2.15,10.46,10.46,0,0,0,.29-2.45,11.24,11.24,0,0,0-.29-2.54,6.81,6.81,0,0,0-.94-2.2,4.69,4.69,0,0,0-1.68-1.54,5.76,5.76,0,0,0-5,0,4.69,4.69,0,0,0-1.68,1.54,6.81,6.81,0,0,0-.94,2.2,10.7,10.7,0,0,0-.3,2.54A10,10,0,0,0,170.81,201.89Z"/><path class="cls-1" d="M209.69,189.36a8.4,8.4,0,0,1,3.19.55,5.85,5.85,0,0,1,2.14,1.44,5.68,5.68,0,0,1,1.21,2.05,7.78,7.78,0,0,1,0,4.74A5.64,5.64,0,0,1,215,200.2a5.85,5.85,0,0,1-2.14,1.44,8.21,8.21,0,0,1-3.19.55h-4.62v7.17h-4.4v-20Zm-1.21,9.41a8.65,8.65,0,0,0,1.46-.11,3.32,3.32,0,0,0,1.23-.43,2.43,2.43,0,0,0,.86-.91,3.29,3.29,0,0,0,.32-1.54,3.23,3.23,0,0,0-.32-1.54,2.29,2.29,0,0,0-.86-.91,3.33,3.33,0,0,0-1.23-.44,9.83,9.83,0,0,0-1.46-.11h-3.41v6Z"/><path class="cls-1" d="M246.2,189.36v3.7H235.64v4.28h9.69v3.42h-9.69v4.9h10.78v3.7H231.25v-20Z"/><path class="cls-1" d="M265.66,189.36,274,202.78h.06V189.36h4.11v20h-4.39L265.46,196h0v13.39h-4.12v-20Z"/><path class="cls-1" d="M298.34,189.36V197h8.09v-7.68h4.39v20h-4.39v-8.63h-8.09v8.63h-4.4v-20Z"/><path class="cls-1" d="M336.55,189.36l7.48,20h-4.56L338,204.9h-7.47l-1.57,4.46h-4.42l7.56-20Zm.26,12.27-2.52-7.34h-.06l-2.6,7.34Z"/><path class="cls-1" d="M369.51,209.2a7.36,7.36,0,0,1-2.88.6,10.28,10.28,0,0,1-4.13-.79,9,9,0,0,1-3.1-2.2,9.73,9.73,0,0,1-1.93-3.29,12,12,0,0,1-.67-4.08,12.41,12.41,0,0,1,.67-4.15,10,10,0,0,1,1.93-3.35,8.8,8.8,0,0,1,3.1-2.24,10.11,10.11,0,0,1,4.13-.81,9.66,9.66,0,0,1,3,.46,8.38,8.38,0,0,1,2.6,1.36,7.31,7.31,0,0,1,1.92,2.21,7.53,7.53,0,0,1,.92,3h-4.2a4.18,4.18,0,0,0-1.51-2.52,4.37,4.37,0,0,0-2.71-.84,5.16,5.16,0,0,0-2.52.58,4.69,4.69,0,0,0-1.68,1.54,6.6,6.6,0,0,0-.94,2.2,10.7,10.7,0,0,0-.3,2.54,10,10,0,0,0,.3,2.45,6.51,6.51,0,0,0,.94,2.15,4.82,4.82,0,0,0,1.68,1.52,5,5,0,0,0,2.52.58A4.76,4.76,0,0,0,370,205a4.84,4.84,0,0,0,1.39-3.21H367v-3.27h8.4v10.81h-2.8l-.45-2.27A6.52,6.52,0,0,1,369.51,209.2Z"/><path class="cls-1" d="M405.77,189.36v3.7H395.22v4.28h9.68v3.42h-9.68v4.9H406v3.7H390.82v-20Z"/><path class="cls-1" d="M425.23,189.36l8.34,13.42h.06V189.36h4.12v20h-4.4L425,196h0v13.39h-4.12v-20Z"/></g></g></svg>