<?xml version="1.0" encoding="utf-8"?>
<!-- Generator: Adobe Illustrator 26.0.1, SVG Export Plug-In . SVG Version: 6.00 Build 0)  -->
<svg version="1.1" id="Laag_1" xmlns="http://www.w3.org/2000/svg" xmlns:xlink="http://www.w3.org/1999/xlink" x="0px" y="0px"
	 viewBox="0 0 473.3 119" style="enable-background:new 0 0 473.3 119;" xml:space="preserve">
<style type="text/css">
	.st0{fill:#FEFEFE;}
	.st1{fill:#030303;}
	.st2{fill:#FDFDFD;}
	.st3{fill:#FCFCFC;}
	.st4{fill:#090909;}
	.st5{fill:#0B0B0B;}
	.st6{fill:#0A0A0A;}
	.st7{fill:#080808;}
	.st8{fill:#121212;}
	.st9{fill:#191919;}
	.st10{fill:#171717;}
	.st11{fill:#3F3F3F;}
	.st12{fill:#767676;}
	.st13{fill:#BCBCBC;}
	.st14{fill:#BEBEBE;}
	.st15{fill:#C6C6C6;}
	.st16{fill:#CECECE;}
	.st17{fill:#D7D7D7;}
	.st18{fill:#BDBDBD;}
	.st19{fill:#CCCCCC;}
	.st20{fill:#D8D8D8;}
	.st21{fill:#DBDBDB;}
	.st22{fill:#D5D5D5;}
	.st23{fill:#EEEEEE;}
	.st24{fill:#EBEBEB;}
	.st25{fill:#CACACA;}
	.st26{fill:#BFBFBF;}
	.st27{fill:#BABABA;}
	.st28{fill:#F2F2F2;}
	.st29{fill:#BBBBBB;}
	.st30{fill:#E6E6E6;}
	.st31{fill:#D0D0D0;}
	.st32{fill:#DCDCDC;}
	.st33{fill:#E5E5E5;}
	.st34{fill:#DFDFDF;}
	.st35{fill:#E9E9E9;}
	.st36{fill:#E3E3E3;}
	.st37{fill:#B7B7B7;}
	.st38{fill:#DDDDDD;}
	.st39{fill:#0C0C0C;}
	.st40{fill:#777777;}
	.st41{fill:#525252;}
	.st42{fill:#ECECEC;}
	.st43{fill:#E8E8E8;}
</style>
<g>
	<g>
		<path class="st0" d="M473.3,79c0,3,0,6,0,9c-2.7,2.2-6,1.6-9.1,1.6c-53.1,0-106.1,0-159.2,0c-2.2,0-4.3-0.2-6.5,0.4
			c-1,0.3-1.8,0.8-1.8,2s0.8,1.8,1.8,2c2.1,0.5,4.3,0.4,6.5,0.4c53.1,0,106.1,0,159.2,0c3.1,0,6.4-0.6,9.1,1.6c0,2.7,0,5.3,0,8
			c-2.7,2.2-6,1.6-9.1,1.6c-51.4,0-102.9,0-154.3,0c-1.5,0-3,0.2-4.5,0c-5.3-0.7-9.5,0.5-10.9,6.4c-9.7,0-19.3,0-29,0
			c-0.5-1.5,0.9-2,1.7-2.8c8.2-5.4,9.8-11.9,4.3-17.6c-1.5-1.6-3.5-2.4-5.3-3.5s-3.7-0.9-5.6-0.1c-3.7,2.1-8.2,3.6-7.3,9.3
			c0.2,5.1,2.1,9.2,6.6,11.9c0.7,0.8,2.1,1.4,1.6,2.9c-86.3,0-172.5,0-258.8,0.1c-3.4,0-4.1-0.7-4.1-4.1c0.2-32.8,0.1-65.5,0-98.3
			c0-3,0.6-3.6,3.6-3.6c19.5,0.2,39,0.1,58.4,0.1C61.2,9.1,59.2,11,58,13C45.6,33.6,33.2,54.3,20.7,74.9c-2.8,4.6-2.6,4.7,2.6,4.8
			c1.7,0,3.3-0.1,5,0c3.4,0.2,5.6-1.2,7.2-4.2c6.3-11.3,12.4-22.7,18.9-34c0.6-1,1-2.1,1.8-3c0.7-0.9,1.4-1.9,2.8-1.6
			s1.6,1.6,1.8,2.7c0.3,1.5,0.2,3,0.2,4.5c0,9,0,17.9,0,26.9c0,8.4,0.2,8.7,5.7,8.7c5.3,0,5.5-0.4,5.5-8.5c0-19.3,0-38.5,0-57.8
			c0-2.4-0.5-5,1.4-7.2c1.7,0,3.3,0,5,0c1.8,2.1,1.4,4.7,1.4,7.1c0,14.1-0.1,28.3,0,42.4c0.1,15,12.7,25.4,27.5,22.8
			c10.1-1.7,18.1-11.6,18.5-23.1c0.3-9.3,0-18.6,0.1-27.9c0.1-7.8,7.9-12,14.6-8c2.6,1.6,2.2,4.3,2.2,6.7c0.1,15.1,0,30.2,0,45.4
			c0,1.5,0,3,0.1,4.5c0.2,2.5,1.7,3.4,4,3.4c2.4,0,3.8-1,3.9-3.5c0.2-5.3,0.1-10.6,0.1-16c0-11.3,0-22.6,0-33.9c0-6.4,1-7.2,7.2-7.4
			c10.1-0.3,10.7,0.3,10.7,10.5c0,14.6,0,29.3,0,43.9c0,5.7,4.9,8.6,10.2,6.1c1.9-0.9,1.8-2.6,1.9-4.3c0.1-5.6,0-11.3,0-17
			c0-1.3-0.1-2.7,0.1-4c0.2-1.9-0.2-4.4,2.1-5.1c2.4-0.6,3.4,1.6,4.4,3.3c3.5,6.2,7.4,12.3,10.3,18.8c3,6.8,7.4,9.8,14.8,8.5
			c5.1-0.9,10.3-0.1,15.4,0.1c4.3,0.2,7-1.4,9.2-5.2c12.1-21.2,24.6-42.2,36.9-63.3c1.1-1.9,2.1-3.8,4.1-4.8c5.7,0,11.3,0,17,0
			c0.9,1.7,0.6,3.6,0.6,5.4c-0.1,14.1,0,28.2,0,42.3c0,7.3,0.2,7.5,7.6,7.5c53.5,0.1,107,0,160.5,0c3.1,0,6.4-0.6,9.1,1.6
			c0,2.7,0,5.3,0,8c-2.7,2.2-6,1.6-9.1,1.6c-53.1,0-106.1,0-159.2,0c-2.2,0-4.3-0.2-6.5,0.4c-1,0.3-1.8,0.8-1.8,2s0.8,1.8,1.8,2
			c2.1,0.5,4.3,0.4,6.5,0.4c53.1,0,106.1,0,159.2,0C467.3,77.4,470.6,76.7,473.3,79z"/>
		<path d="M278.5,6.1C268.3,23.7,258.2,41.4,248,59c-3.4,5.9-7.1,11.6-10.2,17.6c-1.6,3-3.4,4.2-6.9,4.1c-8.1-0.3-16.2-0.3-24.3,0
			c-3.8,0.2-5.5-1.2-7.2-4.4c-4.4-8.4-9.1-16.5-13.7-24.8c-0.5-1-0.7-2.2-2.1-2.5c-1.6,0.6-0.9,2-0.9,3c-0.1,8.3-0.1,16.6,0,24.9
			c0,2.5-0.2,3.8-3.4,3.8c-11.5,0.1-11.5,0.3-11.5-11.3c0-15-0.1-29.9,0.1-44.9c0-3.3-0.8-4.2-4.1-4.2c-11.1,0.1-11.1-0.1-11.1,11.1
			c0,15-0.3,29.9,0.1,44.9c0.2,6-3.6,3.9-6.5,4.3c-3.6,0.5-4.8-0.6-4.7-4.5c0.2-17,0-33.9,0.2-50.9c0-3.8-0.8-5.1-4.8-5
			c-9.2,0.3-9.2,0.1-9.2,9.1s0.3,18-0.1,26.9c-0.8,18.4-20.2,30.1-35.7,21.4C83.7,73,78.6,65.8,78.6,55.8c0-16.6,0.1-33.2,0.1-49.9
			c4,0,8,0,12,0c2.9,1.7,2.5,4.5,2.5,7.1c0.1,12,0,23.9,0,35.9c0,1.8-0.1,3.7,0.1,5.5c0.6,5.6,3.4,8.5,8.3,8.8
			c5.6,0.4,9.4-2.2,10.9-7.4c0.7-2.3,0.6-4.6,0.6-6.9c0-12,0-23.9,0-35.9c0-2.6-0.4-5.4,2.5-7.1c36.3,0,72.6,0,108.9,0
			c3.5,2.1,4.8,5.9,6.8,9.1c4.1,6.4,8.4,12.6,11.8,19.2c4.5-7.9,9.9-15.9,14.9-24.1c0.9-1.6,2.2-2.9,3.5-4.2
			C267.1,6.1,272.8,6.1,278.5,6.1z"/>
		<path d="M473.3,63c-58.4,0-116.9,0.1-175.3,0.2c-2.2,0-3.7,0.1-3.7-3c0.2-17,0.1-33.9,0-50.9c0-1.3,0.4-2.2,1.1-3.2
			C352.7,6.1,410,6.2,467.3,6c5.1,0,7.1,1,6,6.1c-0.2,1,0,2,0,3c-2.4,2-5.3,1.6-8.1,1.6c-29.6,0-59.2,0-88.8,0c-2,0-4-0.1-6,0.4
			c-1,0.3-1.8,0.8-1.8,2s0.8,1.8,1.8,2c2,0.5,4,0.4,6,0.4c29.6,0,59.2,0,88.8,0c2.8,0,5.7-0.5,8.1,1.6c0,2.7,0,5.3,0,8
			c-2.4,2-5.3,1.6-8.1,1.6c-29.9,0-59.9,0-89.8,0c-2,0-4-0.1-6,0.4c-1,0.3-1.8,0.8-1.8,2s0.8,1.8,1.8,2c2,0.5,4,0.4,6,0.4
			c29.9,0,59.9,0,89.8,0c2.8,0,5.7-0.5,8.1,1.6c0,2.7,0,5.3,0,8c-2.4,2-5.3,1.6-8.1,1.6c-29.9,0-59.9,0-89.8,0c-2,0-4-0.1-6,0.4
			c-1,0.3-1.8,0.8-1.8,2s0.8,1.8,1.8,2c2,0.5,4,0.4,6,0.4c29.9,0,59.9,0,89.8,0c2.8,0,5.7-0.5,8.1,1.6
			C473.3,57.7,473.3,60.4,473.3,63z"/>
		<path d="M73.6,6.1c0,23.3-0.2,46.5,0,69.8c0,4.1-1.3,4.9-5,4.8c-9.5-0.2-9.5-0.1-9.5-9.3c0-11.2,0-22.5,0-33.7
			c-0.3-0.1-0.6-0.2-0.9-0.3c-2.8,5.1-5.7,10.1-8.5,15.2c-4.5,8.3-9.1,16.5-13.5,24.8c-1.2,2.3-2.5,3.5-5.3,3.3
			c-4.7-0.3-9.5-0.1-15.3-0.1C30.9,55.3,45.8,30.7,60.7,6.1C65,6.1,69.3,6.1,73.6,6.1z"/>
		<path d="M294.4,111.9c0-8,0-8,8-8c56.9,0,113.9,0,170.8,0c0,8,0,8-8,8C408.3,111.9,351.4,111.9,294.4,111.9z"/>
		<path class="st1" d="M473.3,79c-12.5,0.1-24.9,0.2-37.4,0.2c-45.6,0-91.1-0.1-136.7,0.1c-4.7,0-5.2-1.9-4.8-5.5
			c0.2-1.6,0.6-2.5,2.3-2.4c1.3,0.1,2.7,0,4,0c55.7,0,111.4,0,167.2,0c1.8,0,3.6-0.3,5.4-0.4C473.3,73.7,473.3,76.3,473.3,79z"/>
		<path class="st1" d="M473.3,95.9c-1.7-0.9-3.6-0.4-5.4-0.4c-56.2,0-112.4,0-168.7,0c-2.8,0-5,0.3-5-3.9c0.1-3.5,1.4-3.9,4.4-3.9
			c31.6,0.1,63.2,0,94.8,0.1c26.6,0,53.2,0.1,79.8,0.2C473.3,90.6,473.3,93.3,473.3,95.9z"/>
		<path class="st0" d="M115.6,6.1c-1.1,1.7-0.6,3.6-0.6,5.3c-0.2,13.8-0.2,27.5-0.4,41.3c-0.1,7.5-4.4,12.3-11.2,12.7
			c-7,0.4-11.6-3.6-11.9-11.7c-0.5-13.9-0.3-27.9-0.4-41.8c0-2,0.4-4-0.6-5.9C98.9,6.1,107.3,6.1,115.6,6.1z"/>
		<path class="st0" d="M473.3,55c-1.5,0.1-2.9,0.4-4.4,0.4c-32.8,0-65.6,0-98.3,0c-4.5,0-6.8-3.5-4.9-7.6c1-2.1,2.9-1.2,4.4-1.2
			c20-0.1,39.9-0.1,59.9,0c14.5,0.1,28.9-0.5,43.4,0.4C473.3,49.7,473.3,52.4,473.3,55z"/>
		<path class="st0" d="M473.3,39.1c-1.5,0.1-3,0.4-4.4,0.4c-32.8,0-65.6,0-98.3,0c-4.4,0-6.8-3.6-4.9-7.7c1-2.1,2.9-1.1,4.4-1.1
			c29.8-0.1,59.6-0.1,89.4,0c4.6,0,9.3-0.6,13.9,0.4C473.3,33.8,473.3,36.4,473.3,39.1z"/>
		<path class="st2" d="M473.3,23.1c-34.1,0-68.1-0.2-102.2,0c-4.1,0-5.5-1-5.2-5.2c0.2-2.4,0.9-3,3.2-3c34.7,0.1,69.5,0.1,104.2,0.2
			C473.3,17.8,473.3,20.4,473.3,23.1z"/>
		<path class="st0" d="M261.5,6.1c-5,10.4-12.1,19.4-18.3,30.5c-6.5-10.7-12.6-20.6-18.7-30.5C236.8,6.1,249.2,6.1,261.5,6.1z"/>
		<path class="st1" d="M261.5,111.9c0.1-1.5-2.2-0.4-2-2c2.7-1.9,5.3-1.9,7.9,0c-0.6,0.7-1.3,1.3-1.9,2
			C264.1,111.9,262.8,111.9,261.5,111.9z"/>
		<path class="st3" d="M267.4,109.9c-2.6,0-5.3,0-7.9,0c-5.4-2.7-7.6-7.1-7-13c0.1-6,4.3-8.1,9-9.8c1.8-0.2,3.5-0.1,5.3-0.2
			c7.8,4.3,10.4,8.8,8.7,15C274.3,106.1,271.2,108.4,267.4,109.9z"/>
		<path class="st4" d="M118.4,104.5c0-4.9,0-9.8,0-14.7c0-1-0.6-2.6,1-2.8c1.9-0.2,1.4,1.5,1.4,2.5c0,6,0,11.9,0,17.9
			c0,1.1,0.2,2.5-1.3,2.9c-1.4,0.4-2.1-0.7-2.8-1.6c-2-2.6-4-5.3-5.9-8c-1.9-2.5-3.7-4.9-6.4-8.5c0,5.9,0,10.6,0,15.3
			c0,1.1,0.4,2.6-1.5,2.5c-1.4-0.1-1.2-1.4-1.2-2.3c0-6,0-11.9,0-17.9c0-1,0.1-2.2,1.1-2.5c1.2-0.4,1.7,0.8,2.3,1.5
			c4.1,5.4,8.1,10.8,12.2,16.2C117.7,104.8,118.1,104.6,118.4,104.5z"/>
		<path class="st5" d="M189.8,87c6.4,0,11.8,5.4,11.6,11.8c-0.1,6.3-5.3,11.4-11.5,11.5c-6.6,0-11.5-5.1-11.4-11.8
			C178.6,92,183.5,87,189.8,87z"/>
		<path class="st6" d="M96.9,98.8c0,6.3-5,11.6-11.1,11.8c-6.3,0.2-11.6-5.1-11.6-11.8c0-6.6,5.3-12,11.6-11.8
			C91.9,87.2,96.9,92.5,96.9,98.8z"/>
		<path class="st7" d="M17.7,99c0,3.1,0,6.3,0,9.4c0,0.9,0.3,2.2-1.3,2.1c-1.3,0-1.5-1.1-1.5-2.2c0-0.5,0.1-1,0-1.5
			c-0.4-1.6,1.1-4.3-1.3-4.6c-2.7-0.3-6-1.5-8.1,1.9c-1,1.7-2.4,3.2-3.5,4.8c-0.5,0.8-1.2,1.3-2,0.9c-1.3-0.7-0.5-1.7,0-2.5
			c4.6-6.4,9.3-12.8,13.9-19.3c0.6-0.9,1.4-1.4,2.5-1.1c1.2,0.4,1.2,1.5,1.2,2.5C17.7,92.7,17.7,95.8,17.7,99z"/>
		<path class="st7" d="M229.3,110.1c-4.4,0-6.7-1.6-7.7-4.9c-0.2-0.7-0.5-1.8,0.5-2.2c0.9-0.4,1.4,0.2,1.8,1.1
			c0.9,2.4,2.7,3.8,5.4,3.2c1.7-0.3,3.1-1.1,3.3-3.1c0.2-1.9-0.5-3.3-2.2-4c-1.8-0.7-3.9-0.9-5.7-1.8c-3-1.4-3.9-4.1-3-7.1
			c1.1-3.2,3.7-4.6,7-4.4c3,0.2,4.8,2,5.7,4.7c0.2,0.8,0.3,1.7-0.8,2c-0.8,0.2-1.3-0.3-1.5-0.9c-0.7-1.9-1.9-3-4-3.1
			c-2.1,0-3.6,0.8-4.1,2.8s0.9,3,2.5,3.7c1.4,0.5,2.8,0.8,4.2,1.3c3.1,1.1,5.2,3.3,4.5,6.7C234.5,107.9,232.2,110.2,229.3,110.1z"/>
		<path class="st5" d="M147.5,110.7c-2-0.4-4-0.9-5.2-2.6c-1-1.4-2.9-3.4-1-4.7c1.7-1.2,1.9,1.4,2.7,2.5c1.3,1.8,3.1,2.5,5.3,1.8
			c1.7-0.5,2.9-1.9,2.9-3.7c0-2.4-1.8-3.4-3.8-4c-1.1-0.4-2.2-0.6-3.4-0.9c-3-0.9-4.4-3.1-4.2-6c0.3-3.5,2.8-5.2,6-5.7
			c3-0.5,5.2,0.9,6.6,3.4c0.5,0.8,1.3,2.3-0.1,3c-1.2,0.6-1.6-0.5-2.1-1.4c-1.2-2.2-3.1-3-5.4-2c-1.4,0.6-2.4,1.8-2.2,3.5
			c0.3,2.6,2.4,2.8,4.3,3.3c3.9,1.1,7.5,2.6,6.7,7.6C153.9,108.7,151.1,110.2,147.5,110.7z"/>
		<path class="st7" d="M173,98.5c0,3.2,0,6.3,0,9.5c0,1,0,2.1-1.5,2c-1.1-0.1-1-1.1-1-1.9s0-1.7,0-2.5c0-5.3-3-7.4-7.9-5.6
			c-2.4,0.9-0.9,3.1-1.3,4.7c-0.5,1.7,1.2,5.1-1.2,5c-3.1,0-1.3-3.4-1.4-5.2c-0.3-4.6-0.2-9.3-0.1-13.9c0-1.1-0.8-3.2,1.1-3.2
			c2.3-0.1,1.3,2.2,1.5,3.5c0.1,0.3,0,0.7,0,1c0,5.6,2,7,7.5,5.6c3.2-0.8,1.2-3.2,1.7-4.9c0.5-1.7-1-5,1.2-5c2.4,0,1.1,3.2,1.3,4.9
			C173.2,94.5,173,96.5,173,98.5z"/>
		<path class="st4" d="M35.4,110.3c-5,0-9.1-2.8-10.8-7.5c-1.7-4.8-0.5-9.9,3.4-13s8-3.7,12.4-1.1c1,0.6,2.9,1.1,1.8,2.8
			c-0.8,1.3-2,0.2-3-0.4c-4-2.2-7.6-1.7-10.6,1.8c-2.8,3.4-2.8,8.4,0.2,11.9s6.6,4.2,10.6,1.8c1-0.6,2-1.8,2.9-0.5
			c1.1,1.7-0.8,2.1-1.8,2.8C38.9,110,37,110.1,35.4,110.3z"/>
		<path class="st8" d="M206.6,98.6c0-1.7,0-3.3,0-5c0-7.3,0-7.3,7.4-6.6c1.1,0.1,2.5-0.3,2.4,1.5c-0.1,1.9-1.6,1.5-2.6,1.3
			c-3.8-0.6-5,0.8-4.6,4.6c0.2,2,0.5,3.1,2.8,2.9c1.1-0.1,2.6-0.3,2.8,1.3c0.1,1.9-1.6,1.4-2.5,1.3c-4.3-0.5-2.6,2.7-2.9,4.6
			c-0.4,2.6,0.7,3.5,3.3,3.4c1.2-0.1,3.6-1.2,3.6,1.1c0,2.2-2.4,0.8-3.7,1.1c-5,1-7-0.9-6.1-6C206.9,102.3,206.6,100.4,206.6,98.6z"
			/>
		<path class="st9" d="M51.8,99.8c0-2.3,0-4.7,0-7c0-0.8,0-1.7-0.3-2.4c-0.6-1.2-4.4-0.9-2.3-2.8c1.9-1.7,5.4-0.8,8.1-0.2
			c0.2,0,0.3,1.6,0.2,1.7c-5.1,1.6-2.3,5.8-2.7,8.7c-0.4,3.4-0.1,7-0.1,10.5c0,1.1-0.2,2-1.6,1.8c-1.1-0.1-1.2-0.9-1.2-1.8
			C51.8,105.4,51.8,102.6,51.8,99.8z"/>
		<path class="st10" d="M67.5,99.1c0,3,0,6,0,9c0,1.2,0,2.5-1.7,2.4c-1.5-0.1-1.2-1.3-1.2-2.2c0-6.2,0-12.3,0-18.5
			c0-1-0.2-2.1,1.3-2.1c1.3,0,1.6,0.9,1.6,2C67.5,92.8,67.5,95.9,67.5,99.1z"/>
		<path class="st11" d="M261.4,87.8c-4.9,1.1-7.5,4.6-8.9,9.1c-1-3.1-1-3.4,1.8-6.3c1.7-1.7,3.4-3.5,6-3.7
			C261.4,86.4,261.6,86.9,261.4,87.8z"/>
		<path class="st12" d="M261.4,87.8c-0.4-0.3-0.7-0.7-1.1-1c2.2-1.3,4.3-1.6,6.4,0.1C265.2,88.8,263.2,87.6,261.4,87.8z"/>
		<path class="st0" d="M216.9,21.9c4,6.2,7.4,12.8,12,18.4c5.5,6.6,5.7,12.4,0.6,19.2c-3.5,4.8-6.2,10.2-9.1,15.4
			c-1.2,2.2-2.1,2.7-3.6,0.2C212,67,207,59,202,50.9c-0.7-1.2-1.5-2.2,0.5-3.1c10.9-5,14.6-13.8,12.7-25.5
			C215.8,22.1,216.3,22,216.9,21.9z"/>
		<path class="st2" d="M191.1,19.1c3.7,0.3,8.1-1.3,11,3.1c1.6,2.4,2.2,5,0.9,7.5c-1.4,2.6-3.2,5.1-6.9,4.7c-1.1-0.1-2.3,0-3.5,0
			c-11,0.1-10.8,0.1-11-10.7c-0.1-3.8,1-5.1,4.7-4.6C187.9,19.3,189.4,19.1,191.1,19.1z"/>
		<path class="st13" d="M344.1,17.7c-1,0.5,0,2.2-1.9,2.3c-1.7,0-1.8-0.8-2.1-1.9c-0.6-1.9,1-1.8,1.9-1.9
			C342.9,16.1,344,16.4,344.1,17.7z"/>
		<path class="st14" d="M314.3,57.6c-0.8,0.5,0.1,2.3-1.9,2.2c-1.4-0.1-1.8-0.5-1.9-1.8c-0.1-1.3,0.4-2.5,1.5-2.6
			C313.1,55.4,314.2,56.2,314.3,57.6z"/>
		<path class="st15" d="M354.1,38.3c0.5,0.9,2.4,0.8,1.6,2.5c-0.4,0.8-0.1,2-2,1.8c-1.7-0.2-1.3-1-1.3-1.8
			C352.3,39.7,352.9,38.8,354.1,38.3z"/>
		<path class="st15" d="M359.8,55c0.8,0.9,1.8,1.5,1.6,2.7c-0.1,0.7,0.6,1.8-1.2,1.9c-1.7,0.1-1.7-0.7-2.2-1.7
			C357.1,56.2,359.2,56.4,359.8,55z"/>
		<path class="st16" d="M318,49.9c1,1,2.6,0.8,2.1,2.2c-0.3,0.9-0.6,2.1-2.3,2c-1.4-0.1-1.4-1.2-1.6-2C315.8,50.2,318,51.3,318,49.9
			z"/>
		<path class="st13" d="M324.2,22c1,0.3,2.1,0.2,1.7,1.4c-0.3,0.9-0.1,2.2-2,2c-1.5-0.2-1.4-1.1-1.4-1.9
			C322.4,22.2,323.5,22.2,324.2,22z"/>
		<path class="st17" d="M338,34.9c-0.8,0.7-0.3,2.3-2.2,2.1c-1.7-0.2-1.6-1.7-1.8-2.3c-0.1-0.8,1.3-1.5,2.2-1.3
			C336.9,33.4,338.3,33.5,338,34.9z"/>
		<path class="st18" d="M329.9,39c1.4,0.3,2.4,0.5,1.9,1.9c-0.3,0.7-0.1,1.7-1.8,1.6c-1.5-0.1-1.5-0.8-1.6-1.7
			C328.4,39.5,329.3,39.2,329.9,39z"/>
		<path class="st19" d="M310.2,34.9c-0.4-1.4,1-1.4,1.7-1.6c1-0.3,2.3,0.2,2.3,1.2c0,0.9-0.5,2.2-1.8,2.5
			C310.8,37.3,310.9,35.7,310.2,34.9z"/>
		<path class="st20" d="M306.8,53.9c-1.4,0.2-1.6-0.4-2-1.5c-0.5-1.5,0.5-2,1.2-2.1c1-0.1,2.5,0.1,2.1,1.7
			C307.9,52.8,308.4,54.5,306.8,53.9z"/>
		<path class="st21" d="M339.9,51.8c0.6-0.9,1.4-1.8,2.5-1.4c0.6,0.2,2.2,0.3,1.4,1.8c-0.4,0.8-0.3,1.7-1.8,1.7
			C340.2,54,340.6,52.5,339.9,51.8z"/>
		<path class="st22" d="M350,34.7c-0.8,1.1-0.6,2.5-2.4,2.2c-1.7-0.3-1.6-1.7-1.6-2.4c0-0.8,1.3-1.5,2.3-1.2
			C348.9,33.5,350.3,33.6,350,34.7z"/>
		<path class="st20" d="M330,53.9c-1.4,0.3-1.5-0.8-1.7-1.7c-0.4-1.7,1.1-1.8,1.9-1.9c0.6-0.1,2.2,0.3,1.9,1.5
			C331.8,52.6,331.8,54.4,330,53.9z"/>
		<path class="st23" d="M302.5,34.7c-0.5,1.1-0.4,2.3-2.1,2.2c-1.5-0.1-1.3-1-1.5-1.8c-0.6-1.8,0.7-1.9,1.8-1.9
			C301.5,33.4,302.7,33.6,302.5,34.7z"/>
		<path class="st15" d="M349.7,23.5c-0.6,0.6,0.5,2.2-1.3,1.9c-0.7-0.1-2.1,0.6-2-1.2c0-1.1,0.1-2.1,1.4-2.1
			C348.5,22.1,349.9,21.8,349.7,23.5z"/>
		<path class="st24" d="M355.9,51.8c-0.7,0.8-0.4,2.2-2.2,2.1c-1.5-0.1-1.5-1.1-1.7-1.9c-0.4-1.5,1.3-1.2,2-1.9
			C354.5,50.9,356,50.6,355.9,51.8z"/>
		<path class="st25" d="M359.9,21.3c1.3,1.2,2.2,2.5,0.7,4c-0.3,0.3-1.6,0.3-1.8,0C357.7,23.7,358.5,22.4,359.9,21.3z"/>
		<path class="st26" d="M337.6,58.2c-0.2,0.5,0,1.3-1.6,1.3s-1.4-0.7-1.5-1.5c-0.1-1.2,0.6-1.9,1.7-1.9
			C337.1,56.1,338.1,56.5,337.6,58.2z"/>
		<path class="st27" d="M341.9,42.3c-1.6,0.6-1.4-0.4-1.5-1.1c-0.1-1.3,0.4-2.2,1.9-2.1c0.8,0.1,1.6,0.5,1.4,1.5
			C343.5,41.7,343.6,43.3,341.9,42.3z"/>
		<path class="st28" d="M359.8,36.7c-2,0.4-1.1-1.7-2-2.1c0.8-0.5,1.5-1.2,2.3-1.2c0.5,0,2.2,0.2,1.6,1.6
			C361.3,35.6,361.5,37.5,359.8,36.7z"/>
		<path class="st29" d="M326.2,57.5c-0.9,0.7-0.3,2.2-1.9,2c-1.1-0.1-1.7-0.3-1.7-1.5c-0.1-1.2,0.4-1.9,1.6-1.9
			C325.1,56,325.8,56.6,326.2,57.5z"/>
		<path class="st30" d="M332,28.8c-0.8,0.9-0.2,2.4-1.8,2.3c-1.3-0.1-1.6-0.7-1.6-1.8c0-0.9,0.7-1.7,1.3-1.7
			C330.6,27.6,331.3,28.3,332,28.8z"/>
		<path class="st31" d="M318.1,31.1c-1.3,0-1.4-1.2-1.5-2.1c0-0.8,0.7-1.7,1.4-1.4c0.7,0.2,2.3,0.1,1.8,1.6
			C319.6,30,319.7,31.3,318.1,31.1z"/>
		<path class="st26" d="M330.1,19.7c-0.9,0.1-1.6,0.1-1.6-1.3s0.5-2.2,1.9-2.1c0.7,0,1.9,0.6,1.6,1.3
			C331.6,18.3,332.1,20.1,330.1,19.7z"/>
		<path class="st32" d="M349.7,57.5c-0.4,1,0,2.3-1.8,1.8c-0.7-0.2-1.4,0.2-1.5-1c0-1.3,0.3-2.3,1.8-2.2
			C349.1,56.2,349.6,56.9,349.7,57.5z"/>
		<path class="st33" d="M336,48c-1.3,0-1.6-0.9-1.4-1.9c0.1-0.9,0.7-1.6,1.6-1.3c0.8,0.2,1.2,0.9,1.3,1.9
			C337.5,47.5,337.3,48.2,336,48z"/>
		<path class="st25" d="M324,44.4c0.9,0.5,1.6,1.2,1.5,2.3c-0.1,0.6-0.1,1.3-1,1.3c-1.4,0-1.6-1-1.8-1.9
			C322.4,45,323.4,44.8,324,44.4z"/>
		<path class="st34" d="M312.4,48c-1.4,0-1.6-1.2-1.7-2.1c-0.1-0.9,0.7-1.5,1.6-1.2c0.7,0.2,2,0.1,1.7,1.2
			C313.8,46.7,313.9,48.1,312.4,48z"/>
		<path class="st35" d="M353.9,30.9c-1.1,0.1-1.4-0.4-1.4-1.4c0.1-1.1,0.5-2,1.6-1.9c0.6,0.1,1.2,0.9,1.2,1.9
			C355.3,30.5,354.9,31,353.9,30.9z"/>
		<path class="st36" d="M342,27.4c0.4,0.5,1.1,1,1.3,1.7s0.4,1.8-0.8,1.9c-0.9,0.1-2,0-2-1.5C340.6,28.4,341.1,28,342,27.4z"/>
		<path class="st37" d="M312.7,25.4c-1.3,0-2-0.7-2.1-1.8c-0.2-0.9,0.6-1.5,1.5-1.5c0.8,0,1.8,0,2,1
			C314.3,24.2,313.7,24.9,312.7,25.4z"/>
		<path class="st31" d="M300.8,25.3c-1.5,0.2-1.8-0.9-2-1.8c-0.2-1,0.6-1.4,1.5-1.4c1.1,0,2.1,0.2,1.9,1.6
			C302.1,24.4,301.8,25.4,300.8,25.3z"/>
		<path class="st38" d="M349.3,12.5c0.1,1-0.2,1.5-1.4,1.4c-1.1,0-1.5-0.3-1.4-1.4s0.5-2,1.6-1.9C348.8,10.6,349.5,11.5,349.3,12.5z
			"/>
		<path class="st26" d="M312.1,10.4c0.7,0.5,2.2,0.3,1.9,1.6c-0.2,0.7,0,2.1-1.4,2.2c-1.2,0.1-1.5-0.5-1.8-1.6
			C310.3,11,311.4,10.9,312.1,10.4z"/>
		<path class="st39" d="M265.9,99c-0.2,1.1-0.4,2.2-0.7,3.9c-1-1.4-1.1-3.5-3.1-3.1c-2.9,0.6-0.3,3.6-2.5,5.1c0-4.3,0-8.1,0-12
			c0.8-0.4,1.3,0.2,1.6,0.8c0.5,2.1,1.1,4.1,3.7,4.4C265.3,98.3,265.6,98.6,265.9,99z"/>
		<path class="st40" d="M260.7,94.1c-0.4-0.4-0.8-0.7-1.1-1.1c2.3-2.1,4.7-1.4,7-0.1c-0.2,0.8-0.7,1.4-1.4,1.8
			C263.6,95.2,262,95.3,260.7,94.1z"/>
		<path class="st41" d="M265.5,93.9c0.4-0.3,0.7-0.7,1.1-1c2.2,2.3,2.8,4.5-0.7,6.2c-0.5-0.1-1.1-0.2-1.6-0.3
			C264.4,97,265.4,95.6,265.5,93.9z"/>
		<path class="st2" d="M181.3,98.6c0-5.1,3.7-9.2,8.4-9.4c4.8-0.1,8.8,4.3,8.8,9.5c-0.1,5.2-3.7,9.2-8.4,9.3
			C185.2,108.1,181.3,104,181.3,98.6z"/>
		<path class="st2" d="M94.2,98.7c0.1,5.1-4,9.6-8.7,9.6c-4.5,0-8.6-4.4-8.7-9.2c-0.2-5.1,3.9-9.5,8.8-9.5
			C90.3,89.7,94.1,93.7,94.2,98.7z"/>
		<path class="st42" d="M14.7,91c0.7,9,0.7,9-4.9,8.5C10.2,96.4,12.8,94.7,14.7,91z"/>
		<path class="st43" d="M265.5,93.9c2.2,2.3,0.4,3.5-1.2,4.8c-4.4,0.9-3.8-2-3.6-4.6C262.3,93.5,263.9,93.6,265.5,93.9z"/>
	</g>
</g>
</svg>
