<?xml version="1.0" encoding="utf-8"?>
<!-- Generator: Adobe Illustrator 26.0.2, SVG Export Plug-In . SVG Version: 6.00 Build 0)  -->
<svg version="1.1" id="Laag_1" xmlns="http://www.w3.org/2000/svg" xmlns:xlink="http://www.w3.org/1999/xlink" x="0px" y="0px"
	 viewBox="0 0 2387.4 424.6" style="enable-background:new 0 0 2387.4 424.6;" xml:space="preserve">
<g id="_x33_VyDMS.tif">
	<g>
		<path d="M1850.1,0c2.2,0.5,4.5,1.1,6.7,1.6c26.4,5.5,45.2,21.9,60.6,42.7c20.7,27.8,32.5,59.5,39.1,93.1
			c11.4,57.6,10.5,114.9-6.4,171.5c-8.9,30-22,57.9-43.8,80.9c-15.3,16.2-33.2,27.5-56.2,29.3c-23.2,1.9-42.8-6.3-59.8-21.4
			c-22.3-19.7-36.2-45-46.3-72.5c-17.7-48.2-22.5-98.1-18.1-149c3.2-36.5,11.8-71.5,28.4-104.4c12.1-24,27.6-45.1,50.8-59.7
			c9.1-5.8,19.1-9.3,29.7-11.2c1.1-0.2,2.2-0.7,3.2-1C1842.1,0,1846.1,0,1850.1,0z M1892,211.2c0-7.3,0.3-14.7-0.1-22
			c-1.1-22.7-4.1-45.1-10.9-66.8c-4.3-13.7-9.5-27-19.7-37.7c-10.9-11.5-23.9-11.2-34.6,0.6c-10,11-15.3,24.5-19.5,38.4
			c-11.1,36-12.8,73-10.6,110.2c1.5,25.7,5.4,51,14.5,75.2c4.3,11.4,9.6,22.4,19.1,30.6c8.9,7.7,18.5,7.8,27.5,0.4
			c10.3-8.5,15.8-20,20.3-32.1C1889.5,276.7,1892.5,244.2,1892,211.2z"/>
		<path d="M1155.6,198.8c0,74.2,0,148.3,0,222.7c-21.5,0-42.5,0-63.8,0c0-131.8,0-263.7,0-396.1c1.7,0,3.3,0,4.9,0
			c23.5,0,47,0.1,70.5-0.1c3.6,0,5.2,1.1,6.4,4.5c23.8,64.4,47.7,128.8,71.6,193.2c0.6,1.5,1.2,3,2.6,4.3c0-67,0-134,0-201.5
			c21.7,0,42.9,0,64.3,0c0,131.9,0,263.6,0,395.9c-3.7,0-7.2,0-10.6,0c-17.7,0-35.3-0.1-53,0.1c-4,0.1-5.7-1.2-7.2-4.9
			c-27.5-71.4-55.2-142.7-82.9-214c-0.6-1.5-1.2-2.9-1.9-4.4C1156.3,198.7,1155.9,198.8,1155.6,198.8z"/>
		<path d="M0,421.6C0,289.5,0,157.8,0,25.5c1.9,0,3.7,0,5.4,0c39.3,0,78.6-0.6,117.9,0.2c33.2,0.7,59.3,14.8,74.8,45.4
			c4.9,9.7,6.5,20.3,6.6,31c0.1,23,0.1,46,0,69c-0.1,22.5-11,34.8-33.3,38.2c-2.3,0.3-4.8,0.6-6.7,1.6c-1.5,0.8-3.5,3.3-3.2,4.2
			c0.7,1.6,2.8,3.3,4.5,3.7c3.9,0.8,8,0.3,11.9,1c17,3.2,26.3,14,26.7,31.6c0.4,19.7,0.1,39.3,0.1,59c0,18.5-0.3,37,0.1,55.5
			c0.3,15.2-7,26.4-17.9,35.7c-15.7,13.4-34.2,19.9-54.6,20.1c-43.1,0.3-86.3,0.1-129.4,0.1C2.1,421.8,1.3,421.7,0,421.6z
			 M78.3,345.6c1.9,0.1,3.5,0.2,5.1,0.2c10.1,0,20.3,0,30.4,0c12.4,0,19.3-6.4,19.5-18.9c0.3-19.5,0.2-38.9,0-58.4
			c-0.1-9.4-4.4-14.8-13.4-17.5c-13.7-4-27.6-1.2-41.6-2.1C78.3,281.5,78.3,313.4,78.3,345.6z M78.4,98.3c0,29,0,56.2,0,83.4
			c0.7,0.2,1,0.4,1.3,0.4c10.5,0,21-0.3,31.5,0.2c16.8,0.8,22.3-10.9,22.3-22.1c0-13.5,0.1-27,0-40.5c-0.1-10.3-4.1-16.8-14.1-18.3
			C106,99.3,92.3,99.2,78.4,98.3z"/>
		<path d="M584.7,421.8c-3.5,0-6.3,0-9,0c-20.5,0-41-0.1-61.5,0.1c-4.2,0-6-1.2-7.5-5.1c-22-59.3-44.1-118.5-66.2-177.7
			c-0.7-1.8-1.5-3.5-3.1-5.1c0,62.4,0,124.7,0,187.4c-25.4,0-50.3,0-75.6,0c0-131.7,0-263.4,0-395.4c0.9-0.2,2-0.5,3.1-0.5
			c38.5,0.1,77-0.5,115.4,0.7c26.6,0.8,50.5,10.1,68.3,31.3c11.9,14.2,18,30.9,21.3,48.8c4.7,25.3,4.1,50.4-4.1,75
			c-7.9,23.9-23,41.7-45.3,53.5c-1.6,0.8-3.2,1.8-5,2.8C538.6,298.9,561.5,360,584.7,421.8z M437.6,196.7c9.4-0.8,18.3-0.7,26.9-2.3
			c19.6-3.7,30.3-14.3,33.1-34.2c1.7-11.7,1.5-23.9,0.7-35.8c-0.8-10.7-5.7-20.3-14.8-26.7c-13.8-9.8-29.7-10.1-45.8-9.7
			C437.6,124.2,437.6,159.8,437.6,196.7z"/>
		<path d="M699.7,421.6c-28.5,0-56.4,0-84.7,0c0-131.8,0-263.5,0-395.7c27.9,0,56,0,84.6,0c0,41.9,0,83.7,0,125.6
			c0.4,0.1,0.8,0.2,1.2,0.3c0.6-1.6,1.3-3.2,1.9-4.8c14.6-38.9,29.3-77.8,43.7-116.8c1.3-3.5,2.9-4.8,6.7-4.8
			c24.2,0.2,48.3,0.1,72.5,0.1c1.5,0,2.9,0,5.2,0c-1,2.3-1.6,4.1-2.5,5.8c-26,53.4-51.9,106.8-78,160.2c-1.6,3.3-1.7,6-0.5,9.4
			c25.7,71.9,51.4,143.8,77,215.7c0.5,1.5,1,3.1,1.6,5c-28.5,0-56.5,0-85,0C729.3,363,715,304.4,700.8,245.8c-0.4,0-0.7,0.1-1.1,0.1
			C699.7,304.4,699.7,362.8,699.7,421.6z"/>
		<path d="M2387.3,25.8c-1,2.4-1.8,4.4-2.7,6.3c-24.9,52.8-49.8,105.6-74.9,158.3c-2,4.2-2,7.5-0.5,11.7
			c25.6,71.2,51,142.5,76.5,213.7c0.6,1.7,1.1,3.4,1.8,5.6c-29.2,0-58.1,0-87.2,0c-14.1-58.1-28.3-116.2-42.4-174.2
			c-0.4,0-0.8,0.1-1.2,0.1c0,58,0,116,0,174.2c-27.9,0-55.1,0-82.6,0c0-132,0-263.7,0-395.7c27.4,0,54.6,0,82.6,0
			c0,41.9,0,83.5,0,125.2c0.4,0.1,0.8,0.1,1.2,0.2c2.4-5.9,4.8-11.9,7.1-17.8c13.5-34.4,27-68.7,40.3-103.1c1.5-3.8,3.4-4.8,7.3-4.8
			c23.2,0.2,46.3,0.1,69.5,0.1C2383.5,25.5,2385.1,25.7,2387.3,25.8z"/>
		<path d="M1040.2,421.6c-59.7,0-119,0-178.8,0c0-132,0-263.7,0-395.7c59.7,0,119.2,0,178.9,0c0,24.4,0,48.5,0,73.2
			c-32,0-63.9,0-96.1,0c0,25.6,0,50.7,0,76.2c32.1,0,63.8,0,96,0c0,17,0,33.6,0,50.6c-31.8,0-63.7,0-95.9,0c0,37.9,0,75.3,0,113
			c32.1,0,63.9,0,96,0C1040.2,366.6,1040.2,394,1040.2,421.6z"/>
		<path d="M1522,106.8c-11.9-6.2-23.2-12.8-35.1-18.1c-11.1-5-23.2-6.3-35.2-3.3c-17.7,4.3-26.6,16.5-29.4,33.8
			c-2.9,18.1,3,33.4,14.7,46.9c11.1,12.9,25.4,21.9,38.9,32c10,7.5,19.8,15.2,29.6,22.9c21.8,17.1,34.4,39.7,37.5,67
			c4.3,37.6-6.1,71.2-30.7,100.1c-14.5,17.1-33.6,26.8-55.1,32.2c-30.7,7.7-60.3,5.2-88.8-9c-7.1-3.5-10.6-7.3-10.2-16.1
			c0.9-19.8,0.3-39.6,0.3-59.5c0-1.6,0-3.2,0-4.7c7.3,5.1,14,10.6,21.4,14.8c17.6,10,36.3,12.1,55.9,5.9
			c31.8-10.1,42.9-54.5,16.1-76.2c-13.9-11.3-28.9-21.3-43.5-31.7c-7.6-5.4-15.7-10.1-23.2-15.6c-14.6-10.7-23.8-25.5-30-42.1
			c-14.7-39.5-13.1-78.6,6.4-116c18.6-35.8,49-52.4,89.3-51.6c23.5,0.5,46,4.4,67.2,14.6c1.6,0.8,3.8,2.8,3.8,4.3
			C1522.1,60.6,1522,83.9,1522,106.8z"/>
		<path d="M1731.1,23.3c0,19.4,0,38.2,0,57.5c-21.3,0-42.4,0-63.9,0c0,113.8,0,227,0,340.7c-27.8,0-55.2,0-83,0
			c0-113.4,0-226.6,0-340.5c-19.3,0-38.2,0-57.4,0c0-18.7,0-36.7,0-55.5C1594.8,24.7,1662.7,24,1731.1,23.3z"/>
		<path d="M237.2,25.8c27.4,0,54.6,0,82.2,0c0,131.8,0,263.5,0,395.6c-27.2,0-54.6,0-82.2,0C237.2,289.6,237.2,157.9,237.2,25.8z"/>
		<path d="M2134.1,18.7c0,23.7,0,47,0,70.4c-26.8-5.7-42,9.7-54.1,29.9c-12.4,20.6-18.3,43.5-21.6,67c-5.4,39.5-1.4,78.1,12.6,115.4
			c5.2,13.8,12.3,26.6,22.7,37.2c7.2,7.3,15.5,12.9,26,13.5c4.5,0.3,9.2-1.5,14.3-2.4c0.1,0.6,0.3,1.9,0.3,3.3
			c0,20.7-0.1,41.3,0.1,62c0,3.9-1.4,5.2-4.9,5.8c-17.4,2.9-33.4-2-48.6-9.4c-26-12.7-44.6-33.4-59-57.9
			c-21.2-36-31.4-75.3-34.1-116.7c-3.1-47.3,4.9-92.6,25.4-135.3c12.7-26.3,29.9-49.2,54.4-65.8c18.9-12.8,39.9-17.8,62.4-17.3
			C2131.2,18.3,2132.4,18.5,2134.1,18.7z"/>
	</g>
</g>
</svg>
