<?xml version="1.0" encoding="utf-8"?>
<!-- Generator: Adobe Illustrator 25.4.1, SVG Export Plug-In . SVG Version: 6.00 Build 0)  -->
<svg version="1.1" id="Laag_1" xmlns="http://www.w3.org/2000/svg" xmlns:xlink="http://www.w3.org/1999/xlink" x="0px" y="0px"
	 viewBox="0 0 349 140" style="enable-background:new 0 0 349 140;" xml:space="preserve">
<style type="text/css">
	.st0{fill:#FFFFFF;}
</style>
<g id="wCfGem_00000158742368191411359020000004782379246864213134_">
	<g>
		<path class="st0" d="M249.4,49.2c-5.1-1.8-6.2-4.9-5-9.7c0.7-2.9,0.3-6.3-0.4-9.4c-3.1-14.9-15.5-25.4-30.2-26
			c-15.4-0.6-28.4,8.7-33.1,23.8c-2.3,7.6-4.4,15.2-6.8,23.6c-6.5-4.2-12.5-8-18.3-11.9c-12.2-8.2-24-16.9-36.4-24.6
			C98.9,2.2,76.7-3.1,52.8,1.1C19.7,6.9-0.5,36.6,6.7,68.2c6.9,30,36.9,49,67.1,42.1c17.3-4,30.6-13.3,35.2-31.5
			c2.4-9.4,2.7-19-6.5-25.8c13.6-8.5,15.6-32.1-5.1-40c-8.6-3.3-17.3-4.8-26.4-4.3c-13.4,0.8-24.7,5.5-31.5,17.8
			c-3.9,7.1-4.3,14.3,0.2,21.3c4.9,7.5,12.5,8.9,20.6,8.7c1.2,0,2.3-1.7,3.5-2.6c-3.5-1.3-6.3-1.4-9.1-1.6
			c-8.1-0.5-14.4-7-14.2-15.1c0.2-8.8,5.1-15.1,12.4-19.3c13-7.4,26.7-7.2,40.5-2c5,1.9,7.3,5.8,6.6,11.1c-0.6,4.8-1.5,9.5-2.8,14.2
			c-1.5,5.1-4.1,9.4-9.5,11.5c-1.1,0.4-1.7,2.1-2.9,3.6c10.5,1.5,11.8,3.2,11,13.2C93.6,93.9,75,109,50.7,106
			c-14.9-1.9-25.6-11.1-29-25.7c-3.9-16.8-2.3-33.2,5.6-48.6C36.7,12.9,52.3,3.2,73.4,4.7c9.5,0.7,19.2,2.7,28.1,6
			c20.3,7.4,36.6,21.6,53.8,34.1c0.1,0.1,0,0.6,0,1.1c-2.6,0.6-5.2,1.3-7.7,1.9c-5.2,1.2-5.2,1.2-6,3.9c6.8,0.2,7.5,1.1,5.6,7.8
			c-2.2,8-4.6,16-6.5,24.1c-0.9,3.7-3.7,6-8,5.3c-4.1-0.7-5.6-3.5-4.8-7.3c0.6-2.9,1.6-5.8,2.4-8.7c2.7-9.5,5.4-19,8.2-28.7
			c-13,1.4-22.3,4.4-23.5,7.3c7.1,0.5,7.6,1.2,5.6,8.3c-1.9,6.7-4,13.4-5.8,20.1c-3,11,4.4,19,15.6,16.7c6.7-1.3,13.1-4.1,20.1-0.1
			c2.5,1.5,6.6,0.2,10,0.2c-2.5,18.4-11.6,26-26.4,17.4c-0.1,0.3-0.2,0.6-0.1,0.9c0.3,0.6,0.7,1.1,1.1,1.7c5.4,6.3,12.4,8.5,20.2,7
			c7.8-1.5,13.1-6.5,15.4-14.1c4.4-14.8,8.6-29.7,13-44.6c0.4-1.2,0.9-2.3,1.4-3.6c1.5,0.6,2.5,1.2,3.7,1.4c5.1,0.9,5.6,3.5,4.1,8.2
			c-4.2,13.5-8,27.1-11.9,40.7c-2,7-5.8,12.9-11.8,16.8c-4.2,2.8-9.2,4.4-13.6,6.4c14.3,5.2,33.1-4.8,38.2-20.7
			c2.6-8.3,4.8-16.6,7.2-24.9c2-6.8,4-13.6,6-20.2c3.7,0,6.9,0,10.6,0c-1.1,3.9-2.1,7.6-3,11.2c-2.8,10.5,4.3,18.4,15.1,16.7
			c3.8-0.6,7.4-1.8,11.2-2.5c1.3-0.3,3-0.6,3.8,0c5.9,4.5,12,2.6,18.2,1.2c2.1-0.5,4.9-1.8,6.2-0.9c6.6,4.7,13.1,1.8,19.7,0.5
			c2.1-0.4,4.7-0.4,6.5,0.5c9.2,4.5,21.5-0.3,24.6-10c1.8-5.7,3.6-11.5,5-17.3c1-4.1,2.6-6.3,7.1-7.3c7.9-1.8,13.1-10.7,10.8-17.5
			c-0.8,1.1-1.5,2-2,2.9c-1.9,3.7-4.7,6.2-8.9,6.2c-4.1,0-6.5-2.7-8-6.4c-0.4-1.1-2.4-2.1-3.7-2.2c-2.6-0.1-5.1,0.7-7.7,0.8
			c-6.8,0.5-12.3,3.4-14.5,9.7c-3.8,10.7-6.5,21.8-10.1,34.1c-1.7-0.3-5.3,0.1-6.8-1.5c-1.5-1.7-1.8-5.6-1.2-8.1
			c5-18.5,10.4-36.8,15.7-55.2c0.5-1.8,0.9-3.7,1.6-6.5c-8.5,2.9-17,2.9-23.9,7.5c7.5,1.4,7.9,2,5.8,9.4c-0.9,3-1.8,6.1-2.6,9.1
			c-3.8,13.5-8.1,26.8-11.1,40.4c-1,4.5-2.6,5.8-6.3,5.1c-3.9-0.8-5.4-3.6-4.3-7.5c1-3.5,2-7,3-10.6c2.5-8.7,5-17.5,7.8-27.3
			C259.2,45.8,253.2,44.2,249.4,49.2z M94.2,21c-0.9-0.4-1.6-0.8-2.4-0.9C83,18.7,76.7,22.7,74,31.6C69.6,46.4,65.5,61.3,60.9,76
			c-3.7,11.9-16.1,15.2-25.4,7.2c-0.6-0.5-1.3-1.1-2.7-2.2C37,90.8,43.7,95.2,53,95.2c9.4-0.1,17-5.8,20.6-16
			c2.3-6.6,3.8-13.4,6.1-20C84.1,46.4,85.1,32.3,94.2,21z M333.8,96.8c3.7-0.1,7-3.4,6.8-7.1c-0.1-3.8-3.4-6.8-7.2-6.7
			c-3.8,0.1-6.8,3.3-6.8,7.1C326.8,93.9,330,96.9,333.8,96.8z"/>
		<path d="M249.4,49.2c3.8-5,9.8-3.4,15.7-5.8c-2.8,9.9-5.3,18.6-7.8,27.3c-1,3.5-2,7-3,10.6c-1.1,4,0.5,6.8,4.3,7.5
			c3.7,0.7,5.3-0.6,6.3-5.1c3.1-13.6,7.3-27,11.1-40.4c0.9-3,1.8-6.1,2.6-9.1c2.1-7.4,1.7-8-5.8-9.4c7-4.6,15.4-4.5,23.9-7.5
			c-0.7,2.8-1.1,4.7-1.6,6.5c-5.3,18.4-10.7,36.8-15.7,55.2c-0.7,2.5-0.4,6.4,1.2,8.1c1.5,1.6,5.2,1.2,6.8,1.5
			c3.6-12.2,6.3-23.3,10.1-34.1c2.2-6.3,7.8-9.3,14.5-9.7c2.6-0.2,5.2-0.9,7.7-0.8c1.3,0,3.2,1.1,3.7,2.2c1.6,3.8,3.9,6.4,8,6.4
			c4.2,0,7.1-2.5,8.9-6.2c0.5-1,1.2-1.8,2-2.9c2.3,6.7-2.9,15.7-10.8,17.5c-4.5,1-6.1,3.3-7.1,7.3c-1.4,5.8-3.1,11.6-5,17.3
			c-3.1,9.7-15.4,14.5-24.6,10c-1.8-0.9-4.4-0.9-6.5-0.5c-6.6,1.3-13.1,4.1-19.7-0.5c-1.2-0.9-4.1,0.4-6.2,0.9
			c-6.2,1.5-12.3,3.3-18.2-1.2c-0.8-0.6-2.6-0.2-3.8,0c-3.7,0.8-7.4,1.9-11.2,2.5c-10.7,1.7-17.8-6.2-15.1-16.7c1-3.6,2-7.3,3-11.2
			c-3.7,0-6.8,0-10.6,0c-2,6.6-4,13.4-6,20.2c-2.4,8.3-4.6,16.7-7.2,24.9c-5,16-23.9,25.9-38.2,20.7c4.4-2,9.3-3.6,13.6-6.4
			c6-3.9,9.9-9.8,11.8-16.8c3.9-13.6,7.7-27.2,11.9-40.7c1.5-4.6,1-7.3-4.1-8.2c-1.1-0.2-2.2-0.8-3.7-1.4c-0.5,1.3-1.1,2.4-1.4,3.6
			c-4.3,14.9-8.5,29.8-13,44.6c-2.3,7.6-7.6,12.7-15.4,14.1c-7.8,1.5-14.9-0.7-20.2-7c-0.4-0.5-0.8-1.1-1.1-1.7
			c-0.1-0.2,0.1-0.6,0.1-0.9c14.9,8.6,23.9,1,26.4-17.4c-3.4,0-7.5,1.2-10-0.2c-7-4.1-13.4-1.3-20.1,0.1C119.1,99,111.7,91,114.7,80
			c1.8-6.7,3.9-13.4,5.8-20.1c2-7.1,1.6-7.8-5.6-8.3c1.2-3,10.5-5.9,23.5-7.3c-2.8,9.7-5.5,19.2-8.2,28.7c-0.8,2.9-1.8,5.7-2.4,8.7
			c-0.7,3.8,0.7,6.6,4.8,7.3c4.4,0.7,7.1-1.6,8-5.3c1.9-8.1,4.3-16.1,6.5-24.1c1.9-6.7,1.2-7.6-5.6-7.8c0.8-2.7,0.8-2.7,6-3.9
			c2.6-0.6,5.2-1.3,7.7-1.9c0-0.5,0.1-1,0-1.1c-17.2-12.5-33.5-26.7-53.8-34.1c-8.9-3.2-18.6-5.3-28.1-6
			c-21.1-1.5-36.7,8.2-46.2,26.9c-7.8,15.4-9.5,31.8-5.6,48.6c3.4,14.6,14.1,23.8,29,25.7c24.3,3,42.9-12.1,45-36.5
			c0.8-10-0.4-11.7-11-13.2c1.1-1.5,1.8-3.1,2.9-3.6c5.4-2.1,8.1-6.4,9.5-11.5c1.3-4.6,2.2-9.4,2.8-14.2c0.7-5.2-1.6-9.2-6.6-11.1
			c-13.7-5.2-27.4-5.4-40.5,2c-7.3,4.1-12.2,10.5-12.4,19.3c-0.2,8.1,6.1,14.6,14.2,15.1c2.8,0.2,5.6,0.3,9.1,1.6
			c-1.2,0.9-2.3,2.6-3.5,2.6c-8.1,0.2-15.7-1.3-20.6-8.7c-4.6-7-4.2-14.2-0.2-21.3C46.4,14.1,57.7,9.4,71.1,8.6
			c9.1-0.5,17.8,1,26.4,4.3c20.7,7.9,18.7,31.5,5.1,40c9.2,6.8,8.9,16.4,6.5,25.8c-4.6,18.2-17.9,27.5-35.2,31.5
			c-30.2,7-60.3-12-67.1-42.1c-7.2-31.6,13-61.3,46.1-67.1c23.9-4.2,46.1,1.1,66.5,13.8c12.4,7.7,24.3,16.4,36.4,24.6
			c5.9,3.9,11.8,7.7,18.3,11.9c2.4-8.3,4.5-16,6.8-23.6c4.6-15.1,17.6-24.4,33.1-23.8c14.7,0.6,27.1,11.1,30.2,26
			c0.6,3,1.1,6.5,0.4,9.4C243.3,44.3,244.3,47.5,249.4,49.2z M208.1,64.3c9,1.6,10.2,1,12.7-6.5c2.5-7.5,7.5-11.8,15.5-13
			c1.4-0.2,3.2-2,3.6-3.5c2.8-11.2-4-23.2-15-27.2c-11.5-4.1-25.2,1.1-29.7,12.5c-3.9,9.8-6.3,20.2-9.5,30.7
			c3.5,1.3,6.5,2.5,9.7,3.7c0.6-2,1.1-3.4,1.5-4.8c2.3-7.8,4.5-15.6,6.9-23.4c2-6.3,7.3-10,13.5-9.7c5.9,0.3,10.4,4,11.9,9.8
			c-6-3.3-10.6-2.6-12.3,2.4C213.7,44.8,211.1,54.4,208.1,64.3z M248.1,55.6c-8.8-4.2-12.2-2.8-14.6,5.6c-1.8,6.2-3.7,12.4-5.4,18.7
			c-1.4,4.9,0.3,8.3,4.2,9c4.3,0.7,7.7-1.8,8.3-6.2c0.3-1.8,0.8-3.6,1.3-5.3C243.9,70.2,246,63,248.1,55.6z M163.4,49.8
			c-3.2,11.3-6.3,21.8-9.1,32.3c-0.4,1.4,0.2,3.4,1,4.6c2.2,3.3,7.2,3.1,8.3-0.4c3.1-10.3,6-20.6,9-31.1
			C169.6,53.5,166.9,51.9,163.4,49.8z M313.6,53.7c-1.1,1.3-3,2.5-3.5,4.1c-2.6,7.9-5.1,15.9-6.9,23.9c-0.4,1.9,1.4,5.3,3.2,6.3
			c1.4,0.8,4.5-0.4,6.5-1.5c1.3-0.7,2.1-2.6,2.6-4.1c2.2-6.8,4.2-13.6,6-19.4C318.6,59.7,316.4,57.1,313.6,53.7z"/>
		<path d="M94.2,21c-9.1,11.3-10.1,25.3-14.5,38.1c-2.3,6.6-3.8,13.4-6.1,20c-3.6,10.2-11.2,15.9-20.6,16c-9.2,0.1-16-4.4-20.2-14.1
			c1.4,1.2,2,1.7,2.7,2.2c9.4,8,21.7,4.6,25.4-7.2c4.6-14.7,8.7-29.7,13.1-44.5c2.7-8.8,9-12.8,17.7-11.5
			C92.5,20.2,93.2,20.7,94.2,21z"/>
		<path d="M333.8,96.8c-3.8,0.1-7.1-3-7.1-6.7c-0.1-3.8,3-7,6.8-7.1c3.8-0.1,7,3,7.2,6.7C340.8,93.4,337.6,96.7,333.8,96.8z
			 M339.8,91.2c0-0.8,0-1.6,0-2.5c-2-1.4-3.9-3.6-6.1-4c-3.2-0.6-5.3,1.8-5.4,5.1c-0.1,3.3,2,5.7,5.2,5.2
			C335.8,94.7,337.7,92.6,339.8,91.2z"/>
		<path class="st0" d="M163.4,49.8c3.5,2.1,6.2,3.7,9.2,5.5c-3,10.4-5.9,20.8-9,31.1c-1,3.4-6.1,3.7-8.3,0.4c-0.8-1.2-1.4-3.2-1-4.6
			C157.2,71.6,160.2,61.1,163.4,49.8z"/>
		<path class="st0" d="M339.8,91.2c-2.1,1.3-4,3.5-6.2,3.8c-3.3,0.5-5.3-1.9-5.2-5.2c0.1-3.3,2.1-5.7,5.4-5.1c2.2,0.4,4.1,2.6,6.1,4
			C339.8,89.6,339.8,90.4,339.8,91.2z"/>
	</g>
</g>
</svg>
