<svg xmlns="http://www.w3.org/2000/svg" viewBox="0 0 986.1 731.91"><path d="M692,45.37c-4.11.82-10,1.8-13.15,2.3-5.58,1-8.05,2-28.1,11.17-5.1,2.3-9.7,4.28-10.52,4.28-.66,0-4.44,2.13-8.54,4.93-3.95,2.63-7.56,4.93-8.06,4.93s-6.57,4.27-13.47,9.53-14.63,10.68-16.93,12.16c-11.18,7.07-34.35,34.35-45,52.76-5.1,9-3.62,9.53-21.37-7.4-14.13-13.64-27-23.34-37.8-28.6a131.51,131.51,0,0,1-18.9-13c-10.35-8.71-12.32-10-24.65-15.28A81.76,81.76,0,0,1,434,76.76,22.82,22.82,0,0,0,420.49,73c-4.77,0-7.89-.66-7.89-1.81,0-1.32-1.81-1.48-5.26-.82-3,.65-9.2.16-14-.82-9-2.14-9.36-2-27.61,5.91-2.63,1.15-9,3.78-14,5.75-12.82,5.1-36.65,23.34-45,34.35C299.7,124.91,289.34,140,289.34,141c0,.33-5.42,9.86-12,20.87-16.43,27.94-17.74,33.36-15.94,65.57.82,14,2,33.2,2.47,42.73.66,9.53,2,19.89,3.12,23,4.11,11.18,7.56,22.68,7.56,25.31,0,1.32,1.15,5.26,2.63,8.71s3.62,8.38,4.77,11.18c1.15,2.63,3.78,8.87,5.75,13.64a127.58,127.58,0,0,0,6.9,14.79c2,3.29,6.25,11.17,9.53,17.58,9,17.26,14.47,25.48,23.34,34.52,4.44,4.43,12.33,15.61,17.75,24.81,5.42,9,13,19.89,16.6,23.83s15.12,17.09,25.47,28.93c10.52,12,24.33,26.29,30.74,31.88,6.57,5.59,19.22,16.93,28.26,25.31S469,574.23,476.7,580.81s14.29,12.49,14.79,13c2.3,3,22.68,19.72,26,21.37a65.87,65.87,0,0,1,9.87,7.39L533.4,628,563,626.82c16.27-.82,30.9-1.8,32.37-2.46,1.48-.49,4.61-4.11,7.07-7.72s11.18-13.32,19.56-21.7c33.36-33.2,69.19-73.13,88.91-99.59,7.23-9.53,14.63-18.74,16.44-20.55,3.45-3.28,17.74-18.9,25.47-28.1,4.27-4.77,14.79-20.05,14.79-21.2,0-.33,5.42-8.55,11.83-18.41,12.49-18.57,14.79-22.18,17.75-27.61,1-1.8,3.12-5.58,4.93-8.21,1.81-2.8,3.78-6.09,4.44-7.4s3.12-5.92,5.59-10c4.93-8.55,14-24.82,17.09-31.07,1.15-2.3,4.44-10,7.4-17.25,2.79-7.23,6.08-15.45,7.39-18.08,5.59-13,7.23-19.39,9.86-36.16,1.48-10,3.45-21.86,4.11-26.29,3.94-22.19,3.78-25.64-1.64-41.91-3-8.55-9-23.34-13.64-32.87-7.56-15.61-9.86-18.74-24.82-33.53-9-8.87-19.39-18.07-23.17-20.54A137.34,137.34,0,0,1,780.9,85.8,172.24,172.24,0,0,0,765,73.8c-4.93-3.29-10-8-11.34-10.85-1.48-2.63-3.62-4.76-4.93-4.76s-7.89-3.29-14.46-7.4c-11.51-6.9-12.82-7.4-23.5-7.23A136.2,136.2,0,0,0,692,45.37Zm30.4,158.76c11.67,5.91,25,11.83,26.79,11.83,3,0,5.59,6.41,4.28,10.35C749,240.77,705.63,288.6,691.33,295c-3.94,1.64-8.21,4.27-9.36,5.92-1.32,1.47-5.43,4.1-9.21,5.75-10,4.44-47,5.09-58.83,1a84.67,84.67,0,0,0-13.15-3.28c-4.27-.5-4.93-1.15-5.43-5.92-.32-3.12.66-8.87,2-13.15A54.35,54.35,0,0,0,600,269.86c0-4.6,1.15-9.86,2.79-12.49,5.59-8.87,14-18.4,15.45-17.58.82.66,1.48,5.09,1.48,10,0,10.36,6.24,23.51,15.78,33.69,5.91,6.09,17.91,11.34,25.8,11.34,5.42,0,19.06-8.54,27.44-17.25,5.76-5.92,5.76-6.08,5.43-19.39-.33-18.41-4.11-28.77-14-38.3a46.55,46.55,0,0,0-24-13.31c-2.13-.49-3.45-1.81-3.12-2.79,1.15-3.29,9.7-4.11,36.49-3.62,22.84.49,27.11,1,32.86,3.95Zm-314.72,1.15c6.9,3.45,6.08,6.08-2.63,10.35-9.37,4.6-23,17.26-27.12,25.31-2.13,4.11-3.12,9.53-3.12,16.76,0,9.37.66,11.34,5.75,18.41,3.13,4.44,7.56,11.5,9.86,15.78,2.14,4.27,5.76,8.87,7.73,10.19,4.11,2.95,15.45,3.45,21.36,1.15,8.39-3.29,40.76-40.27,40.76-46.68,0-1.48-2.63-6.9-5.75-12.16-6.57-10.85-7.23-15.28-2.63-15.28,5.26,0,21.86,25.63,26,40.26a119.07,119.07,0,0,1,3,14,84.2,84.2,0,0,0,4.43,15.45c4.28,10.85,3.29,12.49-7.23,12.49-4.76,0-13.8,1.64-20.21,3.45-23,6.57-69.52,7.89-80.53,2.14-2.47-1.32-5.1-2.3-6.08-2.3-6.58,0-34.19-27.45-44.21-43.72-7.23-12.16-8.06-14.46-8.06-23.17,0-8.88.5-10.19,5.43-14.79,5.75-5.59,17.58-12,21.86-12a17.9,17.9,0,0,0,6.9-2.3,75.23,75.23,0,0,1,6.9-3.29c1.32-.66,5.1-2.63,8.22-4.6C380.39,203.3,399,200.84,407.67,205.28ZM84.4,667.58c-11,5.92-16.93,17.59-16.93,33.2,0,23.17,13,37.8,33.53,37.8,11.5,0,21.2-4.77,26.62-13.31,2.14-3.45,3.95-7.07,3.95-8,0-2.8,3.29-1.81,4.44,1.15,5.75,16.59,28.1,25,45.36,17.09,7.39-3.45,11.83-7.73,16.43-16.11,3.95-7.23,3.95-29.58-.16-37.14-6.91-13-15.29-17.59-31.56-17.59-9.69,0-12.65.66-17.42,4a33.3,33.3,0,0,0-13,15.61c-1.81,4-1.81,4-6.25-3.61-7.06-11.84-14.3-16-28.26-16-7.56.17-13.32,1.15-16.77,3Zm25.8,10c3.29,1.64,6.08,4.6,6.58,6.9.82,3.29,2.13,4.11,7.89,4.44l7.06.49-.49,11-.49,11-6.08.5c-4.93.49-6.25,1.31-7.73,5.26-3.61,10.68-20.71,12.65-29.74,3.61-5.1-5.09-7.4-15.94-5.76-27.12,1.32-7.88,4.61-12.65,11.51-16.43,6.41-3.45,10.35-3.45,17.25.33Zm64.92-.5c6.41,3,9.53,7.24,12.49,16.77,2.3,8-.16,20.21-5.59,26.13-8.21,9.2-23.83,8.38-31.55-1.81-3.62-4.6-4.11-7.07-4.11-17.58.16-13.48,2.79-18.57,12.33-23.51,6.24-3.28,9.69-3.28,16.43,0Zm31.56-11.34c-.66.5-1.15,16.77-1.15,36.16,0,37.64.32,39.28,8.05,35,3.12-1.65,3.45-3.13,3.45-20.88V696.84l4.11,5.58c2.3,3.13,4.11,6.91,4.11,8.55a27.33,27.33,0,0,0,2.3,8.22,80.42,80.42,0,0,1,3.45,9.86c1,5.26,7.39,10,11,8.71,3.29-1.32,8.38-14.14,13.81-35,.32-1,1.31-2,2.13-2,2,0,3.78,10,3.45,20.38-.49,15.94-.65,15.78,5.75,15.78,4.61,0,5.92-.82,6.58-3.78.49-2,.66-18.08.49-35.67l-.49-32h-9c-7.72,0-9,.49-9.53,3.28a52.8,52.8,0,0,1-2.8,9c-1.15,3.12-3.78,11.34-5.91,18.08-5.1,17.09-8.55,21-10.69,11.83-.49-2.46-3.12-10.68-5.75-18.4-2.63-7.56-4.76-15.12-4.76-16.6,0-4.28-5.59-8.06-11.84-8.06C210.29,664.62,207.17,665.12,206.68,665.77Zm73.95,0c-1.48,1.32-1.48,65.09-.16,68.54.65,1.64,3,2.63,6.57,2.63,6.25,0,6.57-1,5.75-14.63-.65-9.37,1.32-21.53,3.29-21.53.82,0,1.81,1,2.14,2,5.42,20.87,10.51,33.69,13.8,35,3.62,1.31,10-3.45,11-8.71a80.42,80.42,0,0,1,3.45-9.86,26.56,26.56,0,0,0,2.3-8.55c0-1.64,1.81-5.26,4.11-7.72l3.95-4.6.16,18.4c0,16.44.33,18.57,3.12,20.22,1.81.82,4.44,1.15,5.76.65,2.3-1,2.63-5.25,2.3-36.64l-.5-35.5-6.24-.5c-3.45-.33-7.23.33-8.55,1.32-1.15,1-3.78,7.06-5.75,13.64s-4.6,14.46-5.75,17.58a63.23,63.23,0,0,0-3.12,10.19c-2,8.55-4.77,5.26-10.85-11.83-1-3.12-2.47-8.05-3.29-10.68-.82-2.8-2.3-7.56-3.45-10.68-1-3.13-2.13-6.74-2.46-7.89-.66-2.14-15.62-3-17.59-.83Zm76.59,0c-2.8,1-3.13,68.7-.5,70.35,2.8,1.8,51.12,1.31,52.92-.5.83-.82,1.32-3.28,1-5.42-.49-3.78-1-4-21-4.77l-20.54-.82V706.53l17.09-.49c18.08-.49,22-1.81,21.2-7.56-.49-3.29-1.81-3.45-19.39-4.27l-18.9-.82-.49-4.77a29.12,29.12,0,0,1,.33-8.55c1-3.94,1.47-3.94,19.88-3.94,18.57,0,18.9,0,19.89-4,.49-2.3.49-4.93-.17-5.75-1-1.81-47.16-2.46-51.27-.66Zm110.44.83a55.74,55.74,0,0,0-1.15,9.53l-.5,7.23-10.19.16c-7.72.17-11,1-13.64,3.29-18.24,16.44-9.69,51.77,12.33,51.77,3.94,0,7.56-.66,8.22-1.48.49-.82,2.79-1,5.42-.33,6.57,2,11.83-.49,11.83-5.42,0-5.75,3.29-7.07,6.41-2.79,7.73,10.18,23.34,13.31,34,6.57,3.13-1.81,5.59-4.11,5.59-4.93,0-2.63,3.12-1.64,10.19,3.45,11.34,8.22,27.28,6.24,35.66-4.27,6.08-7.89,3.78-15.62-6.73-22.52a21.38,21.38,0,0,0-9.37-2.79c-5.59,0-12.66-5.1-11-7.89,1.48-2.47,14.13-2.63,14.13-.33s6.57,4.6,10.19,3.62c3.94-1,3.78-5.43-.33-10.69-6.41-8.21-27.28-7.39-35.33,1.15-2.14,2.3-4.44,4.28-4.93,4.28s-3-2.3-5.59-5.26c-4.44-5.1-5.26-5.26-16.6-5.26-11.83,0-12,0-17.59,6.41-3.45,3.94-6.08,5.75-7.06,4.76-.82-.82-1.65-7.72-2-15.44l-.49-14-5.42-.5c-3.29-.33-5.59.33-6.08,1.65Zm-2.8,29.58c1.15,1.15,2,6.74,2,13.8,0,11.84,0,12-5.76,15.45-5.26,3.29-5.91,3.29-9.69.82-6.41-4.27-7.73-23-2.3-30.07,2.13-2.47,13.14-2.63,15.77,0Zm49.31,0a7.75,7.75,0,0,1,2,4.93c0,2.46-1.48,3-9.86,3s-9.86-.5-9.86-3q0-6.9,9.86-6.9C509.57,694.21,513,695,514.17,696.18Zm24,15.28a13,13,0,0,0,6.25,2.47c1.64,0,5.91,1.15,9.53,2.63,7.4,3,8.71,7.56,3.12,10.52-4.76,2.63-10.68.82-14-4.11-2.3-3.62-3.78-4.11-12.49-4.11s-10.68.66-15.61,4.93c-6.41,5.75-7.4,5.92-13.64,2.14-4.6-2.63-7.23-7.89-5.59-10.69.49-.65,8.55-1.31,17.91-1.31,13.48,0,17.1-.49,17.92-2.47,1.15-3.12,2.63-3,6.57,0Zm82.5-43.88c-10.35,6.08-14.62,12.33-17.42,25-2.46,11,.66,25,7.23,33.69,8.39,10.85,29.09,15.78,40.76,9.7,3.95-2,5.92-2.14,8.55-.82,11.17,5.75,22.51,2,24.65-8.38,1.81-8.88,5.1-11.18,16.76-11.18,9.21,0,10.69.49,13.64,4.27,2,2.47,3.46,5.76,3.46,7.56s1.8,4.77,3.78,6.91c3.45,3.28,5.26,3.78,13.14,3.45,5.1-.33,10-1,11-1.64.83-.5,1.65-6.91,1.65-14.14V709h10.52c9.69,0,10.84.33,14.79,5.09,2.3,2.8,4.27,6.08,4.27,7.23,0,3.13,5.26,14.47,7.4,15.95,1.31,1,8.71.16,10.35-1.15,1.31-1.16-7.4-23.18-10.85-27.29-1.8-2.46-1.48-3.45,2.8-8.54,4.43-5.1,5.09-6.9,5.09-15.78,0-9.86-.16-10-6.9-15l-6.9-5.09-21.37.49-21.53.5-.82,27.44c-.49,15-1.31,27.78-2,28.43-1.64,1.65-4.6-.65-4.6-3.28,0-1.32-1.15-5.1-2.63-8.55s-3.62-8.55-4.77-11.17c-1.15-2.8-4.76-11.18-7.89-18.9-5.59-13.48-6.08-14-11.5-14.47s-5.92,0-9,6.58c-1.81,3.94-4.44,10-5.75,13.64-10.69,28.59-14.79,37.3-16.27,34.84-.82-1.15-1.32-5.26-1.15-9.37a89.54,89.54,0,0,0,0-9.53c-.17-1.32-4.28-2-15.12-2H639.24l.49,5.26c.49,5.26.82,5.42,8.71,6.24,6.24.66,8.38,1.48,8.71,3.78.82,4.44-3.78,8.71-12,11-12.32,3.45-22.19-.82-27.28-12-6.24-13.81-2-29.59,9.86-35.5,3.62-2,8.38-3.45,10.35-3.45,5.59,0,14.3,5.09,16.6,9.86,1.65,3.12,3.29,4.1,7.73,4.1,10.19,0,7.39-9.69-5.59-19.06-5.75-4.27-7.72-4.77-18.9-4.77-8.87,0-14,1-17.26,3Zm153.5,10.19c5.1,2.8,6.91,7.4,4.77,12.16s-9.86,6.58-22.84,5.59l-7.4-.49-.49-7.23c-.82-11-.17-11.67,12-11.67,6.09,0,12.33.82,14,1.64ZM705.8,693.71c4.1,9.21,2.79,12.33-5.1,11.67-7.72-.66-8.38-3-3.61-13.47,3.78-8.55,4.27-8.55,8.71,1.8Zm105.67-25a44.83,44.83,0,0,0-10.19,10.69c-3.61,5.75-4.11,8.38-4.11,22,0,14.95.17,15.78,5.43,22.68,13,16.93,35,19.56,50.12,5.75,2-1.81,3.62-4.27,3.62-5.26,0-1.15,1.64-3.29,3.45-5.09,2.79-2.47,3.78-2.63,4.44-1,.32,1.31,2.95,4.93,5.75,8.05,16.93,19.4,44.86,15.12,57-8.71,5.09-9.86,4.43-27.11-1.48-36.81a44.8,44.8,0,0,0-11-11.83c-5.59-4-8.06-4.44-19.07-4.61-11.67,0-13,.33-19.72,5.43-3.94,3-8.05,7.39-9.2,9.86-2.8,5.75-6.41,5.59-9-.17-4.77-10.84-12.66-15.12-27.78-15.12-10.19,0-13,.66-18.24,4.11Zm28.1,9c3,1.81,6.08,5.1,6.91,7.4,1.31,3.45,2.63,4.11,8.21,4.11h6.58V699c0,13.31-.66,14.47-7.4,13.64-4.93-.65-5.91-.16-7.39,3.62-1.81,4.93-10.52,10.85-16,10.85-4.93,0-12.32-3.46-15.61-7.4-4.76-5.75-6.9-17.91-4.6-26.79,2.47-9,4.11-11.34,10.68-15.45,6.41-3.78,11.84-3.78,18.57.33Zm69.19,3c6.74,5.59,8.88,12.82,7.23,25.8-1.15,10.19-5.58,16.27-13.8,18.9A20.74,20.74,0,0,1,879,718.2c-3.13-4.27-3.78-7.07-3.78-17.58,0-13.81,1.48-16.77,11.5-23.18,6.41-4.11,14.3-3,22,3.29Zm26.13-14.13c-.49,1.8-.49,62.12.17,68,.16,2.46,4.44,4.1,7.56,3,2-.82,2.46-4.93,2.46-21.85,0-23.67,1-27,6.08-20.38,6.25,8.54,18.58,26.95,18.58,27.77,0,.49,2,3.45,4.43,6.58,5.59,7.56,9.37,9.53,13.64,7.23,3.29-1.81,3.29-3.13,3-36.65l-.49-34.84h-9.86l-.49,21.36c-.17,11.67-1,21.86-1.81,22.68-.66.66-7.89-8.55-15.94-20.54-7.89-12-15.29-22.35-16.27-23-2.8-2-10.36-1.48-11,.66Zm70.18,3.45c-5.75,5.09-6.41,6.24-6.41,14.13-.16,8.05.33,9.2,5.59,13.48,3.12,2.79,7.56,5.26,9.86,5.75,11.67,2.63,22.35,6.41,24.32,8.55,7.4,9.36-8.21,17.75-22.18,12a14.16,14.16,0,0,1-7.07-6.73c-2.14-5.26-6.74-7.07-12.49-4.94-4.27,1.65-5.1,5.1-1.81,8.55a59.74,59.74,0,0,1,4.93,6.74c6.58,10.19,27.78,14.3,40.6,7.72,12.16-6.24,16.59-19.06,10.35-29.58-2.79-4.77-13.81-10.68-23-12.16-10.35-1.81-16.93-5.42-16.93-9.7,0-3.78,3.29-6.41,11-8.54,4.93-1.32,15.12,3.61,16.93,8.21,1.65,4.28,4.93,5.92,9.7,4.61,6.74-1.81,2.46-14.14-6.9-20-4.44-2.63-8.39-3.46-17.92-3.46-11.5,0-12.65.33-18.57,5.43ZM826.26,744.5c-.66.65-1.15,2.63-1.15,4.27,0,2.3-1.31,3-5.59,3-6.9,0-8.54,3.28-4.11,8.87,2.14,2.63,3,5.43,2.31,8.06-.83,3-.17,4.27,3.12,5.75,3.61,1.64,4.44,1.48,6.08-1.48,1.64-3.12,2-3.12,4.6-.82,5.75,5.09,11.18,2.3,10.19-5.26a7.47,7.47,0,0,1,2.3-5.92,6.1,6.1,0,0,0,2.14-6.08c-.33-3.12-1.32-3.78-4.93-3.45-3.45.33-4.44-.33-4.93-3.29-.33-2.63-1.81-3.94-4.6-4.27-2.31-.33-4.77,0-5.43.66Z" transform="translate(-67.47 -43.53)"/></svg>