<svg xmlns="http://www.w3.org/2000/svg" viewBox="0 0 300.01 184.75"><path d="M295.27,155.05h.94c.48,0,1,.09,1,.7s-.57.75-1.2.75h-.74Zm-.71,4h.71v-2H296l1.24,2H298l-1.31-2a1.17,1.17,0,0,0,1.2-1.14v-.1c0-.88-.51-1.31-1.6-1.31h-1.76v4.55Zm-1.7-2.3a3.28,3.28,0,1,1,0,.15v-.16Zm-.71,0a3.93,3.93,0,1,0,4-3.89h0a3.91,3.91,0,0,0-3.93,3.88Zm-43.76-5.82v6.53H232.06v7.37h11.23a6.91,6.91,0,0,1,6.91,6.91h0v6.06a6.92,6.92,0,0,1-6.91,6.92h-19v-6.53h18.77v-6.83H231.83a6.91,6.91,0,0,1-6.91-6.91h0v-6.61a6.91,6.91,0,0,1,6.91-6.91h16.56Zm37.47,33.79H269.3a6.91,6.91,0,0,1-6.91-6.91h0v-20a6.91,6.91,0,0,1,6.91-6.91h16.58v6.53H269.53V165h16.35v6.53H269.53v6.68h16.35Zm-112,0H157.39a6.93,6.93,0,0,1-6.91-6.91v-20a6.93,6.93,0,0,1,6.91-6.91H174v6.53h-16.4V165h16.35v6.53H157.57v6.68h16.35ZM78.55,150.93H94.29a6.91,6.91,0,0,1,6.91,6.91h0v26.88H94.06V157.46H82.16v27.26H75V150.93Zm115.33,14h12.67v-7.52H193.88Zm19.81-6.21v5.83a6.9,6.9,0,0,1-6.07,6.86l6.69,13.26h-8l-5.92-13.21h-6.5v13.21h-7.14V150.93h20a6.91,6.91,0,0,1,6.91,6.91h0v.93Zm-96.13-7.84,8,28.11L134,150.93h8.14l-10.9,33.79H120l-10.45-33.79ZM0,157.84a6.91,6.91,0,0,1,6.91-6.91H24.65v6.53H7.14v20.73H24.65v6.53H6.91A6.91,6.91,0,0,1,0,177.81H0v-20Zm35.55,0a6.93,6.93,0,0,1,6.91-6.91H57.2a6.92,6.92,0,0,1,6.92,6.91v20a6.92,6.92,0,0,1-6.92,6.91H42.46a6.93,6.93,0,0,1-6.91-6.91Zm7.14-.38H57v20.73H42.69ZM145.24,25l9.15,28.26h29.72l-24,17.47L169.29,99l-24-17.47L121.29,99l9.1-28.27-24-17.47H136.1Zm55.4,39.93A55.41,55.41,0,1,1,145.23,9.48h0a55.4,55.4,0,0,1,55.4,55.4ZM145.24,0a64.89,64.89,0,1,0,64.88,64.9h0A64.88,64.88,0,0,0,145.25,0Z" transform="translate(0 0)" fill-rule="evenodd"/></svg>