<?xml version="1.0" encoding="utf-8"?>
<!-- Generator: Adobe Illustrator 26.0.2, SVG Export Plug-In . SVG Version: 6.00 Build 0)  -->
<svg version="1.1" id="Laag_1" xmlns="http://www.w3.org/2000/svg" xmlns:xlink="http://www.w3.org/1999/xlink" x="0px" y="0px"
	 viewBox="0 0 3158.9 2120" style="enable-background:new 0 0 3158.9 2120;" xml:space="preserve">
<g id="_x39_iWFYl.tif">
	<g>
		<path d="M1405.4,2120c-10.7-2-21.4-3.8-32-6.1c-82.6-17.8-149.1-59.4-194.3-132c-25.1-40.4-37.8-84.8-40.2-132.4
			c-2.6-51.6,6.3-100.9,29.9-147c34.5-67.6,88.4-113.9,159.6-138.8c91.7-32.2,182.5-28.3,269.1,17.1c83.4,43.7,133,113.8,147,206.9
			c12,79.3-3.8,153.3-53.1,218.2c-40.9,53.7-95.4,87.2-160.3,104.1c-14.8,3.8-30,5.7-45.1,8.5c-1.6,0.3-3,1.1-4.5,1.6
			C1456.1,2120,1430.8,2120,1405.4,2120z M1568.6,1822.2c-1.3-8.2-2.4-21.5-5.6-34.4c-10.5-41.7-34.2-72.5-76.1-86.7
			c-20.1-6.8-40.9-8.3-62.1-5.4c-41.2,5.6-72.9,25.8-90.8,63.5c-23,48.4-22.8,98-0.7,146.7c14.2,31.3,39,51.9,72.2,61.4
			c23.5,6.8,47.3,7,71.1,1.3c33.7-8,58.4-27.9,74.6-58.3C1565,1884.4,1568.9,1856.2,1568.6,1822.2z"/>
		<path d="M1613.4,0c10.5,1.2,20.9,2.6,31.4,3.6c93.4,8.2,181.9,33.9,264.2,78.6c174.1,94.6,290,237.2,347,427.2
			c12.1,40.3,19.4,81.5,23.7,123.4c3.5,33.9,4.6,67.8,3,101.8c-5.3,112-34,217.7-90.3,314.8c-103.1,177.8-255.1,291.1-454.8,339.7
			c-33.7,8.2-68,12.8-102.5,15.5c-33,2.6-66,2.9-98.8,0.9c-93.1-5.8-181.9-28.8-265.5-70.4c-140.3-69.8-246.2-174.7-317.8-314.1
			c-34.2-66.6-56.3-137.2-67.5-211.2c-7.2-47.6-9.8-95.5-7.1-143.4c5.5-100.1,30.5-195.1,76.8-284.2
			c70.6-135.8,174.5-238.4,310.9-307.6c67.6-34.3,139.2-56.7,214.4-66.8c20.8-2.8,41.7-4.2,62.5-6.4c1.6-0.2,3.1-0.9,4.6-1.4
			C1569.4,0,1591.4,0,1613.4,0z M2231.5,704.3c2-353.6-284.9-645.3-637.5-652.9c-364.2-7.9-665.1,286-666.8,649
			c-1.7,361.2,290.6,652.8,645.9,656C1940,1359.8,2233.4,1059.9,2231.5,704.3z"/>
		<path d="M265.8,2120c-10.7-2-21.5-3.7-32.2-5.9c-56.4-11.5-106.4-35.7-148.2-75.8c-42.4-40.8-68.7-90.5-79.3-148.1
			c-3.6-19.5-6.3-39.7-6.1-59.5c1.7-137.5,83.9-236.1,202.3-272.5c57.5-17.7,116-19.2,174.8-7.6c56.6,11.2,103,40.3,141.3,83
			c6.2,6.9,12.5,13.9,18.2,21.3c18.7,24.5,23,51.5,11.6,80c-11.3,28.1-32.7,45-62.8,49.3c-31.8,4.6-57.8-6.7-76.8-32.4
			c-21-28.4-48.5-46.9-83.1-52.6c-42.7-7.1-81.6,1.4-112.5,34.2c-16.5,17.5-25.5,38.8-29.9,62.2c-6.4,34.5-4.4,68.3,8.7,101.1
			c17.8,44.2,57.3,70.2,104.8,71.8c43.7,1.5,80-13.7,110.5-44.3c3.8-3.8,7.4-7.7,11.3-11.4c24.7-23,53.3-29.3,84.9-17.5
			c29.8,11.2,49.4,39.8,49.8,72c0.3,20.5-6.8,38.5-20.3,53.9c-48.7,55.8-109.2,89.5-183.4,97c-1.9,0.2-3.7,1.1-5.6,1.6
			C317.8,2120,291.8,2120,265.8,2120z"/>
		<path d="M2107.2,2120c-11.1-2-22.2-3.7-33.2-6c-74.6-15.7-136.4-51.9-181.3-114.6c-29.3-41-45.2-87.1-50-137.2
			c-4.9-51,1.1-100.5,21.7-147.5c34.2-77.9,93.5-128.1,173.4-154.7c48.5-16.2,98.4-19.4,148.9-14.2c46.2,4.8,88.9,19.3,126.9,46.6
			c25.3,18.3,47.1,40.3,65.7,65.3c36.3,48.7,6.8,118.4-53.5,126.7c-31.4,4.4-57.3-6.6-76.1-31.9c-21.3-28.7-48.9-47.2-83.8-53.2
			c-37.7-6.5-73,0.2-103.2,25.4c-16,13.4-26.9,30.5-33.3,50.2c-13.3,41.4-13,82.9,3.7,123.1c18.8,45.1,54.1,67.4,102.4,70.5
			c49.5,3.2,88.1-17.8,121-52.7c23.8-25.3,53.2-32.5,85.8-20.8c49.6,17.8,67.3,79.4,35,121.3c-19.7,25.5-44.1,46.2-71.4,63.4
			c-34.7,21.8-72.9,33.7-113.4,38.6c-2.5,0.3-5,1.2-7.5,1.9C2159.2,2120,2133.2,2120,2107.2,2120z"/>
		<path d="M2671,2120c-7.5-1.2-15-2.6-22.5-3.7c-59.8-8.6-113.3-31-158.9-71.3c-27.8-24.6-32.6-66.1-10.4-95.7
			c22.2-29.5,63.6-36.2,94.7-15.5c2.5,1.7,4.9,3.5,7.2,5.4c39.2,30.9,83.5,46.3,133.7,43.2c12.2-0.8,24.5-2.3,36.5-4.5
			c5.4-1,10.9-3.6,15.3-6.8c14.5-10.4,14.1-32.8-0.7-42.6c-5.7-3.8-12.4-6.7-19-8.5c-26.4-7-52.8-13.5-79.3-20
			c-30.8-7.5-61-16.5-89-32c-38.6-21.4-66.5-51.8-79-94.9c-7.1-24.3-8.4-49.2-6.2-74.3c3.6-40.2,18.1-75.5,48.5-103.3
			c17.7-16.2,38.3-27.6,60.8-35.6c27.5-9.9,56-14.6,85-15.8c46.7-2,92.4,2.7,136.3,20c33.4,13.2,62.5,32.8,87,58.8
			c17.8,18.9,23.6,41.4,16.3,66.5c-7.5,25.5-24.7,41.7-50.5,47.6c-22,5-42.4,0.2-59.8-14.7c-16.9-14.4-35.5-25.8-56.4-33.5
			c-27.2-10.1-55-12.7-83.4-6.7c-4.8,1-9.7,2.7-14,5.1c-17.8,9.7-20.5,33.7-4.3,45.9c7.7,5.9,17.4,10,26.8,12.7
			c19.5,5.6,39.3,9.9,59.2,14.3c32.9,7.3,65.4,15.5,96.1,29.7c16.7,7.7,32.4,17.1,46.6,28.8c32.1,26.4,49.3,60.7,52.7,101.8
			c2.2,26.7-0.2,53.3-7.7,79.1c-11.7,40-35.6,70.3-72,90.6c-25,14-52.1,21.6-80.3,26.1c-7.8,1.2-15.6,2.6-23.4,3.9
			C2728.4,2120,2699.7,2120,2671,2120z"/>
		<path d="M3158.9,1646c-5.1,6.5-9.4,8.3-15,6.2c-6.4-2.5-7.4-7.9-7.4-13.9c0-12.7,0.1-25.3-0.1-38c-0.1-4.3-0.4-8.7-1.3-12.9
			c-1.8-8.1-8.1-11.5-15.8-8.7c-7.8,2.8-11.6,8.9-12,16.8c-0.5,9-0.5,18-0.7,27c-0.1,5.7,0.2,11.3-0.1,17
			c-0.4,8.4-4.8,13.4-11.6,13.5c-7,0.2-11.7-4.4-11.9-13.1c-0.4-12.6-0.1-25.3-0.2-38c0-4,0.1-8-0.3-12c-0.9-7.6-4.1-11.2-9.8-12
			c-7.5-1-14.2,1.9-16.4,8.4c-1.9,5.6-2.9,11.6-3.2,17.5c-0.5,10-0.1,20-0.2,30c0,2.7,0.1,5.4-0.3,8c-1,7.1-5.7,11.3-11.8,11.2
			c-5.8-0.2-10.1-4.1-11.2-10.7c-0.3-2-0.3-4-0.3-6c0-20.3,0-40.6,0-60.9c0-0.3,0-0.7,0-1c0.3-9,3.2-13.5,9.3-14.4
			c6.1-0.9,9.6,2.1,13.4,11.5c8-6,15.9-11.6,26.6-11.5c10.5,0.1,18.7,4,25.2,12.8c2.8-2.3,5.2-4.4,7.8-6.3
			c10.7-7.7,22.2-8.3,34.1-3.5c6.8,2.8,10.6,8.6,13.5,15C3158.9,1600.7,3158.9,1623.3,3158.9,1646z"/>
		<path d="M826.4,1633.6c3.2-2.8,5.6-4.9,8-7.1c33.7-30.8,72.4-52.2,117.7-59.5c24-3.9,48.5-5.8,72.4,1.1
			c28.1,8.1,51.9,22.4,66.1,49.4c27.3,52.3-2.2,116.9-60,129.3c-11.4,2.4-23.8,0.7-35.7,0.1c-5.9-0.3-11.9-1.7-17.6-3.4
			c-21.3-6.4-41.6-2.2-61.3,6c-36.7,15.3-59.8,43.5-74,79.7c-8.8,22.5-13.9,46-14.4,70.1c-1,43-1.9,86-1.2,128.9
			c0.6,36.2-24.6,79-71.2,88.3c-61.3,12.2-107.3-35.1-108.1-83.8c0-2,0-4,0-6c0-127.7,0.1-255.3-0.1-383c0-26.5,8.4-49.2,27.7-67.2
			c24.8-23.3,54.3-30.7,86.9-21.2c33,9.6,53.7,32.1,62.3,65.5c0.5,1.9,1,3.9,1.4,5.8C825.5,1628.7,825.8,1630.6,826.4,1633.6z"/>
		<path d="M2994.6,1561.6c4.4,0.3,7.7,0.3,11,0.8c4.4,0.7,7.3,3.3,7.2,8.1c-0.1,4.3-2.8,6.7-6.8,7.4c-3.2,0.5-6.6,0.6-9.9,0.9
			c-0.5,1.1-1.2,1.9-1.2,2.8c-0.1,14.7-0.3,29.3,0.1,44c0.2,8.4,3,10.3,11.4,9.1c0.7-0.1,1.3-0.3,2-0.3c7.2-0.9,10.8,0.9,11.9,5.8
			c1,4.5-2.1,9-8.2,10.8c-8.8,2.6-17.8,3-26.6,0.5c-8-2.3-12.1-8.3-12.5-16.3c-0.7-14.3-0.9-28.6-1.2-42.9c-0.1-4.3,0-8.5,0-12.5
			c-10.4-2.8-13.1-4.9-12.8-9.8c0.5-7.2,6.6-7.3,12.8-8.9c0-4.7-0.1-9.6,0-14.5c0.1-2.7,0.4-5.3,0.9-7.9c1.2-6.2,5.3-9.9,10.7-9.8
			c5.2,0,10.2,4.1,11.1,9.8c0.6,3.9,0.3,8,0.3,12C2994.7,1554.1,2994.6,1557.7,2994.6,1561.6z"/>
		<path d="M2178.1,848.7c-6.1-24.6-24.1-35.9-44.6-44.5c-24.4-10.3-49.7-17.8-76.4-17.2c-15.6,0.3-31.1,2.7-46.6,4.1
			c-1.3,0.1-2.6,0.3-4.2,0.5c-2.4-3.3-4.6-6.6-7-9.7c-9.1-11.9-20.8-20.6-34.8-26c-34.2-13.2-69.1-16.2-104.8-7
			c-11.3,2.9-22.5,6-33.8,8.7c-4,1-8.9,3.6-11.7-1.5c-2.4-4.5,0.7-8.3,3.8-11.5c7.2-7.2,15.7-12.6,25.4-15.5
			c24.3-7.2,49.1-12,74.7-9.4c5.9,0.6,11.6,2.5,17.4,4.1c8.9,2.6,13.4,0.3,14.9-8.9c0.9-5.2,0.7-10.6,0.7-15.9
			c-0.2-14-0.6-27.9,3.9-41.5c2.7-8.1-0.6-15.5-7.7-20.1c-6.9-4.5-14.6-7.7-22.1-11.3c-3.9-1.8-8.3-2.8-12.1-4.8
			c-9.9-5.3-15.2-19.2-6.1-28.6c8.5-8.8,11.2-20,10.8-32.2c-0.3-9.2-4.3-15.4-12.6-18.5c-6.8-2.6-13.9-4.4-21-6.2
			c-16.6-4.3-19.5-13.7-7.9-26.3c1.6-1.7,3.3-3.4,5.1-4.7c15.9-11.7,22.8-28.5,25.1-47.2c1.6-13.3-4.8-22.1-19.2-21.9
			c-6.3,0.1-12.6,0.5-19,0.5c-6.7,0-12.3-2.8-16.7-7.7c-6.8-7.8-6.9-12.8-1-21.4c3.3-4.9,6.9-9.9,9-15.4
			c3.9-10.4-0.3-18.3-10.9-21.9c-3.1-1.1-6.5-1.3-9.7-2.1c-4.5-1.1-9.2-1.7-13.4-3.5c-9.6-4.1-12.4-11.9-7.8-21.2
			c2.8-5.6,6.9-10.7,9.7-16.3c2.5-5,5.2-10.3,5.9-15.7c1.5-12.9-6.8-21-19.8-20c-5.6,0.4-11.1,1.9-16.8,2.5c-7.5,0.8-10-1.2-9.6-8.8
			c0.5-8.6,2-17.2,2.9-25.8c0.7-7.3,1.4-14.6,1.5-21.9c0.2-11.7-6.6-19.1-20.9-18.4c-13.1,0.7-25.2,4.5-36.4,12.2
			c-20.7,14.2-28.6,13.3-45.8-4.8c-12.6-13.3-23.8-28-36.6-41c-11.4-11.6-23.6-22.6-36.5-32.5c-14.9-11.4-29.9-11.3-45.3-0.4
			c-7.8,5.5-14.8,12.4-21.4,19.4c-17.7,18.7-38.7,30.9-64.5,35.2c-8.2,1.3-14.7-0.6-19.8-6.3c-5.8-6.4-10.7-13.6-16-20.4
			c-6.5-8.4-12.5-17.4-19.8-25c-12.6-13.2-29.8-13.5-43.9-1.9c-3.3,2.7-6.6,5.7-9.2,9.2c-17.8,24.1-31.3,50.3-38.9,79.3
			c-2.4,9-2.4,18.3,3.5,26.7c6.7-1.2,9.7-6.4,13.7-10.1c7.3-6.7,15.1-12.4,25.2-13.1c38.3-2.7,59.2,28.1,56.3,52.7
			c-1.9,16.4-5.4,31.4-18.3,42.9c-15.8,14.3-48.9,15.9-65.2,2.3c-4-3.3-6.8-8.1-9.9-12.4c-1.5-2.1-2.5-4.5-3.8-6.9
			c-6.9,1.3-7.2,6.8-8.7,11.3c-4.9,14.5-9.6,29-14.5,43.5c-1.2,3.5-2.9,6.7-4.3,10.1c-7,17.2-18.1,30.9-33.9,40.8
			c-8.7,5.5-17.3,11.3-25.8,17.1c-19.9,13.3-36.7,29.8-50.8,49c-7.8,10.5-13.3,22.2-17.6,34.6c-4.6,13.2-10,26.1-15.9,38.7
			c-6.1,12.9-15.6,22.9-27.9,30.6c-16.4,10.3-32.4,21.1-48.2,32.2c-6.5,4.6-12.4,10.1-18.1,15.7c-6.2,6.2-10.8,13.4-12.2,22.4
			c-0.6,3.9-2.1,7.7-3.4,11.5c-5,14.6-2.2,27.4,8.4,38.7c8.8,9.4,19.6,15.9,30.9,21.8c9.1,4.8,18.4,9.3,27.4,14.4
			c14.6,8.3,27.6,18.5,36.8,33c6.4,10.1,16.8,13.9,28.1,14.9c12.7,1.2,25.3,0.2,37.6-3.1c28.1-7.6,45.9-26.6,55.6-52.9
			c7.6-20.6,14.1-20.3,30.7-15.1c20.5,6.3,27.8-1.5,32.8-19.3c2.6-9.1,3.5-18.2-1.2-27.2c-0.9-1.8,0.4-4.7,0.7-7.1
			c2.4,0.5,5.7,0.1,7.2,1.5c8.5,8.2,19.5,11.3,29.9,15.6c10.5,4.4,20.8,3,28.5-5.4c6.5-7,12.5-14.8,16.9-23.3
			c15.4-29.6,25.6-60.7,23.8-94.7c-0.3-5.3-0.2-10.7,0.3-16c1-12,11.1-19,22.6-15.5c12.8,3.9,25.7,7.1,39.1,7.2
			c1.3,0,2.6,0.6,3.9,0.6c20.7,0,30.4-6.4,33.7-27.3c0.8-4.9,0.7-10,0.7-15c0-13-0.5-26-0.3-39c0.2-11-3.1-19.5-14.1-23.9
			c-2.9-1.2-5.5-3.7-7.8-6c-2.3-2.3-3.3-5.2-0.7-8c2.3-2.5,5-4.6,8.7-2.6c2,1.1,4.1,2.2,5.8,3.8c16.1,14.5,39.1,7.5,49.2-4.8
			c6.1-7.5,11-15.9,16.4-23.8c2.6-3.7,5.2-7.4,7.6-10.8c1.7,0.5,2.6,0.5,2.9,0.9c11.5,14.3,10.4,38.5-2.5,51.1
			c-6,5.8-12.4,11.1-18.9,16.3c-14.9,11.9-23,27.5-24.5,46.3c-1.4,17.6-1.8,35.2-2.6,52.8c-0.6,13.8-5.2,18.8-19.2,20.6
			c-12.5,1.5-24.5-1.2-36.3-5c-7.3-2.4-14.4-5.2-21.8-7.2c-11.2-3.1-15.9-0.8-20.3,10c-5.1,12.5-6.7,25.7-6.1,39.2
			c0.1,3,0.3,6,0.8,9c1.3,8.1-0.9,15.2-5.7,21.5c-3,4-6.2,7.9-9.6,11.5c-9.7,10.5-16.2,22.5-20,36.3c-2,7.2-5.8,14.2-10.3,20.2
			c-7,9.4-16.9,11.2-27.7,7.2c-5.6-2.1-11-4.9-16.5-7.1c-8.5-3.5-13.3-2.6-17.9,5.2c-4.4,7.3-8.3,15.3-10.8,23.5
			c-3.7,12.1-10.8,21.2-20.2,29c-10.6,8.8-22.1,15.8-35.1,20.7c-7.4,2.8-14.7,6.3-21.6,10.3c-6.2,3.5-10.7,8.9-12.5,16.2
			c-2.8,11.2,0.2,20.8,10.1,27c14.2,8.9,29.8,14,46.5,8.4c10.3-3.5,20.6-7.8,30-13.3c6.1-3.5,11.4-9.2,15.6-15
			c6.9-9.5,14.9-16.3,26.6-19.6c63-18.1,118-51.7,170.6-89.7c6.4-4.6,12.2-10.4,17.4-16.3c6.8-7.8,10-17.2,8.4-27.8
			c-0.3-1.6-0.3-3.3-0.2-5c0.4-5.9,3.3-8.1,8.5-5.6c14.4,7,29.3,6.2,43.9,2.3c36.2-9.5,63.6-29.8,77.4-65.8
			c8.7-22.6,13-46.1,14.6-70.1c0.7-10,1-19.9,1.4-29.9c0.1-1.3,0.1-2.7,0.3-4c1.6-8,6.2-10,12.8-5.4c6.7,4.7,10,11.3,11.4,19.2
			c2.8,16,1.6,31.9-0.5,47.7c-2.8,20.9-8.1,41.1-16,60.7c-7.1,17.5-17.7,32.7-30.1,46.8c-5.9,6.7-10.7,14.4-15.5,22
			c-4.4,6.9-5.1,14.7-1.5,22c4.6,9.2,9.6,18.3,15.2,26.9c4.9,7.5,10.5,14.6,16.3,21.5c6.8,8.1,9.8,17.5,9.5,27.7
			c-0.6,19-2.1,37.9-2.6,56.8c-0.3,10.6-0.5,21.3,1.1,31.8c1.7,11.6,14.6,22,26.3,22.3c3.3,0.1,7.6-1.4,9.7-3.7
			c14.6-16.1,34-21.8,54.1-25.6c30.7-5.9,61-3.2,90.8,5.5c6,1.7,11.8,4.7,17.2,7.8c3.3,2,6.3,5.1,8.3,8.4c3.5,5.7,1.1,10.1-5.5,9.8
			c-7.3-0.3-14.5-1.7-21.7-3.1c-20.3-4.1-40.6-6.9-61.4-6.9c-22.7,0.1-43.3,6.7-62.3,18.6c-23.2,14.5-42.3,33.4-58,55.7
			c-11.4,16.2-16.5,34.8-19.6,54c-0.9,5.5-1.9,11.3-1.1,16.8c1.7,12.9,10.6,17.6,22.4,12.4c10.5-4.7,18.3-12.5,22.2-23.2
			c8.8-23.7,23.2-43.3,42.3-59.6c2.8-2.4,5.8-4.6,9-6.1c3.9-1.8,7,0.4,6.3,4.5c-0.9,4.9-2.2,9.9-4.4,14.2
			c-10.7,21.1-16.1,43.7-19.7,66.8c-1.2,7.9-0.1,16.7,1.9,24.6c3.5,13.5,14.7,16.8,25.1,7.8c11.7-10.2,20.9-22.2,24.5-37.9
			c3.7-16.5,7.7-33.1,12.3-49.4c2.1-7.6,5.7-14.9,9.4-21.9c2.7-5.2,8-9.2,13.8-8.3c6.5,1,6.5,8,6.7,13.1c0.1,5.5-0.9,11.2-2.1,16.6
			c-4.4,20.1-9.1,40.2-13.4,60.4c-1,4.5-1.1,9.3-0.8,13.9c0.8,13,8.8,18.4,21.2,14.6c9.7-3,17.1-9.1,21.6-18.2
			c2.9-5.9,5-12.3,6.7-18.7c4.9-18.6,9.1-37.5,14.2-56.1c1.6-6,4.5-11.9,7.5-17.3c5-9.1,10.5-11.6,20.7-9.6
			c14.7,2.8,29.1,7.2,43.9,9.1c40.4,5.3,79.7,1.5,116.4-18c13.3-7.1,25.5-15.8,35.8-26.8c1.9-2.1,3.6-4.4,5.9-6.1
			c-96.3,278.9-410.3,478-746.2,383c-334.3-94.5-527.1-446.4-418.5-782.6C1099.8,183.9,1458.2,2.1,1790.8,125
			C2128.4,249.7,2245.6,593.8,2178.1,848.7z M1202,869.2c-12.2,1.6-22.3,2.1-31.9,4.3c-44.7,10.1-97,48.7-105.3,116
			c-0.7,5.6,0.9,12,3.2,17.3c5.3,12.2,18.6,14.1,27.5,4.1c3.4-3.9,5.4-9,7.9-13.7c7-13.6,13.4-27.5,20.9-40.8
			c4.4-7.9,11.1-14.1,19.3-18.4c3.9-2,8.2-3.9,12,0c3.8,3.9,0.2,7.5-1.6,10.8c-7.3,12.7-14.8,25.3-22.4,37.8
			c-10,16.5-12.5,35-13.4,53.7c-0.4,8.7,5.4,14.1,13.1,17c7.3,2.8,13.9,1.1,18.9-5c3.6-4.4,7.2-8.9,9.6-13.9
			c8.9-18.2,17.4-36.7,25.9-55.1c2.8-6,5.3-12.2,8.2-18.2c4.4-9,12.1-15,19.9-20.6c3.2-2.3,7.5-4.4,11.1-1.2c3.5,3.3,3,7.9,0.8,12
			c-2,3.8-4.1,7.6-6.6,11.2c-10.4,14.6-17.1,30.9-20.7,48.3c-2.6,12.7-5.7,25.4-3.1,38.5c1.8,9.2,8.3,13.4,17.5,11.2
			c8.9-2.2,16-7.2,19.1-16c4.4-12.5,9.1-25.1,11.5-38.1c3.8-20.4,11.4-38.8,23-55.9c7-10.4,16.5-14.1,28.3-12.4
			c3.8,0.5,7.6,2.3,11.1,4c13.1,6.3,26.7,4.5,36.5-6.2c4.6-5,8.2-11.3,10.8-17.6c4.9-11.9,11.2-22.5,20.3-31.8
			c4.8-4.9,8.9-10.8,12.6-16.7c2.2-3.6,3.6-7.9,4.4-12.1c0.8-4-0.2-8.7-4.3-10.2c-2.4-0.9-6.5,0.6-8.9,2.4
			c-4.5,3.3-8.5,7.5-12.6,11.4c-10.8,10.1-23.3,16-38.2,17.5c-14.9,1.5-29.1-1.9-43.6-3.7C1255.3,875.5,1227.6,872.3,1202,869.2z
			 M1605.9,959.9c0-0.5,0.1-1.1,0.1-1.6c14.3,0,28.6,0.3,42.9-0.1c10.9-0.3,21.9-1.2,32.8-2.6c12.1-1.6,23.5-5.8,31.3-15.8
			c3.4-4.2,5.8-9.7,7-15c1.6-7.4-2.4-12.6-10-13c-6.9-0.4-13.9,0.5-20.8,1.2c-4.6,0.5-9.1,2.2-13.7,2.4c-18.9,0.8-37.9,1.6-56.9,1.8
			c-38.6,0.3-77.2-0.9-115.5-5.5c-22.1-2.7-44.1-6.2-65.3-13.5c-6.3-2.2-12.8-4.2-19.3-4.8c-15.5-1.3-23.5,5.2-26.3,15.8
			c-3.4,12.7,1.8,22.7,15.2,27.3c6.2,2.1,13,2.6,19.5,3.7c7.2,1.3,14.4,2.4,21.5,3.7c18.3,3.3,36.5,8,54.9,9.7
			C1537.4,956.6,1571.7,957.9,1605.9,959.9z M1683,885.4c22.9,0.4,30.5-7.9,28.7-30.8c0-0.3,0-0.7,0-1c-0.1-6.2-3.5-10.4-9-11.7
			c-6-1.5-12.4-2.1-18.7-2c-11,0.1-21.9,1.6-32.9,1.3c-34.6-0.8-69.2-1.5-103.7-3.4c-33.2-1.9-66-7.2-98.6-14.1
			c-5.6-1.2-12-0.8-17.5,0.7c-8.1,2.2-13.4,11.8-13.5,21.4c-0.1,8.1,4.8,14.7,13.8,17.5c10.8,3.3,21.6,6.7,32.7,8.9
			c35,6.7,70.5,9.5,106,11.1C1607.8,885.1,1645.4,884.8,1683,885.4z M1683.9,813c0,0.3,0,0.6,0,0.9c1.3,0,2.7,0,4,0
			c18,0.3,23.9-4.8,23.8-24.7c-0.1-10.3-5.2-16-15.5-17.2c-4.3-0.5-8.6-0.6-12.9-0.4c-18.2,1.2-36.4,3.4-54.6,3.9
			c-32.6,1-65.1,0.2-97.4-5.1c-6.9-1.1-14.6,0-21.5,1.8c-8.2,2.1-13.9,10.2-13.6,17.8c0.3,8.1,4.6,14.2,12.2,16.6
			c7.8,2.5,16.1,4.8,24.2,4.9C1582.8,812.3,1633.4,812.6,1683.9,813z M1589,756.4c0,0.2,0.1,0.4,0.1,0.6c21.7-2.6,43.5-5.3,65.2-7.9
			c6.2-0.8,12.5-1.4,18.7-2.7c6.6-1.4,8.9-4.2,7.9-10.4c-1.1-6.5-2.8-13-5.5-19c-3.5-7.8-10.5-11.2-17.7-9.9
			c-21.6,3.8-43.1,7.6-64.7,11.5c-15.5,2.9-24.2,11.7-27,26.8c-1.2,6.6,1.3,10.3,8,10.9C1579,756.7,1584.1,756.4,1589,756.4z
			 M1414.4,324.9c6.5-1.6,8-5.9,8.9-10.5c0.8-4.2,1.4-8.6,1.4-12.9c-0.1-14.5-3.9-27.6-15-37.7c-13.5-12.3-32.6-11.9-46.1,0.3
			c-21.1,19.2-16.2,53.5-4.9,67.8c4.8,6,10.7,10,18.4,10.9c2,0.2,4.1-0.9,6.1-1.3c-0.8-2-1.1-4.3-2.4-5.8
			c-9.4-10.5-11.1-24.4-3.3-35.6c2.5-3.6,6.8-6,10.6-8.5c3.6-2.3,6.6-0.9,7.8,3c1.1,3.8,1.4,7.8,1.9,11.7c0.3,2.3,0.5,4.7,0.9,8.2
			c7.2-6.5,5.1-14.6,7.8-22.2C1419.8,300.4,1414.1,313.2,1414.4,324.9z M2067.2,688.6c-0.8-1-1.5-1.7-1.9-2.5
			c-1.9-4-5.3-5.1-9.2-4.2c-4.2,1-5.4,4.6-5.5,8.5c0,15.7,0,31.3,0,47c0,1,0.2,2,0.3,3c0.8,4.2,3.6,6.6,7.5,6.8
			c4.4,0.2,7.6-2.4,8.4-7c0.4-2.3,0.4-4.6,0.5-7c0.1-7-0.2-14,0.2-21c0.2-3.9,0.9-8,2.1-11.7c1.5-4.5,6.6-7,11.3-6.2
			c4.9,0.8,6.4,4.2,6.6,8.6c0.3,5.6,0.7,11.3,0.9,16.9c0.2,6.3,0.1,12.7,0.2,19c0.1,4.6,2.6,7.5,7.1,8.3c4.1,0.7,8-2.5,9.1-7.4
			c0.5-2.2,0.5-4.6,0.5-7c0.1-7.3-0.2-14.7,0.2-22c0.2-3.6,0.7-7.4,2.3-10.6c2-4,5.8-6.6,10.7-5.8c5.3,0.8,6.8,4.9,6.9,9.6
			c0.2,5.3,0.1,10.7,0.1,16c0,6-0.2,12,0.2,18c0.4,5.6,4.3,9.4,8.7,9.3c4.4,0,8.2-3.9,8.4-9.5c0.3-13,0.5-26-0.1-39
			c-0.6-10.6-7.7-16.5-18.4-17.3c-8.3-0.6-14.8,2.9-20.7,8.3C2091.6,678.2,2079.5,679.5,2067.2,688.6z M2009.7,680.8
			c-11.7,7-11.7,9.3-0.1,16c0,4.7-0.2,9.7,0,14.6c0.3,7.9,0.4,15.9,1.5,23.8c0.5,3.2,2.7,6.8,5.3,9c5.4,4.6,18.9,4.6,24.6,0.3
			c1.8-1.4,3.4-4.3,3.3-6.5c-0.2-3.4-3.3-4.5-6.7-4.3c-2.9,0.1-5.8,0-10.2,0c-0.7-13.2-0.5-25.8-0.2-38.5c3.3-0.5,5.6-0.3,7.1-1.2
			c2-1.2,4.7-3.4,4.7-5.1c0-1.9-2.6-4.2-4.6-5.4c-2.1-1.3-4.8-1.5-7.5-2.3c0-4.2,0.3-7.9-0.1-11.5c-0.6-6.7-3.9-10.2-8.8-10
			c-4.5,0.2-7.5,3.5-8.1,9.6C2009.4,673.3,2009.7,677.3,2009.7,680.8z"/>
		<path d="M1488.2,298.4c2-9.4,3.4-18.9,6.2-28c5.2-16.8,17.2-27.6,33.6-32.8c12.7-4,24.9,0.2,36.3,6.3c10.7,5.8,18.1,15.1,22.3,26
			c8.7,22.9,8.4,45.5-6.6,66.4c-4.6,6.4-10.4,11.3-18.4,12.7c-7.5,1.3-15,2.5-22.6,3.3c-26.1,2.5-48.6-17.3-49.4-45.6
			c-0.1-2.7,0-5.3,0-8C1489.1,298.6,1488.6,298.5,1488.2,298.4z M1569.1,322.2c6.3-1,8.3-5.1,9-9.2c3.3-18.2,3.1-35.9-9.2-51.3
			c-15.9-20-43.2-19.9-59.4-0.1c-15,18.4-13.1,51.4-0.9,67.6c5.1,6.7,11.7,10.9,19.8,12.4c2.3,0.4,4.9-0.3,7.1-0.4
			c0.3-1.7,0.7-2.6,0.4-2.9c-1.3-1.8-2.6-3.7-4.2-5.3c-12.3-12-9.1-31.6,0.6-41.6c3.5-3.6,8.2-6.9,13.3-5.1c5.1,1.8,4.7,7.5,5.4,12
			c0.3,2.3,0,4.7,0.1,7c0.1,1.7,0.6,3.3,1.1,6c7.6-7,5.1-15.9,8.2-24.1C1574.8,296.2,1568.3,310.1,1569.1,322.2z"/>
		<path d="M1222.4,695.6c-1.8,9.1-3.2,16.9-5,24.5c-1.8,7.5-8.4,13.5-15,14.2c-5.9,0.6-8.7-1.2-10.4-6.8c-1.4-4.7-1.5-9.5,1.9-13.2
			c5.7-6,11.6-11.8,18.1-16.8C1214.4,695.6,1218.6,696.2,1222.4,695.6z"/>
		<path d="M1105.9,652.8c1.1,10.1-3.7,17.9-9.8,24.9c-2.4,2.7-12.3,3.3-15.1,0.9c-1.6-1.4-2.9-4.7-2.4-6.6
			c2.1-7.3,6.2-13.1,14.2-15.3C1097,655.6,1101,654.3,1105.9,652.8z"/>
	</g>
</g>
</svg>
