<?xml version="1.0" encoding="utf-8"?>
<!-- Generator: Adobe Illustrator 26.0.2, SVG Export Plug-In . SVG Version: 6.00 Build 0)  -->
<svg version="1.1" id="Laag_1" xmlns="http://www.w3.org/2000/svg" xmlns:xlink="http://www.w3.org/1999/xlink" x="0px" y="0px"
	 viewBox="0 0 533.95 114.96" style="enable-background:new 0 0 533.95 114.96;" xml:space="preserve">
<style type="text/css">
	.st0{fill:#FFFFFF;}
</style>
<g id="WsNt5r.tif">
	<g>
		<path class="st0" d="M0,111.9c0-0.91,0-1.83,0-2.74c0.24,0.01,0.48,0.04,0.72,0.04c26.89,0,53.79,0,80.68,0c0.26,0,0.52,0,0.8,0
			c0-7.01,0-13.93,0-20.95c-19.55,0-39.05,0-58.51,0c0-7.65,0-15.2,0-22.82c16.84,0,33.63,0,50.44,0c0-6.99,0-13.91,0-20.92
			c-16.86,0-33.66,0-50.46,0c0-7.18,0-14.28,0-21.48c19.32,0,38.59,0,57.85,0c0-7.01,0-13.92,0-20.88c-27.2,0-54.36,0-81.51,0
			C0,1.44,0,0.72,0,0 M416.59,111.9c3.32-3.64,6.64-7.27,9.97-10.91c1.59-1.73,3.17-3.47,4.8-5.24c-3.61-3.17-7.18-6.3-10.73-9.41
			c0.04-0.11,0.04-0.16,0.07-0.19c0.18-0.28,0.36-0.57,0.55-0.85c5.7-8.72,8.51-18.34,8.75-28.71c0.1-4.4-0.32-8.77-1.26-13.08
			c-2.64-12.11-8.61-22.26-18.09-30.25c-9.27-7.81-20.1-11.92-32.13-12.92c-4.56-0.38-9.12-0.24-13.67,0.38
			c-6.26,0.85-12.23,2.61-17.89,5.38c-9.36,4.57-16.92,11.19-22.47,20.01c-5.73,9.12-8.59,19.06-8.38,29.88
			c0.13,6.42,1.15,12.65,3.37,18.66c4.25,11.52,11.57,20.61,21.94,27.18c8.19,5.19,17.21,7.91,26.86,8.61
			c4.91,0.35,9.81,0.12,14.65-0.75c7.54-1.35,14.62-3.93,21.01-8.23c0.37-0.25,0.59-0.23,0.92,0.07c1.58,1.44,3.2,2.84,4.79,4.27
			c2.27,2.03,4.54,4.07,6.81,6.11 M533.95,111.9 M213.03,109.17c0-28.51,0-56.93,0-85.41c0.39,0,0.7,0,1,0
			c10.15,0,20.3-0.01,30.46,0.01c0.68,0,0.89-0.16,0.89-0.87c-0.03-6.66-0.02-13.31-0.02-19.97c0-0.23-0.02-0.47-0.03-0.73
			c-29.67,0-59.3,0-88.94,0c0,7.19,0,14.33,0,21.58c11.02,0,21.99,0,33.03,0c0,28.52,0,56.94,0,85.39
			C197.29,109.17,205.1,109.17,213.03,109.17z M533.77,84.31c-8.33,0-16.61,0-24.87,0c0,8.1,0,16.13,0,24.2c8.31,0,16.57,0,24.87,0
			C533.77,100.44,533.77,92.4,533.77,84.31z"/>
		<path d="M416.45,111.9c-2.27-2.04-4.54-4.08-6.81-6.11c-1.59-1.43-3.21-2.83-4.79-4.27c-0.33-0.3-0.55-0.32-0.92-0.07
			c-6.39,4.31-13.46,6.89-21.01,8.23c-4.85,0.86-9.74,1.1-14.65,0.75c-9.65-0.7-18.67-3.42-26.86-8.61
			c-10.38-6.57-17.69-15.66-21.94-27.18c-2.22-6.01-3.24-12.24-3.37-18.66c-0.22-10.82,2.64-20.76,8.38-29.88
			c5.55-8.82,13.11-15.44,22.47-20.01c5.67-2.77,11.64-4.53,17.89-5.38c4.55-0.62,9.11-0.76,13.67-0.38
			c12.03,1,22.86,5.11,32.13,12.92c9.48,7.99,15.45,18.15,18.09,30.25c0.94,4.31,1.36,8.68,1.26,13.08
			c-0.23,10.37-3.04,19.99-8.75,28.71c-0.18,0.28-0.37,0.56-0.55,0.85c-0.02,0.04-0.03,0.09-0.07,0.19
			c3.55,3.11,7.12,6.25,10.73,9.41c-1.63,1.78-3.22,3.51-4.8,5.24c-3.32,3.64-6.65,7.27-9.97,10.91
			C416.55,111.9,416.5,111.9,416.45,111.9z M401.68,70.8c0.15-0.32,0.26-0.55,0.37-0.79c1.4-3.21,1.93-6.6,2.18-10.06
			c0.45-6.12-0.23-12.08-2.67-17.75c-3.02-7.03-7.8-12.51-14.59-16.13c-6.11-3.25-12.64-4.22-19.48-3.33
			c-5.65,0.73-10.78,2.76-15.24,6.3c-7.65,6.08-11.55,14.19-12.43,23.8c-0.33,3.6-0.1,7.2,0.68,10.74
			c1.8,8.19,5.89,14.94,12.64,19.99c5.44,4.08,11.62,6.19,18.39,6.06c3.33-0.07,6.65-0.84,9.94-1.48c1.81-0.35,3.55-1.08,5.32-1.64
			c-0.01-0.08-0.02-0.17-0.03-0.25c-5.8-4.89-11.59-9.78-17.44-14.72c4.97-5.64,9.9-11.24,14.84-16.86
			C390.02,60.06,395.82,65.4,401.68,70.8z"/>
		<path d="M0,2.16c27.16,0,54.31,0,81.51,0c0,6.96,0,13.87,0,20.88c-19.26,0-38.53,0-57.85,0c0,7.2,0,14.3,0,21.48
			c16.8,0,33.6,0,50.46,0c0,7,0,13.93,0,20.92c-16.81,0-33.59,0-50.44,0c0,7.61,0,15.17,0,22.82c19.47,0,38.96,0,58.51,0
			c0,7.02,0,13.94,0,20.95c-0.28,0-0.54,0-0.8,0c-26.89,0-53.79,0-80.68,0c-0.24,0-0.48-0.03-0.72-0.04C0,73.5,0,37.83,0,2.16z"/>
		<path d="M213.03,109.17c-7.93,0-15.74,0-23.61,0c0-28.45,0-56.87,0-85.39c-11.04,0-22.01,0-33.03,0c0-7.25,0-14.39,0-21.58
			c29.64,0,59.27,0,88.94,0c0.01,0.26,0.03,0.5,0.03,0.73c0,6.66-0.01,13.31,0.02,19.97c0,0.71-0.21,0.87-0.89,0.87
			c-10.15-0.02-20.3-0.01-30.46-0.01c-0.31,0-0.62,0-1,0C213.03,52.24,213.03,80.66,213.03,109.17z"/>
		<path d="M533.77,84.31c0,8.09,0,16.13,0,24.2c-8.3,0-16.56,0-24.87,0c0-8.07,0-16.1,0-24.2
			C517.16,84.31,525.44,84.31,533.77,84.31z"/>
		<path class="st0" d="M401.68,70.8c-5.86-5.4-11.66-10.74-17.51-16.14c-4.95,5.62-9.88,11.22-14.84,16.86
			c5.85,4.94,11.65,9.83,17.44,14.72c0.01,0.08,0.02,0.17,0.03,0.25c-1.77,0.56-3.51,1.29-5.32,1.64c-3.29,0.64-6.62,1.42-9.94,1.48
			c-6.77,0.14-12.95-1.98-18.39-6.06c-6.74-5.05-10.84-11.81-12.64-19.99c-0.78-3.55-1.01-7.15-0.68-10.74
			c0.88-9.61,4.78-17.72,12.43-23.8c4.46-3.54,9.58-5.57,15.24-6.3c6.84-0.88,13.36,0.08,19.48,3.33c6.8,3.62,11.58,9.1,14.59,16.13
			c2.44,5.68,3.12,11.63,2.67,17.75c-0.25,3.46-0.79,6.85-2.18,10.06C401.94,70.25,401.83,70.48,401.68,70.8z"/>
	</g>
</g>
</svg>
