<svg xmlns="http://www.w3.org/2000/svg" viewBox="0 0 736.81 108.39"><path d="M581,470.6l-.82.24c-6.24,1.29-10.12-.79-13.26-6.79-5.78-11-12.64-21.52-19.06-32.21a4.48,4.48,0,0,0-2.5-2v40.76h-9.54c-.06-1.32-.19-2.66-.18-4,0-17.11.11-34.22,0-51.33,0-3,1-3.65,3.82-3.87,4.43-.35,6.94,1.17,9.16,5.11,6.44,11.4,13.37,22.53,20.13,33.76a7.7,7.7,0,0,0,2.81,2.92,40.9,40.9,0,0,0,.36-4.12c-.05-11.11,0-22.23-.33-33.34-.11-3.72,1.33-4.47,4.56-4.26,2.75.18,5.23-.51,5.16,4-.27,17.24-.11,34.47-.12,51.71C581.21,468.29,581.09,469.38,581,470.6Z" transform="translate(-301.61 -387.18)"/><path d="M651.78,424l-7.61,4.44a48.85,48.85,0,0,0-3.92-4.76c-8.84-8.41-23.53-5.12-29,6.54a25.26,25.26,0,0,0-.16,21.76c4.16,9.41,13.4,13.56,23.23,10.64,4.57-1.36,9.46-8,9-12.68-.1-.9-1.8-2.23-2.85-2.32-3.56-.29-7.16-.11-10.76-.11a17.5,17.5,0,0,1-.42-1.85c-.47-6.78-.46-6.78,6.35-6.78,4.37,0,8.74.13,13.1-.07,3-.14,4.24.78,4.18,4-.16,8.12,0,16.24-.06,24.36,0,1.26-.87,3.58-1.36,3.58a25.2,25.2,0,0,1-7-1c-.72-.2-1.14-1.48-1.69-2.24-18.39,10.46-35.2.45-41.12-13.13-6.38-14.63-.45-33.73,13.23-40.55C627,407.72,644.94,410.26,651.78,424Z" transform="translate(-301.61 -387.18)"/><path d="M807,470.7c-.08-1.42-.2-2.63-.2-3.85,0-17.1.09-34.21,0-51.32,0-3.07.8-4.12,4-4.07,11.35.16,22.71.13,34.06,0,2.7,0,3.93.75,3.69,3.6-.2,2.43.59,5.19-3.46,5.11-8.1-.15-16.22.09-24.32-.22-3.5-.14-4.75.87-4.43,4.35a51.52,51.52,0,0,1,0,8.24c-.18,2.69,1,3.49,3.5,3.45,6.48-.1,13,.13,19.45-.12,3.24-.13,3.47,1.56,3.33,3.92s.79,5-3.21,4.83c-6.49-.2-13,0-19.46-.17-2.8-.07-3.77,1-3.64,3.72.16,3.61.12,7.24,0,10.86-.11,2.73.89,3.77,3.69,3.73,8.35-.13,16.72.12,25.07-.13,3.45-.1,3.81,1.46,3.88,4.25.08,3-.69,4.18-4,4.12-11.47-.18-22.95-.06-34.43-.08C809.41,470.94,808.33,470.8,807,470.7Z" transform="translate(-301.61 -387.18)"/><path d="M941.35,444.6c0,5.49.06,10.36,0,15.22-.05,2.73,1.57,2.94,3.66,2.93,8.24-.05,16.48.16,24.71-.1,3.59-.11,4,1.5,4.12,4.45.14,3.29-1.2,3.92-4.16,3.88-11.35-.15-22.71-.05-34.07-.07-1.09,0-2.18-.12-3.48-.2-.1-1.29-.25-2.38-.25-3.47,0-17.24.07-34.48-.07-51.72,0-3.12.89-4.06,4-4q17.22.24,34.45,0c3,0,3.29,1.46,3.17,3.68s.73,5-3.18,5c-8.24-.09-16.49.18-24.71-.17-3.47-.14-4.44.92-4.21,4.14a72.9,72.9,0,0,1,0,8.62c-.12,2.45.89,3.3,3.28,3.26,6.49-.09,13,.16,19.47-.1,3.34-.13,3.73,1.48,3.61,4.09-.1,2.38.43,4.79-3.43,4.68C956.82,444.44,949.36,444.6,941.35,444.6Z" transform="translate(-301.61 -387.18)"/><path d="M1035.14,420.52c-1.92,1.11-3.75,2.52-5.82,3.21a5.33,5.33,0,0,1-4-.81c-6.2-3.95-12.7-4.95-19.66-2.52-4.6,1.61-7,4.84-6.72,8.78.27,3.37,2.79,5.74,7.6,6.53,6.13,1,12.37,1.46,18.46,2.62,8.56,1.65,12.92,6.23,13.12,13,.3,10.36-3.5,16.67-12.13,18.92-12.22,3.19-23.76,1.9-33.76-6.61a52.38,52.38,0,0,1-3.79-4,53.12,53.12,0,0,1,6.53-3.81,3.74,3.74,0,0,1,3.16.95c6.57,6.29,14.48,7.56,22.93,5.84a13.33,13.33,0,0,0,6.8-4.11c3.89-4.42,2.23-10.31-3.48-11.81s-11.52-1.93-17.29-2.84c-1.6-.25-3.22-.41-4.79-.8-7.53-1.87-11-5.76-11.72-13.18-.72-7,2.6-13.71,8.92-16.27,11.4-4.61,22.59-4.7,33,3a30.34,30.34,0,0,0,3.63,2Z" transform="translate(-301.61 -387.18)"/><path d="M720.26,470.82h-9.09V411.55H717c7.86,0,15.73-.08,23.59.1a18.58,18.58,0,0,1,18,18c.36,8-7.53,18.25-16.91,18.21-5.73,0-11.48.37-17.21.22-3.36-.09-4.33,1.16-4.22,4.37C720.41,458.45,720.26,464.43,720.26,470.82Zm11.46-50.56v.13a72.56,72.56,0,0,0-8.58-.33c-1,.07-2.73,1.46-2.78,2.32a134.16,134.16,0,0,0,0,14.6,3.77,3.77,0,0,0,2.63,2.56c6,.17,12,.18,18-.15,4.88-.28,8-4.35,8-9.6s-3.38-9.15-8.23-9.49C737.72,420.09,734.71,420.26,731.72,420.26Z" transform="translate(-301.61 -387.18)"/><path d="M914.75,424.08l-7.23,4.28a11.52,11.52,0,0,1-1.37-1.53c-6.74-11.71-25.24-9.54-30.48,2.67-4.07,9.48-3.53,18.23,2.09,27,4.9,7.63,20.76,10.42,27.73.16.55-.8,1.15-1.58,1.65-2.26.48,0,.77-.09,1,0,7.12,4.06,9.42,3.33,1.64,10.77-10.51,10.06-29.16,8.68-38.5-2.61-11.31-13.67-10.17-33.63,2.63-45.38C884.94,407,907.1,408.36,914.75,424.08Z" transform="translate(-301.61 -387.18)"/><path d="M311.08,470.84H302V411.89a30.68,30.68,0,0,1,3.2-.3c10.73,0,21.46.06,32.18-.07,2.83,0,4.06.67,3.92,3.76-.12,2.88,0,5.14-4,5-7.48-.24-15,0-22.45-.3-3-.14-3.76.78-3.63,3.49a81.7,81.7,0,0,1,0,9c-.19,2.88,1.07,3.64,3.74,3.56,5.61-.17,11.23.07,16.84-.17,3.57-.16,3.66,1.79,3.68,4.45s-.26,4.52-3.78,4.36c-5.72-.28-11.47,0-17.21-.18-2.44-.06-3.3.85-3.26,3.27.12,6.24,0,12.49,0,18.73C311.26,467.82,311.16,469.17,311.08,470.84Z" transform="translate(-301.61 -387.18)"/><path d="M485.78,462.73v7.89H446.64c-.05-1.07-.16-2.26-.16-3.46,0-17.24.11-34.48-.1-51.72,0-3.66,1.49-4.07,4.43-4s5.34-.33,5.26,4.06c-.26,14.24-.05,28.48-.28,42.72-.06,3.53,1.07,4.61,4.47,4.54C468.61,462.62,477,462.73,485.78,462.73Z" transform="translate(-301.61 -387.18)"/><path d="M428.17,462.74c.14,1.11.3,1.82.32,2.54,0,1.73,0,3.45,0,5.42H389.18c-.07-1.34-.2-2.56-.2-3.78,0-17.11.08-34.22-.09-51.32,0-3.43,1.14-4.31,4.32-4.15,3,.15,5.49-.35,5.41,4.23-.25,14.11-.05,28.22,0,42.33,0,4.72,0,4.73,4.82,4.73Z" transform="translate(-301.61 -387.18)"/><path d="M368.05,411.74v58.91h-9.14c-.08-1.51-.22-3-.22-4.41q0-24.5,0-49c0-6,0-6,6-5.73C365.64,411.55,366.61,411.64,368.05,411.74Z" transform="translate(-301.61 -387.18)"/><path d="M784.27,470.74c-9.24.68-9.25.68-9.23-7.81q0-23.19.11-46.37c0-5.07,0-5.09,5.14-5,1.21,0,2.42.14,4,.24Z" transform="translate(-301.61 -387.18)"/><path d="M512.85,411.52v59.24H504.1a31.56,31.56,0,0,1-.37-3.52c0-17.37.12-34.74.07-52.11,0-2.73.77-3.94,3.61-3.64A54.23,54.23,0,0,0,512.85,411.52Z" transform="translate(-301.61 -387.18)"/><path d="M1037.69,486.82c1.46,8.67,1.41,8.74-6.58,8.74q-19.11,0-38.21,0a4.87,4.87,0,0,1-4.3-7.62,3.26,3.26,0,0,1,2.46-1.06C1006.54,486.8,1022,486.82,1037.69,486.82Z" transform="translate(-301.61 -387.18)"/><path d="M301.68,387.26h9.24c9,0,18,.14,26.93-.08,3.47-.08,3.42,1.76,3.42,4.21s.11,4.36-3.37,4.31c-11-.18-21.93-.15-32.9-.06-2.65,0-3.61-.93-3.35-3.5C301.8,390.69,301.68,389.2,301.68,387.26Z" transform="translate(-301.61 -387.18)"/></svg>