<svg xmlns="http://www.w3.org/2000/svg" viewBox="0 0 1150.78 179.73"><path d="M1235.93,346.45h40.52c-4.49,3.48-7.18,7.75-7.18,13.59V499.58c0,5.83,2.81,10,7.18,13.47h-40.52c4.37-3.48,7.06-7.74,7.06-13.47V360C1243,354.19,1240.41,349.93,1235.93,346.45ZM296.65,406.39c-6.62-14.25-13.92-28.28-26.16-38.5-13-11-29.53-17.62-46.59-17.62-45.35,0-65.67,41-65.67,81.27,0,39,19.42,78.36,63.2,78.36,17.85,0,35.25-7.74,46.25-21.78V456.69c0-8.53-2.81-14-9.43-19.08h46.36c-4.94,5.61-8,11.34-8,19.08v31.43c-21.22,19.76-47.6,31.88-76.9,31.88-51.75,0-94.08-38.06-94.08-91,0-52.65,41.76-88.69,92.84-88.69,31.78,0,57.48,11.68,78.14,35.14v31Zm113.61-59.94h43.67c-6,4.37-8,9.31-8,16.61V464.89c0,27.94,32.78,41.64,56.81,41.64,23.58,0,54.34-13.8,54.34-41.08V363.06c0-6.85-1.69-11.56-6.29-16.61h23.8c-4.82,4.94-6.62,9.87-6.62,16.61V465.45c0,36.82-43.44,51-73.53,51-31,0-76.23-13.69-76.23-51.52V363.06c0-7-2.81-12.12-8-16.61ZM847.62,407c-5.83-14.7-12.68-27.61-24.7-38.27C810,357.22,794.3,350,776.9,350c-44.9,0-67.91,39.29-67.91,80,0,41,23.91,79.7,68.25,79.7,33,0,56.58-23.24,70.39-51.2V488.9c-20.54,20.33-47,30.65-76,30.65-53.67,0-93.85-34.68-93.85-90,0-53.77,38.61-89.13,91.27-89.13,29.18,0,57.46,10.1,78.57,30.19Zm281.55,0c-5.83-14.7-12.69-27.61-24.69-38.27-12.91-11.46-28.63-18.64-46-18.64-44.92,0-67.82,39.29-67.82,80,0,41,23.8,79.7,68.15,79.7,33,0,56.69-23.24,70.39-51.2V488.9c-20.55,20.33-46.93,30.65-76,30.65-53.66,0-93.84-34.68-93.84-90,0-53.77,38.61-89.13,91.25-89.13,29.19,0,57.48,10.1,78.59,30.19V407Z" transform="translate(-125.67 -340.27)" fill-rule="evenodd"/></svg>