<?xml version="1.0" encoding="utf-8"?>
<!-- Generator: Adobe Illustrator 24.1.2, SVG Export Plug-In . SVG Version: 6.00 Build 0)  -->
<svg version="1.1" id="Laag_1" xmlns="http://www.w3.org/2000/svg" xmlns:xlink="http://www.w3.org/1999/xlink" x="0px" y="0px"
	 viewBox="0 0 1139 355" style="enable-background:new 0 0 1139 355;" xml:space="preserve">
<style type="text/css">
	.st0{fill:#FFFFFF;}
</style>
<g>
	<path d="M472,9c14.3,0,28.7,0,43,0c4.6,0.7,9.2,1.2,13.8,2.1c20.9,4.2,41,10.7,59.3,22c14.1,8.7,26.9,19.1,36.3,32.9
		c7.2,10.6,13.6,21.7,19.8,31.9c1.1-6.1,2.4-13.6,3.9-21c3-15.7,5.8-31.4,9-47.1c2.1-10.1,7.3-14.5,17.9-14.6c19-0.2,38-0.2,57,0
		c9.2,0.1,16.5,5.5,17.7,13.7c0.7,4.9,0.1,10.2-0.8,15.2c-4.8,26.8-9.8,53.6-15,81.8c7.8-10,14.7-18.9,21.7-27.7
		c9.5-12.1,19.1-24.2,28.6-36.3c10.1-12.9,20.1-25.8,30.4-38.6c3.4-4.2,7.4-8.1,13.5-8.2c21.7,0,43.3-0.2,65,0.1
		c6,0.1,11.8,1.7,16.1,6.8c5.4,6.3,3.1,18.5-2.3,25c-12.1,14.7-23.8,29.6-35.5,44.6c-11.5,14.7-22.9,29.5-34.4,44.2
		c-11.6,14.8-23.3,29.5-34.9,44.1c14.6,23,29,45.5,43.5,68.3c0.7-0.7,1.1-1.1,1.3-1.5c11.4-20.5,22.8-41.1,34.3-61.6
		c16.3-29.2,32.8-58.3,49.2-87.5c12.7-22.7,25.2-45.4,37.8-68.1c4.1-7.4,8.6-14.2,18.3-14.3c24.8-0.1,49.7-0.4,74.5,0.1
		c9.6,0.2,14.6,3.7,16.4,12.4c2.1,9.9,4.1,19.8,5.8,29.7c3.5,19.3,6.7,38.6,10.1,57.9c3.6,19.9,7.3,39.8,10.9,59.7
		c3.8,21,7.3,42.1,11.1,63.2c3.6,20.1,7.3,40.1,10.9,60.2c1.2,6.6,2.6,13.3,4,19.9c0,0.3,0,0.7,0,1c-0.3,0.7-0.9,1.3-1,2
		c-0.7,9.7-3.9,14.2-13.1,16.4c-4.9,1.2-10.1,1.5-15.2,1.5c-16.8-0.1-33.5-0.6-50.3-0.9c-11.3-0.2-16.1-4-18.4-15.1
		c-2.7-13.4-5.1-26.9-7.7-40.6c-0.3-0.1-0.9-0.2-1.6-0.2c-29.8,0-59.7-0.1-89.5,0.1c-1.4,0-3.5,1.5-4.2,2.9
		c-6.9,13.2-13.5,26.5-20.5,39.7c-3.2,6.1-6.6,12.3-14.5,13.2c-6.2,0.7-12.5,1.1-18.8,1c-26.3-0.2-52.5-0.4-78.8-1.2
		c-3.5-0.1-8-2.7-10.2-5.6c-5.1-6.5-9.1-13.9-13.5-20.9c-12.8-20.8-25.7-41.6-38.4-62.5c-5.8-9.6-11.3-19.3-17-29.1
		c-2.5,13.1-5,26.1-7.3,39.1c-3.8,21-7.1,42.2-11.2,63.1c-2,10.3-5.7,14.2-14.3,16c-4.8,1-9.8,1.1-14.8,1.1
		c-16.6-0.2-33.2-0.4-49.8-1c-7.8-0.3-15.6-6.1-14.8-15.4c0.5-6.5,1.5-13,2.5-19.5c1-6.8,2.3-13.5,3.5-20.4
		c-8.4,7.7-16.3,15.4-24.7,22.4c-23.1,19.2-49.8,30.6-79.3,36c-5.7,1-11.4,2-17.1,3c-14.3,0-28.7,0-43,0c-0.3-0.3-0.6-0.8-1-0.9
		c-10-1.7-20-2.9-29.9-5.2c-24.6-5.7-46.7-16.7-65.7-33.3c-15.1-13.2-27.1-29-34.9-47.7c-1.8-4.5-3.8-8.9-5.9-14
		c-1.9,10.2-3.8,19.6-5.5,29.1c-3.1,16.8-5.9,33.7-9.1,50.6c-1.5,8-5.6,14-14.2,15.3c-4.9,0.8-9.9,1.1-14.8,1.1
		c-15.9-0.2-31.9-0.7-47.8-0.9c-11.8-0.2-19.3-9.8-17-21.4c2.8-14.1,5.3-28.2,7.9-42.3c2.7-14.4,5.3-28.9,7.9-43.3
		c1.2-6.5,2.1-13,3.2-19.7c-32.4,0-64.2,0-95.8,0c-2.5,14.8-4.8,29.3-7.4,43.8c-3.9,21.7-7.5,43.4-12.1,64.9
		c-2.6,12.2-5.1,16-15.2,17.8c-4.5,0.8-9.2,1.1-13.8,1.1c-15.4-0.2-30.9-0.8-46.3-0.9c-8.2,0-14.6-2.6-18.6-10.1c0-5,0-10,0-15
		c0.4-1.7,0.7-3.3,1.1-5c3-15.5,6.1-31,8.9-46.6c4.5-25.4,8.7-50.8,13.1-76.2c4.6-26,9.3-52,14-78c4.3-23.9,8.6-47.8,13-71.7
		c0.7-3.8,1.7-7.7,3.3-11.2c3.4-7.5,10.4-9.1,17.7-9.2c15.7-0.2,31.3-0.1,47,0c4.6,0,9.2,0.4,13.8,1c7.9,1,14.5,10.5,13.1,18.1
		c-1.7,9.3-3.3,18.6-4.9,27.9c-2.9,16.5-5.9,33.1-8.9,49.6c-0.9,4.9-1.5,9.9-2.3,15.3c5.1,0,9.6,0,14.1,0c25.7,0,51.3,0,77,0
		c2.2,0,4.8,0.7,5.2-2.9c0.5-4.5,1.2-9.1,2-13.6c4.6-25.7,9.3-51.3,14-77c2.4-13,9-18.5,22.1-18.5c17.8,0,35.7-0.1,53.5,0.1
		c8,0.1,17.3,3,19,14.5c0.6,4.1-0.5,8.4-1.2,12.6c-2,11.8-4.2,23.5-5.7,31.8c5.8-5.1,13.5-12,21.5-18.6c6.8-5.6,13.6-11.4,21.1-15.9
		c10-6,20.4-12,31.3-16.1c12.9-4.9,26.4-7.9,39.8-11.3C459.5,10.5,465.8,10,472,9z M415.7,129.8c-14.9-6.1-30.7-12.1-46.2-18.9
		c-18.8-8.3-36.8-18.1-51.6-32.6c-5.3-5.2-9.6-11.3-14.8-16.6c-5.2-5.2-10.8-5.3-17.4-0.8c-5.6,3.8-7.8,12.2-4.6,17.1
		c7.3,11.1,14.8,22.4,25.8,30.1c16,11.2,32.6,21.6,49,32.3c13.8,9,27.8,17.7,41.6,26.7c1.1,0.7,2.3,2.4,2.3,3.7
		c0.2,9.3-0.7,18.8,0.3,28c1.5,13.3,7.5,25,16.8,34.6c11.5,11.8,25.9,17.6,42.2,19.7c17.6,2.3,34.4,0.1,50.4-7.1
		c17.9-8.1,30.9-21.3,39.4-39c1.1-2.3,2.2-3.8,5.3-4.2c10-1.6,19.8-4.1,29.7-5.7c21.9-3.5,43.9-6.8,65.9-10c18.9-2.8,36-9.7,52-20.1
		c7.3-4.7,7.9-12.7,5-18.1c-4.2-7.8-11.6-10.1-19.2-5.9c-22.7,12.6-47.2,17.2-72.8,17.1c-17.9,0-35.7,0-53.6,0c-1.6,0-3.2,0-4.7,0
		c-0.6-2.9-1.1-5.3-1.5-7.7c-4-20.5-14.5-36.2-33.6-45.5c-16.4-8-33.7-9.5-51.4-6.6c-10.6,1.8-21.1,4.6-30.1,10.9
		C431.7,116.9,424,123.4,415.7,129.8z M1002.5,141c-11.4,22.3-22.5,43.9-33.7,65.7c14.6,0,28.7,0,43.6,0
		C1009.2,185,1005.9,163.5,1002.5,141z"/>
	<path class="st0" d="M1130,318c-1.3-6.6-2.7-13.2-4-19.9c-3.7-20-7.4-40.1-10.9-60.2c-3.8-21-7.3-42.1-11.1-63.2
		c-3.6-19.9-7.3-39.8-10.9-59.7c-3.4-19.3-6.7-38.6-10.1-57.9c-1.8-9.9-3.8-19.8-5.8-29.7c-1.8-8.7-6.8-12.2-16.4-12.4
		c-24.8-0.5-49.7-0.2-74.5-0.1c-9.7,0-14.2,6.9-18.3,14.3c-12.6,22.7-25.1,45.5-37.8,68.1c-16.3,29.2-32.8,58.3-49.2,87.5
		c-11.5,20.5-22.8,41.1-34.3,61.6c-0.2,0.4-0.7,0.7-1.3,1.5c-14.5-22.7-28.9-45.3-43.5-68.3c11.5-14.6,23.3-29.3,34.9-44.1
		c11.5-14.7,22.9-29.5,34.4-44.2c11.7-14.9,23.5-29.9,35.5-44.6c5.4-6.5,7.7-18.6,2.3-25c-4.3-5.1-10.1-6.7-16.1-6.8
		c-21.7-0.3-43.3-0.1-65-0.1c-6.1,0-10.1,3.9-13.5,8.2c-10.3,12.8-20.3,25.7-30.4,38.6C774.5,73.9,765,85.9,755.5,98
		c-7,8.9-13.9,17.7-21.7,27.7c5.2-28.2,10.3-54.9,15-81.8c0.9-5,1.5-10.3,0.8-15.2c-1.2-8.2-8.5-13.6-17.7-13.7c-19-0.2-38-0.2-57,0
		c-10.6,0.1-15.8,4.5-17.9,14.6c-3.2,15.6-6.1,31.4-9,47.1c-1.4,7.5-2.7,15-3.9,21c-6.3-10.1-12.6-21.3-19.8-31.9
		c-9.4-13.8-22.2-24.1-36.3-32.9c-18.3-11.3-38.3-17.8-59.3-22c-4.6-0.9-9.2-1.4-13.8-2.1c204.9,0,409.8,0,615,0
		C1130,112,1130,215,1130,318z"/>
	<path class="st0" d="M472,9c-6.2,1-12.5,1.5-18.6,3.1c-13.4,3.4-26.9,6.5-39.8,11.3c-10.9,4.1-21.3,10-31.3,16.1
		c-7.5,4.5-14.3,10.3-21.1,15.9c-8,6.5-15.7,13.5-21.5,18.6c1.5-8.3,3.7-20.1,5.7-31.8c0.7-4.2,1.8-8.5,1.2-12.6
		c-1.7-11.5-11-14.4-19-14.5C309.8,14.9,292,15,274.2,15c-13.1,0-19.8,5.5-22.1,18.5c-4.7,25.7-9.4,51.3-14,77
		c-0.8,4.5-1.5,9-2,13.6c-0.4,3.7-3,2.9-5.2,2.9c-25.7,0-51.3,0-77,0c-4.5,0-8.9,0-14.1,0c0.8-5.4,1.5-10.4,2.3-15.3
		c2.9-16.5,5.9-33.1,8.9-49.6c1.7-9.3,3.2-18.6,4.9-27.9c1.4-7.6-5.2-17.1-13.1-18.1c-4.6-0.6-9.2-1-13.8-1c-15.7-0.1-31.3-0.2-47,0
		c-7.2,0.1-14.3,1.7-17.7,9.2c-1.6,3.5-2.6,7.4-3.3,11.2c-4.4,23.9-8.7,47.8-13,71.7c-4.7,26-9.4,52-14,78
		c-4.5,25.4-8.6,50.8-13.1,76.2C18.2,277,15,292.5,12.1,308c-0.3,1.7-0.7,3.3-1.1,5c0-101.3,0-202.5,0-304C164.7,9,318.3,9,472,9z"
		/>
	<path class="st0" d="M11,328c4,7.5,10.4,10.1,18.6,10.1c15.4,0,30.9,0.7,46.3,0.9c4.6,0.1,9.3-0.2,13.8-1.1
		c10.1-1.9,12.6-5.7,15.2-17.8c4.5-21.5,8.2-43.3,12.1-64.9c2.6-14.5,4.9-29,7.4-43.8c31.6,0,63.4,0,95.8,0
		c-1.1,6.7-2.1,13.2-3.2,19.7c-2.6,14.4-5.3,28.9-7.9,43.3c-2.6,14.1-5,28.3-7.9,42.3c-2.3,11.6,5.2,21.2,17,21.4
		c15.9,0.3,31.9,0.8,47.8,0.9c4.9,0.1,9.9-0.3,14.8-1.1c8.6-1.3,12.7-7.3,14.2-15.3c3.1-16.8,6-33.7,9.1-50.6
		c1.7-9.4,3.6-18.8,5.5-29.1c2.2,5.1,4.1,9.5,5.9,14c7.8,18.7,19.8,34.5,34.9,47.7c19,16.5,41.2,27.6,65.7,33.3
		c9.8,2.3,19.9,3.5,29.9,5.2c0.4,0.1,0.7,0.6,1,0.9c-145.3,0-290.7,0-436,0C11,338.7,11,333.3,11,328z"/>
	<path class="st0" d="M490,344c5.7-1,11.4-2,17.1-3c29.4-5.3,56.1-16.8,79.3-36c8.4-7,16.3-14.7,24.7-22.4
		c-1.2,6.8-2.5,13.6-3.5,20.4c-1,6.5-2,13-2.5,19.5c-0.7,9.4,7,15.1,14.8,15.4c16.6,0.6,33.2,0.9,49.8,1c4.9,0.1,10-0.1,14.8-1.1
		c8.6-1.8,12.3-5.7,14.3-16c4.2-21,7.5-42.1,11.2-63.1c2.3-13,4.8-25.9,7.3-39.1c5.7,9.7,11.2,19.5,17,29.1
		c12.7,20.9,25.6,41.7,38.4,62.5c4.4,7.1,8.4,14.4,13.5,20.9c2.2,2.9,6.7,5.5,10.2,5.6c26.3,0.8,52.5,1,78.8,1.2
		c6.3,0,12.6-0.4,18.8-1c7.9-0.8,11.3-7.1,14.5-13.2c6.9-13.2,13.5-26.5,20.5-39.7c0.7-1.4,2.7-2.9,4.2-2.9
		c29.8-0.2,59.7-0.1,89.5-0.1c0.6,0,1.3,0.2,1.6,0.2c2.6,13.7,5,27.2,7.7,40.6c2.3,11.1,7.1,14.8,18.4,15.1
		c16.8,0.4,33.5,0.8,50.3,0.9c5.1,0,10.3-0.3,15.2-1.5c9.2-2.2,12.4-6.7,13.1-16.4c0.1-0.7,0.6-1.3,1-2c0,8.3,0,16.7,0,25
		C916.7,344,703.3,344,490,344z"/>
	<path class="st0" d="M415.7,129.8c8.3-6.4,16-12.9,24.2-18.7c8.9-6.3,19.5-9.1,30.1-10.9c17.7-2.9,35-1.4,51.4,6.6
		c19.1,9.3,29.7,25,33.6,45.5c0.5,2.4,1,4.8,1.5,7.7c1.4,0,3.1,0,4.7,0c17.9,0,35.7,0,53.6,0c25.6,0,50.1-4.5,72.8-17.1
		c7.6-4.2,15.1-1.9,19.2,5.9c2.9,5.4,2.3,13.4-5,18.1c-16,10.4-33.1,17.3-52,20.1c-22,3.3-44,6.5-65.9,10c-10,1.6-19.8,4.1-29.7,5.7
		c-3,0.5-4.1,1.9-5.3,4.2c-8.5,17.7-21.5,30.9-39.4,39c-16,7.2-32.8,9.5-50.4,7.1c-16.3-2.2-30.7-7.9-42.2-19.7
		c-9.3-9.6-15.3-21.3-16.8-34.6c-1-9.2-0.1-18.7-0.3-28c0-1.3-1.2-2.9-2.3-3.7c-13.8-9-27.8-17.7-41.6-26.7
		c-16.4-10.6-33-21.1-49-32.3c-11-7.7-18.5-18.9-25.8-30.1c-3.2-4.9-1-13.3,4.6-17.1c6.6-4.5,12.2-4.4,17.4,0.8
		c5.3,5.2,9.6,11.4,14.8,16.6c14.8,14.5,32.8,24.3,51.6,32.6C385,117.7,400.8,123.8,415.7,129.8z M473.9,225.9
		c0.2,0.4,0.3,0.8,0.5,1.3c6.1-2.9,12.7-5.1,18.4-8.7c14.2-9.2,29.4-16.1,45.4-21.6c19-6.5,38.7-8.9,58.4-11.9
		c19.5-3,39.1-5.7,58.6-9.2c14.7-2.6,28.3-8.5,40.7-17c2.4-1.7,3.1-3.8,1.6-5.6c-1-1.2-3.6-1.3-5.5-1.6c-0.7-0.1-1.5,0.6-2.2,1.1
		c-24.2,14.3-51.2,17.3-78.5,18.2c-8.2,0.3-16.5-1-24.8-0.8c-13.2,0.3-26.5,0.5-39.6,2.1c-15.2,1.8-30.2,5.2-45.4,7.5
		c-5.8,0.9-11.9,1.6-17.6,0.7c-16.1-2.6-29-12.3-42-21.1c-14.1-9.4-27.7-19.5-43.7-25.7c-13.8-5.4-27.7-10.6-41-17.1
		c-22.9-11.1-44.1-24.6-59.2-46c-1.6-2.3-4.1-3.6-6.1-1.3c-1.1,1.2-1.5,4.5-0.6,5.8c3.3,5.1,7,9.9,10.9,14.5
		c8.7,10,19.4,17.7,30.6,24.7c17,10.6,34.1,21.1,51.1,31.8c15.7,9.9,31.5,19.8,44.1,33.6c11.2,12.4,21.5,25.7,32.2,38.6
		C463.7,222.6,467.3,226.9,473.9,225.9z"/>
	<path class="st0" d="M1002.5,141c3.4,22.5,6.6,43.9,9.9,65.7c-14.9,0-29,0-43.6,0C980,184.9,991.1,163.3,1002.5,141z"/>
	<path d="M473.9,225.9c-6.6,0.9-10.2-3.4-13.9-7.8c-10.6-12.9-20.9-26.2-32.2-38.6c-12.5-13.8-28.4-23.7-44.1-33.6
		c-17-10.7-34.1-21.2-51.1-31.8c-11.2-7-21.9-14.7-30.6-24.7c-4-4.6-7.6-9.4-10.9-14.5c-0.9-1.3-0.5-4.6,0.6-5.8
		c2.1-2.3,4.5-1.1,6.1,1.3c15.1,21.3,36.3,34.9,59.2,46c13.3,6.5,27.2,11.7,41,17.1c16,6.2,29.6,16.2,43.7,25.7
		c13.1,8.8,25.9,18.5,42,21.1c5.7,0.9,11.8,0.2,17.6-0.7c15.2-2.3,30.2-5.7,45.4-7.5c13.1-1.5,26.4-1.8,39.6-2.1
		c8.3-0.2,16.5,1.1,24.8,0.8c27.3-0.9,54.2-3.9,78.5-18.2c0.7-0.4,1.5-1.2,2.2-1.1c1.9,0.3,4.4,0.4,5.5,1.6c1.5,1.8,0.9,4-1.6,5.6
		c-12.4,8.5-26,14.4-40.7,17c-19.5,3.5-39,6.2-58.6,9.2c-19.6,3-39.4,5.5-58.4,11.9c-16,5.4-31.2,12.3-45.4,21.6
		c-5.6,3.7-12.2,5.9-18.4,8.7C474.2,226.8,474.1,226.3,473.9,225.9z"/>
</g>
</svg>
