<?xml version="1.0" encoding="utf-8"?>
<!-- Generator: Adobe Illustrator 25.4.1, SVG Export Plug-In . SVG Version: 6.00 Build 0)  -->
<svg version="1.1" id="Laag_1" xmlns="http://www.w3.org/2000/svg" xmlns:xlink="http://www.w3.org/1999/xlink" x="0px" y="0px"
	 viewBox="0 0 1072 230" style="enable-background:new 0 0 1072 230;" xml:space="preserve">
<style type="text/css">
	.st0{fill:#FFFFFF;}
</style>
<g>
	<path class="st0" d="M5,63c17.2,17,34.3,33.9,51.4,50.9c1.4,1.4,2.3,3.2,3.4,4.9c1.5-1.3,2-1.5,2.3-1.8
		c17.3-17.3,34.7-34.5,51.9-51.9c1.3-1.3,2.1-3.8,2.1-5.7c0.2-15.5,0.1-31,0.1-46.4c0-1.2-0.3-2.3-0.5-3.5c-0.6-0.3-1.1-0.7-1.7-1
		C96.3,26.6,78.5,44.7,60.3,63.3c-3.5-3.7-6.6-7.1-9.9-10.4C35.3,37.9,20.2,23,5,8c0.2-0.3,0.3-0.9,0.5-1c1.3-0.1,2.7,0,4,0 M5,174
		c9.6,9.5,19.3,18.8,28.8,28.4c8.9,9,17.5,18.1,26.1,27.1c1.5-1,2-1.2,2.3-1.5c17.3-17.3,34.7-34.5,51.9-51.9
		c1.3-1.3,2.1-3.8,2.1-5.7c0.2-15.5,0.1-31,0.1-46.4c0-1.2-0.3-2.3-0.5-3.5c-0.6-0.4-1.2-0.7-1.8-1.1
		c-17.6,18.3-35.2,36.6-53.3,55.4c-3.3-3.5-5.8-6.4-8.5-9.1C36.5,150.1,20.7,134.5,5,119 M1067,25c-3-9.9-9.8-15.5-20-16.7
		c-11.1-1.3-25.8,4.4-25.9,19.1c-0.1,60.6-0.1,121.1,0.1,181.7c0,7.8,3.9,13.6,10.9,17.1c14,7,28.4,1.1,34.9-14.3 M516.1,161.3
		c0,15.3,0,30.7,0,46c0,13.2,8.9,21.6,22.7,21.7c14.3,0.1,23-8.2,23-21.8c0-25.8,0.1-51.7,0.1-77.5c0-5.2,2.1-7.9,6.1-8.1
		c4.1-0.2,6.5,2.7,6.6,8.1c0,1.3,0,2.7,0,4c0,24-0.2,48,0.1,72c0.1,4.6,1,9.8,3.2,13.8c4.5,8.2,17.1,11.4,27.7,8.2
		c9.6-2.9,14.4-9.6,14.4-20.2c0-25.3,0-50.7,0-76c0-2-0.2-4.5,0.9-5.7c1.6-1.9,4.5-4,6.5-3.8c2.1,0.3,3.9,3.2,5.4,5.3
		c0.6,0.9,0.1,2.6,0.1,3.9c0,25.3,0,50.7,0,76c0,5.8,1.2,11.1,5.5,15c8,7.2,17.5,8.4,27.5,4.7c9-3.3,12.9-10,12.9-20.9
		c0-29.5,0-59,0-88.5c0-24.1-16.4-41.1-40.4-41.4c-27.5-0.3-55-0.3-82.5,0c-22.7,0.2-39.8,17.9-39.8,40.7
		C516.1,131.6,516.1,146.5,516.1,161.3z M690.9,161c0,15.3,0,30.7,0,46c0,12.4,5,18.6,17.2,21.4c15.8,3.6,27.9-6,27.9-22
		c0-17.3,0-34.7,0-52c0-8.7-0.1-17.3,0.5-26c0.1-2.2,2-5.2,3.9-6.2c1.6-0.8,5,0,6.6,1.4c1.4,1.2,1.9,4.1,1.9,6.3
		c0.1,25,0.1,50,0.1,75c0,2.5,0,5,0.4,7.5c2.1,10.8,12.6,17.6,25,16.4c12.2-1.2,20.2-9.2,20.3-20.6c0.1-25.5,0-51,0-76.5
		c0-1.5-0.1-3,0.1-4.5c0.4-3.5,2.5-5.5,5.9-5.7c3.3-0.1,5.9,1.3,6.4,4.9c0.3,1.8,0.4,3.6,0.4,5.5c0,25,0,50,0,75
		c0,10.9,4.2,17,13.6,20.3c17.4,6.1,31.8-3.8,31.8-22c0-30,0.1-60,0-90c-0.1-21.6-16.2-38.7-37.9-39c-28.8-0.5-57.6-0.5-86.5,0
		c-21.3,0.3-37.7,18-37.8,39.3C690.9,130.7,690.9,145.9,690.9,161z M218.1,76c-0.1-1.5-0.2-2.5-0.2-3.4c0-14,0.1-28,0-42
		c-0.1-13.9-9-22.7-23.1-22.4c-13.3,0.2-22.9,8.2-22.8,22.6c0.3,58.6,0.1,117.3,0.2,175.9c0,2.3,0,4.7,0.6,6.9
		c2.7,10.5,13.4,16.8,25.9,15.2c12.1-1.5,19.4-9.2,19.4-20.7c0-26.7,0-53.3,0-80c0-2,0-3.9,0-6.3c2.1-0.2,3.7-0.4,5.3-0.4
		c16.8,0,33.7-0.1,50.5,0c8.6,0,11.3,2.8,11.3,11.4c0,24.7,0,49.3,0,74c0,12.5,5.7,19.6,18,21.8c12.2,2.2,27.9-4,27.5-22
		c-0.7-30.6-0.2-61.3-0.2-92c0-13.4-5.2-24.3-16.5-31.8c-8.3-5.6-17.9-6.8-27.7-6.8C263.7,76,241.2,76,218.1,76z M944.5,228.9
		c0,0,0,0.1,0,0.1c13.2,0,26.3,0.1,39.5-0.1c3.2,0,6.7-0.6,9.7-1.8c9.1-3.6,14-13.9,12.1-24.4c-1.9-10.5-10.2-17.5-21.1-17.6
		c-22.7-0.1-45.3,0.1-68-0.1c-2.6,0-6.1-0.9-7.4-2.7c-1.5-2-2-6-0.9-8.1c1-2.1,4.6-4,7.1-4c16.8-0.3,33.7,0,50.5-0.2
		c19.1-0.2,35.3-12,39.3-29.4c1.7-7.2,1.6-14.9,1.6-22.3c-0.1-22.5-19.1-41.7-41.7-42.1c-20.2-0.3-40.3-0.3-60.5,0
		c-20.1,0.2-39.1,18.6-39.5,38.6c-0.4,25.2-0.5,50.3,0,75.5c0.4,21.7,18.3,38.5,39.9,38.6C918.2,228.9,931.3,228.9,944.5,228.9z
		 M503.1,145.3C503.1,145.3,503.1,145.3,503.1,145.3c0.1-16.7,0.3-33.3,0-50c-0.2-9.4-5-15-13.9-17.8c-17.5-5.7-31.2,4.1-31.2,22.3
		c0,18.8,0,37.6,0,56.5c0,5.8,0.1,11.7,0,17.5c-0.3,8.8-3.9,12.3-12.6,12.3c-14.7,0-29.3,0-44,0c-5.9,0-9.3-2.7-10.5-8.5
		c-0.4-2.1-0.5-4.3-0.5-6.4c0-24.2,0.1-48.3-0.2-72.5c-0.1-4.5-1-9.4-3.2-13.2c-4.6-8.2-17-11.3-27.7-8c-9.6,2.9-14.3,9.5-14.3,20.2
		c0,31.1,0,62.3,0,93.4c0,2.5,0.1,5,0.6,7.4c3.8,18.2,18.6,30.4,37.4,30.5c27.3,0.1,54.6,0.1,82,0c3,0,6-0.4,8.9-1.1
		c17.3-4.2,29.4-18.3,29.4-34.5C503.1,177.3,503.1,161.3,503.1,145.3z"/>
	<path d="M1067,212c-6.5,15.4-20.9,21.3-34.9,14.3c-7-3.5-10.9-9.3-10.9-17.1c-0.1-60.6-0.2-121.1-0.1-181.7
		c0-14.8,14.8-20.4,25.9-19.1c10.2,1.2,17,6.7,20,16.7C1067,87.3,1067,149.7,1067,212z"/>
	<path d="M5,8c15.2,15,30.3,29.9,45.5,44.9c3.3,3.3,6.4,6.8,9.9,10.4c18.2-18.6,36-36.7,53.8-54.9c0.6,0.3,1.1,0.7,1.7,1
		c0.2,1.2,0.5,2.3,0.5,3.5c0,15.5,0.1,31-0.1,46.4c0,1.9-0.8,4.4-2.1,5.7C96.9,82.5,79.5,99.7,62.2,117c-0.3,0.3-0.8,0.5-2.3,1.8
		c-1.1-1.6-2-3.5-3.4-4.9C39.3,96.9,22.2,80,5,63C5,44.7,5,26.3,5,8z"/>
	<path d="M5,119c15.7,15.5,31.5,31.1,47.2,46.7c2.7,2.7,5.2,5.6,8.5,9.1c18.1-18.8,35.7-37.1,53.3-55.4c0.6,0.4,1.2,0.7,1.8,1.1
		c0.2,1.2,0.5,2.3,0.5,3.5c0,15.5,0.1,31-0.1,46.4c0,1.9-0.8,4.4-2.1,5.7c-17.2,17.4-34.6,34.6-51.9,51.9c-0.3,0.3-0.8,0.5-2.3,1.5
		c-8.6-8.9-17.3-18.1-26.1-27.1C24.3,192.8,14.6,183.5,5,174C5,155.7,5,137.3,5,119z"/>
	<path d="M516.1,161.3c0-14.8,0-29.7,0-44.5c0-22.8,17.1-40.5,39.8-40.7c27.5-0.3,55-0.3,82.5,0c24,0.2,40.4,17.3,40.4,41.4
		c0,29.5,0,59,0,88.5c0,10.9-3.9,17.6-12.9,20.9c-10,3.7-19.4,2.6-27.5-4.7c-4.3-3.9-5.5-9.2-5.5-15c0.1-25.3,0-50.7,0-76
		c0-1.3,0.5-3-0.1-3.9c-1.5-2.1-3.4-5-5.4-5.3c-2-0.3-4.9,1.9-6.5,3.8c-1.1,1.2-0.9,3.8-0.9,5.7c-0.1,25.3,0,50.7,0,76
		c0,10.6-4.8,17.3-14.4,20.2c-10.6,3.2-23.2,0-27.7-8.2c-2.2-4-3.2-9.1-3.2-13.8c-0.3-24-0.1-48-0.1-72c0-1.3,0-2.7,0-4
		c-0.2-5.4-2.5-8.3-6.6-8.1c-3.9,0.2-6,3-6.1,8.1c-0.1,25.8-0.1,51.7-0.1,77.5c0,13.6-8.8,21.8-23,21.8
		c-13.8-0.1-22.7-8.5-22.7-21.7C516.1,192,516.1,176.6,516.1,161.3z"/>
	<path d="M690.9,161c0-15.2,0-30.3,0-45.5c0-21.3,16.5-38.9,37.8-39.3c28.8-0.5,57.6-0.5,86.5,0c21.6,0.3,37.8,17.4,37.9,39
		c0.1,30,0,60,0,90c0,18.2-14.4,28.2-31.8,22c-9.4-3.3-13.6-9.4-13.6-20.3c-0.1-25,0-50,0-75c0-1.8-0.1-3.7-0.4-5.5
		c-0.6-3.6-3.2-5.1-6.4-4.9c-3.4,0.2-5.5,2.2-5.9,5.7c-0.2,1.5-0.1,3-0.1,4.5c0,25.5,0.1,51,0,76.5c0,11.4-8.1,19.4-20.3,20.6
		c-12.4,1.2-22.9-5.6-25-16.4c-0.5-2.4-0.4-5-0.4-7.5c0-25,0-50-0.1-75c0-2.2-0.5-5.1-1.9-6.3c-1.5-1.3-5-2.2-6.6-1.4
		c-1.9,1-3.8,4-3.9,6.2c-0.5,8.6-0.5,17.3-0.5,26c0,17.3,0,34.7,0,52c0,16-12.2,25.6-27.9,22c-12.2-2.8-17.2-9-17.2-21.4
		C690.9,191.7,690.9,176.4,690.9,161z"/>
	<path d="M218.1,76c23.1,0,45.6,0,68.1,0c9.8,0,19.3,1.2,27.7,6.8c11.3,7.5,16.4,18.4,16.5,31.8c0.1,30.7-0.5,61.3,0.2,92
		c0.4,17.9-15.3,24.1-27.5,22c-12.4-2.2-18-9.3-18-21.8c0-24.7,0-49.3,0-74c0-8.7-2.7-11.4-11.3-11.4c-16.8-0.1-33.7,0-50.5,0
		c-1.6,0-3.2,0.2-5.3,0.4c0,2.4,0,4.4,0,6.3c0,26.7,0,53.3,0,80c0,11.5-7.3,19.2-19.4,20.7c-12.5,1.6-23.3-4.6-25.9-15.2
		c-0.6-2.2-0.6-4.6-0.6-6.9c0-58.6,0.2-117.3-0.2-175.9c-0.1-14.4,9.6-22.4,22.8-22.6c14.1-0.2,23,8.5,23.1,22.4c0.1,14,0,28,0,42
		C217.9,73.6,218,74.6,218.1,76z"/>
	<path d="M944.5,228.9c-13.2,0-26.3,0-39.5,0c-21.6-0.1-39.4-16.8-39.9-38.6c-0.5-25.2-0.5-50.3,0-75.5c0.4-20,19.4-38.4,39.5-38.6
		c20.2-0.2,40.3-0.3,60.5,0c22.6,0.3,41.6,19.6,41.7,42.1c0,7.4,0,15.1-1.6,22.3c-4,17.4-20.2,29.1-39.3,29.4
		c-16.8,0.2-33.7-0.1-50.5,0.2c-2.5,0.1-6,2-7.1,4c-1.1,2.1-0.5,6.1,0.9,8.1c1.3,1.8,4.9,2.7,7.4,2.7c22.7,0.2,45.3,0.1,68,0.1
		c10.9,0,19.2,7.1,21.1,17.6c1.9,10.5-3,20.8-12.1,24.4c-3,1.2-6.4,1.7-9.7,1.8c-13.2,0.2-26.3,0.1-39.5,0.1
		C944.5,228.9,944.5,228.9,944.5,228.9z M935.5,115.9c-6.8,0-13.7-0.1-20.5,0c-5.2,0.1-8.5,3.3-8.4,7.8c0.1,4.3,3.3,7.4,8.3,7.4
		c13.7,0.1,27.3,0.1,41,0c5.4,0,8.4-2.9,8.3-7.8c-0.1-4.6-3-7.3-8.1-7.4C949.2,115.8,942.3,115.9,935.5,115.9z"/>
	<path d="M503.1,145.3c0,16,0,32,0,48c0.1,16.2-12.1,30.3-29.4,34.5c-2.9,0.7-5.9,1.1-8.9,1.1c-27.3,0.1-54.6,0.1-82,0
		c-18.8-0.1-33.6-12.2-37.4-30.5c-0.5-2.4-0.6-5-0.6-7.4c0-31.1,0-62.3,0-93.4c0-10.7,4.7-17.3,14.3-20.2c10.8-3.3,23.1-0.1,27.7,8
		c2.2,3.8,3.1,8.8,3.2,13.2c0.3,24.1,0.1,48.3,0.2,72.5c0,2.2,0.1,4.3,0.5,6.4c1.2,5.8,4.5,8.5,10.5,8.5c14.7,0,29.3,0,44,0
		c8.7,0,12.3-3.4,12.6-12.3c0.2-5.8,0-11.7,0-17.5c0-18.8,0-37.6,0-56.5c0-18.2,13.7-28,31.2-22.3c8.9,2.9,13.8,8.5,13.9,17.8
		C503.4,112,503.2,128.7,503.1,145.3C503.1,145.3,503.1,145.3,503.1,145.3z"/>
	<path class="st0" d="M935.5,115.9c6.8,0,13.7-0.1,20.5,0c5.1,0.1,8,2.8,8.1,7.4c0.1,4.9-2.8,7.8-8.3,7.8c-13.7,0.1-27.3,0.1-41,0
		c-4.9,0-8.2-3.1-8.3-7.4c-0.1-4.5,3.3-7.7,8.4-7.8C921.8,115.8,928.7,115.9,935.5,115.9z"/>
</g>
</svg>
