<svg xmlns="http://www.w3.org/2000/svg" viewBox="0 0 682.11 283.44"><path d="M885.53,313.25c-5.17,0-10.25-.36-15.37.27a28.76,28.76,0,0,0-11.2,3.76c-6.74,4-9.19,9.16-7.89,16.9,1.58,9.43,4.22,18.5,9.28,26.74A38.49,38.49,0,0,0,871.83,373c4.73,3.17,9.58,6.12,14.52,8.94a44.08,44.08,0,0,1,9.44,6.84c.72.72,1.58,1.45,1.23,2.6s-1.4,1.08-2.29,1.32c-11.44,2.94-21.21.08-29.48-8.3-8.66-8.78-16.5-18.28-24.37-27.76-9.36-11.27-18.58-22.66-27.41-34.35a102.52,102.52,0,0,0-15.33-15.7c-7.61-6.52-16.29-8-25.83-5.8a144,144,0,0,0-19.36,6.1c-16.19,6.28-32.51,5.92-49.13,1.94-17.8-4.26-33.36-12.74-47.57-24a15.22,15.22,0,0,1-3.58-3.67c-.5-.78-1.18-1.61-.42-2.54a2.51,2.51,0,0,1,2.74-.88,24.81,24.81,0,0,1,3.68,1.48c6.87,3.3,13.46,7.26,20.78,9.51,19.07,5.86,37.47,4.35,55.18-5.16a314.57,314.57,0,0,0,34.2-21.5c11.22-8,23.07-14.94,36.71-17.89,26.59-5.75,51.54-1.64,74.49,13.25,5.56,3.6,11.06,7.3,16.44,11.15,9.52,6.8,19,5.13,28.68.41a4.84,4.84,0,0,0,1-.65c1.12-.93,2.84-1.75,2.63-3.29s-2.1-.79-3.21-1.15a21.53,21.53,0,0,1-11.8-9.44c-1.47-2.37-.63-3.59,2.17-4.09,6.83-1.22,12.67,1.39,18,5.06a27.3,27.3,0,0,0,14.41,5.36,19.45,19.45,0,0,1,12.63,6,24.42,24.42,0,0,0,8.77,6,20.25,20.25,0,0,1,8.08,5.43c1.63,1.81,1.67,3,.08,4.92a11.58,11.58,0,0,1-4.18,2.92c-5.24,2.46-10.83,4-16.54,3.3-10.88-1.26-18.36,4.25-25.13,11.56a47.15,47.15,0,0,1-8.94,7.49,30,30,0,0,1-14.47,4.75,3.55,3.55,0,0,0-2.65,1.65,80.29,80.29,0,0,1-11.23,10.89c-6.13,5.09-13.07,5.31-20.31,3.37a10.65,10.65,0,0,1-6-4.56c-1.15-1.73-.53-2.87,1.55-2.84a40.57,40.57,0,0,0,6.51-.55A10.82,10.82,0,0,0,885.53,313.25Z" transform="translate(-296.94 -241.72)"/><path d="M772.41,498.78c-20.24,0-37.28-10.51-44.18-28-12.89-32.63,8-58.8,35.86-63.1,18.79-2.91,34.86,2.75,47.16,17.52,17.87,21.46,9.56,62.68-25,71.76A60.53,60.53,0,0,1,772.41,498.78ZM772.32,477c13.79,0,24.6-11.23,24.55-25.55,0-12.21-11.35-22.72-24.45-22.73s-24.57,10.56-24.54,22.87C747.91,465.81,758.63,477,772.32,477Z" transform="translate(-296.94 -241.72)"/><path d="M872.56,406.9c17.27,1,32.9,8.66,41.78,26.84,9.93,20.31,2.09,56.14-32.21,63.66-15.75,3.45-30.75,1.12-43.37-9.49-14.22-11.94-19-27.84-15.34-45.65,3.58-17.46,15.6-27.79,32.16-33.17C860.36,407.54,865.31,407,872.56,406.9ZM870.35,477c13.69,0,24.36-11.16,24.38-25.44,0-12.34-11.3-22.87-24.54-22.84s-24.36,10.5-24.4,22.76C845.73,465.77,856.55,477,870.35,477Z" transform="translate(-296.94 -241.72)"/><path d="M659.53,410a6.1,6.1,0,0,1,1.12-.19c12.31.09,24.63-.33,36.94.24A30.83,30.83,0,0,1,709.3,413c8.58,4,12.86,11,13.69,20.23a29,29,0,0,1-1.54,12.89c-3,7.93-8.69,12.72-17.22,14.58L731,495.3c-.46.9-1.16.59-1.71.59-8,0-16.06,0-24.09.05a3.07,3.07,0,0,1-2.95-1.74c-6.15-9.66-12.36-19.28-18.55-28.91-.45-.69-.93-1.36-1.73-2.51v32.91h-22.4Zm22.5,17v21.3a27.35,27.35,0,0,0,11-1.09c4.49-1.6,6.66-4.74,6.63-9.59s-2.16-7.82-6.59-9.38A30.3,30.3,0,0,0,682,426.94Z" transform="translate(-296.94 -241.72)"/><path d="M513.63,502.67c7.52,0,14.91,0,22.31,0,.88,0,1.19.49,1.51,1.16a7.59,7.59,0,0,0,4.12,3.62c8.67,3.71,16.81-.73,18.33-10a41.7,41.7,0,0,0,.32-7.64c-.65-.35-.93.17-1.21.46-11.87,12.05-37.94,8.28-44.87-12.63-5.4-16.32,2.4-34.45,17.55-40.28a28.35,28.35,0,0,1,18.56-1,19.34,19.34,0,0,1,10,7.15v-6.19H581a3.66,3.66,0,0,1,.31,2.34q0,24.79,0,49.58A58.22,58.22,0,0,1,579.87,503c-2.69,11.1-9.43,18.22-20.66,20.78-11.41,2.6-22.48,1.72-32.91-3.87-6.6-3.54-11.35-8.68-12.66-16.39A5.93,5.93,0,0,1,513.63,502.67Zm34-23.4c8,0,13.36-5.33,13.34-13.09S555.4,453,547.43,453c-7.82,0-13.31,5.46-13.33,13.17S539.53,479.29,547.66,479.27Z" transform="translate(-296.94 -241.72)"/><path d="M377.94,495.9c-9.84,0-18.95,0-28.05,0-1.37,0-1.88-.91-2.54-1.75L321.2,460.63c-.45-.58-.95-1.13-1.84-2.18v37.31H296.94V409.93h22.37V445a5,5,0,0,0,2-1.93q12.1-15.75,24.18-31.53a3.86,3.86,0,0,1,3.47-1.79c7.71.09,15.43,0,23.14,0a4,4,0,0,1,2.43.37l-34.17,40.4Z" transform="translate(-296.94 -241.72)"/><path d="M915,488.22l9.56-17.86a60.2,60.2,0,0,0,7.56,5.3c5,2.68,10.17,4.33,15.92,3.13a10.69,10.69,0,0,0,4.61-2.15,7.12,7.12,0,0,0-.06-11.47,23.07,23.07,0,0,0-8-3.65c-4-1.19-8.07-2.33-12-3.78-9.35-3.45-13.92-10.1-14.15-20.07-.35-15,8-26.24,22.15-29.35,7.15-1.56,14.26-.77,21.29,1a50.91,50.91,0,0,1,13.5,5.28c-.31.68-.54,1.24-.82,1.78l-8,15.51a26.59,26.59,0,0,0-11.24-5.28c-3.28-.57-6.51-.54-9.54,1.13-4.9,2.7-5.16,8-.51,11a27.51,27.51,0,0,0,7.3,3,117.49,117.49,0,0,1,11.3,3.71c11.82,5,16.45,13.51,15,26.23-1.84,16.49-12.88,24.21-28,26.05-12.62,1.53-24.24-1.8-34.83-8.76A11.12,11.12,0,0,1,915,488.22Z" transform="translate(-296.94 -241.72)"/><path d="M418.42,442.49V437.4h20.82v58.34H418.49v-6.39c-2.28,2.7-4.37,4.72-7.06,6a26.31,26.31,0,0,1-21.77.45c-10.74-4.34-16.81-12.67-18.56-23.93-1.79-11.52,1.35-21.66,10.21-29.57,10.54-9.42,27.57-9.07,36.29-.22A4.24,4.24,0,0,0,418.42,442.49Zm.64,24.34c.06-7.82-5.27-13.27-13.07-13.36-8.07-.09-13.65,5.18-13.72,13s5.19,13.21,13.09,13.29C413.59,479.81,419,474.72,419.06,466.83Z" transform="translate(-296.94 -241.72)"/><path d="M631.48,442.62v-5.21H652.3v58.35H631.58v-5.59c-.36-.06-.57-.15-.62-.1-7.66,8.68-17.22,9.35-27.37,6-12-4-19.93-16.06-19.91-29.62s7.92-25.26,19.83-29.45A27.31,27.31,0,0,1,631.48,442.62Zm-12.75,10.85c-7.84,0-13.32,5.38-13.38,13.11s5.39,13.16,13.49,13.15,13.38-5.27,13.39-13S626.7,453.46,618.73,453.47Z" transform="translate(-296.94 -241.72)"/><path d="M509.14,495.91H488.59a3.92,3.92,0,0,1-.42-2.67q0-13.68,0-27.35c0-1.09,0-2.18,0-3.27-.25-7-3.1-10.44-8.86-10.62-6.63-.21-10.57,3.33-11.23,10.15-.53,5.36-.21,10.74-.26,16.11-.05,5.76,0,11.51,0,17.46H447.05V437.4h20.67v6.77c.85.1,1-.33,1.21-.6A24.64,24.64,0,0,1,498.82,438c6.62,3.58,9.29,9.67,9.93,16.72.91,10,.23,20.09.38,30.14C509.18,488.42,509.14,492,509.14,495.91Z" transform="translate(-296.94 -241.72)"/></svg>