<svg xmlns="http://www.w3.org/2000/svg" viewBox="0 0 956.16 194.29"><path d="M566.9,370.45l17.4-24.77-.2.27c3.07-4.09,5.42-10.67,2.81-16.89-1.27-3-4.78-8.3-14-9.52l-16.06-2.22-13.6-12.47-1.93-1.77-2.53-.68-22.7-6.08-6.58-13.65-4.92-10.23L494.69,278l-15.79,8.77c-6.28.15-18,.21-24.45-.65-2.42-.32-5.45-.79-8.66-1.28-10.21-1.56-22.91-3.5-32.25-3.5-8.94,0-42.25,2.29-51.21,6.28-.69.3-1.56.65-2.48,1-5.22,2.09-12.9,5.17-14.42,12.75-8.71,1.1-22.87,4.3-25.56,13.58-2.3-.09-4.64-.15-7-.15-3.85-.19-43.44-1.62-65.42,19.13-9.62,9.06-14.52,20.76-14.6,34.75a33.81,33.81,0,0,0,2.59,13.19L234,383.47,181.8,445.06l-15,18H435.9l2.49-6.87c.72-2.06,18.26-50.57,62.9-51,14.67,2,42.48-1.55,52.18-27.9l2-4.93,7.7,3.58Z" transform="translate(-166.84 -272.44)" fill-rule="evenodd"/><path d="M499.89,287.31l-18.07,10s-18.74.67-28.78-.66S424.92,292,413.54,292s-40.83,2.67-46.85,5.35S350,302.71,360,308.07c7.54,4,9.46,3.43,9.46,3.43l-1.59,2.76S366,310.83,352,311.5s-27.44,6.6-19.41,7.94,93.71,17.41,93.71,79c0,0-.67,32.13-27.44,54.22h29.45s20.09-58.24,73.64-58.24c0,0,33.47,5.35,42.17-22.76,0,0-25.44,5.36-20.76-10s25.44-12.72,34.81,2.68l17.4-24.77s6-8-4-9.37-19.41-2.68-19.41-2.68L536,312.75l-27.45-7.37-8.7-18.07Z" transform="translate(-166.84 -272.44)" fill="#fff" fill-rule="evenodd"/><path d="M383.42,451.31s32.13-13.38,32.13-54.22c0,0,2-61.58-103.08-71.62,0,0-69-4-69,43.51,0,0-2,24.77,40.16,34.81s99.74,22.09,99.74,47.52Z" transform="translate(-166.84 -272.44)" fill="#fff" fill-rule="evenodd"/><path d="M373.38,452H190l52.21-61.59s16.74,16.07,50.88,23.44S373.38,431.9,373.38,452Z" transform="translate(-166.84 -272.44)" fill="#fff" fill-rule="evenodd"/><path d="M514.13,327.47a8.53,8.53,0,0,1,17,0h0a8.53,8.53,0,1,1-17,0ZM1123,369.09h-60.48l-3,5.69c-9.88,18.6-25.07,47.12-26.44,49.48a24.11,24.11,0,0,0-1.35,2.84c-.63,1.49-1.8,4.29-14.6,4.29-.35,0-.65,0-.93,0a13.29,13.29,0,0,1,.8-2.3L1041.47,385l8.85-15.92H947.51l-3.07,5.51-11.25,20.25H920.88l5.44-9.86,8.82-15.9H876.77l-3.13,5.17-6.93,11.42a26.54,26.54,0,0,0-4.51-6.5c-6.46-6.9-16-10.3-28.45-10.09H763.5l-3.09,5.37-20.69,35.83-4.28-31.9-1.23-9.3h-120l-2.1,1-12.74,5.73,3.67-6.68H543.5l-3,5.89-36.28,72-7.83,15.53h58l3-5.73,8.12-15.42L577.41,458l3.21,4.5h61.81l3-2.72,8.83-7.88h33.59V452l.19,10.52H769l3.09-5.34,11.53-19.9h7.78c.39,11.23,1.44,23.23,14.06,25.12,4.28.63,21.3.34,31.15.11h44.17l3.09-5.32,11.24-19.25h14L904.57,447l-7.77,15.51h58l3-5.75,2.46-4.69c8.18,10.13,26.43,14.68,58.42,14.68,51.9,0,65.05-23.09,67.59-29.13l28.29-52.74,8.47-15.77Z" transform="translate(-166.84 -272.44)" fill-rule="evenodd"/><path d="M882.81,379.8l-43.61,72h35.47L889,427.2h37.49l-12.31,24.58h34.12l37.64-72H953.8l-14.3,25.75H902.69L917,379.8Zm113.83,0h35.47l-24.67,44.38s-9.08,17.92,9.67,17.92c23,0,23.28-9.1,25.24-12.47S1069,379.81,1069,379.81h36.14l-28.56,53.26s-7.66,23-57.87,23c-52.91,0-55.56-13.42-50.59-23.14l28.56-53.09Zm-411.73,0-10.39,18.88,42-18.88h38.82l-55.76,34.52L618,434.09l68-54.29h38.82l8.44,63.07,36.41-63.07h64.25c26.77-.45,25.13,19.44,25.13,19.44-4.39,18.61-27.14,18.53-27.14,18.53,5.38,1.92,2.35,20.05,2.35,20.05.18,10.71,2.25,14,2.25,14s-25.42.6-29.45,0-4.62-4.71-5-16.77c-.3-9.8-7.52-8.45-7.52-8.45H777.47l-14.62,25.23H698.6l-.19-10.6H650.22l-11.88,10.6h-52.2l-22-30.84L548,451.79H513.83l36.27-72h34.81Zm208.53,18.69-7.54,10.63,25.12-.37a11.61,11.61,0,0,0,7.28-4.81c2.61-4.06,2.59-5.55-3.43-5.45ZM693.78,404l-16.46,16.35,20.07-.34-3.61-16Z" transform="translate(-166.84 -272.44)" fill="#fff" fill-rule="evenodd"/></svg>