<?xml version="1.0" encoding="utf-8"?>
<!-- Generator: Adobe Illustrator 25.4.1, SVG Export Plug-In . SVG Version: 6.00 Build 0)  -->
<svg version="1.1" id="Laag_1" xmlns="http://www.w3.org/2000/svg" xmlns:xlink="http://www.w3.org/1999/xlink" x="0px" y="0px"
	 viewBox="0 0 1169 562" style="enable-background:new 0 0 1169 562;" xml:space="preserve">
<style type="text/css">
	.st0{fill:#FFFFFF;}
</style>
<g id="Im0O1F.tif">
	<g>
		<path class="st0" d="M370.7,272.3c3.9,0.5,7.6,1.1,11.4,1.5c5.1,0.6,9.3,3.2,10.7,7.8c1.7,6,5.8,7.4,10.9,8.1
			c1.3,0.2,2.6,0.5,3.9,0.8c15.2,2.8,30.5,5.7,46.1,3.6c7.1-0.9,12.5-4.2,16.2-10.9c9.9-18,25.4-28.6,45.7-32c2.8-0.5,5.8-0.5,9-0.8
			c-0.1,4.5-2.8,5.8-5.7,6.7c-4.6,1.4-9.3,2.5-13.9,4.1c-13.7,5-22.2,14.8-25.3,29.1c-1.8,8.4,1.3,17.3,8.6,21.2
			c7.5,3.9,11.2,10.1,13.8,17.5c1.2,3.4,2.2,7,3.6,10.3c2.8,6.4,7.2,7,11.8,1.6c1.4-1.6,2.4-3.6,3.8-5.3c2.4-3,5-3.9,7.7-0.3
			c0.9,1.2,2,2.3,3.1,3.2c3,2.4,5.5,1.9,7.3-1.5c0.7-1.3,1.1-2.8,1.6-4.2c2.4-6.9,4.8-7.7,10.2-3c6.3,5.4,10.8,3.9,12.6-4.1
			c1.5-6.7,3.4-7.5,9.1-3.4c4,2.8,7.8,1.7,9.1-3c1.5-5.4,0.8-11-3.5-14.8c-4.4-3.9-9.3-7.8-14.6-10.2c-7.1-3.2-14.8-4.9-22.2-7.2
			c-3.3-1-6.2-2.1-6-6.5c1,0,1.6-0.1,2.3,0c15.9,1.5,31.8,3.9,47.7,4.4c40.7,1.3,80.3-4.8,118.1-20.8c1.5-0.6,3.6-0.6,5.3-0.3
			c34,5.7,68.2,7.7,102.5,6.5c16.8-0.6,33.5-2.5,50.2-4.4c6.7-0.8,12.7-4.1,16.9-9.8c3.5-4.8,2.8-8.2-2.2-11.2
			c-2.1-1.3-5-1.9-6.3-3.8c-2.4-3.4-4.6-3-7.5-1.2c-2.9,1.8-5.5,1.6-6.7-2c-1.4-4.3-3.9-4.9-7.6-2.8c-2.6,1.5-5.2,2-6.4-1.6
			c-1.5-4.6-4.2-4.9-7.9-2.7c-2.4,1.4-4.9,1.8-6-1.6c-1.5-4.8-4.3-5.3-8.3-2.9c-2.6,1.5-4.9,1.4-5.9-1.8c-1.5-4.6-4.2-5-8-2.7
			c-3.1,1.9-5.4,1.1-6.6-2.4c-1.3-3.7-3.5-3.9-7-2.8c-3.2,1-6.9,1.3-10.2,0.8c-9.3-1.2-17.2-5.7-25-10.7c-3.6-2.3-7.2-4.1-7.4-8.9
			c2.5-0.8,5.2-1.2,7.4-2.5c3-1.7,5.1-1.2,7.7,0.8c5,3.8,6.6,3.1,8-2.9c1.4-5.9,3.2-6.6,8.1-3c4.7,3.5,6.5,2.8,7.9-2.7
			c1.6-6.5,2.8-6.9,8.2-2.9c4.3,3.2,6.4,2.4,7.7-2.8c1.7-6.8,2.6-7.1,8.5-3c4.1,2.9,5.8,2.4,7.1-2.3c2.2-7.6,2.6-7.7,9.1-3.4
			c3.8,2.6,5.6,1.9,6.9-2.4c2.3-7.7,2.3-7.7,9.4-3.3c3.7,2.3,5.3,1.7,6.4-2.5c2.2-7.9,2.6-8,9.4-3.6c3.9,2.6,5.1,1.9,6.7-2.6
			c0.8-2.2,2.1-4.6,4-5.8c6.2-4.2,7.2-7.2,3.2-13.5c-3-4.7-7.3-7.3-12.9-7c-3.6,0.2-7.3,0.7-10.9,1.5c-25.6,5.8-51.3,11.6-76.9,17.6
			c-3,0.7-4.7,0.4-6.5-2.5c-5.1-8.1-9.7-9.5-19.1-6.9c-6.4,1.8-12.9,2.3-19.1-0.3c-7.8-3.2-15.3-2.5-22.7,1.1
			c-4.9,2.4-9.7,5.1-14.5,7.7c-4.1,2.2-8.2,2.4-12.9,1.9c-6.6-0.6-14-1.1-20,1.1c-9.4,3.6-17.9,3.3-27.1,0.2
			c-48.8-16.1-98.6-20.5-149.3-11.5c-16,2.9-31.4,8.5-47.4,12c-8.5,1.8-17.4,2.2-26.2,2.2c-4.7,0-9.9-1.9-11.5-7.2
			c-1.6-5.5,2.2-9.3,6.1-12.1c5.8-4.1,11.9-8,18.4-10.9c21.7-10,44.9-15.6,68.1-21.1c35.3-8.3,69.8-18.7,101.7-36.2
			c15.9-8.7,30.5-19,41.9-33.3c5.3-6.7,9.7-14,11.1-22.6c0.3-2.1-0.5-4.3-0.7-6.5c-3.3,2.6-4.8,5.5-7,7.6c-2.1,1.8-5.4,4.2-7.5,3.7
			c-5.7-1.5-8.5,0.8-11.8,4.7c-1.7,2-6.6,4.2-7.8,3.3c-6.1-4.4-9.7-0.9-13.2,3.1c-3.1,3.5-6.3,3.9-10.1,1.5c-4-2.6-7.6-1.7-10.9,1.3
			c-1.2,1.1-2.6,2.1-3.6,3.4c-3.4,4-7.1,4.6-11.3,1.4c-3.2-2.4-6-1.8-9.1,0.5c-3,2.3-6.4,4.2-9.7,6.2c-2.7,1.6-5.5,1.8-7.6-0.9
			c-2.7-3.4-5.3-2.6-8.1-0.2c-3,2.6-5.9,5.4-9.1,7.8c-4.9,3.8-7.3,3.2-10.4-2c-3-5-4.2-5.3-8.8-1.8c-3.6,2.7-6.7,6-10.4,8.6
			c-4.1,2.9-7.5,1.9-10.2-2.2c-3.5-5.4-5-5.6-10.1-1.5c-3.4,2.7-6.7,5.5-10.3,7.8c-2.6,1.7-5.3,1.5-7.3-1.6c-3-4.8-4.9-5.3-9.5-2.2
			c-3.3,2.2-6.2,5-9.3,7.5c-2.6,2.1-5.4,3.2-7.8-0.1c-2.5-3.4-5.4-2.9-8.2-0.8c-3,2.3-6,4.8-8.5,7.7c-3.4,4-6.8,4.5-10.7,1.1
			c-2.9-2.5-5.5-2-8,0.3c-2.3,2.1-4.7,4.3-6.8,6.6c-3,3.3-5.8,6.8-8.6,10.1c-8.6-4.4-9.2-4.3-15.4,3.6c-3.2,4-6.1,8.3-9.1,12.5
			c-1.5,2.1-2.9,2.6-5.4,1.3c-1.5-0.7-4.4-0.6-5.6,0.5c-3.5,3-6.8,6.4-9.6,10.1c-12.9,17.2-22.2,36.3-28.2,56.9
			c-9.6,32.7-8.2,65.1,4.5,96.8c1.9,4.8,4.4,5.6,8.7,2.6c1.5-1.1,2.7-2.9,3.6-4.6c1.6-2.9,2.6-6.1,4.3-9c1.6-2.8,3.9-4.9,7.9-3.2
			c-4.3,12.8-8.6,25.4-12.7,38c-0.9,2.9-1.8,6.4-1.1,9.2c2.8,11.7,9.4,21.2,18.4,28.9c3.7,3.1,5.9,1.9,6.8-2.9
			c1.2-6.5,2.5-7.2,8.5-4.3c1.3,0.6,2.6,1.4,4,2.1c7.3,4,9.6,3.1,11.6-4.9c2-8,4.9-9.3,11.9-4.7c3.5,2.4,5.4,1.2,7.3-1.7
			c4.1-6.7,4.7-14.2,3.6-21.7c-1.2-8.1-6-12.2-14.2-12.8c-4.4-0.3-8.9-0.5-13.9-0.8c0.6-2.3,1.1-4,1.6-5.7
			c1.8-6.2,4.1-12.4,5.2-18.7c3-17.8-5-27.5-23-29c-2.6-0.2-5.3-0.6-5.6-4.2c23.1-5.2,38.9,8.1,36.8,31.2
			C373.1,259,371.8,265.2,370.7,272.3z M491.9,462.9c-0.2,64.6,47.2,105.6,104.4,96.6c45.2-7.2,77.2-47.2,74.7-95.2
			c-3.6-69.4-74.2-106.3-132.2-76.7C506,404.2,492.9,433.5,491.9,462.9z M1082.7,518.3c0-10.4,0-20.1,0-30.4c21.9,0,43.2,0,64.7,0
			c0-14.1,0-27.6,0-41.5c-21.7,0-43,0-64.4,0c0-8.7,0-17.1,0-25.8c19.5,0,38.7,0.1,57.8-0.1c4.1,0,8.5-0.4,12.2-1.9
			c2.9-1.2,6.8-4.2,7.2-6.8c1.3-10.7,1.5-21.6,2.1-32.4c-42.6,0-83.8,0-124.9,0c0,60,0,119.6,0,179.5c1.9,0,3.4,0,4.9,0
			c19.3,0,38.6-0.1,57.9-0.1c14.2,0,28.3,0.1,42.5-0.1c9.7-0.1,17.4-4.9,18.3-13c1.1-8.9,0.2-18.1,0.2-27.5
			C1134.9,518.3,1109,518.3,1082.7,518.3z M137.8,558.9c10.6,0,20.2,0,29.9,0c11.1,0,16-3.2,20-13.7c2.9-7.6,5.7-15.3,8.3-23
			c0.9-2.7,2.1-4,5.3-3.9c19.6,0.2,39.3,0.1,58.9,0c3.1,0,4.3,1.1,5.2,3.9c3.5,10.9,7.1,21.8,10.9,32.6c0.5,1.5,2.3,3.7,3.5,3.8
			c13.4,0.3,26.9,0.2,41,0.2c-0.6-2.3-1-4.1-1.6-5.7c-17-53.4-34-106.8-51-160.1c-3.4-10.5-7.8-13.9-18.9-14
			c-13.3-0.1-26.6,0.2-40-0.1c-4.2-0.1-6,1.2-7.4,5.1c-20,55-40.3,109.9-60.4,164.8C140.3,551.8,139.2,554.9,137.8,558.9z
			 M770.6,378.3c-6.5,0.5-13,0.6-19.4,1.6c-20.1,3.1-37.2,11.3-48.4,29.1c-13.4,21.4-8.6,44.5,12,59.1c10.6,7.6,22.6,11.9,35,15.5
			c9.4,2.8,18.9,5.4,28,9c4.7,1.8,9.3,4.8,12.7,8.4c6.5,6.8,4.3,14.9-4.5,18c-4.2,1.5-8.8,2.2-13.2,2.3
			c-16.7,0.4-32.3-3.5-46.8-11.9c-9.9-5.7-16.6-4.3-23.2,5c-3.3,4.7-6,10-9.2,14.8c-2.2,3.3-1,5,1.7,7.2
			c26.7,21.7,57.5,27.4,90.7,22.7c17.4-2.5,33-9.5,44.4-23.5c17.1-21.1,13.8-49.9-7.9-66.1c-6.3-4.7-13.6-8.5-20.9-11.5
			c-9.4-3.8-19.3-6.2-28.9-9.6c-7.8-2.8-15.7-5.6-22.9-9.6c-9.2-5.2-8.6-14.9,1.2-19.1c5.7-2.4,12.1-3.6,18.3-4
			c12.1-0.8,23.8,1.9,35.1,6.2c10.3,3.9,16.1,1.7,20.8-7.9c1.8-3.7,3.3-7.6,4.8-11.5c3-8.1,2.9-8.2-4.8-12.1
			C808.1,381.6,789.7,378.6,770.6,378.3z M426.3,377c-5,0.4-10,0.4-14.9,1.2c-5.7,0.9-11.5,2.1-17,3.8
			c-76.5,23.8-81.3,113.1-38.9,153.1c36,33.9,82,32,121,17.5c1.2-0.4,2.4-3.2,2.1-4.5c-1.4-6.5-2.9-13-5.1-19.3
			c-3.1-8.9-8.7-11.6-18-9.5c-4.9,1.1-9.7,2.3-14.7,2.9c-34.9,4.4-58.5-12.5-63.2-45.3c-4.1-28.6,12.9-53.6,40.2-58.6
			c6.3-1.2,12.9-1.2,19.4-0.9c5.8,0.3,11.5,1.6,17.2,2.9c10.2,2.3,16-0.4,19.4-10.2c1.9-5.5,2.8-11.3,4.6-16.8
			c1.4-4.3-0.5-6-4.2-7.2C458.6,381.1,442.8,377.2,426.3,377z M910,420.7c0,46.3,0,92,0,137.9c15.2,0,29.9,0,45,0
			c0-46.1,0-91.7,0-137.9c11.3,0,22.1,0.2,32.8-0.1c4.4-0.1,8.9-0.9,13.2-2c4.2-1.2,7.8-4.2,7.9-8.7c0.4-10.1,0.1-20.1,0.1-30.4
			c-1.3-0.1-2.2-0.3-3.2-0.3c-43.9,0-87.9,0-131.8,0.1c-3.6,0-7.3,0.8-10.7,2c-5.6,1.9-8.6,6-8.5,12.1c0.1,4.5,0,9,0,13.5
			c0,4.6,0,9.1,0,14C873.7,420.7,891.4,420.7,910,420.7z M117.4,558.6c0-10.2,0.2-20-0.1-29.8c-0.1-4.3-2.8-7.6-6.9-8.9
			c-3.1-1-6.5-1.5-9.8-1.5c-14.6-0.2-29.3-0.1-44-0.1c-1.8,0-3.6,0-5.9,0c0-2.6,0-4.5,0-6.5c0-38.4,0-76.8-0.1-115.3
			c0-9.9-3.9-16-12.8-16.7c-10.8-0.9-21.8-0.2-32.9-0.2c0,59.6,0,119.2,0,179C42.5,558.6,79.5,558.6,117.4,558.6z"/>
		<path d="M370.7,272.3c1.1-7.1,2.5-13.3,3-19.6c2.1-23.1-13.7-36.4-36.8-31.2c0.3,3.6,2.9,4,5.6,4.2c18,1.5,25.9,11.2,23,29
			c-1.1,6.3-3.4,12.5-5.2,18.7c-0.5,1.7-1,3.4-1.6,5.7c5,0.3,9.4,0.5,13.9,0.8c8.2,0.6,13,4.6,14.2,12.8c1.2,7.5,0.5,14.9-3.6,21.7
			c-1.8,3-3.7,4.1-7.3,1.7c-7-4.6-9.8-3.3-11.9,4.7c-2,7.9-4.3,8.9-11.6,4.9c-1.3-0.7-2.6-1.5-4-2.1c-6-2.9-7.3-2.2-8.5,4.3
			c-0.9,4.8-3.1,6-6.8,2.9c-9.1-7.7-15.7-17.2-18.4-28.9c-0.7-2.8,0.2-6.3,1.1-9.2c4-12.7,8.4-25.2,12.7-38c-4-1.6-6.3,0.4-7.9,3.2
			c-1.6,2.9-2.7,6.1-4.3,9c-0.9,1.7-2,3.5-3.6,4.6c-4.2,3-6.8,2.2-8.7-2.6c-12.7-31.7-14-64.1-4.5-96.8c6-20.6,15.3-39.7,28.2-56.9
			c2.8-3.7,6.1-7.1,9.6-10.1c1.2-1,4.1-1.2,5.6-0.5c2.6,1.3,3.9,0.8,5.4-1.3c3-4.2,5.9-8.4,9.1-12.5c6.2-7.9,6.8-8,15.4-3.6
			c2.8-3.3,5.6-6.8,8.6-10.1c2.1-2.3,4.4-4.5,6.8-6.6c2.5-2.3,5.1-2.8,8-0.3c3.9,3.3,7.3,2.9,10.7-1.1c2.5-2.9,5.5-5.3,8.5-7.7
			c2.8-2.1,5.7-2.6,8.2,0.8c2.4,3.3,5.2,2.2,7.8,0.1c3.1-2.5,6-5.3,9.3-7.5c4.6-3.1,6.5-2.6,9.5,2.2c2,3.2,4.7,3.3,7.3,1.6
			c3.6-2.3,7-5.1,10.3-7.8c5.1-4.1,6.6-3.9,10.1,1.5c2.7,4.1,6.1,5.1,10.2,2.2c3.7-2.6,6.8-5.8,10.4-8.6c4.7-3.6,5.9-3.2,8.8,1.8
			c3.1,5.2,5.5,5.8,10.4,2c3.2-2.4,6-5.2,9.1-7.8c2.8-2.4,5.4-3.1,8.1,0.2c2.1,2.7,4.9,2.6,7.6,0.9c3.3-2,6.6-3.9,9.7-6.2
			c3-2.3,5.9-2.9,9.1-0.5c4.2,3.1,8,2.6,11.3-1.4c1.1-1.3,2.4-2.3,3.6-3.4c3.3-3,6.9-3.9,10.9-1.3c3.8,2.5,7,2,10.1-1.5
			c3.5-3.9,7.1-7.4,13.2-3.1c1.2,0.9,6.1-1.3,7.8-3.3c3.3-3.9,6.2-6.3,11.8-4.7c2.1,0.6,5.4-1.8,7.5-3.7c2.3-2,3.7-5,7-7.6
			c0.3,2.2,1.1,4.4,0.7,6.5c-1.4,8.6-5.8,15.9-11.1,22.6c-11.4,14.3-26.1,24.6-41.9,33.3c-31.9,17.6-66.5,27.9-101.7,36.2
			c-23.2,5.5-46.3,11.1-68.1,21.1c-6.4,3-12.6,6.8-18.4,10.9c-3.9,2.7-7.8,6.6-6.1,12.1c1.6,5.4,6.8,7.3,11.5,7.2
			c8.7,0,17.7-0.3,26.2-2.2c15.9-3.4,31.4-9.1,47.4-12c50.7-9.1,100.5-4.6,149.3,11.5c9.3,3,17.7,3.3,27.1-0.2
			c6-2.3,13.4-1.8,20-1.1c4.7,0.5,8.8,0.3,12.9-1.9c4.8-2.6,9.6-5.3,14.5-7.7c7.4-3.6,14.9-4.3,22.7-1.1c6.3,2.6,12.7,2.1,19.1,0.3
			c9.4-2.6,13.9-1.2,19.1,6.9c1.8,2.8,3.5,3.1,6.5,2.5c25.6-6,51.2-11.8,76.9-17.6c3.6-0.8,7.2-1.3,10.9-1.5c5.6-0.3,10,2.3,12.9,7
			c4,6.3,3,9.3-3.2,13.5c-1.8,1.2-3.2,3.7-4,5.8c-1.6,4.5-2.9,5.1-6.7,2.6c-6.8-4.4-7.2-4.3-9.4,3.6c-1.2,4.2-2.8,4.8-6.4,2.5
			c-7.1-4.4-7.1-4.4-9.4,3.3c-1.3,4.3-3.1,5-6.9,2.4c-6.5-4.3-6.9-4.2-9.1,3.4c-1.3,4.7-3,5.2-7.1,2.3c-5.9-4.1-6.8-3.8-8.5,3
			c-1.3,5.2-3.4,6-7.7,2.8c-5.4-3.9-6.6-3.5-8.2,2.9c-1.4,5.6-3.2,6.2-7.9,2.7c-4.9-3.6-6.7-2.9-8.1,3c-1.4,6-3.1,6.7-8,2.9
			c-2.5-1.9-4.7-2.5-7.7-0.8c-2.2,1.3-4.9,1.7-7.4,2.5c0.2,4.8,3.9,6.6,7.4,8.9c7.8,5,15.7,9.5,25,10.7c3.3,0.4,7,0.2,10.2-0.8
			c3.6-1.1,5.7-0.9,7,2.8c1.2,3.4,3.4,4.3,6.6,2.4c3.8-2.3,6.5-1.9,8,2.7c1,3.3,3.4,3.3,5.9,1.8c4-2.4,6.8-1.9,8.3,2.9
			c1.1,3.4,3.6,3,6,1.6c3.8-2.3,6.4-2,7.9,2.7c1.2,3.7,3.8,3.1,6.4,1.6c3.7-2.1,6.2-1.5,7.6,2.8c1.2,3.6,3.8,3.9,6.7,2
			c2.9-1.8,5.1-2.2,7.5,1.2c1.3,1.8,4.2,2.5,6.3,3.8c5,3,5.8,6.4,2.2,11.2c-4.2,5.7-10.2,9-16.9,9.8c-16.7,1.9-33.4,3.9-50.2,4.4
			c-34.3,1.2-68.6-0.8-102.5-6.5c-1.7-0.3-3.7-0.4-5.3,0.3c-37.8,16-77.3,22.1-118.1,20.8c-15.9-0.5-31.8-2.9-47.7-4.4
			c-0.6-0.1-1.3,0-2.3,0c-0.2,4.4,2.8,5.5,6,6.5c7.5,2.3,15.2,4,22.2,7.2c5.3,2.4,10.2,6.2,14.6,10.2c4.3,3.8,5,9.4,3.5,14.8
			c-1.3,4.8-5.1,5.9-9.1,3c-5.7-4-7.6-3.3-9.1,3.4c-1.8,8-6.3,9.5-12.6,4.1c-5.4-4.7-7.8-3.9-10.2,3c-0.5,1.4-0.9,2.9-1.6,4.2
			c-1.8,3.4-4.3,3.9-7.3,1.5c-1.2-0.9-2.2-2-3.1-3.2c-2.8-3.6-5.3-2.7-7.7,0.3c-1.3,1.7-2.4,3.6-3.8,5.3c-4.6,5.4-9,4.8-11.8-1.6
			c-1.5-3.3-2.4-6.9-3.6-10.3c-2.6-7.4-6.3-13.6-13.8-17.5c-7.4-3.9-10.5-12.7-8.6-21.2c3.1-14.3,11.6-24.1,25.3-29.1
			c4.5-1.7,9.3-2.7,13.9-4.1c2.9-0.9,5.6-2.2,5.7-6.7c-3.2,0.3-6.1,0.3-9,0.8c-20.3,3.4-35.8,14-45.7,32c-3.7,6.7-9.1,10-16.2,10.9
			c-15.6,2.1-30.9-0.8-46.1-3.6c-1.3-0.2-2.6-0.6-3.9-0.8c-5.2-0.7-9.2-2.1-10.9-8.1c-1.4-4.7-5.6-7.3-10.7-7.8
			C378.3,273.4,374.6,272.8,370.7,272.3z M738.5,159.4c-3.2-5.5-7-7.9-11.9-8.5c-5.1-0.6-9.8,3.4-9.3,7.9c0.1,1.3,2,3.4,2.9,3.4
			C726,161.5,731.9,160.4,738.5,159.4z M402,121.2c0.6-3.5,1.3-6,1.5-8.5c0.3-3.9-1.8-5.1-5.3-3.8c-3.3,1.2-6.5,2.6-10.9,4.4
			C392.6,116.1,396.7,118.3,402,121.2z M571.2,158c0-5.1,0-8.7,0-12.2c-3.1,0.4-6.2,0.7-9.3,1.4c-1.8,0.4-3.4,1.6-5.8,2.8
			C561.2,152.6,565.4,154.8,571.2,158z M375.9,215c5.6,3,9.8,5.2,14.8,7.8c0.7-3.2,1.4-5.5,1.6-7.9c0.2-4.3-1.3-5.5-5.4-4.2
			C383.5,211.7,380.4,213.2,375.9,215z M388,162c0.7-1.8,1.4-2.6,1.4-3.5c0.1-2.7-0.1-5.4-0.2-8.1c-2.6,0.3-5.3,0.3-7.9,0.9
			c-2.2,0.6-4.3,2-7.2,3.3C379.2,157.3,383.3,159.5,388,162z M411.5,190.4c5.1,2.7,9.3,5,15,8c0-5.1,0-8.7,0-12.3
			c-3.1,0.5-6.3,0.8-9.4,1.5C415.5,188.1,414,189.2,411.5,190.4z M510.2,179.7c0.7-1.5,1.3-2.3,1.3-3c0-2.9-0.1-5.8-0.2-8.6
			c-2.7,0.3-5.4,0.4-8,1c-2.1,0.6-4.1,1.8-7.1,3.2C501.4,175.1,505.5,177.3,510.2,179.7z M333.5,189.3c5.3,2.8,9.5,5,13.9,7.4
			c0.7-1.6,1.3-2.3,1.3-3.1c0-2.9-0.1-5.8-0.2-8.7c-2.7,0.3-5.4,0.4-8,1.1C338.4,186.6,336.4,187.9,333.5,189.3z M351.7,139.2
			c5.3,2.8,9.6,5.1,14,7.4c0.7-1.5,1.3-2.2,1.4-3c0.1-2.9-0.1-5.8-0.2-8.7c-2.7,0.3-5.4,0.4-8,1.1
			C356.7,136.5,354.7,137.8,351.7,139.2z M401.2,179.5c0.7-2.6,1.5-4.6,1.8-6.7c0.7-5.3-1.1-6.8-6.1-5.1c-3.1,1-6,2.4-10,4.1
			C392.1,174.7,396.3,176.9,401.2,179.5z M458.6,168.2c0.5-3.9,1.3-6.9,1.2-9.8c0-1-2.6-3-3.5-2.7c-3.9,1-7.7,2.7-12.7,4.6
			C449.3,163.2,453.4,165.4,458.6,168.2z M371.7,98.8c5.6,2.9,9.9,5.2,14.8,7.7c0.7-3.1,1.4-4.9,1.6-6.9c0.6-5-1.1-6.6-5.9-5.1
			C379.1,95.5,376.1,97,371.7,98.8z M373,188.3c0.6-3.4,1.3-5.7,1.5-8.1c0.4-4.1-1.6-5.5-5.4-4.1c-3.3,1.2-6.5,2.6-10.8,4.4
			C363.6,183.4,367.8,185.6,373,188.3z M515.8,157.2c0-5,0-8.6,0-12.2c-3.1,0.4-6.2,0.7-9.3,1.4c-1.8,0.4-3.3,1.6-5.8,2.8
			C505.8,151.9,509.9,154.1,515.8,157.2z M454.5,192.8c0-5.1,0-8.7,0-12.3c-3.1,0.5-6.2,0.7-9.3,1.5c-1.8,0.4-3.3,1.6-5.8,2.8
			C444.5,187.4,448.7,189.6,454.5,192.8z M375.2,124.3c0.5-3.9,1.3-6.8,1.1-9.6c-0.1-1.1-2.7-3.2-3.7-3c-3.8,1-7.5,2.7-12.4,4.6
			C365.6,119.2,369.7,121.4,375.2,124.3z M561.2,202.2c0.7-3.3,1.4-5.6,1.6-8c0.3-3.8-1.4-5.7-5.4-4.2c-3.3,1.2-6.6,2.6-10.9,4.4
			C551.8,197.1,555.9,199.3,561.2,202.2z M448.9,215.8c0.7-1.8,1.4-2.7,1.4-3.6c0.1-2.7-0.1-5.4-0.2-8.1c-2.6,0.3-5.4,0.3-7.9,1
			c-2.2,0.6-4.3,2-7.1,3.3C440,211.1,444.2,213.3,448.9,215.8z M587,205.4c0.7-2.8,1.5-4.9,1.8-7.1c0.5-4.8-1.1-6.3-5.6-4.9
			c-3.3,1-6.4,2.5-10.7,4.2C577.8,200.4,582.1,202.7,587,205.4z M322.7,170.2c5.6,3,9.8,5.2,15,8c0.6-3.9,1.4-6.8,1.2-9.6
			c-0.1-1.1-2.7-3.2-3.7-3C331.3,166.6,327.6,168.3,322.7,170.2z M550.7,172.3c5.6,3,9.9,5.2,14.7,7.8c0.7-3.2,1.4-5.3,1.6-7.4
			c0.4-4.8-1.2-6.1-5.8-4.6C558.1,169.1,555.1,170.5,550.7,172.3z M409.2,98.4c0.7-2.6,1.5-4.6,1.8-6.6c0.7-5.3-1.2-6.8-6.2-5.2
			c-3,1-5.9,2.5-9.8,4.2C400.1,93.6,404.3,95.9,409.2,98.4z M351.4,131.8c0.7-1.8,1.4-2.7,1.5-3.6c0-2.7-0.2-5.4-0.4-8.1
			c-2.5,0.3-5.1,0.2-7.5,0.9c-2.3,0.6-4.4,2-7.4,3.4C342.7,127.1,346.8,129.4,351.4,131.8z M486.6,160.5c0.7-3,1.5-5.2,1.6-7.4
			c0.4-4.9-1.2-6.1-5.9-4.6c-3.1,1-6.1,2.5-10.3,4.3C477.2,155.5,481.4,157.8,486.6,160.5z M507.2,201.8c0.5-3.8,1.3-6.8,1.1-9.7
			c0-1-2.5-3-3.4-2.8c-3.9,1-7.7,2.6-12.8,4.5C497.8,196.8,502,199,507.2,201.8z M533.7,202.2c0.5-3.9,1.3-6.8,1.2-9.8
			c0-1-2.5-3-3.5-2.7c-4,1-7.7,2.7-12.7,4.6C524.3,197.2,528.4,199.4,533.7,202.2z M478.6,206.8c0.6-3.9,1.3-6.7,1.2-9.6
			c-0.1-1.1-2.5-3.1-3.4-2.9c-4,1-7.7,2.6-12.9,4.5C469.3,201.8,473.3,204,478.6,206.8z M367,212.4c0.6-3.2,1.3-5.6,1.5-8
			c0.5-4.2-1.7-5.5-5.5-4.2c-3.3,1.1-6.4,2.6-10.8,4.3C357.5,207.4,361.7,209.6,367,212.4z M416.2,166.9c5.2,2.8,9.5,5.1,13.9,7.4
			c0.7-1.5,1.3-2.2,1.3-2.9c0.1-2.9,0-5.8-0.1-8.7c-2.7,0.3-5.4,0.3-8,1C421.2,164.2,419.2,165.5,416.2,166.9z M582.3,154.5
			c5.4,2.8,9.7,5.1,14.7,7.7c0.7-3.3,1.3-5.7,1.5-8.1c0.3-4-1.5-5.6-5.4-4.1C589.8,151.4,586.6,152.7,582.3,154.5z M348.4,160.8
			c5.5,3,9.8,5.2,14.8,7.9c0.6-3.3,1.3-5.5,1.4-7.7c0.3-4.6-1.2-5.8-5.7-4.4C355.8,157.5,352.8,159,348.4,160.8z M618,188.8
			c0.5-3.9,1.2-6.8,1.1-9.6c-0.1-1.1-2.5-3.1-3.3-2.9c-4,1-7.8,2.7-12.9,4.6C608.5,183.8,612.6,186,618,188.8z M376.5,131.8
			c5.1,2.7,9.3,4.9,15.1,8c0.1-4.8,0.2-8.4,0.3-12c-3.1,0.3-6.2,0.4-9.2,1.1C380.8,129.3,379.2,130.5,376.5,131.8z M542.8,155.6
			c0.6-3.2,1.3-5.6,1.6-8c0.4-4.2-1.7-5.5-5.5-4.2c-3.3,1.1-6.4,2.6-10.8,4.3C533.3,150.5,537.5,152.8,542.8,155.6z M340.6,155.7
			c0-5.1,0-8.7,0-12.3c-3,0.4-6,0.7-8.9,1.4c-1.9,0.5-3.5,1.6-6.2,2.9C330.5,150.3,334.7,152.6,340.6,155.7z M523,170.9
			c5.6,3,9.9,5.2,14.9,7.9c0.6-3.2,1.3-5.5,1.5-7.7c0.3-4.7-1.1-5.8-5.6-4.4C530.6,167.7,527.6,169.1,523,170.9z M416.2,83.4
			c5.6,3,9.9,5.2,15.1,8c0.5-3.9,1.3-6.8,1.1-9.6c-0.1-1.1-2.7-3.2-3.6-2.9C424.9,79.8,421.2,81.5,416.2,83.4z M420.8,220.5
			c0-5.1,0-8.7,0-12.3c-3.1,0.5-6.2,0.7-9.3,1.4c-1.8,0.4-3.4,1.6-5.8,2.8C410.8,215.2,414.9,217.4,420.8,220.5z M397.3,200.7
			c0.5-3.9,1.1-6.8,1-9.7c0-1-2.2-3-2.9-2.8c-4.1,1-8,2.6-13.3,4.5C387.9,195.7,391.9,197.9,397.3,200.7z M482.1,183.4
			c0.6-3.3,1.3-5.6,1.5-8c0.4-4-1.5-5.6-5.4-4.2c-3.3,1.2-6.6,2.6-10.9,4.4C472.6,178.4,476.8,180.6,482.1,183.4z M592.1,184.2
			c0.5-3.9,1.2-6.9,1.1-9.9c0-1-2.6-2.9-3.5-2.6c-3.9,1-7.7,2.7-12.6,4.5C582.6,179.1,586.8,181.4,592.1,184.2z M753.4,155.9
			c4.1-1,7.7-2,11.4-2.9c0.1-0.8,0.3-1.5,0.4-2.3c-2.3-1.3-4.8-4-6.8-3.7C755,147.7,753.1,150.9,753.4,155.9z"/>
		<path d="M491.9,462.9c1-29.4,14.1-58.7,46.9-75.4c58-29.5,128.6,7.4,132.2,76.7c2.5,48-29.5,88.1-74.7,95.2
			C539.1,568.5,491.7,527.5,491.9,462.9z M535.2,468.7c0,13.1,4.1,25.2,11.7,34.7c20.3,25.3,57.9,22.2,73.7-6.1
			c6.7-11.9,8.3-24.8,6.4-38.1c-4.1-28.7-29.4-46.2-56.7-39.3C549.4,425.2,535.2,444.9,535.2,468.7z"/>
		<path d="M1082.7,518.3c26.3,0,52.2,0,78.4,0c0,9.4,0.8,18.6-0.2,27.5c-1,8.1-8.7,12.9-18.3,13c-14.1,0.2-28.3,0.1-42.5,0.1
			c-19.3,0-38.6,0.1-57.9,0.1c-1.5,0-3,0-4.9,0c0-60,0-119.6,0-179.5c41.1,0,82.3,0,124.9,0c-0.6,10.8-0.7,21.7-2.1,32.4
			c-0.3,2.6-4.2,5.6-7.2,6.8c-3.7,1.5-8.1,1.9-12.2,1.9c-19.1,0.2-38.2,0.1-57.8,0.1c0,8.7,0,17.1,0,25.8c21.5,0,42.7,0,64.4,0
			c0,13.9,0,27.4,0,41.5c-21.4,0-42.8,0-64.7,0C1082.7,498.1,1082.7,507.8,1082.7,518.3z"/>
		<path d="M137.8,558.9c1.4-4,2.5-7.1,3.6-10.2c20.2-54.9,40.4-109.8,60.4-164.8c1.4-3.9,3.3-5.2,7.4-5.1c13.3,0.3,26.6,0,40,0.1
			c11.1,0.1,15.6,3.5,18.9,14c17,53.4,34,106.8,51,160.1c0.5,1.7,0.9,3.4,1.6,5.7c-14.1,0-27.6,0.1-41-0.2c-1.2,0-3-2.2-3.5-3.8
			c-3.8-10.8-7.4-21.7-10.9-32.6c-0.9-2.8-2.1-3.9-5.2-3.9c-19.6,0.1-39.3,0.2-58.9,0c-3.1,0-4.3,1.2-5.3,3.9
			c-2.6,7.7-5.4,15.4-8.3,23c-4,10.4-8.9,13.7-20,13.7C158.1,558.9,148.4,558.9,137.8,558.9z M209,480.9c15.2,0,29.6,0,44.4,0
			c-7.6-19.9-14.9-39.1-22.7-59.5C223.3,441.8,216.2,461.2,209,480.9z"/>
		<path d="M770.6,378.3c19.1,0.2,37.5,3.2,54.6,12.1c7.7,4,7.7,4,4.8,12.1c-1.4,3.9-2.9,7.8-4.8,11.5c-4.7,9.6-10.6,11.8-20.8,7.9
			c-11.3-4.3-23-7-35.1-6.2c-6.2,0.4-12.7,1.6-18.3,4c-9.8,4.2-10.4,13.9-1.2,19.1c7.2,4,15.1,6.8,22.9,9.6
			c9.5,3.4,19.5,5.8,28.9,9.6c7.3,3,14.6,6.8,20.9,11.5c21.8,16.2,25,45.1,7.9,66.1c-11.4,14.1-27,21.1-44.4,23.5
			c-33.2,4.7-64-1.1-90.7-22.7c-2.8-2.2-4-3.9-1.7-7.2c3.3-4.8,5.9-10.1,9.2-14.8c6.6-9.3,13.2-10.7,23.2-5
			c14.5,8.4,30.1,12.3,46.8,11.9c4.4-0.1,9-0.9,13.2-2.3c8.9-3.1,11-11.2,4.5-18c-3.4-3.6-8.1-6.6-12.7-8.4c-9.1-3.5-18.6-6.2-28-9
			c-12.4-3.6-24.3-7.9-35-15.5c-20.5-14.6-25.4-37.7-12-59.1c11.2-17.8,28.3-26.1,48.4-29.1C757.6,379,764.2,378.9,770.6,378.3z"/>
		<path d="M426.3,377c16.5,0.2,32.3,4.1,47.9,9c3.7,1.2,5.6,2.9,4.2,7.2c-1.8,5.5-2.7,11.3-4.6,16.8c-3.4,9.8-9.2,12.6-19.4,10.2
			c-5.7-1.3-11.4-2.6-17.2-2.9c-6.4-0.3-13.1-0.3-19.4,0.9c-27.4,5-44.4,30.1-40.2,58.6c4.7,32.8,28.3,49.7,63.2,45.3
			c4.9-0.6,9.8-1.8,14.7-2.9c9.3-2,14.9,0.6,18,9.5c2.2,6.3,3.7,12.8,5.1,19.3c0.3,1.4-1,4.1-2.1,4.5c-39,14.5-85,16.4-121-17.5
			c-42.4-40-37.6-129.3,38.9-153.1c5.5-1.7,11.3-2.9,17-3.8C416.3,377.4,421.3,377.4,426.3,377z"/>
		<path d="M910,420.7c-18.6,0-36.4,0-55.1,0c0-4.9,0-9.4,0-14c0-4.5,0.1-9,0-13.5c-0.1-6.1,2.9-10.2,8.5-12.1
			c3.4-1.2,7.1-1.9,10.7-2C918.1,379,962,379,1006,379c1,0,1.9,0.2,3.2,0.3c0,10.3,0.3,20.4-0.1,30.4c-0.2,4.5-3.7,7.5-7.9,8.7
			c-4.3,1.2-8.8,1.9-13.2,2c-10.8,0.3-21.5,0.1-32.8,0.1c0,46.2,0,91.9,0,137.9c-15.2,0-29.9,0-45,0C910,512.7,910,467,910,420.7z"
			/>
		<path d="M117.4,558.6c-37.9,0-75,0-112.4,0c0-59.8,0-119.5,0-179c11.1,0,22-0.7,32.9,0.2c8.8,0.8,12.8,6.9,12.8,16.7
			c0.1,38.4,0.1,76.8,0.1,115.3c0,1.9,0,3.9,0,6.5c2.4,0,4.1,0,5.9,0c14.7,0,29.3-0.1,44,0.1c3.3,0,6.7,0.5,9.8,1.5
			c4.1,1.3,6.8,4.6,6.9,8.9C117.6,538.6,117.4,548.4,117.4,558.6z"/>
		<path class="st0" d="M738.5,159.4c-6.6,1.1-12.4,2.2-18.3,2.8c-0.9,0.1-2.8-2.1-2.9-3.4c-0.5-4.5,4.3-8.5,9.3-7.9
			C731.4,151.5,735.3,153.8,738.5,159.4z"/>
		<path class="st0" d="M402,121.2c-5.3-2.9-9.4-5.1-14.7-8c4.3-1.7,7.6-3.2,10.9-4.4c3.5-1.3,5.6-0.1,5.3,3.8
			C403.3,115.2,402.6,117.7,402,121.2z"/>
		<path class="st0" d="M571.2,158c-5.9-3.1-10-5.4-15.1-8.1c2.5-1.2,4.1-2.4,5.8-2.8c3-0.7,6.2-1,9.3-1.4
			C571.2,149.3,571.2,152.9,571.2,158z"/>
		<path class="st0" d="M375.9,215c4.6-1.8,7.7-3.3,10.9-4.4c4.1-1.3,5.6-0.1,5.4,4.2c-0.1,2.4-0.9,4.7-1.6,7.9
			C385.7,220.2,381.5,218,375.9,215z"/>
		<path class="st0" d="M388,162c-4.6-2.5-8.8-4.7-13.9-7.4c2.9-1.4,4.9-2.7,7.2-3.3c2.5-0.7,5.2-0.6,7.9-0.9
			c0.1,2.7,0.3,5.4,0.2,8.1C389.4,159.4,388.7,160.2,388,162z"/>
		<path class="st0" d="M411.5,190.4c2.4-1.2,3.9-2.4,5.6-2.8c3.1-0.7,6.2-1,9.4-1.5c0,3.6,0,7.2,0,12.3
			C420.8,195.4,416.6,193.1,411.5,190.4z"/>
		<path class="st0" d="M510.2,179.7c-4.6-2.4-8.8-4.7-13.9-7.4c3-1.4,4.9-2.7,7.1-3.2c2.6-0.7,5.3-0.7,8-1c0.1,2.9,0.2,5.8,0.2,8.6
			C511.5,177.4,510.8,178.2,510.2,179.7z"/>
		<path class="st0" d="M333.5,189.3c3-1.4,4.9-2.7,7.1-3.2c2.6-0.7,5.3-0.7,8-1.1c0.1,2.9,0.2,5.8,0.2,8.7c0,0.7-0.6,1.5-1.3,3.1
			C343,194.4,338.7,192.1,333.5,189.3z"/>
		<path class="st0" d="M351.7,139.2c3.1-1.4,5-2.6,7.2-3.2c2.6-0.7,5.3-0.7,8-1.1c0.1,2.9,0.2,5.8,0.2,8.7c0,0.7-0.7,1.5-1.4,3
			C361.3,144.3,357,142,351.7,139.2z"/>
		<path class="st0" d="M401.2,179.5c-4.8-2.6-9.1-4.8-14.4-7.6c4.1-1.7,7-3.1,10-4.1c5.1-1.7,6.9-0.1,6.1,5.1
			C402.7,174.9,401.9,176.9,401.2,179.5z"/>
		<path class="st0" d="M458.6,168.2c-5.2-2.8-9.4-5-15-8c5-1.9,8.8-3.6,12.7-4.6c0.9-0.2,3.4,1.7,3.5,2.7
			C460,161.3,459.2,164.3,458.6,168.2z"/>
		<path class="st0" d="M371.7,98.8c4.4-1.8,7.4-3.3,10.5-4.2c4.7-1.5,6.5,0.1,5.9,5.1c-0.2,1.9-0.9,3.8-1.6,6.9
			C381.6,104,377.3,101.7,371.7,98.8z"/>
		<path class="st0" d="M373,188.3c-5.2-2.8-9.4-5-14.7-7.8c4.3-1.8,7.5-3.2,10.8-4.4c3.8-1.4,5.8,0,5.4,4.1
			C374.2,182.6,373.6,185,373,188.3z"/>
		<path class="st0" d="M515.8,157.2c-5.8-3.1-10-5.3-15.1-8c2.5-1.2,4-2.4,5.8-2.8c3-0.7,6.2-1,9.3-1.4
			C515.8,148.6,515.8,152.2,515.8,157.2z"/>
		<path class="st0" d="M454.5,192.8c-5.8-3.1-10-5.3-15.1-8.1c2.5-1.2,4.1-2.4,5.8-2.8c3-0.7,6.2-1,9.3-1.5
			C454.5,184,454.5,187.6,454.5,192.8z"/>
		<path class="st0" d="M375.2,124.3c-5.4-2.9-9.5-5.1-15-8c4.9-1.9,8.5-3.6,12.4-4.6c1-0.2,3.6,1.8,3.7,3
			C376.5,117.5,375.7,120.4,375.2,124.3z"/>
		<path class="st0" d="M561.2,202.2c-5.3-2.8-9.4-5-14.7-7.9c4.3-1.7,7.6-3.1,10.9-4.4c4-1.5,5.7,0.4,5.4,4.2
			C562.6,196.5,561.9,198.9,561.2,202.2z"/>
		<path class="st0" d="M448.9,215.8c-4.7-2.5-8.8-4.7-13.9-7.4c2.9-1.4,4.9-2.7,7.1-3.3c2.5-0.7,5.3-0.7,7.9-1
			c0.1,2.7,0.3,5.4,0.2,8.1C450.2,213.1,449.6,214,448.9,215.8z"/>
		<path class="st0" d="M587,205.4c-5-2.7-9.3-4.9-14.6-7.8c4.3-1.7,7.4-3.3,10.7-4.2c4.5-1.4,6.2,0.1,5.6,4.9
			C588.6,200.5,587.8,202.6,587,205.4z"/>
		<path class="st0" d="M322.7,170.2c4.9-1.9,8.6-3.6,12.5-4.5c1-0.2,3.7,1.8,3.7,3c0.2,2.8-0.6,5.7-1.2,9.6
			C332.5,175.4,328.2,173.2,322.7,170.2z"/>
		<path class="st0" d="M550.7,172.3c4.4-1.8,7.4-3.2,10.5-4.2c4.6-1.5,6.2-0.2,5.8,4.6c-0.2,2.1-0.9,4.2-1.6,7.4
			C560.6,177.5,556.3,175.2,550.7,172.3z"/>
		<path class="st0" d="M409.2,98.4c-4.8-2.6-9-4.8-14.3-7.6c3.9-1.7,6.8-3.2,9.8-4.2c5.1-1.7,6.9-0.1,6.2,5.2
			C410.7,93.8,409.9,95.8,409.2,98.4z"/>
		<path class="st0" d="M351.4,131.8c-4.6-2.5-8.8-4.7-13.9-7.4c3.1-1.4,5.2-2.8,7.4-3.4c2.4-0.7,5-0.6,7.5-0.9
			c0.1,2.7,0.4,5.4,0.4,8.1C352.9,129.2,352.2,130.1,351.4,131.8z"/>
		<path class="st0" d="M486.6,160.5c-5.2-2.8-9.4-5-14.6-7.7c4.2-1.8,7.2-3.3,10.3-4.3c4.7-1.5,6.3-0.3,5.9,4.6
			C488,155.3,487.3,157.5,486.6,160.5z"/>
		<path class="st0" d="M507.2,201.8c-5.3-2.8-9.4-5-15.1-8c5.1-1.9,8.9-3.5,12.8-4.5c0.9-0.2,3.3,1.7,3.4,2.8
			C508.5,195,507.8,198,507.2,201.8z"/>
		<path class="st0" d="M533.7,202.2c-5.3-2.8-9.4-5-15-8c5-1.9,8.8-3.6,12.7-4.6c0.9-0.2,3.4,1.7,3.5,2.7
			C535,195.4,534.2,198.4,533.7,202.2z"/>
		<path class="st0" d="M478.6,206.8c-5.3-2.8-9.4-5-15.1-8c5.2-1.9,9-3.5,12.9-4.5c0.9-0.2,3.3,1.8,3.4,2.9
			C480,200,479.2,202.9,478.6,206.8z"/>
		<path class="st0" d="M367,212.4c-5.3-2.8-9.5-5-14.7-7.8c4.4-1.8,7.6-3.2,10.8-4.3c3.7-1.3,5.9-0.1,5.5,4.2
			C368.2,206.8,367.6,209.2,367,212.4z"/>
		<path class="st0" d="M416.2,166.9c3.1-1.4,5-2.7,7.2-3.2c2.6-0.6,5.3-0.7,8-1c0,2.9,0.1,5.8,0.1,8.7c0,0.7-0.6,1.5-1.3,2.9
			C425.7,172,421.4,169.7,416.2,166.9z"/>
		<path class="st0" d="M582.3,154.5c4.3-1.7,7.5-3.1,10.8-4.4c3.9-1.5,5.7,0.1,5.4,4.1c-0.2,2.4-0.9,4.7-1.5,8.1
			C592,159.6,587.7,157.3,582.3,154.5z"/>
		<path class="st0" d="M348.4,160.8c4.4-1.8,7.4-3.2,10.6-4.2c4.5-1.4,6-0.2,5.7,4.4c-0.1,2.3-0.8,4.5-1.4,7.7
			C358.2,166,353.9,163.7,348.4,160.8z"/>
		<path class="st0" d="M618,188.8c-5.4-2.8-9.5-5-15.1-7.9c5.1-1.9,8.9-3.5,12.9-4.6c0.9-0.2,3.3,1.8,3.3,2.9
			C619.2,182,618.5,184.9,618,188.8z"/>
		<path class="st0" d="M376.5,131.8c2.7-1.3,4.4-2.5,6.2-2.9c3-0.6,6.2-0.8,9.2-1.1c-0.1,3.6-0.2,7.2-0.3,12
			C385.8,136.7,381.5,134.5,376.5,131.8z"/>
		<path class="st0" d="M542.8,155.6c-5.3-2.8-9.5-5-14.8-7.8c4.4-1.8,7.6-3.2,10.8-4.3c3.7-1.3,5.9,0,5.5,4.2
			C544.1,150,543.5,152.3,542.8,155.6z"/>
		<path class="st0" d="M340.6,155.7c-5.9-3.1-10.1-5.4-15.1-8c2.6-1.3,4.3-2.4,6.2-2.9c2.9-0.7,5.9-1,8.9-1.4
			C340.6,147,340.6,150.6,340.6,155.7z"/>
		<path class="st0" d="M523,170.9c4.6-1.8,7.6-3.2,10.7-4.2c4.5-1.4,5.9-0.3,5.6,4.4c-0.1,2.3-0.8,4.5-1.5,7.7
			C532.9,176.2,528.7,173.9,523,170.9z"/>
		<path class="st0" d="M416.2,83.4c5-1.9,8.7-3.6,12.6-4.5c1-0.2,3.5,1.8,3.6,2.9c0.2,2.8-0.6,5.7-1.1,9.6
			C426,88.6,421.8,86.4,416.2,83.4z"/>
		<path class="st0" d="M420.8,220.5c-5.9-3.1-10-5.4-15.1-8.1c2.4-1.2,4-2.4,5.8-2.8c3-0.7,6.2-1,9.3-1.4
			C420.8,211.8,420.8,215.4,420.8,220.5z"/>
		<path class="st0" d="M397.3,200.7c-5.4-2.8-9.5-5-15.2-8c5.3-1.9,9.2-3.4,13.3-4.5c0.7-0.2,2.9,1.8,2.9,2.8
			C398.5,193.9,397.8,196.8,397.3,200.7z"/>
		<path class="st0" d="M482.1,183.4c-5.3-2.8-9.5-5-14.8-7.8c4.3-1.8,7.6-3.2,10.9-4.4c3.9-1.4,5.7,0.2,5.4,4.2
			C483.4,177.8,482.7,180.1,482.1,183.4z"/>
		<path class="st0" d="M592.1,184.2c-5.4-2.8-9.5-5.1-15-8c4.9-1.9,8.7-3.5,12.6-4.5c1-0.2,3.5,1.6,3.5,2.6
			C593.4,177.3,592.6,180.3,592.1,184.2z"/>
		<path class="st0" d="M753.4,155.9c-0.3-5,1.6-8.2,5.1-8.8c2-0.3,4.5,2.4,6.8,3.7c-0.1,0.8-0.3,1.5-0.4,2.3
			C761.2,154,757.5,154.9,753.4,155.9z"/>
		<path class="st0" d="M535.2,468.7c0-23.8,14.2-43.5,35.1-48.8c27.3-6.9,52.6,10.6,56.7,39.3c1.9,13.4,0.3,26.2-6.4,38.1
			c-15.8,28.3-53.3,31.4-73.7,6.1C539.3,493.9,535.2,481.8,535.2,468.7z"/>
		<path class="st0" d="M209,480.9c7.2-19.8,14.3-39.2,21.7-59.5c7.8,20.4,15.2,39.7,22.7,59.5C238.6,480.9,224.2,480.9,209,480.9z"
			/>
	</g>
</g>
</svg>
