<?xml version="1.0" encoding="utf-8"?>
<!-- Generator: Adobe Illustrator 24.1.2, SVG Export Plug-In . SVG Version: 6.00 Build 0)  -->
<svg version="1.1" id="Laag_1" xmlns="http://www.w3.org/2000/svg" xmlns:xlink="http://www.w3.org/1999/xlink" x="0px" y="0px"
	 viewBox="0 0 1168.1 662" style="enable-background:new 0 0 1168.1 662;" xml:space="preserve">
<style type="text/css">
	.st0{fill:#171717;}
	.st1{fill:#242424;}
	.st2{fill:#101010;}
	.st3{fill:#272727;}
	.st4{fill:#0B0B0B;}
	.st5{fill:#343434;}
	.st6{fill:#6A6A6A;}
	.st7{fill:#7A7A7A;}
	.st8{fill:#FEFEFE;}
	.st9{fill:#FCFCFC;}
	.st10{fill:#1B1B1B;}
	.st11{fill:#F0F0F0;}
</style>
<g id="TQDE9e.tif">
	<g>
		<path class="st0" d="M669.9,450.9c1,1.3,0.2,1.8-1,1.8c-2.7,0.1-5.3,0-8,0c-48.3,0-96.6,0-144.8,0.1c-4,0-5.7-0.9-6.8-5
			c-14.8-53.2-46.6-94.7-88.9-128.9c-46.8-37.8-99.8-63.2-157.1-80.5c-50.8-15.4-102.7-25.1-155.4-31.3
			c-34.7-4.1-69.6-6.4-104.5-7.7c-1,0.3-1.3-0.1-1-1c33.9-8.3,67.9-16.3,101.8-25c101.6-25.9,201.7-56.7,300.2-92.6
			c16.9-6.1,33.7-12.5,50.5-18.7c1.2-0.4,2.4-0.7,4.2-1.3c-0.8,2.7-2.7,3.5-4,4.8c-20.8,18.8-40.9,38.1-56.6,61.6
			c-4.9,7.4-9.1,15.1-11.5,23.7c-4.7,17.4,1.3,30.1,17.7,37.3c14,6.1,28.8,8,43.8,8.3c41,0.9,81.8-2.4,122.4-7.8
			c85.3-11.2,167.7-34.3,249.9-58.8c58.6-17.5,117.4-34.5,174.9-55.7c55.4-20.4,109.9-43.2,162.7-69.7c2.2-1.1,4.4-2.1,6.7-3.2
			c1.1-0.2,1.4,0.3,1.3,1.3c-23.5,31.9-46.9,63.7-70.3,95.7c-2.2,2.9-4.6,4.9-8.1,6.1c-46.5,16.7-93.6,31.2-140.5,46.8
			C887,171.4,826.2,190.9,768,217.4c-25.6,11.6-49.7,25.6-69,46.6c-26.8,29.1-39.4,63.8-40.9,102.9c-1,27.4,3.5,54,11,80.2
			C669.4,448.3,669.6,449.7,669.9,450.9c-1.1,1.1-2.5,0.6-3.8,0.6c-48.3,0-96.6,0-144.8,0c-0.9,0-1.8,0.1-2,0c3.6,0,7.8,0,12,0
			c44.4,0,88.9,0,133.3,0C666.4,451.6,668.3,452.3,669.9,450.9z"/>
		<path class="st0" d="M856.2,506c21.6,0,43.3,0,64.9,0c18.8,0,32.1,13.3,32.1,32.1c0,39.6,0,79.3,0.1,118.9c0,3.9-1,5-4.9,5
			c-16.8-0.2-33.6-0.2-50.4,0c-3.9,0.1-4.6-1.2-4.6-4.8c0.1-33.8,0.1-67.6,0.1-101.4c0-12.6-5.7-18.3-18.3-18.4
			c-8.7,0-17.3,0.3-26-0.1c-5.1-0.3-5.9,1.5-5.9,6.2c0.2,28.6,0.1,57.3,0.1,85.9c0,19.5-13.1,32.5-32.6,32.5c-35,0-69.9,0-104.9,0
			c-18,0-31.8-13.5-31.8-31.4c-0.1-40,0-79.9-0.1-119.9c0-3.9,1.3-4.6,4.8-4.6c16.8,0.2,33.6,0.2,50.4,0c3.8,0,4.7,1.1,4.7,4.8
			c-0.1,33.8-0.1,67.6-0.1,101.4c0,12.6,6,18.6,18.7,18.6c4.7,0,9.3,0.1,14,0c10.9-0.1,17-6.2,17.1-17.1c0-34.1,0.1-68.3-0.1-102.4
			c0-4.1,0.9-5.4,5.2-5.3C811.2,506.1,833.7,506,856.2,506z"/>
		<path class="st0" d="M270.2,503.1c8.1-10.7,16.2-21.4,25.9-30.7c12.4-12,27.4-19,45-19.5c22.4,0.4,44.7,0.2,67.1,0.1
			c1.8,1.2,0.9,3,0.9,4.5c0.1,54.9,0.1,109.8,0,164.8c0,22.8-16.9,39.5-39.8,39.6c-30.1,0-60.2,0-91.7,0
			c43-52,85.3-103.3,128.4-155.6c-5.3,0-9.5-0.1-13.7,0c-7.3,0.2-14.6-0.5-21.9,0.4c-12.6,1.6-22.9,7.5-31,17.3
			C302.7,568,266.1,612,229.7,656.2c-3.3,4-6.6,5.9-12,5.8c-24.5-0.3-48.9-0.1-73.4-0.2c-1.6,0-3.3,0.5-4.8-0.4
			c-0.2-1.7,1.1-2.4,1.9-3.3c40.7-49.2,81.5-98.4,122.3-147.6c0.7-0.9,1.6-1.6,2.5-2.4C266.9,506,268.8,504.8,270.2,503.1z"/>
		<path class="st0" d="M1060.5,661.8c-18.5,0-36.9,0-55.4,0c-17.5,0-31.5-13.2-31.6-30.6c-0.3-31.6-0.3-63.2,0-94.9
			c0.1-16.8,14-30.3,30.9-30.3c37.4-0.2,74.9-0.2,112.3,0c17.4,0.1,30.5,13.8,30.6,32.1c0.1,19.3,0,38.6,0,57.9
			c0,11.3,0.1,22.6,0,33.9c-0.2,18.8-13.5,31.8-32.3,31.8C1096.8,661.8,1078.7,661.8,1060.5,661.8z"/>
		<path class="st0" d="M270.2,503.1c-0.3,2.5-2.1,3.7-4.1,4.9c0.1-1.1-0.2-1.8-1.6-1.8c-11,0.1-22-0.4-32.9,0.4
			c-13.3,0.9-23.8,7.5-32.3,17.8c-36.9,44.6-74,89.1-110.9,133.8c-2.2,2.7-4.5,3.8-8,3.7c-26.8-0.1-53.6-0.1-80.4-0.1
			c-0.3-2.2,1.3-3.1,2.3-4.3C51,598.7,99.9,539.9,148.5,481c15.9-19.3,35.9-28.9,60.9-28.6c17.6,0.3,35.3,0.2,52.9,0
			c4.2-0.1,5.7,0.8,5.6,5.4c-0.3,14.3-0.2,28.6,0,42.9C267.9,501.6,266.2,505.4,270.2,503.1z"/>
		<path class="st0" d="M588.3,537.4c-24.2,0-48-0.1-71.8,0.1c-4.7,0-6-1.3-5.7-5.8c0.4-7.3,0.2-14.6,0.1-22
			c-0.1-2.8,0.8-3.7,3.7-3.7c45.3,0.1,90.5,0.1,135.8,0c2.8,0,3.7,0.8,3.7,3.7c-0.2,8.3,0,16.6-0.1,25c-0.1,8.7-3.7,16-9.5,22.4
			c-20.9,23-41.7,46.1-62.5,69.2c-1.1,1.2-2.6,2.1-2.8,3.9c1.4,1.1,2.9,0.5,4.3,0.5c22.6,0,45.3,0.1,67.9,0c3.6,0,5,0.7,4.8,4.6
			c-0.3,7.6-0.2,15.3,0,23c0.1,2.8-0.8,3.7-3.6,3.7c-45.3-0.1-90.5-0.1-135.8,0c-2.8,0-3.8-0.7-3.7-3.6c0.2-8.3,0-16.6,0.1-25
			c0.1-8.4,3.6-15.4,9.2-21.5c21.1-23.3,42.2-46.6,63.2-69.9C586.4,540.7,587.9,539.8,588.3,537.4z"/>
		<path class="st0" d="M432.9,584.1c0-24.5,0.1-48.9-0.1-73.4c0-3.7,0.8-4.8,4.7-4.8c17,0.2,33.9,0.2,50.9,0c3.6,0,4.4,1.1,4.4,4.5
			c-0.1,40.3,0,80.5-0.1,120.8c0,16.8-13.8,30.5-30.5,30.6c-8.3,0-16.6-0.2-25,0.1c-3.6,0.1-4.4-1-4.4-4.5
			C433,633,432.9,608.5,432.9,584.1z"/>
		<path class="st1" d="M712.7,408.1c8.7,2.9,13.9,8.9,16.1,17.6c0.5,2.8,0.7,5.6-0.1,8.4l0-0.1c-1.1,0.7,0.1,2.8-1.7,3
			c-0.8,0.1-1.2-0.9-1.4-1.7c-0.2-1-0.1-2,0.1-3c0.6-1.8,0.8-3.6-0.1-5.4c-2.2-7-6.1-12.4-13.3-15.1c-9.7-3.8-20.2,2.3-23.6,11.2
			c-3.6,9.5,0.7,20,10.1,24.1c4.4,2,9,2.2,13.6,0.8c1.7-0.5,3.3-1.5,5.2-1.6c1,0.2,2.1,0.3,1.9,1.8c-2.4,1.8-4.8,3.7-8,4
			c-3-1-6,0.3-9,0.1c-10-1.1-18.3-9.6-19.1-19.7c-0.9-11.6,5.4-21.2,16-24.4C704,407.4,708.3,407.3,712.7,408.1z"/>
		<path class="st2" d="M408.1,453c-1.2,1.6-3,1.1-4.6,1.1c-19.3,0-38.6,0-57.9,0c-1.6,0-3.4,0.5-4.6-1.2c5.9-1,11.9-0.4,17.9-0.4
			c14.8-0.1,29.6-0.1,44.4,0C404.8,452.5,406.5,452,408.1,453z"/>
		<path class="st3" d="M719.7,448.1c-0.5-0.9-1.4-1-2.2-1.1c2.5-4.5,5.8-8.4,9-12.3c0.5,0.2-0.5,2.4,1.2,0.9
			c0.4-0.4,0.7-0.9,1.1-1.4C728,440.2,725.2,445.1,719.7,448.1z"/>
		<path class="st4" d="M702.7,452.2c3-1.6,6-1.6,9-0.1C708.7,452.7,705.7,453.2,702.7,452.2z"/>
		<path class="st5" d="M712.7,408.1c-4.4,0-8.7,0-13.1-0.1C704,406.5,708.3,406,712.7,408.1z"/>
		<path class="st3" d="M728.7,434.2c0-2.8,0-5.6,0.1-8.4C729.7,428.6,729.8,431.4,728.7,434.2z"/>
		<path class="st6" d="M1166.4,2.7c-0.4-0.4-0.9-0.9-1.3-1.3c0.7-0.9,1.9-1.9,2.6-1.1C1168.6,1.2,1167.4,2.2,1166.4,2.7z"/>
		<path class="st7" d="M2.5,198.4c0.3,0.3,0.7,0.7,1,1c-1.3,0.7-2.6,0.8-3.2-0.7C0.2,198.4,1.6,198.1,2.5,198.4z"/>
		<path class="st8" d="M567.1,350.2c-26.1-34.9-56.5-63.5-92.4-86.8c52.9,2.1,104.4-6.2,156-17c-15.4,14-29.3,29.1-40.5,46.5
			C579.2,310.3,570.4,328.6,567.1,350.2z"/>
		<path class="st2" d="M669.9,450.9c-1.4,1.7-3.4,1.1-5.1,1.1c-48.1,0-96.1,0-144.2,0c-1.4,0-3,0.7-4.3-0.9c48.8,0,97.5,0,146.1,0
			C664.9,451.1,667.4,451,669.9,450.9C669.9,450.9,669.9,450.9,669.9,450.9z"/>
		<path class="st8" d="M1087.5,584.4c0,9.6,0,19.3,0,28.9c-0.1,11-6.3,17.3-17.4,17.4c-6.6,0.1-13.3,0.1-20,0
			c-10.7-0.2-17-6.5-17-17.3c-0.1-19.8-0.1-39.6,0-59.4c0.1-10.5,6.4-16.6,16.9-16.7c7-0.1,14-0.1,20.9,0
			c10.2,0.1,16.4,6.3,16.5,16.6C1087.6,564.1,1087.5,574.3,1087.5,584.4z"/>
		<ellipse class="st2" cx="234.3" cy="453.7" rx="43.6" ry="0.3"/>
		<path class="st9" d="M726.5,434.7c-1.9,4.9-4.6,9.2-9,12.3c-11.5,5.4-21.9,3.3-27.8-5.7c-4.6-7-4.9-14.4-0.6-21.7
			c3.9-6.7,10.1-10.4,17.8-9.9c8.9,0.5,15.5,5.2,18.8,13.8c0.5,1.2,0.8,2.5,1.2,3.7c0.6,1.7,0.5,3.3,0,5
			C726.7,433,726.6,433.8,726.5,434.7z"/>
		<path class="st3" d="M726.8,432.1c0-1.7,0-3.3,0-5C728.1,428.8,728.1,430.4,726.8,432.1z"/>
		<path class="st10" d="M704.6,416.1c1.8,0,3.7-0.2,5.5,0c3.1,0.3,5.1,2.3,6.2,5.1c1,2.7,0.8,5.3-1.6,7.2c-1.7,1.3-1.7,2.1-0.3,3.8
			c2.2,2.7,1.1,6.4,2.2,9.6c0.5,1.4-0.7,1.6-1.8,1.6c-1.5,0.1-3.1,0.2-3.5-1.8c-0.2-1.3-0.2-2.6-0.2-4c-0.2-4.2-3-4.9-6.5-4.9
			c-4.2,0-2.5,3-2.8,4.9c-0.2,1.3-0.1,2.6-0.1,4c0,1.8-1.2,2.1-2.7,2.1c-1.6,0-2.5-0.5-2.5-2.2c0-7.8,0-15.6,0-23.4
			c0-1.8,1.1-2.2,2.6-2.2C700.9,416.1,702.7,416.1,704.6,416.1C704.6,416.1,704.6,416.1,704.6,416.1z"/>
		<path class="st11" d="M705.2,420.4c3.3-0.1,5.9,0.8,6,4c0.1,3.5-2.8,3.7-5.6,3.9c-3.3,0.2-4.1-1.1-4.1-4.2
			C701.6,421.1,702.5,419.9,705.2,420.4z"/>
	</g>
</g>
</svg>
