<?xml version="1.0" encoding="utf-8"?>
<!-- Generator: Adobe Illustrator 26.0.2, SVG Export Plug-In . SVG Version: 6.00 Build 0)  -->
<svg version="1.1" id="Laag_1" xmlns="http://www.w3.org/2000/svg" xmlns:xlink="http://www.w3.org/1999/xlink" x="0px" y="0px"
	 viewBox="0 0 266 216" style="enable-background:new 0 0 266 216;" xml:space="preserve">
<style type="text/css">
	.st0{fill:#FFFFFF;}
</style>
<g id="NkgHuX.tif">
	<g>
		<path class="st0" d="M265.76,213.24c-4.11-10.09-8.3-20.14-12.23-30.3c-0.48-1.25,0.12-3.18,0.75-4.55
			c3.02-6.55,6.22-13.02,9.4-19.6c-7.85-1.73-8.08-1.6-11.01,4.7c-2.94,6.33-5.93,12.63-8.89,18.94c-0.35-0.1-0.7-0.19-1.05-0.29
			c0-7.85,0-15.71,0-23.64c-3.12,0-5.79,0-8.34,0c0,18.79,0,37.09,0,55.46c2.9,0,5.46,0,8.19,0c0.9-7.52-1.69-15.59,4.95-21.81
			c1.8,4.5,3.55,8.77,5.21,13.08c3.53,9.14,3.51,9.15,13.01,9.01c-0.33,0.66-0.55,1.77-1.02,1.9c-1.09,0.29-2.3,0.09-3.46,0.09
			c-87.17,0-174.34,0-261.52,0 M128.28,10.29c-4.79,1.18-9.67,2.08-14.36,3.59c-30.8,9.89-47.99,42.57-39.5,74.85
			c7.96,30.26,40.59,50.16,71.5,43.61c26.3-5.57,46.7-28.08,49.08-54.12c2.47-27.16-12.49-52.35-37.76-62.83
			c-5.72-2.37-11.99-3.43-18-5.1 M31.15,158.34c-2.96,0-5.52,0-8.54,0c0,10.45,0,20.59,0,30.72c-4.34-8.51-7.78-17.19-11.25-25.86
			c-2.38-5.96-3.05-6.25-9.53-4.33c0,18.31,0,36.62,0,55.17c2.85,0,5.42,0,8.6,0c0-10,0-19.8,0-29.6
			c4.37,7.82,7.91,15.75,10.66,23.94c1.77,5.28,4.46,7.28,10.06,5.32C31.15,195.49,31.15,177.17,31.15,158.34z M103.73,157.81
			c0,19.27,0,37.71,0,56.4c5.82,0,11.39,0.66,16.69-0.24c3.38-0.58,7.34-2.76,9.32-5.48c4.66-6.41,2.8-18.27-2.81-23.91
			c5.15-4.48,7.06-12.75,3.54-19.37c-1.45-2.72-4.65-5.72-7.5-6.26C116.72,157.78,110.2,158.1,103.73,157.81z M184.67,158.36
			c0,18.77,0,37.19,0,55.59c2.96,0,5.53,0,8.34,0c0.68-7.5-1.64-15.44,4.83-21.88c2.13,5.46,4.12,10.52,6.08,15.59
			c2.87,7.42,3.02,7.5,11.93,6.05c-3.78-9.57-7.69-19.01-11.15-28.61c-0.77-2.15-0.62-5.15,0.27-7.28
			c2.68-6.48,5.93-12.72,9.06-19.26c-5.61-1.37-9.22-0.81-11.28,5.06c-2.24,6.39-5.66,12.38-8.57,18.54
			c-0.39-0.1-0.78-0.19-1.17-0.29c0-7.81,0-15.61,0-23.51C189.89,158.36,187.32,158.36,184.67,158.36z M81.54,158.34
			c-3.13,0-5.69,0-8.53,0c-0.1,1.76-0.26,3.21-0.26,4.66c-0.02,12.42-0.03,24.84-0.02,37.26c0,3.54-1,6.4-5.12,6.49
			c-4.3,0.09-5.68-2.75-5.72-6.53c-0.04-3.97-0.02-7.95-0.02-11.92c0-9.9,0-19.8,0-29.96c-3.11,0-5.66,0-8.38,0
			c-0.13,1.45-0.33,2.59-0.33,3.72c0.06,13.58-0.14,27.16,0.35,40.73c0.27,7.4,6.14,12.01,13.8,12.07
			c7.72,0.06,13.89-4.84,14.1-12.39C81.82,187.92,81.54,173.36,81.54,158.34z M162.03,214.14c0-18.84,0-37.17,0-55.78
			c-2.94,0-5.66,0-8.33,0c0,18.8,0,37.24,0,55.78C156.57,214.14,159.04,214.14,162.03,214.14z"/>
		<path d="M139.24,10.29c6.02,1.66,12.28,2.73,18,5.1c25.27,10.47,40.23,35.66,37.76,62.83c-2.37,26.04-22.78,48.54-49.08,54.12
			c-30.91,6.55-63.54-13.35-71.5-43.61c-8.49-32.28,8.7-64.96,39.5-74.85c4.69-1.51,9.57-2.41,14.36-3.59
			C131.93,10.29,135.59,10.29,139.24,10.29z M133.49,18.08c-29.88,0.03-54.05,24.23-53.98,54.06c0.07,29.74,24.43,53.91,54.27,53.85
			c29.83-0.07,54.11-24.41,53.98-54.13C187.63,42,163.47,18.05,133.49,18.08z"/>
		<path d="M265.76,214.24c-9.5,0.14-9.48,0.14-13.01-9.01c-1.66-4.31-3.42-8.58-5.21-13.08c-6.63,6.22-4.04,14.29-4.95,21.81
			c-2.73,0-5.29,0-8.19,0c0-18.36,0-36.67,0-55.46c2.55,0,5.22,0,8.34,0c0,7.93,0,15.78,0,23.64c0.35,0.1,0.7,0.19,1.05,0.29
			c2.97-6.31,5.96-12.61,8.89-18.94c2.92-6.3,3.16-6.42,11.01-4.7c-3.18,6.59-6.38,13.05-9.4,19.6c-0.63,1.37-1.24,3.3-0.75,4.55
			c3.93,10.16,8.12,20.21,12.23,30.3C265.76,213.58,265.76,213.91,265.76,214.24z"/>
		<path d="M31.15,158.34c0,18.83,0,37.15,0,55.36c-5.59,1.96-8.28-0.04-10.06-5.32c-2.75-8.19-6.29-16.12-10.66-23.94
			c0,9.8,0,19.59,0,29.6c-3.18,0-5.74,0-8.6,0c0-18.55,0-36.86,0-55.17c6.47-1.92,7.14-1.63,9.53,4.33
			c3.47,8.67,6.91,17.35,11.25,25.86c0-10.13,0-20.27,0-30.72C25.63,158.34,28.19,158.34,31.15,158.34z"/>
		<path d="M103.73,157.81c6.47,0.29,13-0.03,19.24,1.14c2.85,0.53,6.05,3.53,7.5,6.26c3.53,6.62,1.61,14.89-3.54,19.37
			c5.61,5.64,7.47,17.5,2.81,23.91c-1.98,2.72-5.94,4.9-9.32,5.48c-5.3,0.9-10.87,0.24-16.69,0.24
			C103.73,195.52,103.73,177.08,103.73,157.81z M112.71,188.78c0,6.01,0,11.67,0,17.3c8.42,0.49,10.53-1.23,10.59-8.28
			C123.37,190.51,120.97,188.39,112.71,188.78z M112.57,182.75c3.75-1.73,7.91-2.34,9.19-4.59c1.42-2.49,1.29-7.14-0.21-9.61
			c-1.24-2.04-5.45-2.29-8.98-3.56C112.57,171.31,112.57,176.18,112.57,182.75z"/>
		<path d="M184.67,158.36c2.65,0,5.21,0,8.35,0c0,7.9,0,15.7,0,23.51c0.39,0.1,0.78,0.19,1.17,0.29c2.91-6.16,6.33-12.14,8.57-18.54
			c2.06-5.88,5.67-6.43,11.28-5.06c-3.13,6.54-6.37,12.78-9.06,19.26c-0.88,2.13-1.04,5.13-0.27,7.28
			c3.46,9.6,7.37,19.04,11.15,28.61c-8.92,1.46-9.06,1.37-11.93-6.05c-1.96-5.07-3.95-10.13-6.08-15.59
			c-6.48,6.43-4.15,14.37-4.83,21.88c-2.81,0-5.38,0-8.34,0C184.67,195.55,184.67,177.13,184.67,158.36z"/>
		<path d="M81.54,158.34c0,15.01,0.28,29.58-0.11,44.13c-0.2,7.55-6.37,12.45-14.1,12.39c-7.67-0.06-13.54-4.67-13.8-12.07
			c-0.49-13.56-0.29-27.15-0.35-40.73c-0.01-1.14,0.19-2.27,0.33-3.72c2.71,0,5.27,0,8.38,0c0,10.15,0,20.06,0,29.96
			c0,3.97-0.02,7.95,0.02,11.92c0.04,3.78,1.42,6.62,5.72,6.53c4.11-0.09,5.12-2.94,5.12-6.49c-0.01-12.42-0.01-24.84,0.02-37.26
			c0-1.45,0.16-2.9,0.26-4.66C75.85,158.34,78.41,158.34,81.54,158.34z"/>
		<path d="M162.03,214.14c-2.99,0-5.45,0-8.33,0c0-18.54,0-36.98,0-55.78c2.68,0,5.39,0,8.33,0
			C162.03,176.97,162.03,195.3,162.03,214.14z"/>
		<path class="st0" d="M133.49,18.08c29.98-0.03,54.14,23.92,54.27,53.78c0.12,29.72-24.16,54.07-53.98,54.13
			c-29.84,0.07-54.2-24.1-54.27-53.85C79.44,42.32,103.61,18.11,133.49,18.08z M129.82,44.43c0,18.55,0,36.83,0,55.07
			c2.93,0,5.48,0,8.1,0c0-18.54,0-36.7,0-55.07C135.09,44.43,132.53,44.43,129.82,44.43z M165.35,44.74
			c-5.75-1.66-9.06-0.29-11.09,5.21c-2.34,6.34-5.87,12.24-8.37,18.53c-0.83,2.09-0.77,5.08,0.07,7.19
			c2.51,6.29,5.63,12.34,8.49,18.49c3.04,6.54,3.11,6.58,10.88,5.03c-3.63-7.7-7.07-15.36-10.85-22.85
			c-1.58-3.12-1.49-5.7,0.06-8.79C158.31,60.05,161.75,52.4,165.35,44.74z M102.31,99.35c5.89,1.74,9.09,0.06,11.14-5.33
			c2.45-6.47,5.97-12.52,8.62-18.93c0.75-1.82,0.71-4.49-0.05-6.32c-2.66-6.4-6.22-12.44-8.6-18.93c-2.05-5.59-5.47-6.68-11.06-5.13
			c3.45,7.36,6.64,14.77,10.39,21.89c2.06,3.91,1.98,7.09-0.07,10.97C108.98,84.54,105.85,91.82,102.31,99.35z"/>
		<path class="st0" d="M112.71,188.78c8.26-0.39,10.66,1.73,10.59,9.03c-0.06,7.05-2.17,8.77-10.59,8.28
			C112.71,200.45,112.71,194.79,112.71,188.78z"/>
		<path class="st0" d="M112.57,182.75c0-6.57,0-11.44,0-17.76c3.53,1.27,7.74,1.51,8.98,3.56c1.5,2.47,1.63,7.12,0.21,9.61
			C120.48,180.41,116.32,181.02,112.57,182.75z"/>
		<path d="M129.82,44.43c2.72,0,5.27,0,8.1,0c0,18.38,0,36.53,0,55.07c-2.62,0-5.18,0-8.1,0C129.82,81.27,129.82,62.99,129.82,44.43
			z"/>
		<path d="M165.35,44.74c-3.6,7.66-7.04,15.31-10.81,22.8c-1.55,3.09-1.64,5.67-0.06,8.79c3.78,7.49,7.22,15.15,10.85,22.85
			c-7.77,1.55-7.84,1.51-10.88-5.03c-2.86-6.15-5.98-12.2-8.49-18.49c-0.84-2.1-0.9-5.09-0.07-7.19c2.5-6.29,6.03-12.19,8.37-18.53
			C156.29,44.45,159.6,43.08,165.35,44.74z"/>
		<path d="M102.31,99.35c3.54-7.53,6.67-14.81,10.36-21.79c2.05-3.88,2.13-7.06,0.07-10.97c-3.75-7.12-6.94-14.53-10.39-21.89
			c5.59-1.55,9.01-0.45,11.06,5.13c2.38,6.49,5.95,12.53,8.6,18.93c0.76,1.83,0.8,4.5,0.05,6.32c-2.65,6.4-6.17,12.46-8.62,18.93
			C111.41,99.41,108.2,101.09,102.31,99.35z"/>
	</g>
</g>
</svg>
