<?xml version="1.0" encoding="utf-8"?>
<!-- Generator: Adobe Illustrator 25.4.1, SVG Export Plug-In . SVG Version: 6.00 Build 0)  -->
<svg version="1.1" id="Laag_1" xmlns="http://www.w3.org/2000/svg" xmlns:xlink="http://www.w3.org/1999/xlink" x="0px" y="0px"
	 viewBox="0 0 626 415" style="enable-background:new 0 0 626 415;" xml:space="preserve">
<style type="text/css">
	.st0{fill:#FFFFFF;}
</style>
<g>
	<path class="st0" d="M618.6,117.3c-203.7,0-406.8,0-610.2,0c-0.1,1.4-0.2,2.5-0.2,3.6c0,65.9-0.1,131.7,0.2,197.6
		c0,7.4,1.6,15.4,4.6,22.2c9,20.3,25.4,29.8,47.6,29.8c57.5-0.1,115,0.2,172.5-0.2c13.9-0.1,26.9,2.6,38.7,9.3
		c14.4,8.2,28.3,17.4,42,25.9c11.9-7.7,24.3-16.2,37.1-23.8c13.7-8.1,28.5-11.7,44.7-11.6c56.7,0.5,113.3,0.2,170,0.2
		c8.4,0,16.7-0.7,24.3-4.6c19.8-10.1,28.8-26.6,28.8-48.6c-0.1-65,0-130,0-195.1C618.6,120.6,618.6,119,618.6,117.3z M108.1,60.3
		C108.1,31.6,85.1,8,57,8C28.6,7.9,5.2,31.5,5,60.3C4.9,88.8,28.5,112.9,56.7,113C84.9,113.1,108.1,89.4,108.1,60.3z M493.4,89.6
		c4.5,5.3,8.1,9.5,11.8,13.7c0.9,1.1,2.2,2.6,3.3,2.6c8.8,0.2,17.5,0.1,26.3,0.1c0-5.7,0-10.8,0-15.5c-9.6-5.1-12.9-15-20.2-22.6
		c4.7-3.7,9.1-7.1,13.4-10.7c1.3-1.1,2.8-2.6,2.9-4.1c0.4-4.9,0.1-9.9,0.1-15.1c-13.2,0-25.9,0-39.5,0c1.9,6.8-2.4,14,3.3,20.3
		c-2.2,2-4.4,3.9-7.6,6.8c0-20.2,0-38.9,0-57.8c-11.7,0-22.9,0-34.3,0c0,4.7-0.1,9,0.1,13.4c0,1.1,0.7,2.8,1.5,3.1
		c3.8,1.6,4.3,4.8,4.3,8.2c0,16.7,0,33.3,0,50c0,3.5-0.5,6.7-4.4,8.1c-0.7,0.3-1.4,1.5-1.4,2.3c-0.1,4.4-0.1,8.8-0.1,13.2
		c13.8,0,26.8,0,40.3,0C493.4,100.6,493.4,95.8,493.4,89.6z M619,91.4c-6.2-2.3-8.1-6.9-7.8-13c0.3-5.8,0.1-11.7,0.4-17.5
		c0.6-10.3-4.4-17-13-21.7c-11.5-6.3-24-6.2-36.5-4.8c-6.4,0.7-12.7,2.8-19.6,4.3c2.2,6.5,4,11.7,5.7,16.8c10.3-1.3,20.2-5.6,29.7,1
		c-2.2,1.1-4.5,1-6.7,1.1c-4.1,0.1-8.4-0.4-12.4,0.4c-10.6,2.3-18.8,8.3-21.5,19.2c-2.3,9.3,1.2,17.4,9,23.2
		c7.8,5.8,16.7,7.5,26,5.2c5.3-1.3,9.7-1.5,15.3-0.3c10,2.1,20.7,0.6,31.3,0.6C619,100.9,619,96.4,619,91.4z M197.7,105.8
		c0.1-1.4,0.2-2.3,0.2-3.1c-0.5-5.2,2.2-11.3-4.6-14.8c-1-0.5-1.2-3.3-1.2-5c-0.1-8.7,0-17.3-0.1-26c0-9.7-4.1-15.3-13.4-17.9
		c-9.2-2.6-17.6-0.8-25.4,5.6c-0.2-2.2-0.4-3.8-0.5-5.2c-11.7,0-23.1,0-34.8,0c0,2.7-0.1,5,0,7.3c0.2,4.5-1.6,9.5,4.2,12.4
		c1.2,0.6,1.5,3.5,1.6,5.4c0.2,5.3,0.1,10.7,0.1,16c0,4.1,0.2,8.1-4.7,9.9c-0.6,0.2-1.1,1.6-1.1,2.4c-0.1,4.3-0.1,8.6-0.1,12.8
		c13.9,0,27.3,0,40.9,0c-0.7-6.6,2.7-13.7-4.8-18.2c-0.7-0.4-0.9-2.1-0.9-3.2c-0.1-6-0.1-12,0-18c0-3.7,1.8-6.1,5.6-6.3
		c3.9-0.2,5.7,2.3,6.2,5.8c0.3,2,0.1,4,0.1,6c0,11.3,0,22.6,0,34C176.1,105.8,186.7,105.8,197.7,105.8z M364.2,39.1c0,2,0,3.4,0,4.9
		c0.1,4.7-1.5,9.9,4.5,12.9c1,0.5,1.3,3.3,1.4,5c0.1,8.3,0.1,16.7,0.1,25c0,12.8,7.1,19.8,19.9,20.3c7.1,0.3,13.1-2.3,18.8-6.6
		c0.3,2.1,0.4,3.7,0.6,5.2c11.7,0,22.9,0,34.7,0c0-5,0.1-9.8-0.1-14.6c0-1-1.2-2-1.8-3.1c-1.3-2.5-3.5-4.9-3.8-7.5
		c-0.6-5.9-0.2-12-0.2-18c0-7.8,0-15.5,0-23.3c-12,0-23.4,0-35.5,0c1.9,6.3-3.1,13.7,5.1,18c0.9,0.5,1.1,2.7,1.2,4.1
		c0.1,5.5,0,11,0.1,16.5c0,4.1-1.6,7-5.9,7c-4.3,0-6.1-2.9-6.1-6.9c0-7.8,0-15.7,0-23.5c0-5.1,0-10.2,0-15.4
		C385.9,39.1,375.4,39.1,364.2,39.1z M356.6,39c-2.4,0-4.6-0.1-6.7,0c-4.3,0.2-8.7,0.8-13,0.7c-2.8-0.1-5.5-1.2-8.3-1.5
		c-17.5-2.2-31.2,13.9-25.5,30.3c3.3,9.6,11.4,13.3,20.4,15.5c2.4,0.6,4.9,1.1,7.1,2.2c1.4,0.7,2.2,2.5,3.3,3.8
		c-1.4,0.8-2.9,2.3-4,2.1c-4.1-0.7-9.3-0.9-12-3.5c-4.7-4.5-9.4-3.6-14.7-3.4c0,7.1,0,13.8,0,21.3c5.9-0.6,11.4-1.6,16.9-1.5
		c5.6,0.1,11.2,1.3,16.8,2.1c0.3,0,0.7,0,1,0c11.9-0.9,21.3-9.3,22.3-19.8c1-11.9-5.1-19.9-17.9-23.2c-3.2-0.8-6.4-1.6-9.5-2.9
		c-2.6-1-6.7-1.8-5.1-5.8c1.5-3.7,5.2-2.7,8.3-1.8c0.9,0.3,2,0.7,2.6,1.4c5.2,5.4,11.7,3,18,3.3C356.6,51.7,356.6,45.8,356.6,39z
		 M257.8,17.8c0,3.2-0.1,5.9,0,8.5c0.2,5.4-0.2,10.5-6.5,12.6c-0.5,0.2-1.2,0.9-1.2,1.3c-0.1,4.8-0.1,9.7,0,14.5
		c0,0.5,1,1.2,1.6,1.4c4.8,1.9,6,5.7,6,10.4c-0.1,9.7,0,19.3,0,29c0,3.4,0,6.8,0,10.2c12.5,0,24.3,0,36.1,0c0-5.6,0-10.9,0-16.2
		c-6.4-2.4-7.7-4.3-7.7-11.1c0-3.7,0.2-7.3,0-11c-0.3-6,1.4-10.5,7.8-11.8c0-5.7,0-11,0-16.3c-12.3-3.4-5.8-14.3-8.4-21.5
		C276.4,17.8,267.4,17.8,257.8,17.8z M246,105.8c0-4.5,0.1-8.5-0.1-12.5c-0.1-1.1-0.9-2.6-1.7-3c-3.7-1.7-4.2-4.7-4.2-8.3
		c0.1-11.3,0-22.7,0-34c0-2.9,0-5.9,0-8.7c-11.9,0-23.2,0-34.5,0c-0.1,1.5-0.3,2.7-0.2,3.8c0.5,5.2-2.2,11.4,4.6,14.8
		c0.9,0.5,1.1,3,1.1,4.6c0.1,6,0,12,0.1,18c0,4,0.6,8.2-4.6,9.8c-0.5,0.2-1.1,1.3-1.1,2c-0.1,4.4-0.1,8.9-0.1,13.4
		C219.2,105.8,232.3,105.8,246,105.8z M211.5,10.9c0,7.3,0,14.4,0,21.6c9.7,0,18.9,0,28.2,0c0-7.4,0-14.4,0-21.6
		C230.1,10.9,221,10.9,211.5,10.9z"/>
	<path d="M618.6,117.3c0,1.7,0,3.3,0,5c0,65,0,130,0,195.1c0,22-9,38.5-28.8,48.6c-7.6,3.9-15.8,4.6-24.3,4.6
		c-56.7-0.1-113.3,0.3-170-0.2c-16.2-0.1-31,3.5-44.7,11.6c-12.9,7.6-25.2,16.1-37.1,23.8c-13.8-8.6-27.6-17.7-42-25.9
		c-11.8-6.8-24.8-9.4-38.7-9.3c-57.5,0.3-115,0.1-172.5,0.2c-22.2,0-38.6-9.5-47.6-29.8c-3-6.8-4.5-14.8-4.6-22.2
		C8.1,252.7,8.2,186.8,8.2,121c0-1.1,0.1-2.3,0.2-3.6C211.8,117.3,414.9,117.3,618.6,117.3z M95.4,208c31.8-15.1,65.2-9.3,97.5-14.4
		c-7.1,33.5-14.1,66.1-21,98.7c-0.5,2.6-1.7,3.6-4.5,4.1c-9.5,1.5-18.6,0.1-27.3-3.4c-2.5-1-4.8-2.6-6.8-3.7
		c8.2-6,16.2-11.4,23.7-17.4c7.6-6,12.8-13.9,14.7-23.6c2-9.9,4.2-19.8,6.3-29.7c0.8-4,1.5-7.9,2.3-12.3
		c-18.7,3.4-36.4,6.7-54.8,10.1c1.4-3.2,2.5-5.5,4-8.8c-3,1.3-5.1,1.9-6.9,2.9c-4.3,2.5-8.8,4.8-12.8,7.7
		c-21.2,15.5-30,41.6-22,64.3c12.1,34.3,51.8,49.3,85.1,32.2c11.8-6.1,21.5-14.7,29.9-26.3c-6.9,1.7-12.7,3.1-19,4.7
		c0.3-2.1,0.3-3.4,0.6-4.7c6.2-30.7,12.3-61.5,18.7-92.2c0.4-1.8,2.3-3.7,3.9-4.7c5.2-3.3,11-5.6,15.8-9.3
		c8.6-6.6,14.1-15.5,17.3-26.2c-1.1,0-1.6-0.1-2,0c-29.8,7.6-60.4,8.8-90.9,11.4c-10,0.8-20.3,4-29.5,8.2
		C104.8,181.4,98.2,192.9,95.4,208z M271.4,303.5c4.2,4.9,9.1,7.4,14.8,8.6c25.9,5.6,46.9-11.1,48.9-38.1
		c1.4-18.6,5.9-36.6,13.3-53.8c2.5-5.7,1.5-7.2-4.7-7.1c-4.8,0.1-10,1.3-14.2-0.2c-10.5-3.9-18.7-0.1-26.9,5.4
		c-2.1,1.4-4.2,2.8-6.1,4.3c-13.3,10.6-20.3,23.9-17.4,41.3c1.4,8.4,5.3,15.5,11.1,21.8C283.9,291.7,277.8,297.4,271.4,303.5z
		 M546.1,175c-0.2-0.5-0.3-0.9-0.5-1.4c-2.6-0.2-5.2-0.5-7.8-0.5c-9.2-0.1-18.2-0.6-27-4c-1.7-0.7-4.6,0.1-6.3,1.2
		c-6.5,4-12.8,8.4-19.1,12.7c-2.4,1.6-4.3,1.6-7-0.2c-3.5-2.4-7.6-3.9-11.7-5.2c-1.4-0.5-3.7,0.2-4.9,1.2c-3.3,2.5-6.4,5.4-9.3,8.4
		c-1.1,1.1-2.4,3.7-1.9,4.5c2.8,4.3,1.6,8.6,0.7,13c-1.8,8.4-3.5,16.9-5,25.4c-2.5,14.1,6.3,23.2,19.7,19.8
		c15.6-4,24.7-16.2,33.7-28.2c-2.3,0.2-4.4,0.9-6.4,1.4c-2.2,0.6-4.5,1.2-6.8,1.7c-6.3,1.3-9.4-1.4-8.6-7.6
		c0.7-5.1,1.7-10.1,2.8-15.2c2.7-13.2,11-17.9,23.5-13.6c1.9,0.6,3.7,1.5,5.7,1.8c4.7,0.6,10.1,2.7,14.1,1.1
		C532.7,187.9,539.7,181.7,546.1,175z M419.4,244c-3.2,1.3-5.6,2.6-8.1,3.2c-5,1.2-10,2.6-15,2.9c-5.4,0.3-9-3.5-9.3-8.4
		c-0.4-6.4,1.1-8.5,7.2-9.9c11.1-2.6,22.3-5,33.4-7.8c1.6-0.4,3.5-2.4,4-4c0.9-2.6,1-5.6,1.1-8.4c0.5-12.3-6.8-21-18.7-22.4
		c-21-2.4-41.1,10.2-46.8,30.7c-2.3,8.3-3,17.4-2.9,26.1c0.1,10.9,6.3,18.5,14.6,20.2C393.7,268.9,412.9,258.8,419.4,244z
		 M259.6,282.3c-1.5,0-2.2-0.1-2.8,0c-8.7,1.9-9.8,0.7-8.1-8c2.1-10.4,4.1-20.8,5.9-31.2c1.5-8.3-2.9-14.2-10.9-15.4
		c-5.3-0.8-8.2,2.3-11,6.1c-5.5,7.4-5.2,7.4-5.6,16c-0.3,6.1-1.7,12.1-2.6,18.2c-1.2,7.9-2.8,15.7-3.5,23.6
		c-0.6,7.1,3.6,11.1,10.6,10.5C244.3,300.8,252.9,293.6,259.6,282.3z M229.9,207.1c5.9,3.6,10.7,6.5,15.6,9.2
		c0.9,0.5,2.7,0.5,3.6-0.1c5.9-4,11.6-8.2,18.1-12.9c-6.3-3.2-12-6.2-17.8-9c-0.7-0.4-2.1-0.3-2.8,0.2
		C241.2,198.5,235.8,202.6,229.9,207.1z"/>
	<path d="M108.1,60.3c0,29-23.2,52.7-51.4,52.7C28.5,112.9,4.9,88.8,5,60.3C5.2,31.5,28.6,7.9,57,8C85.1,8,108.1,31.6,108.1,60.3z
		 M67,60.4c0-5.8,0.1-11.6,0-17.5C66.8,36.6,62.7,32.1,57,32c-5.9-0.1-10.2,3.8-10.4,10.3c-0.3,12.1-0.3,24.3,0,36.4
		c0.2,6.5,4.8,10.5,10.5,10.3c5.5-0.3,9.7-4.9,9.8-11.2C67.1,72,67,66.2,67,60.4z"/>
	<path d="M493.4,89.6c0,6.2,0,11,0,16.1c-13.5,0-26.6,0-40.3,0c0-4.3-0.1-8.8,0.1-13.2c0-0.8,0.7-2,1.4-2.3c3.9-1.5,4.4-4.7,4.4-8.1
		c0-16.7,0-33.3,0-50c0-3.5-0.5-6.6-4.3-8.2c-0.8-0.3-1.4-2-1.5-3.1c-0.2-4.3-0.1-8.6-0.1-13.4c11.4,0,22.6,0,34.3,0
		c0,18.8,0,37.6,0,57.8c3.2-2.9,5.4-4.9,7.6-6.8c-5.7-6.4-1.4-13.5-3.3-20.3c13.6,0,26.3,0,39.5,0c0,5.2,0.2,10.2-0.1,15.1
		c-0.1,1.4-1.7,3-2.9,4.1c-4.3,3.6-8.7,7-13.4,10.7c7.3,7.6,10.6,17.5,20.2,22.6c0,4.7,0,9.7,0,15.5c-8.8,0-17.5,0.1-26.3-0.1
		c-1.1,0-2.4-1.5-3.3-2.6C501.5,99.1,497.9,94.9,493.4,89.6z"/>
	<path d="M619,91.4c0,5,0,9.5,0,14.6c-10.6,0-21.3,1.5-31.3-0.6c-5.7-1.2-10-1-15.3,0.3c-9.3,2.3-18.2,0.6-26-5.2
		c-7.8-5.8-11.3-13.9-9-23.2c2.7-10.9,10.9-16.8,21.5-19.2c4-0.9,8.2-0.3,12.4-0.4c2.2,0,4.4,0,6.7-1.1c-9.5-6.6-19.4-2.3-29.7-1
		c-1.7-5.1-3.5-10.4-5.7-16.8c6.8-1.6,13.1-3.6,19.6-4.3c12.5-1.4,24.9-1.5,36.5,4.8c8.6,4.7,13.6,11.4,13,21.7
		c-0.3,5.8-0.1,11.7-0.4,17.5C610.9,84.5,612.8,89.2,619,91.4z M583.2,81.3c0.1-4.6-2.7-8.2-6.2-8.2c-3.4,0-6.7,3.9-6.6,8.1
		c0,4.3,3.2,8,6.7,7.9C580.6,88.9,583.1,85.8,583.2,81.3z"/>
	<path d="M197.7,105.8c-11,0-21.6,0-32.7,0c0-11.5,0-22.8,0-34c0-2,0.2-4-0.1-6c-0.5-3.5-2.3-6-6.2-5.8c-3.8,0.2-5.6,2.6-5.6,6.3
		c0,6-0.1,12,0,18c0,1.1,0.2,2.8,0.9,3.2c7.5,4.4,4.2,11.6,4.8,18.2c-13.6,0-27,0-40.9,0c0-4.3-0.1-8.5,0.1-12.8
		c0-0.9,0.5-2.2,1.1-2.4c4.9-1.8,4.8-5.8,4.7-9.9c0-5.3,0.1-10.7-0.1-16c-0.1-1.9-0.4-4.9-1.6-5.4c-5.9-2.8-4.1-7.9-4.2-12.4
		c-0.1-2.3,0-4.6,0-7.3c11.7,0,23.1,0,34.8,0c0.1,1.5,0.3,3,0.5,5.2c7.7-6.4,16.1-8.3,25.4-5.6c9.3,2.6,13.3,8.2,13.4,17.9
		c0,8.7-0.1,17.3,0.1,26c0,1.7,0.2,4.5,1.2,5c6.8,3.5,4.1,9.6,4.6,14.8C197.9,103.5,197.8,104.4,197.7,105.8z"/>
	<path d="M364.2,39.1c11.2,0,21.7,0,32.9,0c0,5.2,0,10.3,0,15.4c0,7.8,0,15.7,0,23.5c0,4.1,1.7,7,6.1,6.9c4.3,0,6-2.9,5.9-7
		c-0.1-5.5,0.1-11-0.1-16.5c0-1.4-0.3-3.6-1.2-4.1c-8.2-4.3-3.2-11.7-5.1-18c12.1,0,23.5,0,35.5,0c0,7.8,0,15.5,0,23.3
		c0,6-0.4,12,0.2,18c0.2,2.6,2.4,5,3.8,7.5c0.6,1.1,1.8,2,1.8,3.1c0.2,4.8,0.1,9.6,0.1,14.6c-11.8,0-23,0-34.7,0
		c-0.2-1.5-0.4-3-0.6-5.2c-5.7,4.2-11.7,6.8-18.8,6.6c-12.8-0.5-19.9-7.5-19.9-20.3c0-8.3,0.1-16.7-0.1-25c0-1.7-0.3-4.5-1.4-5
		c-6-2.9-4.3-8.1-4.5-12.9C364.2,42.6,364.2,41.1,364.2,39.1z"/>
	<path d="M356.6,39c0,6.8,0,12.7,0,19.1c-6.4-0.3-12.8,2-18-3.3c-0.7-0.7-1.7-1.1-2.6-1.4c-3.1-0.8-6.9-1.9-8.3,1.8
		c-1.6,4,2.5,4.8,5.1,5.8c3,1.2,6.3,2,9.5,2.9c12.7,3.4,18.9,11.4,17.9,23.2c-0.9,10.5-10.4,19-22.3,19.8c-0.3,0-0.7,0.1-1,0
		c-5.6-0.7-11.2-2-16.8-2.1c-5.5-0.1-10.9,0.9-16.9,1.5c0-7.5,0-14.2,0-21.3c5.2-0.2,10-1.1,14.7,3.4c2.7,2.6,7.8,2.7,12,3.5
		c1.2,0.2,2.7-1.4,4-2.1c-1.1-1.3-1.9-3.1-3.3-3.8c-2.2-1.1-4.7-1.6-7.1-2.2c-9.1-2.2-17.1-5.9-20.4-15.5
		c-5.6-16.3,8-32.5,25.5-30.3c2.8,0.4,5.5,1.5,8.3,1.5c4.3,0.1,8.7-0.5,13-0.7C352.1,38.9,354.2,39,356.6,39z"/>
	<path d="M257.8,17.8c9.7,0,18.6,0,27.8,0c2.6,7.2-3.9,18,8.4,21.5c0,5.4,0,10.7,0,16.3c-6.4,1.3-8.1,5.8-7.8,11.8
		c0.2,3.7,0,7.3,0,11c0,6.9,1.3,8.7,7.7,11.1c0,5.2,0,10.5,0,16.2c-11.9,0-23.6,0-36.1,0c0-3.4,0-6.8,0-10.2c0-9.7,0-19.3,0-29
		c0-4.7-1.2-8.5-6-10.4c-0.7-0.2-1.6-0.9-1.6-1.4c-0.1-4.8-0.1-9.7,0-14.5c0-0.5,0.7-1.2,1.2-1.3c6.2-2.1,6.7-7.1,6.5-12.6
		C257.7,23.7,257.8,21.1,257.8,17.8z"/>
	<path d="M246,105.8c-13.7,0-26.8,0-40.7,0c0-4.5,0-8.9,0.1-13.4c0-0.7,0.6-1.9,1.1-2c5.2-1.6,4.6-5.8,4.6-9.8c0-6,0.1-12-0.1-18
		c0-1.6-0.2-4.1-1.1-4.6c-6.8-3.5-4.1-9.6-4.6-14.8c-0.1-1.1,0.1-2.3,0.2-3.8c11.4,0,22.6,0,34.5,0c0,2.8,0,5.7,0,8.7
		c0,11.3,0.1,22.7,0,34c0,3.6,0.5,6.5,4.2,8.3c0.9,0.4,1.7,2,1.7,3C246.2,97.3,246,101.3,246,105.8z"/>
	<path d="M211.5,10.9c9.5,0,18.6,0,28.2,0c0,7.1,0,14.2,0,21.6c-9.3,0-18.5,0-28.2,0C211.5,25.3,211.5,18.1,211.5,10.9z"/>
	<path class="st0" d="M95.4,208c2.8-15.1,9.4-26.6,22.3-32.4c9.2-4.1,19.5-7.3,29.5-8.2c30.5-2.6,61-3.8,90.9-11.4c0.5-0.1,1,0,2,0
		c-3.2,10.7-8.7,19.6-17.3,26.2c-4.8,3.7-10.6,6-15.8,9.3c-1.7,1.1-3.6,2.9-3.9,4.7c-6.4,30.7-12.5,61.4-18.7,92.2
		c-0.3,1.3-0.3,2.6-0.6,4.7c6.3-1.6,12.1-3,19-4.7c-8.4,11.6-18,20.2-29.9,26.3c-33.3,17.2-73,2.1-85.1-32.2
		c-8-22.7,0.8-48.7,22-64.3c4-2.9,8.5-5.3,12.8-7.7c1.8-1,3.9-1.6,6.9-2.9c-1.5,3.3-2.5,5.6-4,8.8c18.4-3.4,36.1-6.7,54.8-10.1
		c-0.8,4.4-1.5,8.4-2.3,12.3c-2.1,9.9-4.3,19.8-6.3,29.7c-2,9.7-7.1,17.6-14.7,23.6c-7.5,6-15.5,11.4-23.7,17.4
		c2,1.1,4.3,2.7,6.8,3.7c8.8,3.5,17.8,4.9,27.3,3.4c2.8-0.5,4-1.5,4.5-4.1c6.9-32.6,13.8-65.2,21-98.7
		C160.6,198.7,127.3,192.9,95.4,208z M141.8,222.5c-7.1,1-13.1,1.6-18.9,2.7c-1.1,0.2-2.6,1.6-2.9,2.8c-3,9.4-6.7,18.8-8.2,28.5
		c-1.4,8.5,1.3,16.8,9.5,22.9C138.3,264.3,138.7,243.6,141.8,222.5z"/>
	<path class="st0" d="M271.4,303.5c6.4-6.1,12.5-11.8,18.8-17.7c-5.8-6.3-9.7-13.5-11.1-21.8c-2.9-17.4,4.1-30.7,17.4-41.3
		c1.9-1.5,4-2.9,6.1-4.3c8.2-5.5,16.5-9.3,26.9-5.4c4.2,1.6,9.4,0.3,14.2,0.2c6.2-0.1,7.2,1.4,4.7,7.1
		c-7.4,17.2-11.9,35.2-13.3,53.8c-2,27-23,43.7-48.9,38.1C280.5,310.8,275.6,308.3,271.4,303.5z M299.8,251.4
		c1.1,2.1,2.7,6.5,5.7,9.7c3.4,3.8,6.1,2.6,6.7-2.4c0.9-7.5,3.3-14.1,8.6-19.6c5-5.3,4.9-5.8-2.3-7.7c-3.4-0.9-7.1-2.7-10.3,0.5
		C303.5,236.5,300.4,242,299.8,251.4z M311.7,267.1c-5.7,4.9-11.1,9.7-16.6,14.4c5.9,6.3,14.8,7.8,19.4,3.5
		C318.9,281,318,274.2,311.7,267.1z"/>
	<path class="st0" d="M546.1,175c-6.4,6.7-13.5,12.9-22.1,16.3c-4,1.5-9.3-0.5-14.1-1.1c-1.9-0.3-3.8-1.2-5.7-1.8
		c-12.5-4.3-20.8,0.4-23.5,13.6c-1,5-2.1,10.1-2.8,15.2c-0.8,6.3,2.3,8.9,8.6,7.6c2.3-0.5,4.5-1.1,6.8-1.7c2-0.6,4-1.3,6.4-1.4
		c-9.1,12-18.2,24.2-33.7,28.2c-13.4,3.4-22.2-5.7-19.7-19.8c1.5-8.5,3.3-16.9,5-25.4c0.9-4.4,2.2-8.6-0.7-13
		c-0.5-0.8,0.8-3.4,1.9-4.5c2.9-3,6-5.8,9.3-8.4c1.3-1,3.5-1.6,4.9-1.2c4,1.3,8.2,2.9,11.7,5.2c2.7,1.8,4.6,1.8,7,0.2
		c6.3-4.3,12.6-8.7,19.1-12.7c1.7-1.1,4.6-1.9,6.3-1.2c8.7,3.4,17.8,3.9,27,4c2.6,0,5.2,0.3,7.8,0.5C545.8,174,546,174.5,546.1,175z
		"/>
	<path class="st0" d="M419.4,244c-6.5,14.8-25.7,25-40.4,22.1c-8.2-1.6-14.5-9.3-14.6-20.2c-0.1-8.7,0.6-17.7,2.9-26.1
		c5.8-20.4,25.9-33.1,46.8-30.7c11.8,1.4,19.1,10.1,18.7,22.4c-0.1,2.8-0.2,5.8-1.1,8.4c-0.6,1.7-2.4,3.6-4,4
		c-11.1,2.8-22.3,5.2-33.4,7.8c-6.2,1.4-7.7,3.5-7.2,9.9c0.3,4.9,3.9,8.7,9.3,8.4c5-0.3,10-1.7,15-2.9
		C413.8,246.5,416.2,245.3,419.4,244z M390.4,223.5c4.3-0.8,8.1-1.2,11.9-2.3c1.4-0.4,3.2-2.2,3.3-3.5c0.5-4.4,0.9-8.9,0.2-13.2
		c-0.8-5.2-5.5-6.4-9.1-2.4C391.5,207.9,389.4,214.8,390.4,223.5z"/>
	<path class="st0" d="M259.6,282.3c-6.7,11.3-15.3,18.5-27.9,19.7c-7,0.6-11.2-3.4-10.6-10.5c0.6-7.9,2.3-15.7,3.5-23.6
		c0.9-6.1,2.3-12.1,2.6-18.2c0.4-8.6,0.1-8.6,5.6-16c2.8-3.8,5.7-6.9,11-6.1c8,1.2,12.4,7.1,10.9,15.4c-1.9,10.4-3.9,20.8-5.9,31.2
		c-1.7,8.7-0.6,9.9,8.1,8C257.4,282.2,258.1,282.3,259.6,282.3z"/>
	<path class="st0" d="M229.9,207.1c6-4.5,11.3-8.6,16.7-12.5c0.7-0.5,2.1-0.6,2.8-0.2c5.8,2.8,11.4,5.7,17.8,9
		c-6.5,4.7-12.3,8.9-18.1,12.9c-0.8,0.6-2.6,0.6-3.6,0.1C240.6,213.6,235.8,210.7,229.9,207.1z"/>
	<path class="st0" d="M67,60.4c0,5.8,0.1,11.6,0,17.5c-0.1,6.3-4.2,10.9-9.8,11.2c-5.7,0.3-10.3-3.8-10.5-10.3
		c-0.3-12.1-0.3-24.3,0-36.4C46.8,35.8,51.2,31.9,57,32c5.7,0.1,9.8,4.6,9.9,10.9C67.1,48.7,67,54.5,67,60.4z"/>
	<path class="st0" d="M583.2,81.3c-0.1,4.5-2.6,7.6-6.1,7.7c-3.6,0.1-6.7-3.6-6.7-7.9c0-4.1,3.2-8.1,6.6-8.1
		C580.5,73.1,583.3,76.7,583.2,81.3z"/>
	<path d="M141.8,222.5c-3,21-3.5,41.8-20.6,56.9c-8.2-6.1-10.9-14.4-9.5-22.9c1.6-9.7,5.3-19,8.2-28.5c0.4-1.2,1.8-2.6,2.9-2.8
		C128.7,224.2,134.6,223.5,141.8,222.5z"/>
	<path d="M299.8,251.4c0.6-9.3,3.7-14.9,8.4-19.6c3.2-3.2,6.8-1.4,10.3-0.5c7.2,1.9,7.3,2.4,2.3,7.7c-5.2,5.5-7.7,12.1-8.6,19.6
		c-0.6,5-3.3,6.2-6.7,2.4C302.6,257.8,301,253.4,299.8,251.4z"/>
	<path d="M311.7,267.1c6.3,7.1,7.2,13.9,2.8,18c-4.6,4.2-13.5,2.8-19.4-3.5C300.6,276.8,306,272,311.7,267.1z"/>
	<path d="M390.4,223.5c-1-8.7,1.1-15.6,6.3-21.4c3.6-4,8.3-2.9,9.1,2.4c0.7,4.3,0.3,8.9-0.2,13.2c-0.1,1.3-2,3.1-3.3,3.5
		C398.5,222.3,394.6,222.7,390.4,223.5z"/>
</g>
</svg>
