<svg xmlns="http://www.w3.org/2000/svg" viewBox="0 0 283.47 142.27"><path d="M272.63,27.75c9.35-3.1,10.55-8.17,10.47-17.38h-12c.29,5.78-.62,12.33-8.16,12.33h-5.71V0H245.08V47.48h12.16V32.61h4.43c5.79-.23,9.71,4,9.71,7.41v7.46h12.09V42.4C283.47,33.23,279.17,29.82,272.63,27.75Z"/><path d="M173.59,10.55h-7.76v10h5.31c4.58,0,7.88,4.07,7.88,8.46a8.38,8.38,0,0,1-7.68,8.6H161.5V.1h-12V47.51h21.73c9.17,0,20-6.83,20-18.14S182.63,10.55,173.59,10.55Z"/><path d="M64.14,29a8.31,8.31,0,0,1,8.13-8.47h9.94l-7.8,12.89H85.94l7.81-12.09V10.54H70.68a18.5,18.5,0,0,0,0,37H93.83v-10H72.56A8.53,8.53,0,0,1,64.14,29Z"/><path d="M111.49,29a8.31,8.31,0,0,1,8.13-8.47h9.94l-7.79,12.89h11.52l7.82-12.09V10.54H118a18.5,18.5,0,0,0,0,37h23.13v-10H119.91A8.53,8.53,0,0,1,111.49,29Z"/><path d="M48.13,16.55C48.13,6.1,38.18.1,29.47.1H0V47.66H11.68V10.35H26.94c5.13,0,8.78,3.12,8.78,8.54,0,4.55-3,8.45-8.64,8.45h-11v9.74h7.54c6.18.24,10.62,2.85,10.68,9.73V57.75l12.28.06V43.51c0-6.27-5-10-9.79-11.22C44.57,29.47,48.13,23.52,48.13,16.55Z"/><path d="M217.83,9.93c-14,0-22,8.71-22,19.44s8.9,19.41,22,19.41c13.64,0,22-8.7,22-19.41S232,9.93,217.83,9.93Zm0,29.4a10,10,0,1,1,9.94-10.06v.06A10,10,0,0,1,217.83,39.33Z"/><path d="M92.66,95.22c-11.26,4.52-48.45,16.45-70,44.39H67.5c3.33-4.51,8.56-9.88,16.33-15.89,12.44-9.24,21.7-14.1,36-20Z" fill-rule="evenodd"/><path d="M84.7,139.61h40.63c9.48-14.45,20.69-21.25,25.33-24.78l-21.32-7.94C121,110.84,100.83,120.17,84.7,139.61Z" fill-rule="evenodd"/><path d="M151.38,80.52l30.14,17.74c28.77-12.71,67-23.78,101.81-32.13C283.33,66.1,195.4,71.62,151.38,80.52Z" fill-rule="evenodd"/><path d="M11.26,67.75A749.75,749.75,0,0,1,114.67,93c28.17,8.78,71.09,26.72,98.25,38.34,15.08,6.46,25.4,10.9,25.4,10.9C160.08,94.36,111.19,67.75,111.19,67.75Z" fill-rule="evenodd"/></svg>