<?xml version="1.0" encoding="utf-8"?>
<!-- Generator: Adobe Illustrator 25.4.1, SVG Export Plug-In . SVG Version: 6.00 Build 0)  -->
<svg version="1.1" id="Laag_1" xmlns="http://www.w3.org/2000/svg" xmlns:xlink="http://www.w3.org/1999/xlink" x="0px" y="0px"
	 viewBox="0 0 294 304" style="enable-background:new 0 0 294 304;" xml:space="preserve">
<style type="text/css">
	.st0{fill:#030303;}
	.st1{fill:#050505;}
	.st2{fill:#060606;}
	.st3{fill:#070707;}
	.st4{fill:#090909;}
	.st5{fill:#080808;}
	.st6{fill:#0C0C0C;}
	.st7{fill:#1C1C1C;}
	.st8{fill:#FEFEFE;}
	.st9{fill:#F8F8F8;}
	.st10{fill:#F7F7F7;}
	.st11{fill:#F9F9F9;}
</style>
<g id="LedGWv.tif">
	<g>
		<path d="M149,121.5c-22-0.1-41.2-13.2-49.1-33.6c-7.7-20.1-2.4-43,13.6-57.6c15.8-14.5,39.1-17.8,58.4-8c3.2,1.6,4.8,1.3,7.1-1.2
			c3.4-3.8,7.3-7.3,10.8-11c1.7-1.8,2.8-2.3,4.7-0.2c4.3,4.6,8.8,9.1,13.4,13.4c1.9,1.8,1.4,2.8-0.2,4.4c-3.8,3.7-7.4,7.7-11.3,11.2
			c-2.4,2.1-2.6,3.8-1.1,6.7c15.8,31.6-3,68.9-37.7,75.2C154.6,121.1,151.8,121.2,149,121.5z"/>
		<path d="M199.1,206.8c0,8.7-0.1,17.3,0.1,26c0.1,3-0.7,4.1-3.9,4c-6-0.2-12-0.3-17.9,0c-3.6,0.2-4-1.3-4-4.3
			c0.1-15.6,0.2-31.3,0-46.9c-0.1-15.3-10.7-26.5-24.6-26.6c-14.1-0.1-24.7,11-24.9,26.2c-0.2,15.6-0.2,31.3,0.1,46.9
			c0.1,3.8-1,4.8-4.7,4.6c-5.8-0.3-11.6-0.2-17.4,0c-2.7,0.1-3.8-0.6-3.8-3.6c0.2-16.6-0.4-33.3,0.3-49.9
			c0.9-20.8,10.5-36.8,29.6-45.5c18.1-8.3,35.8-6,51.5,6.2c13.7,10.6,19.4,25.3,19.6,42.4C199.1,193.2,199.1,200,199.1,206.8z"/>
		<path class="st0" d="M10.5,278.9c0-3.3,0-6,0-8.7c0-0.8,0.2-1.7,0-2.5c-1.3-5.1-1.3-5.2,4.7-5.1c3.1,0,6.4-0.2,9.4,0.4
			c7,1.4,9.8,9.9,5.3,15.3c-1.1,1.3-4.1,1.4-3.2,3.7c1,2.6,2.6,5,4.3,7.3c0.8,1.1,3.7,0,3.1,2.8c-0.2,1.1-1.1,1.1-1.9,1.1
			c-2-0.1-4.4,0.8-5.7-1.8c-1.2-2.4-2.7-4.6-3.8-7c-1-2.1-2.4-3-4.7-2.7c-1.2,0.1-2.6,0-2.4,1.7c0.3,2.1-1.4,4.9,1.2,6.3
			c1.3,0.7,1.9,1.2,1.6,2.5c-0.4,1.7-1.9,1-2.9,1.1c-1.3,0.1-2.7,0.1-4,0c-1.1-0.1-2.5,0.5-3.1-0.8c-0.7-1.5,1-2,1.5-3
			C11.5,286,10,282,10.5,278.9z"/>
		<path class="st1" d="M252.3,276.2c0-3.3,0-6.1,0-8.9c0-0.8,0.1-1.9-0.3-2.4c-0.9-1.1-4.2-1.3-2.1-3.6c1.3-1.5,3.8-0.7,5.7-0.4
			c2.5,0.4,1.4,2.6,1.4,4.1c0.1,6.8,0,13.6,0.1,20.4c0,1.2-0.2,2.4,0.2,3.4c0.5,1.4,3.8,2.3,1.4,4c-1.5,1.1-4.3,1.2-6-0.3
			c-1-0.9-1.3-0.6-2.3-0.2c-5.5,2.1-9.2,1.3-11.7-2.6c-2.5-3.7-2.1-9.7,0.9-13C242.6,273.3,246.4,273,252.3,276.2z"/>
		<path class="st2" d="M137.4,293.2c-4.4,0-4,0.1-2.4-4.2c1.1-2.9,1-6.3-0.2-9.3c-1-2.5-4.8-2.6-6.7-0.5c-1.8,2-2,8.4,0.1,10.4
			c0.8,0.8,1.3,1.5,1,2.5c-0.4,1.2-1.6,1-2.5,1c-1.7,0-3.3,0-5,0c-2.3-0.1-2.4-1.4-1.5-3c2.7-4.7,2.6-7.3-0.2-12.9
			c-0.4-0.9-0.7-2.2,0.3-2.7c1.6-1,4.4-1.1,5.2-0.2c1.9,2.3,3.1,0.7,4.7,0.1c5-2.1,9.4,1,10,6.8c0.4,3.2-1.5,6.7,2.1,9.6
			C143.7,292,142.2,293.3,137.4,293.2z"/>
		<path class="st2" d="M67.6,285.5c0.2,1.2-0.1,2.8,0.6,3.7c1,1.3,3.7,2.6,0.7,3.8c-2.3,0.9-5.5,1.1-8.1-0.5c-0.3-0.2-0.3-1.4,0-1.8
			c3.4-4.5,3.5-8.8,0-13.3c-0.4-0.5-0.3-1.8,0.1-2.3c1.4-1.6,4.1-1.4,5-0.6c2.2,1.8,3.5,0.7,5.4-0.1c4.9-1.8,8.9,1.3,9.6,6.9
			c0.4,3.2-1.5,6.9,2.1,9.6c0.7,0.5,0.3,2.3-1.4,2.3c-1.5,0-3,0.1-4.5,0c-3.6-0.2-3.4-0.1-1.7-3.6c1.6-3.2,1.1-6.8,0-10.1
			c-0.5-1.6-2.3-1.8-3.9-1.6c-1.8,0.2-3.2,1.2-3.6,3C67.7,282.3,67.7,283.8,67.6,285.5z"/>
		<path class="st3" d="M50.8,282.3c-0.4-1.3,0.9-3.3-1-4.3c-1.6-0.8-1.9-2.1-1.1-3.2c1.2-1.5,3.1-0.5,4.7-0.7
			c1.6-0.1,1.9,0.9,1.9,2.2c0,3,0,6,0,9c0,1.2-0.1,2.4,0.2,3.4c0.4,1.4,4,1.8,1.7,3.9c-1.4,1.3-4.7,1.2-5.6,0.2
			c-1.6-1.9-2.2-0.7-3.5-0.2c-5.5,2.4-9.9-0.1-10.7-6.1c-0.5-3.3,1.4-7.1-2.2-9.9c-0.9-0.7,0-2.8,1.8-2.5c1.8,0.3,4.7-1.6,5,2
			c0.2,2.6,0.1,5.3,0,8c-0.1,2.9,0.2,5.6,3.9,5.6c3.3,0,4.5-2.3,4.7-5.3C50.8,283.9,50.8,283.2,50.8,282.3z"/>
		<path class="st2" d="M226.9,282.4c-0.4-1.3,0.9-3.4-0.9-4.4c-1.6-0.8-2-2-1.1-3.2c1.1-1.5,3.1-0.6,4.7-0.7
			c1.5-0.2,2.1,0.7,2.1,2.1c0,2.8-0.1,5.7,0.1,8.5c0.1,1.9-1,4,1.9,5.5c1.7,0.9,0.7,3-1.7,2.9c-3.8,0-7.4-0.6-11.3,0.3
			c-3.9,0.9-6.4-2.8-6.9-8c-0.3-2.9,1.5-6.2-2-8.6c-0.8-0.5-0.5-2.9,1.5-2.7c1.8,0.2,4.7-1.7,5.2,1.8c0.4,2.6,0.1,5.3,0.1,8
			c0,2.8,0.1,5.7,3.8,5.7c3.7,0.1,4.7-2.4,4.7-5.7C226.9,283.6,226.9,283.1,226.9,282.4z"/>
		<path class="st2" d="M106.6,273.9c5.8,0,10.2,4.3,10.2,9.9c0,5.6-4.5,9.9-10.2,9.9c-5.7,0-10.3-4.4-10.3-9.9
			C96.4,278.2,100.8,273.9,106.6,273.9z"/>
		<path class="st2" d="M199.1,273.9c5.8-0.1,10.3,4,10.4,9.7c0.1,5.6-4.2,10.1-10,10.2c-5.8,0.1-10.3-4.1-10.4-9.7
			C188.9,278.4,193.3,274,199.1,273.9z"/>
		<path class="st4" d="M269.7,273.9c1.6-0.4,3,1.8,5,0.5c0.9-0.5,2.1-0.3,2.3,1c0.1,1.3,0.3,2.8-0.3,3.8c-0.6,1.1-2,0.6-3-0.1
			c-0.9-0.6-1.8-1.5-2.9-1.8c-1.3-0.4-2.8-0.1-3.3,1.4c-0.4,1.4,0.9,1.9,2.1,2.3c1.1,0.4,2.2,0.6,3.3,1c3.3,1.2,5.6,3.1,4.7,7
			c-0.9,3.8-3.9,4.6-7.3,4.6c-2.1,0-3.9-1.7-6.2-0.6c-1,0.4-1.9-0.5-1.7-1.8c0.2-1.4-0.7-3.1,0.9-4.1c0.9-0.5,1.9-0.3,2.7,0.6
			c0.6,0.6,1,1.4,1.7,1.8c1.3,0.8,2.9,0.9,4.3,0.2c0.5-0.2,1.1-1,1-1.5c-0.2-1.9-1.9-2-3.3-2.4c-2-0.7-4.2-1.1-5.6-2.9
			c-1.5-1.9-1.5-4.1-0.4-6.1C264.8,274.6,267,273.9,269.7,273.9z"/>
		<path class="st5" d="M155.6,285.1c0-8,5.3-12.3,11.6-11c1.1,0.2,2,1.3,3.3,0.6c1.3-0.7,2.7-1.1,3,0.9c0.2,1.6,0.8,3.6-0.4,4.8
			c-1.2,1.2-2.6,0.3-3.7-1c-1.9-2.3-4.4-2.2-6.6-0.5c-2.6,2-2.7,4.9-1.6,7.7c1,2.6,3.3,3.6,6.1,3.1c0.9-0.2,1.9-0.6,2.7-1.2
			c1.6-1.1,2.5,0,3.3,1c1.2,1.5-0.5,2-1.3,2.5c-3.7,2.2-7.6,2.3-11.3,0.3C157,290.5,155.7,287.4,155.6,285.1z"/>
		<path class="st6" d="M183.7,275.5c0,3.5,0,7,0,10.5c0,1.1-0.1,2.9,0.5,3.3c1.3,0.9,2.8,1.5,1.9,3.3c-0.7,1.3-2.4,0.7-3.7,0.7
			c-1.5,0-3,0-4.5-0.1c-1.7-0.1-1.9-1.6-1.3-2.5c5.3-7.8,0.9-16.5,2.3-24.7c0.1-0.4-0.2-1.1-0.5-1.3c-1.3-0.7-3.3-1.2-2-3
			c1.3-1.9,3.6-0.8,5.5-0.8c2.5-0.1,1.7,1.9,1.8,3.3C183.8,267.9,183.7,271.7,183.7,275.5z"/>
		<path class="st7" d="M287.4,290.5c-0.1,2-1.2,3.1-3.1,3.1c-1.8,0-3.1-1.1-3.2-3c0-2.1,1.3-3.4,3.3-3.3
			C286.4,287.3,287.5,288.5,287.4,290.5z"/>
		<path class="st8" d="M119.9,69.2c-0.1-15.6,12.7-28.7,28.3-29c15.7-0.3,29,13,29,28.7c0,15.6-13,28.7-28.5,28.8
			C133.2,97.8,120,84.8,119.9,69.2z"/>
		<path class="st9" d="M15.3,271c-0.1-2.1-0.8-5.2,4.2-4.7c5.1,0.5,7.5,2,7.5,6c0,3.9-2.4,5.7-7.6,5.6C15.3,278,15.3,278,15.3,271z"
			/>
		<path class="st9" d="M252.4,283.8c-0.2,3.3-1.6,5.9-5.3,5.9c-3.8,0-5.2-2.6-5.2-5.9c0-3.3,1.3-6,5.2-5.9
			C250.8,277.9,252.2,280.3,252.4,283.8z"/>
		<path class="st10" d="M112,284c-0.3,3.3-1.7,5.9-5.4,5.8c-3.9,0-5.5-2.8-5.4-6.3c0-3.3,1.6-5.8,5.3-5.8
			C110.6,277.8,111.8,280.5,112,284z"/>
		<path class="st11" d="M204.7,283.3c-0.2,3.9-1.5,6.6-5.5,6.6c-3.7,0-5.2-2.6-5.3-5.9c-0.1-3.5,1.5-6.2,5.5-6.2
			C203.1,277.8,204.3,280.4,204.7,283.3z"/>
	</g>
</g>
</svg>
