<?xml version="1.0" encoding="utf-8"?>
<!-- Generator: Adobe Illustrator 25.4.1, SVG Export Plug-In . SVG Version: 6.00 Build 0)  -->
<svg version="1.1" id="Laag_1" xmlns="http://www.w3.org/2000/svg" xmlns:xlink="http://www.w3.org/1999/xlink" x="0px" y="0px"
	 viewBox="0 0 458 298" style="enable-background:new 0 0 458 298;" xml:space="preserve">
<style type="text/css">
	.st0{fill:#FEFEFE;}
	.st1{fill:#171717;}
	.st2{fill:#181818;}
	.st3{fill:#FCFCFC;}
</style>
<g id="dwvDdY.tif">
	<g>
		<path class="st0" d="M445.4,249.1c-2.1,0-2.2-1.8-2.4-3.2c-1.8-9.4-8.1-13.8-17-14.9c-6.9-0.8-13.9-0.8-20.8,0.8
			c-7.4,1.7-11.8,6.3-13.3,13.7c-1.4,6.8-0.6,13.6-0.8,20.3c-0.1,3.5,0.1,7,0,10.4c-0.1,3.5,0.3,6.3,4.9,6.1
			c4.3-0.2,5.1-0.8,5.1-5.9c0.1-6.8,0-13.6,0-20.4c0-2.8,0.2-5.6,1.3-8.3c1.6-4.3,4.6-6.8,9.3-7.1c2.8-0.2,5.6-0.1,8.5-0.1
			c9.1,0.1,12.6,3.2,13.5,12.3c0.6,6.1,0.2,12.3,0.2,18.4c0,1.8,0.1,3.7,0,5.5c-0.3,3.9,1.1,6,5.4,5.7c2.1-0.2,4.4-0.2,6.1,1.4
			c-0.1,1.6,0.6,3.9-2.5,3c-0.5-0.1-1,0-1.5,0"/>
		<path class="st0" d="M138.3,9.2c0.1,1.7-1.2,2.3-2.3,3c-5,2.9-6.1,7.4-6.1,12.7c0.1,24.2,0,48.4,0,72.6c0,30,0,60,0,90
			c0,2.8-0.2,5.7,1.1,8.3c1.8,3.9,4.7,6.4,9.1,6.7c2,0.2,4,0.1,6,0.1c53,0,106,0,159,0c2,0,4,0.1,6-0.1c6.7-0.7,10.6-4.6,11.1-11.3
			c0.2-2,0.1-4,0.1-6c0-51.9,0-103.8,0.1-155.7c0-7.2-0.2-14-6.9-18.6c-0.6-0.4-0.6-1.1-0.6-1.8"/>
		<path class="st1" d="M314.8,9.2c6.9,3.4,9.1,9,9.1,16.5c-0.2,54.4-0.1,108.8-0.1,163.2c0,10.9-4.5,15.5-15.3,15.5
			c-55.2,0-110.3,0-165.5,0c-9.9,0-14.8-4.7-14.8-14.5c-0.1-55.5,0-111.1-0.1-166.6c0-7.4,3.8-11.5,10.2-14.1
			C197.1,9.2,256,9.2,314.8,9.2z"/>
		<path class="st1" d="M445.4,284c-13,0.7-13,0.7-13-12.3c0-5.6,0.1-11.3,0-16.9c-0.2-9.7-3.7-13.1-13.4-13.1c-1.7,0-3.3,0-5,0
			c-7.3,0.3-11.1,3.6-11.4,11c-0.4,8.9-0.4,17.9-0.2,26.8c0.1,3.6-0.6,4.9-4.5,4.8c-8.5-0.3-8.6,0-8.5-8.6
			c0.1-9.4-0.7-18.9,0.7-28.3c1.8-11.2,6.4-15.8,17.6-17.6c6.6-1,13.2-1,19.8,0.1c10.8,1.9,15.4,6.7,17,17.6
			c0.1,0.6,0.5,1.1,0.8,1.7C445.4,260.7,445.4,272.3,445.4,284z"/>
		<path class="st1" d="M229,265.7c0.2-5.2-0.3-11.3,0.7-17.4c2-12.4,7.7-17.9,20.4-18.8c8.6-0.6,17.3-0.9,24.9,4.4
			c1.3,0.9,2,0.3,3-0.3c10.4-5.8,21.3-5.4,32.3-2.4c7.5,2,11.2,7.7,12.4,15.2c1.7,11.7,0.7,23.5,1,35.2c0.1,1.8-0.5,2.5-2.5,2.6
			c-10.5,0.9-10.4,1-10.6-9.5c-0.1-8.1,0.7-16.2-0.7-24.3c-0.9-5.4-4.2-8-9.4-8.6c-1.6-0.2-3.3-0.2-5-0.2
			c-8.7,0.2-12.4,3.7-12.8,12.4c-0.2,4.6,0,9.3-0.1,13.9c0,2.3,0,4.6,0,7c0,9.6,0,9.5-9.7,9.3c-2.7-0.1-3.3-0.8-3.3-3.4
			c0.1-8.1,0-16.2,0.1-24.4c0.2-14-7.6-17.3-21.7-13.6c-5.5,1.5-6,7.1-6.2,12c-0.2,7.9-0.4,15.9,0.1,23.9c0.3,4.7-1.4,6.1-5.7,5.4
			c-0.8-0.1-1.7-0.2-2.5,0c-4.4,0.8-5.3-1.2-5-5.1C229.3,274.9,229,270.7,229,265.7z"/>
		<path class="st1" d="M72.8,243.7c-1.4-12-1.4-11.9,10.1-13.6c8.8-1.3,17.5-1.8,26.2,0.1c9.7,2.1,14.1,7.7,14.2,17.5
			c0,6.5,0,12.9,0,19.4c-0.1,8.6-4,14.2-12.3,16.5c-10.8,3-21.7,2.8-32.5-0.1c-7.5-2-11-7.1-11.1-14.6c-0.1-7.2,3.2-11.3,11-14
			c6.3-2.2,13-2.6,19.5-3.8c2.6-0.4,5.2-1,7.7-1.7c2-0.6,3.8-1.6,3.7-4c-0.1-2.5-2.1-3.3-4-3.7c-6.4-1.3-12.9-0.9-19.3-0.1
			C81.6,242.2,77.2,243,72.8,243.7z"/>
		<path class="st1" d="M61.3,243.7c-11.1-2.6-21.9-4.2-32.9-2.9c-1.3,0.2-2.7,0.3-3.9,0.7c-2,0.6-3.8,1.7-3.9,4
			c-0.1,2.4,1.7,3.5,3.7,4.1c5.3,1.6,10.8,1.7,16.2,2.4c4.6,0.6,9.2,1.1,13.7,2.5c6.7,2.2,9.9,6.3,10,13.2c0,6.4-2.3,11.5-8.5,14.5
			c-6.4,3-13.2,3.1-20,3.1c-7.6,0-15.2-0.5-22.7-2.1c-3.8-0.8-5.1-2.3-4.6-5.9c0.2-1.1,0.2-2.3,0-3.5c-0.5-3.9,0.8-4.1,4.4-3.1
			c10.1,2.7,20.5,3.9,31,2.4c2.6-0.4,5.8-0.6,5.9-4.1c0.2-3.6-3-3.9-5.6-4.3c-6.7-1-13.5-1.7-20.2-2.8c-2.9-0.5-5.8-1.3-8.6-2.4
			c-6.3-2.6-8.9-6.9-8.8-14.1c0.1-6.5,3.1-11,9.1-13.4c9.7-3.8,19.9-3.1,30-2.5c3.8,0.2,7.5,1.1,11.3,1.4c3.3,0.3,4.7,1.7,4.3,5.1
			C61.1,238.5,61.3,241,61.3,243.7z"/>
		<path class="st1" d="M357.1,285.8c-4.5,0.3-9,0.3-13.3-0.8c-7.8-2-12.7-6.7-14.1-14.8c-1.4-8.2-1.4-16.4,0-24.7
			c1.4-8.4,6.4-13.3,14.4-15.1c8.7-1.9,17.5-1.9,26.2,0c7.4,1.6,12.3,6.2,13.9,13.8c1.8,8.9,1.9,17.8,0.1,26.6
			c-1.8,9-7.9,13.7-18.6,14.9C362.7,286,359.9,285.8,357.1,285.8z"/>
		<path class="st1" d="M196.3,285.8c-5.1,0.2-10.2,0.1-15.2-1.6c-6.6-2.2-10.5-6.7-11.9-13.4c-1.8-8.9-1.8-17.8,0-26.6
			c1.5-7.6,6.5-12.2,13.9-13.9c8.8-1.9,17.8-2,26.6,0c7.4,1.7,12.2,6.4,13.8,14c1.8,8.9,1.9,17.8-0.1,26.6
			c-2,9.2-8.2,13.9-19.2,14.8C201.6,286,199,285.8,196.3,285.8z"/>
		<path class="st2" d="M128.3,250.4c0-5.6,0.2-11.3-0.1-16.9c-0.1-3,0.7-3.9,3.8-3.9c8.7,0,8.7-0.1,8.7,8.5c0,8.4-0.1,16.9,0,25.3
			c0.1,6.1,2.9,9.2,9,9.6c3.8,0.3,7.6,0.3,11.4-0.1c3.4-0.3,4.9,0.8,5,4.2c0,1.5,0.4,2.9,0.7,4.4c0.4,1.6,0.2,2.4-1.8,2.5
			c-8.1,0.4-16.2,1.4-24.2-1c-8.5-2.6-12.6-7.9-12.7-16.7C128.3,261,128.3,255.7,128.3,250.4z"/>
		<path class="st0" d="M226.1,38.6c18.8,0.2,37.5,0.9,56.2,2.6c8,0.7,10.1,3,10.1,11c0,5-0.1,10,0,14.9c0.1,4.1-1.8,5.3-5.7,5.7
			c-12.2,1.2-23.4-1.5-33.6-8c-6.7-4.2-13.9-5.7-21.8-5.2c-6.3,0.4-12.6,0.2-18.9,0c-4.1-0.1-7.8,0.2-8.8,5.2
			c-1,4.8,1.8,7.1,5.7,9.1c21.3,11.1,42.5,22.3,63.7,33.5c3.7,1.9,7.2,4,10.8,6.2c5.6,3.5,8.6,8.7,8.6,15.3
			c0.1,11.4,0.1,22.9,0,34.3c0,5.7-2.7,8.4-8.5,9c-38.6,3.6-77.2,3.7-115.8,0c-5.8-0.6-8.3-3.2-8.4-9c-0.1-5.3,0.2-10.6-0.1-15.9
			c-0.3-4.7,1.5-6,6.2-6.6c13.1-1.4,24.5,2.8,35.4,9.1c5.4,3.1,10.9,4.4,17.1,4.1c6.8-0.3,13.6-0.1,20.4-0.1c4.1,0,8.3,0.3,9.4-5
			c1.1-5-1.7-7.4-5.8-9.5c-23.1-11.9-46.2-23.9-69-36.3c-9.7-5.2-14.6-12.1-13.8-23.4c0.7-9.2,0.1-18.6,0.1-27.8
			c0-7.9,2-10.1,9.7-10.7C188.3,39.6,207.2,38.8,226.1,38.6z"/>
		<path class="st3" d="M110.6,259.1c0.8,10.4-1.3,13-10.9,14.4c-4.7,0.7-9.3,0.3-13.9-0.6c-2.2-0.4-4.2-1.3-4.4-4
			c-0.2-2.8,2-3.6,4.1-4.1C93.7,262.7,102.3,262.7,110.6,259.1z"/>
		<path class="st0" d="M356.9,241.7c3,0,6-0.3,8.9,0.9c6.5,2.7,6.6,8.6,6.6,14.2c0,6.1,0.7,13-6.4,15.8c-5.8,2.3-12.3,2.4-18.1,0
			c-8.1-3.4-6.2-11.2-6.3-17.8c-0.1-5.4,1-10.3,6.9-12.4C351.3,241.4,354.1,241.6,356.9,241.7z"/>
		<path class="st0" d="M181.1,257.5c0-1.7-0.1-3.3,0-5c0.2-1.6,0.4-3.4,1.1-4.8c4.3-8.7,12.5-5.8,19.4-5.8c5.5,0,8.5,3,9.5,8.3
			c0.4,1.9,0.6,3.9,0.7,5.9c0.5,15.7-10.3,22.9-24.9,16.5c-3.3-1.5-5.1-4.2-5.6-7.7c-0.4-2.4-0.4-4.9-0.6-7.4
			C181,257.5,181,257.5,181.1,257.5z"/>
	</g>
</g>
</svg>
