<?xml version="1.0" encoding="utf-8"?>
<!-- Generator: Adobe Illustrator 25.4.1, SVG Export Plug-In . SVG Version: 6.00 Build 0)  -->
<svg version="1.1" id="Laag_1" xmlns="http://www.w3.org/2000/svg" xmlns:xlink="http://www.w3.org/1999/xlink" x="0px" y="0px"
	 viewBox="0 0 463.8 125" style="enable-background:new 0 0 463.8 125;" xml:space="preserve">
<style type="text/css">
	.st0{fill:#FEFEFE;}
	.st1{fill:#FCFCFC;}
	.st2{fill:#FDFDFD;}
</style>
<g>
	<path class="st0" d="M2.5,12c4.8,0.3,9.6,0.1,14.5,0.1c-0.2,2.6-2.6,2.8-4.2,3.5C7.2,18,4.5,22.5,4.5,28.1
		c0.1,5.8,4.2,9.1,9.2,11.2c3.5,1.5,7.3,2.3,10.7,4.1c3,1.6,5.2,3.8,4.3,7.5c-0.9,3.5-3.5,5-7,5.3C17,56.6,12.9,55,8.9,52.9
		c-2.2-1.2-4.3-2.2-5.8,0.9c-1.5,3.1,0.6,4.1,2.7,5.3c7,3.9,14.5,4.7,22.2,2.8c5.4-1.3,8.8-5.2,9.5-10.3c0.9-6.5-0.9-10.3-6.3-13.4
		c-3.5-2-7.3-3.1-11-4.6c-5-1.9-7.2-5.2-6-8.9c1.2-3.6,5.2-5.2,10-4.2c2.5,0.5,4.7,1.6,7.1,2.4c2.7,1,4.1-0.3,5-2.6
		c1-2.5-1-3.2-2.6-4c-1.8-0.9-3.8-1.2-5.7-1.9c-1.3-0.5-3.2-0.3-3.1-2.5"/>
	<path class="st0" d="M459.7,70c-2.3,1.4-3.7-0.5-5.3-1.5c-9.2-5.6-18.6-10.9-29-14.2c-12.2-3.9-23.2-1.6-33.7,5.1
		c-8.1,5.2-15.8,11-23.7,16.7c-8.7,6.2-17.6,12-27.9,15.2c-13,4.1-26.2,4.2-39.5,2.6c-29.3-3.4-58-10.1-86.5-17.2
		c-1.4-0.3-2.8-1-4.6-0.3c0.8,2.1,2.6,2.7,4.2,3.3c38.7,14.3,77.3,28.9,117.8,37.4c2.4,0.5,5,0.5,7.2,1.8c0.7,0.4,1.3,1,1.1,2"/>
	<path d="M339.8,120.9c-4.2-3.1-9.4-2.4-14-3.5c-31.6-7.3-62.1-18-92.5-28.9c-7.3-2.6-14.4-5.5-21.7-8.1c-3-1.1-4.7-2.8-4.8-6.6
		c6.9,1.6,13.5,3.1,20.2,4.7c24.6,5.9,49.3,11.2,74.5,14.3c26.1,3.3,49.1-3.5,69.3-20.3c5.5-4.5,11.6-8.2,17.3-12.5
		c14.6-11,29.9-11.5,46.2-4c8.8,4.1,16.9,9.3,25.4,13.9c0,0.3,0,0.7,0,1c-1.2,2.4-3.5,2.4-5.7,2.2c-18.2-1.7-32.9,6-46.5,16.9
		c-8.7,6.9-17.7,13.6-26.8,19.9c-8.4,5.8-17.5,10.1-27.9,10.9C348.5,120.9,344.1,120.9,339.8,120.9z"/>
	<path d="M25,12.1c3.9,1.4,7.9,2.9,11.8,4.2c2.4,0.8,2.8,2.4,1.1,4.1c-1.6,1.6-0.5,6.4-5.2,4.6c-3.2-1.2-6.4-2.8-9.7-3.4
		c-3.4-0.7-6.9-0.1-8,3.9c-1.1,3.9,1.7,5.6,4.9,6.8c4.5,1.7,9.1,3,13.2,5.6c4.7,2.9,6.8,7.1,6.3,12.6c-0.6,5.8-3.5,10.3-8.9,12.2
		C20.2,66.1,10.5,64,1.7,58c-4.3-2.9,0.9-4.5,1.4-6.8c0.6-2.6,2.1-2.1,4-0.9c4.5,2.8,9.2,5.2,14.8,4.9c3-0.2,5.3-1.3,6.1-4.2
		c0.9-3.3-1-5.5-3.9-6.7c-3.6-1.5-7.4-2.7-11.1-4.1c-5.7-2.2-9.5-6-9.8-12.3C2.9,21.9,6.9,16.7,13.3,14c1.2-0.5,3.1-0.1,3.7-1.9
		C19.6,12.1,22.3,12.1,25,12.1z"/>
	<path d="M95.2,38.3c0,6.5-0.1,13,0.1,19.4c0.1,2.7-1,3.9-3.4,3.2c-2.7-0.8-6.5,2.7-8.2-2.4c-0.3-1-3.4,1.1-5.2,1.8
		C65.8,65.6,50.5,58.9,46,46c-3-8.8-0.5-19.8,6.5-25.5c8.2-6.6,17.4-8.3,27.4-4.3c1.4,0.5,3.4,4.3,4.9-0.6c0.3-1,6.3-0.8,9.5-0.1
		c2,0.4,0.8,3.2,0.9,4.9C95.3,26.3,95.2,32.3,95.2,38.3z"/>
	<path d="M229.7,63.1c-14.1,0-24.9-10.7-24.8-24.6c0.1-13.4,11.1-24.3,24.8-24.3c14.9,0,25.5,9.6,25.7,24.4
		C255.6,53.2,244.1,63.1,229.7,63.1z"/>
	<path d="M310.2,16.3c12.3-0.6,12.3-0.6,16.5,10.2c2.7,7,5.4,14.1,8.7,22.4c3.6-10,7-18.7,9.7-27.6c1.3-4.3,3.3-6,7.7-5.3
		c1.9,0.3,4,0.1,6.6,0.1c-3,7.6-5.8,14.8-8.6,22c-3.7,9.5-7.2,19.1-11.2,28.5c-4.5,10.9-14.4,14-25,8.6c-1.7-0.9-1.3-1.3-0.8-2.4
		c0.7-1.5,1.5-3,2-4.5c0.7-2.3,2-2.9,4-1.6c1.2,0.8,2.6,0.6,3.9,0.6c4.6-0.1,6.3-2.8,4.6-7.1C322.3,45.5,316.3,31.1,310.2,16.3z"/>
	<path d="M263,38.5c0-6.1-0.1-12.3,0.1-18.4c0-1.4-1.2-4,1.1-4.1c2.9-0.2,7-1.9,8.6,1.1c1.5,2.7,2.4,1.3,3.7,0.7
		c13.2-6,30.9,2.2,29.7,19c-0.5,7.1-0.2,14.3,0,21.4c0.1,3-0.7,4-3.8,4c-8.4,0-8.4,0.1-8.4-8.3c0-6,0.1-12,0-17.9
		c-0.1-5.9-4.1-10.4-9.1-10.4c-5.4,0-8.8,3.9-8.8,10.4c0,7.5-0.1,14.9,0,22.4c0,2.6-0.4,3.8-3.5,3.8c-9.5,0.1-9.5,0.3-9.5-9.2
		C263,48.1,263,43.3,263,38.5z"/>
	<path d="M148.9,39.2c0,6.1,0.1,12.3-0.1,18.4c0,1.4,1.1,3.9-1.3,4.1c-2.8,0.2-7.1,1.8-8.3-0.8c-1.7-3.5-3.1-1.4-4.5-0.8
		c-9.1,3.5-17.2,1.9-24.1-4.9c-3.4-3.3-4.8-7.5-4.8-12.1c-0.1-8,0.1-15.9-0.1-23.9c-0.1-2.8,0.7-3.5,3.5-3.5
		c8.9,0.1,8.9-0.1,8.9,8.7c0,6-0.2,12,0.1,17.9c0.4,7.8,6.8,11.9,13.3,8.6c3.6-1.8,4.5-5.1,4.6-8.7c0.1-7.5,0.2-15,0-22.4
		c-0.1-3.3,0.9-4.2,4.2-4.2c8.6,0.1,8.6-0.1,8.6,8.7C148.9,29.3,148.9,34.3,148.9,39.2z"/>
	<path d="M181.7,63.2c-11.3,0.1-20.6-6.6-23.6-16.8c-3.1-10.8,0.8-22.2,9.6-27.9c9.3-6.1,21.9-5.5,30.2,1.2c2.4,2,3.5,3.7,0.5,6
		c-1,0.8-1.8,1.9-2.6,3c-1.3,1.7-2.3,1.9-4.2,0.3c-6.6-5.6-13.2-5.7-18.2-0.9c-5.5,5.3-6.1,14-1.3,20.3c4.4,5.7,13,6.6,19,1.2
		c5.2-4.8,6.2,1.2,8.5,3c3.5,2.7-0.7,3.9-1.9,5.1C193.4,61.6,188.5,63.1,181.7,63.2z"/>
	<path class="st1" d="M413.6,69.8c0.1,3.8-4,8-7.8,8.1c-4.1,0.1-7.9-3.6-8-7.7c-0.1-4.2,3.5-8,7.7-8.1
		C409.4,62,413.5,65.9,413.6,69.8z"/>
	<path class="st1" d="M361.5,91.1c4.2,0,8,3.8,8,7.9c0,4.1-3.9,8-8,7.8c-4.5-0.2-7.8-3.7-7.7-8.1C353.9,94.7,357.6,91.1,361.5,91.1z
		"/>
	<path class="st2" d="M383.9,92.2c-4.4,0.1-8-3.2-8.1-7.5c-0.1-4.4,3.4-7.8,7.8-7.8c4.3,0,7.8,3.2,8,7.2
		C391.8,88.4,388.3,92.1,383.9,92.2z"/>
	<path class="st0" d="M85.9,38.3c0,7.7-6.9,14.3-14.8,14.4c-8,0.1-15.2-6.9-15.1-14.7C56.2,30,62.8,23.9,71.4,24
		C79.5,24,85.9,30.4,85.9,38.3z"/>
	<path class="st0" d="M216.8,38.6c-0.2-7.9,5.5-14.2,13.1-14.3c7.3-0.1,13.7,6.5,13.8,14.5c0.2,7.3-6.1,14.1-13.1,14.1
		C222.9,53,217,46.9,216.8,38.6z"/>
</g>
</svg>
