<?xml version="1.0" encoding="utf-8"?>
<!-- Generator: Adobe Illustrator 24.1.2, SVG Export Plug-In . SVG Version: 6.00 Build 0)  -->
<svg version="1.1" id="Laag_1" xmlns="http://www.w3.org/2000/svg" xmlns:xlink="http://www.w3.org/1999/xlink" x="0px" y="0px"
	 viewBox="0 0 993 469" style="enable-background:new 0 0 993 469;" xml:space="preserve">
<style type="text/css">
	.st0{fill:#FFFFFF;}
</style>
<g id="V6H1rW.tif">
	<g>
		<path d="M0,419.1c5.9-0.3,11.9-0.6,17.8-0.8c3.8-0.1,7.6,0,11.9,0c0.4,10.9,5.8,18.1,15.7,21.4c12,4,24.1,3.8,35.1-3
			c9.8-6.1,9.6-21.1-0.9-26.5c-7.5-3.9-16.2-5.6-24.5-8c-10.4-2.9-21.2-4.6-31.1-8.4c-13.7-5.3-20.5-16.3-20.8-31.1
			c-0.6-27.5,14.3-44.8,41.9-48.1c12.9-1.5,25.6-0.6,37.9,3.7c19.9,7,30,22.1,28.7,44c-4.5,0-9.1,0-13.7,0s-9.3,0-14.4,0
			c-0.5-8-3.4-14.5-10.4-18.3c-10.4-5.6-21.4-6.3-32.2-1.7c-10.1,4.3-10.6,12.4-8.3,20.9c0.8,2.9,5.6,5.6,9.1,6.6
			c11.5,3.3,23.2,5.7,34.8,8.6c5.5,1.4,10.9,2.9,16.2,4.8c21.5,7.6,25.7,26.8,23.6,41.8c-3.4,25-18,39.1-43.2,42
			c-14.5,1.7-28.9,2-42.7-3.8c-16.8-7-26-20-29.6-37.4c-0.2-0.9-0.6-1.8-0.9-2.7C0,421.8,0,420.4,0,419.1z"/>
		<path d="M620.8,228.1c0-2.1,0-4.1,0-6c0.1-15.8,0.3-31.6,0.4-47.4c0.1-29-14.7-51-41.7-61.9c-23.4-9.5-46.8-18.9-70.2-28.5
			c-21.9-9-28-18.4-28.5-42.1c-0.3-14.6,3.5-27,16.1-35.4c11.8-7.9,24.5-8.5,36.9-2.1c12.4,6.4,19.4,17,19.5,31.3
			c0.1,14.1,0,28.3,0,42.4c0,1.8,0,3.6,0,5.5c22.6,0,44.7,0,67.3,0c0-21.8,0-43.4,0-65.9c18.3,7.8,33.8,17.8,46.4,32
			c17.3,19.6,25.9,43,26.8,68.7C695.9,174.6,660.9,213.8,620.8,228.1z"/>
		<path d="M481,161.4c-22.9,0-44.8,0-67.2,0c0,22.2,0,44.2,0,66.4c-37.7-14.3-70.5-47.7-72.8-99c-2.1-47.3,23.8-91.1,72.7-110.1
			c0,5.5-0.1,10.6,0,15.6c0.2,15.1-0.3,30.3,0.8,45.3c1.9,25.9,16.4,43.2,40,53c24.5,10.2,49.2,20,73.8,30
			c17.8,7.2,25.1,18.4,25.3,37.6c0.1,10.4,0,20.5-6.3,29.6c-8.6,12.3-24.6,18.3-39.6,14.5c-13.8-3.5-25.4-17.1-26.1-31.8
			c-0.6-15.1-0.4-30.2-0.5-45.4C480.9,165.5,481,163.7,481,161.4z"/>
		<path d="M579.4,463c-10.7,0-20.5,0-30.6,0c0-48.7,0-97.3,0-146.7c1.6,0,3.4,0,5.1,0c23.3,0,46.6,0.7,69.9-0.2
			c19.1-0.8,36.9,13.4,38.6,36.2c1.2,16.5-4.1,30-17.8,39.7c0.1,0.4,0.1,0.9,0.2,1c9.9,5,13.3,13,12.5,23.8
			c-0.6,8.8-0.2,17.6-0.1,26.4c0,4.8,0.8,9.1,5,12.4c1.5,1.2,1.5,4.3,2.6,7.5c-10.5,0-20,0.5-29.3-0.4c-1.9-0.2-4.6-5.2-4.9-8.1
			c-0.8-9.7-1-19.6-0.6-29.4c0.5-12.6-5.1-19.1-17.6-19.1c-10.8,0-21.6,0-32.9,0C579.4,425.1,579.4,443.8,579.4,463z M579.5,379.3
			c11.3,0,22.3,0,33.2,0c13.7,0,22.7-11,20.1-24.5c-1.2-6.5-4.5-10.8-10.9-11.1c-14-0.6-28.1-0.2-42.4-0.2
			C579.5,355.2,579.5,366.9,579.5,379.3z"/>
		<path d="M813.3,364.2c-9.8,0-18.8,0-26.5,0c-4.1-5.8-7.1-11.5-11.4-15.8c-12.8-12.5-45-12.2-55,10.7
			c-10.2,23.4-11.5,46.8,4.4,68.5c8.5,11.5,20.4,16.5,34.6,13.2c13-3,22.4-10.6,26-24c0.5-1.9,0.6-3.9,0.9-6.5
			c-10.4,0-20.4,0-31.1,0c0-8.5-0.1-16.4,0.1-24.3c0-0.9,1.7-2.5,2.6-2.5c18.1-0.2,36.2-0.1,54.6-0.1c0,27,0,53.5,0,80.2
			c-6.1,0-12,0-18.4,0c-1-4.3-2.1-8.7-3.2-13.6c-16.8,18.7-37.9,20.5-60.2,16.2c-16-3.1-25.5-14.9-33.9-27.5
			c-20.3-30.5-16.7-78.6,7.8-105.5c11.3-12.4,25.5-18.7,42.4-19c15-0.3,29.8,0.6,42.4,9.8C803.1,333.8,811.4,346.9,813.3,364.2z"/>
		<path d="M416.3,462.8c0-48.7,0-97.3,0-146.2c33.9,0,67.6,0,101.7,0c0,8.4,0,17,0,26.2c-23.6,0-47.3,0-71.3,0c0,10.7,0,20.7,0,31.5
			c22,0,44,0,66.5,0c0,8.6,0.1,16.6-0.2,24.5c0,0.9-2.8,2.3-4.3,2.3c-18.6,0.2-37.3,0.1-55.9,0.1c-2,0-3.9,0-6.2,0
			c0,11.8,0,23.2,0,35.2c24.8,0,49.5,0,74.6,0c0,9.1,0,17.6,0,26.5C486.4,462.8,451.5,462.8,416.3,462.8z"/>
		<path d="M141.3,316.5c9.8,0,19.4,0,29.7,0c0,2.1,0,4,0,6c0,29.9,0,59.8,0,89.8c0,2.3,0.3,4.6,0.4,7c0.5,9.9,5.2,16.8,14.9,19.4
			c11.3,2.9,22.3,2.7,31.1-6.2c4.1-4.1,4.8-9.7,4.8-15.3c0-31.4,0-62.8,0-94.3c0-2,0-3.9,0-6.2c10.2,0,20,0,30.5,0
			c0,1.6,0,3.4,0,5.1c0,31.4,0,62.8,0,94.3c0,27.4-14.2,45.2-41.3,50.5c-16.1,3.2-31.8,1.7-46.5-6.1c-15.4-8.1-23.5-21.5-23.8-38.3
			c-0.7-34.7-0.2-69.5-0.2-104.2C140.9,317.6,141.1,317.2,141.3,316.5z"/>
		<path d="M967.7,463.2c-9.9,0-18.9,0.1-27.8-0.1c-1.4,0-3.4-1.8-3.9-3.2c-2.6-7.2-5-14.4-7.2-21.7c-0.8-2.8-2-4-5.2-3.9
			c-16.1,0.2-32.3,0.1-48.4,0c-2.8,0-4.1,0.9-4.9,3.6c-2.2,7.5-4.7,14.9-7.3,22.2c-0.5,1.3-2.3,3-3.5,3.1
			c-9.3,0.3-18.6,0.1-28.8,0.1c17.4-49.3,34.6-97.9,51.8-146.8c10.9,0,21.5-0.1,32.1,0.2c1.3,0,3.1,2.5,3.7,4.1
			c9.8,27.7,19.3,55.4,29,83.1c6.3,18,12.6,36,18.9,54C966.7,459.3,967.1,460.9,967.7,463.2z M880.6,407.6c13.5,0,26.6,0,40.1,0
			c-7-19.4-13.7-38.1-20.9-58.1C893.1,369.7,886.8,388.7,880.6,407.6z"/>
		<path d="M315.8,411.3c0,17.6,0,34.5,0,51.6c-10.2,0-20,0-30.2,0c0-48.8,0-97.5,0-146.6c2.5,0,4.8,0,7.1,0c19.6,0,39.3,0,58.9,0
			c28,0,41.6,19.6,41.4,44.4c-0.1,9.4-0.5,19-5.2,27.6c-8.1,14.7-20.1,23-37.3,23C339.2,411.3,327.9,411.3,315.8,411.3z
			 M316.1,384.6c9.7,0,19.2-0.3,28.6,0.1c7.7,0.3,13.2-3.1,15.6-9.9c1.9-5.3,3.1-11.2,3-16.9c-0.1-8.2-5-13.8-12.6-14.3
			c-11.4-0.7-22.9-0.2-34.6-0.2C316.1,356.9,316.1,370.5,316.1,384.6z"/>
		<path d="M950,321.4c0-11.6,9.2-20.8,20.7-20.9c11.6-0.1,21.1,9.4,21.2,21.2c0.1,11.6-9.4,20.7-21.4,20.7
			C958.9,342.4,950,333.4,950,321.4z M971,339.4c10.1,0,18.1-7.9,18-17.9c-0.1-9.7-8.5-18.1-18.2-18.1c-9.8,0-17.9,8.3-17.9,18.2
			C952.9,331.9,960.6,339.4,971,339.4z"/>
		<path class="st0" d="M579.5,379.3c0-12.5,0-24.2,0-35.8c14.3,0,28.4-0.4,42.4,0.2c6.4,0.3,9.7,4.6,10.9,11.1
			c2.6,13.6-6.4,24.5-20.1,24.5C601.8,379.4,590.9,379.3,579.5,379.3z"/>
		<path class="st0" d="M880.6,407.6c6.2-18.9,12.5-37.9,19.2-58.1c7.2,20,13.9,38.8,20.9,58.1C907.2,407.6,894.1,407.6,880.6,407.6z
			"/>
		<path class="st0" d="M316.1,384.6c0-14.1,0-27.7,0-41.2c11.7,0,23.2-0.5,34.6,0.2c7.6,0.5,12.5,6.2,12.6,14.3
			c0.1,5.6-1,11.6-3,16.9c-2.5,6.8-7.9,10.2-15.6,9.9C335.3,384.3,325.8,384.6,316.1,384.6z"/>
		<path class="st0" d="M971,339.4c-10.4,0-18.1-7.6-18.1-17.8c0-10,8.1-18.2,17.9-18.2c9.7,0,18.1,8.4,18.2,18.1
			C989.1,331.5,981.1,339.4,971,339.4z M961.5,309.5c0,8.4,0,16,0,23.6c1.7,0,3.2,0,4.8,0c0.1-1.6,0.2-2.9,0.3-4.2
			c0.1-1.4,0.2-2.9,0.3-4.3c6.5-1,6.5-1,9.1,8.4c1.7,0,3.4,0,4.9,0c0.5-5.4-2.9-10.1,0-15.5c1.8-3.3-1.5-7.8-5.2-8
			C971.1,309.3,966.5,309.5,961.5,309.5z"/>
		<path d="M961.5,309.5c5,0,9.6-0.2,14.2,0.1c3.7,0.2,6.9,4.7,5.2,8c-2.9,5.4,0.4,10.2,0,15.5c-1.4,0-3.2,0-4.9,0
			c-2.6-9.4-2.6-9.4-9.1-8.4c-0.1,1.4-0.2,2.8-0.3,4.3c-0.1,1.3-0.2,2.6-0.3,4.2c-1.6,0-3.1,0-4.8,0
			C961.5,325.5,961.5,318,961.5,309.5z M967.1,321c3.1-1,5.6-1.6,8-2.7c0.3-0.1,0.1-2.9-0.3-3c-2.4-0.7-4.9-1-7.7-1.5
			C967.1,316.4,967.1,318,967.1,321z"/>
		<path class="st0" d="M967.1,321c0-3.1,0-4.7,0-7.2c2.8,0.5,5.3,0.8,7.7,1.5c0.4,0.1,0.6,2.9,0.3,3
			C972.7,319.4,970.2,320.1,967.1,321z"/>
	</g>
</g>
</svg>
