<?xml version="1.0" encoding="utf-8"?>
<!-- Generator: Adobe Illustrator 26.0.2, SVG Export Plug-In . SVG Version: 6.00 Build 0)  -->
<svg version="1.1" id="Laag_1" xmlns="http://www.w3.org/2000/svg" xmlns:xlink="http://www.w3.org/1999/xlink" x="0px" y="0px"
	 viewBox="0 0 1113.1 202.1" style="enable-background:new 0 0 1113.1 202.1;" xml:space="preserve">
<g id="_x32_msJjf.tif">
	<g>
		<path d="M1001.4,202.1c-1.4-0.4-2.8-0.9-4.2-1.2c-18.6-3.3-35.1-11.2-49.3-23.7c-1.1-1-2.2-2.1-3.2-3.1c-0.3-0.3-0.3-0.9-0.7-1.9
			c40.9,1.5,80.1,13.1,120.7,15.6c-9.1,6.3-19.1,10-29.6,12.4c-2.9,0.7-5.8,1.4-8.7,2C1018.1,202.1,1009.7,202.1,1001.4,202.1z"/>
		<path d="M295.1,187.1c-4.3,1.2-7.6,2.7-11,2.8c-9.5,0.4-19,0.4-28.5,0c-2.6-0.1-5.6-1.8-7.4-3.7c-0.6-0.7,1.9-4.2,2.9-6.4
			c1.2-2.8,3.6-5.7,3.3-8.4c-1.8-21.5-4.1-43-6.3-64.5c-0.3-2.6-1.2-5.2-2.2-7.7c-1-2.6-2.2-5.5-6-4.8c-3.7,0.7-5.1,3.1-5.1,6.8
			c0.1,10.3,0.1,20.7,0.1,31c0,12.5,0,25,0,37.5c0,4.9,0.8,9.2,5.3,12.2c2.7,1.8,2.1,4.3,0.1,5.9c-1.7,1.3-4.2,2.2-6.3,2.2
			c-10.2,0.2-20.3,0.2-30.5,0c-1.9,0-4.1-0.5-5.6-1.6c-2.8-2.1-3.7-5-0.2-7.3c4.3-2.8,5.4-7,5.4-11.7c0-21,0.1-42,0-63
			c0-2.8-0.3-5.7-1-8.4c-1.5-6-7.8-7.8-11.9-3.3c-2.1,2.3-4,5.8-4,8.7c-0.3,23-0.3,46,0,69c0,2.6,2.2,5.3,3.5,7.9
			c1,1.9,2.2,3.7,3.3,5.5c-2.4,1.4-4.8,4-7.2,4.1c-11,0.5-22,0.1-33,0.3c-4.3,0.1-8-0.5-9.4-3.4c-4.4,1.2-8,3-11.8,3.2
			c-10.1,0.4-20.3,0.3-30.5,0c-3.4-0.1-6.7-1.5-10.4-2.4c-4.3,0.8-9.2,2.2-14.2,2.4c-10.2,0.4-20.3,0.3-30.5,0
			c-3.3-0.1-6.7-0.7-9.7-1.8c-3.8-1.5-4.5-4.4-1.4-6.8c6-4.5,6.6-10.4,6.5-17.2c-0.2-43.2-0.1-86.3-0.2-129.5c0-3.1,1.4-7.9-2.8-8.5
			c-2.6-0.4-6.9,2.3-8.4,4.7c-4.2,7.3-7.5,15.2-11,22.9c-2.8,6.1-7.5,8.5-13.2,6.6c-5-1.7-6.6-4.7-5.7-9.9
			c2.2-12.1,4.3-24.3,6.6-36.4c0.7-3.6,1.8-7.1,3.4-10.4c2-4.3,4.8-4.5,9-2.2C21.9,3,25,4.3,27.9,4.4c22.7,0.2,45.3,0.2,68,0
			c2.8,0,5.8-1.2,8.2-2.7c4.6-2.8,8-2.3,9.8,3c2.2,6.8,3.8,13.8,5.2,20.8c1.6,8,2.7,16.1,4.2,24.1c1.1,6-0.1,8.6-5.2,10.6
			c-4.8,1.9-9.8,0.3-12.3-4.5c-1.8-3.4-2.9-7.1-4.5-10.6c-2.3-4.8-4.6-9.6-7.3-14.2c-1.2-2-3.4-3.7-5.5-4.8
			c-2.9-1.5-5.3-0.5-5.7,3.1c-0.2,1.6-0.2,3.3-0.2,5c0,44.7,0,89.3-0.1,134c0,4.2,0.7,7.7,4.1,10.7c4.6,4.1,9.4,3.1,11.4-2.9
			c0.7-2,0.7-4.3,0.7-6.4c0-22.7,0-45.3,0.1-68c0-5.3-0.9-9.7-6.2-12.6c-3.3-1.8-3.1-5.6,0.4-7.1c11-4.7,22.1-9.2,33.3-13.3
			c3.8-1.4,6.8,1,7.4,5.1c0.3,1.8,0.2,3.7,0.2,5.5c0,29.5,0.1,59,0,88.5c0,6.7,1.7,12.2,8.6,15.2c5.4-2.2,8-6.5,7.9-12.7
			c-0.1-23.2-0.1-46.3,0-69.5c0-5.1-1.3-8.9-6-11.7c-4.1-2.4-3.9-5.3,0.5-7.3c10.2-4.5,20.5-8.8,30.9-12.7c6.4-2.4,8.8-0.6,10.2,6
			c0.3,1.4,0.5,2.9,1,5.6c2.7-1.9,5.1-3.1,6.6-4.9c6.6-8,15.1-9.8,24.3-6.5c4.1,1.5,8,4.9,10.8,8.3c3.1,3.8,5.2,3,8.2,0.5
			c3.1-2.7,6.1-5.8,9.8-7.5c8.5-3.9,17.7,0,23.8,9.2c7.7,11.6,11.1,24.7,12.5,38.1c1.9,17.7,2.7,35.5,3.6,53.2
			c0.3,4.9,2.2,8,6.9,10.3c0.3-1.1,0.6-1.8,0.6-2.5c-0.1-47.5-0.3-95-0.4-142.5c0-4.2-0.3-7.6-4.3-10.4c-3.6-2.5-3.2-6.8,0.5-8.5
			c9.9-4.6,20-9.1,30.2-13.2c4.7-1.9,7.1-0.3,8.5,4.7c0.7,2.2,0.9,4.6,0.9,6.9c0.1,16.5,0,33,0,49.5c0,1.8,0,3.6,0,6.3
			c2.1-0.7,3.7-0.9,4.9-1.7c7.6-5.2,15.1-4,22.4,0.4c12,7.3,18.3,18.8,21.6,31.8c5.8,22.6,4.4,45.4-1.7,67.7
			c-4.1,14.7-11.6,22.9-28.2,22c-3.2-0.2-6.3-0.1-9.5-0.1c-5.8-0.2-10.7-2.2-14.4-6.8c-0.8-1-1.7-2-2.7-3c-5.3-5.5-6.6-5.3-10.8,0.9
			c-0.6,0.8-1.1,1.7-1.7,2.5C304.4,191.6,299.2,191.7,295.1,187.1z M352.8,131.5c-0.8-16.1-1-28.8-6.2-40.6
			c-1.1-2.6-4.1-4.4-6.2-6.6c-2.1,2.2-5.1,4-6,6.5c-7.1,20.6-7.7,41.6-2.7,62.8c0.9,4.1,2.3,9.6,7.3,9.6c5.4,0.1,8.2-5,9.4-9.7
			C350.4,145.2,351.8,136.7,352.8,131.5z"/>
		<path d="M587.8,182.7c-3.2-8.5-5.9-17-4.4-26.3c3.4-21.1,16.1-33.6,36.3-39.1c4.9-1.3,10.4-2.3,11-8.5c0.8-8-0.1-16.3-7.4-21
			c-3.2-2.1-8.4-1.2-12.1-1.6c1.4,6.2,3,11.4,3.5,16.6c0.5,4.8-2.4,8.2-7.2,8.6c-4.7,0.4-9.8,0.6-14.3-0.6
			c-8.7-2.4-11.9-16.2-5.8-25.1c5.8-8.5,14.9-12.3,24.6-13.4c8.4-0.9,17-1.1,25.4-0.1c12.2,1.4,21,11.1,23.4,25.2
			c1.8,10.1,2.7,20.4,3.6,30.7c1.1,12.9,1.7,25.9,2.8,38.8c0.2,2,1.6,4.4,3.2,5.8c2.9,2.4,6.3,4.2,10.7,7c0.9-1.9,3-4.5,3.1-7.1
			c0.3-24.5,0.2-49,0.1-73.5c0-4.1-1.8-7.2-5.5-9.4c-4.4-2.7-4.4-6.1,0.2-8.1c10-4.4,20.2-8.6,30.5-12.2c6.4-2.3,9-0.1,10,6.9
			c0.1,1,0.4,1.9,0.7,3.8c1.9-1.4,3.4-2.2,4.5-3.4c10.6-12.3,24.6-6.9,31.7,3.3c7.1,10.3,10.3,22.1,11.7,34.2
			c2.2,19,3,38.1,4.8,57.1c0.3,3.3,2.5,6.5,3.9,9.7c0.8,1.8,3.1,4.2,2.6,5c-1.2,1.8-3.6,2.9-5.6,4.2c-0.5,0.3-1.3,0.1-2,0.1
			c-10,0-20,0.3-30-0.2c-2.7-0.1-5.3-2.5-7.9-3.8c1.2-2.1,2.5-4.2,3.5-6.4c1.2-2.6,3-5.4,3-8.1c-0.1-22.4-1.8-44.6-6.3-66.5
			c-0.4-2.1-0.9-4.4-2.1-6.1c-1.3-1.9-4.1-4.8-4.9-4.4c-2.6,1.2-4.7,3.6-6.7,5.8c-0.7,0.8-0.3,2.6-0.3,3.9c0,21.8,0.1,43.7-0.1,65.5
			c0,4.6,0.8,8.4,4.4,11.7c1.2,1.1,2.2,3.9,1.6,5.1c-0.8,1.6-3.2,3.3-4.9,3.4c-12.7,0.3-25.4,1-38-0.1c-10.7-1-21.3,1.7-31.9,0.3
			c-1.6-0.2-3.9,0.2-4.8-0.7c-3.8-4.3-7.4-2.6-11.5-0.6c-2.2,1-4.8,1.2-7.3,1.2c-6.7,0.2-13.4-0.3-20,0.2
			c-8.1,0.6-15.2-0.5-20.2-7.6L587.8,182.7z M633.1,129c-7.4-0.1-11.7,3.2-14.4,8.3c-5.2,10.1-4.3,21-1.8,31.6
			c1.1,4.8,5.9,7.4,9.8,6.7c5.1-1,6.2-5.2,6.3-9.4c0.2-9,0.1-17.9,0.1-26.9C633.1,135.9,633.1,132.6,633.1,129z"/>
		<path d="M963.3,62.1c-6.2-7.6-12.1-14.5-17.7-21.7c-1.3-1.7-2.9-4.7-2.3-6.2c1.9-4.6,8.1-8.2,11.2-7.4c4,1.1,8,2.3,12,3.5
			c2.8,0.9,4.1,0,4-3c0-2,0.3-4,0.1-6c-0.8-5.8,1.6-8.7,7.2-10.5c3.8-1.2,5.7-0.9,7.6,2.6c3,5.5,6.4,10.7,10.3,17.2
			c3.7-7.9,6.7-14.5,10-21c0.9-1.8,2.6-3.2,3.9-4.8c1.4,1.5,3.1,2.9,4,4.6c3.7,6.9,7.2,13.9,10.8,20.8c0.7,1.4,1.8,2.7,2.7,4
			c0.6,0,1.2-0.1,1.8-0.1c0.2-1.8,0.9-3.9,0.4-5.5c-2.1-6.3-4.8-12.4-6.9-18.7c-0.5-1.5,0.1-3.4,0.1-5.2c2.3,0.8,5.6,0.9,6.7,2.4
			c3,4.6,5.1,9.7,7.4,14.7c1.3,2.7,2.9,3.3,5.5,1.8c3.8-2.1,7.6-4.2,11.5-6.1c3.1-1.5,6.3-3.3,10.1,0.7c-4.2,3.7-8.2,7.2-12.3,10.8
			c-8,7-8.1,11.5,0.1,20.2c2-2.7,4-5.2,5.9-7.9c3.7-5.1,7.5-10.2,11.1-15.3c1.4-2,2.8-3.3,5.3-1.5c2.5,1.8,2.1,3.7,0.5,6
			c-2.3,3.4-4.4,7-7.1,11.3c2.4,0.5,4,1.2,5.7,1.2c4.8,0.1,9.7,0.4,14.5,0c5.2-0.4,7.5,2.3,9.3,7.5c-5.3,0.4-10.2,1-15.1,1.1
			c-3.6,0-5.9,1.4-7.3,4.7c-1.6,3.6-3.6,7-5.8,11.4c2.9,0,5,0.5,6.9-0.1c6.9-2,13.7-4,20.4-6.6c6.8-2.6,6.8-2.8,9.2,5.1
			c-3.5,1.6-6.9,3.6-10.7,4.8c-8.5,2.8-17.1,6-25.9,7.4c-7.4,1.2-9.1,6-11.8,12.5c5.3-1.1,9.7-1.7,13.9-2.8
			c10.4-2.8,20.7-5.9,31.1-8.8c6.6-1.9,8.8-0.6,9.9,6.3c3.7,24.2-0.5,47.1-12.7,68.4c-0.9,1.6-3.2,2.8-5.1,3.2
			c-18.7,3.8-37.6,4.4-56.7,3.5c-24.8-1.2-49.6-2-74.4-2.5c-8.6-0.2-17.3,1.4-25.9,1.8c-2,0.1-5-1.2-6-2.8
			c-12.4-18.8-18-39.6-15.7-62.1c0.9-8.2,3.3-16.2,4.9-24.4c0.8-4.1,3.3-5.2,7.2-5.2c4.8,0,9.6-0.5,14.4-0.7
			c0.1-0.6,0.3-1.2,0.4-1.7c-3-3.7-5.9-7.5-9.2-11c-3.6-3.9-0.1-6.1,1.8-8.4c2.3-2.8,4.2-0.5,5.7,1.2c4.4,5,8.8,10,13.1,15.1
			C956.5,63.4,957.1,63.7,963.3,62.1z M1068.8,106c-4.5,1.2-8.1,1.3-10.4-3.3c-0.5-1-2.8-1.9-4.1-1.6c-9.3,2.1-18.5,4.3-27.6,6.8
			c-1.2,0.3-3,2.1-2.9,3.2c0.3,10.8,0.9,21.5,1.5,32.3c0.2,3.1,1.9,4.8,5.1,5.1c14,1.5,27.9,3.2,41.9,4.7c3,0.3,6-0.1,8.9,0.5
			c8.1,1.4,8.8,1.4,12.7-5.5c8.6-15.3,12.6-31.8,11.6-49.3c-0.6-10.7-2.4-11.7-11.6-7.5c-0.2,0.1-0.3,0.5-0.9,1.4
			c1.3,2.7,3.1,5.7,4.3,8.9c0.6,1.6,0.1,3.5,0.2,5.3c-2-0.1-4.4,0.4-5.8-0.6c-3-2.3-5.9-5-8-8.1c-2.2-3.1-4.2-3.9-7.9-2.9
			C1067.4,97.6,1067.4,97.4,1068.8,106z M926.8,102.1c-2,6.9,0.7,28,4.3,32.9c0.8,1.1,2.6,2.1,4.1,2.2c5.9,0.6,11.9,0.6,17.9,1.2
			c9.7,0.9,19.4,1.9,29.1,3.1c6.4,0.8,12.7,2,19.1,2.9c2.3,0.3,4.2-0.1,4.3-3.3c0.2-11,0.8-21.9,0.9-32.9c0.1-6.2-4.1-9-9.7-6.3
			c-7.8,3.7-15.7,2.6-23.8,1.3c2.1-1.7,4.4-2.7,6.6-4c2.3-1.3,4.6-2.7,6.9-4.1c8.8-5,7.2-3.9,1.2-10.8c-0.2-0.2-0.6-0.2-1.5-0.5
			c-6.3,5.3-13.1,10.6-19.4,16.4c-4.6,4.2-9.5,3.4-14.2,2.5c0.7-2.7,2.5-6.4,1.7-7c-2.8-2.2-6.2-3.9-9.7-4.8
			c-1.1-0.3-3.2,2.3-4.6,3.8C936.2,98.6,934.3,105.4,926.8,102.1z M1010.9,23.7c-9.1,12.7-10.5,28.9-3.7,38
			c7-3.1,13.4-16.1,10.8-23.1C1016.2,33.7,1013.5,29.1,1010.9,23.7z M950,83.3c5.2,1.6,10.4,5,14.2,3.8c5.2-1.6,9.3-6.7,14-10.4
			C970,67.5,958.3,70.1,950,83.3z M1025.1,83.6c0.6,0.2,1.1,0.4,1.7,0.6c4.2-5.7,8.1-11.5,12.6-17c3.7-4.5,2.8-8.3-0.6-12.6
			c-4.1,2.9-8.1,5.6-11.9,8.4c-0.8,0.6-1.7,1.8-1.7,2.8C1025,71.8,1025.1,77.7,1025.1,83.6z M1066.3,53.4c-7.3-0.1-13.4,7-14.4,16
			C1061.5,68.1,1061.1,59,1066.3,53.4z M1033.3,95.9c7.3,1.2,12.7-4.4,14.7-14.6C1038.2,81.3,1037.9,90.3,1033.3,95.9z M954.2,36.4
			c5.5,5.2,10.2,9.6,15.1,14.3C970,39.6,968.5,38.2,954.2,36.4z M980.9,58.2c0.6,0.3,1.1,0.6,1.7,0.9c2.3-3.9,4.5-7.8,7.1-12.4
			c-3.7-1.1-6.3-1.8-8.8-2.5C980.9,49.4,980.9,53.8,980.9,58.2z M997.4,78.2c-0.9-6-1.7-10.9-2.6-16.6
			C988.4,69.8,988.9,73.8,997.4,78.2z M942,72.5c-4.8,0.3-8.9,0.5-14.2,0.8C936.7,79.9,940,79.7,942,72.5z M1015.4,71.6
			c-0.6-0.3-1.1-0.6-1.7-0.8c-2.7,0.6-6.2,0.5-5.2,5c0.5,2.3,1.6,5.6,4.1,3.9C1014.5,78.3,1014.6,74.4,1015.4,71.6z M926.4,93.3
			c0.4,0.2,0.9,0.3,1.3,0.5c1.9-2.6,3.8-5.3,6.4-8.9c-3.4-0.1-5.7-4.5-7.6,0.4C925.6,87.6,926.4,90.6,926.4,93.3z M981.2,27.6
			c-0.6,0.3-1.1,0.6-1.7,0.9c0.8,2.5-1.5,7,5.3,5.7C983.6,32,982.4,29.8,981.2,27.6z"/>
		<path d="M587.7,182.5c-1.6,6.2-3.1,7.5-9.3,7.5c-11,0-22,0.1-33-0.1c-2.1,0-4.5-0.4-6.1-1.5c-2.8-1.9-3.6-4.1-0.6-7.3
			c2.4-2.5,4.9-6.4,4.9-9.7c0.4-22.5,0.2-45,0.2-67.5c0-0.9-0.2-1.9-0.5-3.8c-1.6,2.4-2.7,4.2-4,5.8c-3.2,4.3-7.8,4.4-11.3,0.2
			c-0.8-1-1.6-2.2-2-3.4c-2.4-7-6.5-7.1-11.8-2.2c-7.8,7.3-12.6,16.6-13.1,27.3c-0.7,14.3-0.4,28.7,0,43c0.1,3.2,2.5,6.4,3.9,9.6
			c0.8,1.8,3,4.2,2.5,5.1c-1.1,1.9-3.4,3.8-5.5,4.2c-4.2,0.6-8.6,0.2-13,0.2c-7.7,0-15.3-0.1-23,0c-3.7,0.1-6.5-1-8-4.6
			c-1.5-3.5,1.8-4.4,3.3-6.4c1.6-2.2,3.4-4.9,3.4-7.4c0.3-24.5,0.2-49,0.2-73.5c0-3.8-1.9-6.4-5.2-8.5c-4.9-3.1-4.8-5.7,0.5-8.1
			c10.1-4.4,20.2-8.5,30.5-12.5c5.1-1.9,8.4,0,9.5,5.4c0.8,3.8,0.8,7.9,1.2,13.8c3.7-3.4,6.9-5.7,9.2-8.6c8.9-11.2,16.9-13.4,30-8.2
			c0.7,0.3,1.6,0.4,2.9,0.6c0.1-1.9,0.2-3.5,0.2-5.1c0-8.8-0.1-17.7,0-26.5c0.1-5.3-0.7-9.7-6.1-12.6c-3.9-2.1-3.5-5.8,0.7-7.5
			c10.4-4.5,20.8-8.8,31.4-12.8c5.2-2,7.8-0.2,9,5.2c0.6,2.7,0.8,5.6,0.8,8.4c0,48.5,0.1,97,0,145.5c0,6.9,0.4,13.1,8,15.9
			C587.8,182.7,587.7,182.5,587.7,182.5z"/>
		<path d="M828.2,78.8c0.2-2.3,0.4-3.7,0.5-5.1c0-10.2-0.1-20.3,0-30.5c0-4.7-1.1-8.4-5.5-10.8c-1.5-0.8-3.3-3.2-3.1-4.5
			c0.2-1.4,2.7-3.4,4.2-3.4c9-0.3,15.8-5.7,23.5-9.1c2.1-0.9,4.2-2.1,6.3-3c5.9-2.5,9.1-0.7,10,5.8c0.3,2,0.1,4,0.1,6
			c0,48.5,0,96.9-0.1,145.4c0,4.5,1.1,8,4.4,11.1c1.4,1.3,2.7,4.6,2,5.8c-1,1.7-3.8,3.1-6,3.3c-5.6,0.5-11.3,0.2-17,0.2
			c-17.3,0-34.6-0.1-52,0.1c-5,0.1-8.2-1.9-10.2-6.4c-13-29.7-13.8-59.4,0.6-88.7c3.3-6.6,8.9-12.4,14.3-17.6
			c6.7-6.4,14.7-6.3,22.5-1.4C824.4,77,826,77.7,828.2,78.8z M831.4,135c-0.3-0.1-0.6-0.1-1-0.2c0-2.2,0.1-4.3,0-6.5
			c-0.5-11.1-2.1-21.9-8.2-31.5c-3.8-5.9-6.9-5.7-9.8,0.5c-4.7,9.8-5.9,20.3-6.1,31c-0.2,11.5-0.6,23.1,5,33.6
			c1.8,3.4,5.4,5.8,8.3,8.6c2.5-3.1,6.3-5.8,7.2-9.3C829.1,152.8,830,143.8,831.4,135z"/>
		<path d="M428.7,193c-22.7-0.8-37.3-13-43.4-37.2c-5.7-22.8-3.6-44.9,5.6-66.4c6.9-16.2,23.1-24.6,40.3-21
			c7.6,1.6,13.4,6.4,17.6,12.4c6.9,10,11.6,20.9,10.8,33.5c-0.3,4.6-1.8,7.8-6.5,9.5c-10.6,4-21,8.4-31.6,12.5
			c-6.6,2.6-8.3,6.6-5.5,12.9c4.5,9.8,11.7,14.7,21.1,14.6c4.1-0.1,6.6-1.8,7.6-5.7c0.8-3.1,0.5-7.1,5.1-7.5
			c3.5-0.3,9.2,3.8,10.8,7.7c4.4,11.3-2.4,26.7-14.6,31.3C440.8,191.9,434.6,192,428.7,193z M431,108.1c-2.1-5.7-3.7-11.6-6.4-17
			c-1.9-3.8-4.3-8.8-9.8-7.6c-5.5,1.1-6.4,6.6-6.7,11.1c-0.5,8.6-0.2,17.2,0.3,25.8c0.1,1.4,2.5,3.5,4.1,3.8
			C422.3,125.6,429.8,118.6,431,108.1z"/>
		<path d="M935,162.1c8.6-0.7,16.4-1.9,24.1-1.7c26.1,0.7,52.3,1.6,78.4,3.1c17.7,1,35.3,0.8,52.8-2.2c1-0.2,1.9-0.1,4.7-0.3
			c-4.7,5.3-8.6,9.5-12.3,13.8c-6.7,7.8-14.7,10.7-25.2,9.1c-24.4-3.8-48.8-7-73.2-10.1c-12.7-1.6-25.5-2.9-38.3-3.6
			C940.7,169.8,937.6,167.7,935,162.1z"/>
	</g>
</g>
</svg>
