<svg xmlns="http://www.w3.org/2000/svg" viewBox="0 0 2512.74 2502.43"><path d="M2500,2500H0" transform="translate(0 2.44)" fill="#fff" fill-rule="evenodd"/><path d="M0,0H2500" transform="translate(0 2.44)" fill="#fff" fill-rule="evenodd"/><path d="M2512.74-2.44v2500" transform="translate(0 2.44)" fill="#fff" fill-rule="evenodd"/><path d="M1265.7,1682.73V812.42H2402.45v870.31Z" transform="translate(0 2.44)" fill="#bbbcbf" fill-rule="evenodd"/><path d="M2402.45,812.42V386.13H123V812.42Zm0,1296.58V1682.73H123V2109Z" transform="translate(0 2.44)" fill-rule="evenodd"/><path d="M309.83,523.06H259.51V503.83H382v19.23h-50.6V716H309.83Zm424.72-23c63.64,0,115.73,49.39,115.73,110,0,60.3-52.39,109.7-116,109.7-63.34,0-115.73-49.67-115.73-109.41,0-60.87,52.1-110.26,116-110.26Z" transform="translate(0 2.44)" fill="#fff" fill-rule="evenodd"/><path d="M734.25,700.51c51.5,0,94.12-40.77,94.12-90.45s-42.32-90.73-93.82-90.73c-51.8,0-94.12,41.06-94.12,91.59,0,48.53,42.91,89.59,93.82,89.59Z" transform="translate(0 2.44)" fill-rule="evenodd"/><path d="M1126.48,503.83h33.74l81.41,180.6,81.69-180.6h33.74V716h-21.61V527.08L1251.08,716h-19.23l-83.76-188.95V716h-21.61V503.83Zm491.09,0h33.75l81.38,180.6,81.7-180.6h33.75V716h-21.61V527.08L1742.18,716h-19.26l-83.74-188.95V716h-21.61V503.83Zm564.5,141.26L2106,503.83h24.26l62.47,118.88,63.63-118.88h24l-76.68,141.26V716h-21.6V645.09ZM256.54,1788.16h21.6v93.29H391.81v-93.29h21.61v212.17H391.81V1900.7H278.14v99.63h-21.6Zm317.6,0h21.61v212.17H574.14Zm185.26,0H781v192.92h90.88v19.25H759.4V1788.16Zm259.89,0h111.89v19.22H1040.9V1884h87v19.26h-87v97h-21.61Zm263.13,0H1304v212.17h-21.61Zm410.52,118.7c-5.32,57.7-55.36,101.63-116.33,101.63-64.24,0-118.09-50-118.09-110,0-60.57,52.67-109.69,117.79-109.69,30.78,0,58.31,10.36,81.12,30.73,14.48,12.92,17.45,16.66,22.19,29.58h-24.88c-14.49-24.42-45.87-41.06-78.12-41.06-52.68,0-96.21,40.76-96.21,90.44,0,50.26,43.52,90.73,97.38,90.73,40.56,0,79.34-27.56,88.82-63.17H1543.47v-19.22Zm159.81-118.7h119.89v19.22h-98.28v76.09h95v19.24h-95v78.37h98.28v19.25H1852.75Zm278.24,0h54.77c25.73,0,41.73,2.28,53.58,8,24,11.19,38.75,34.17,38.75,60.56,0,35.35-26.62,62-64.52,64.32l61.28,79.26h-27.23l-73.73-96.18h8.29c29.61-.3,37.61-1.44,49.44-7.76a46.09,46.09,0,0,0,24.58-40.79c0-16.37-9.47-32.45-23.68-40.21-10.66-6-21.61-8-42-8h-37.9v193H2131V1788.16Z" transform="translate(0 2.44)" fill="#fff" fill-rule="evenodd"/></svg>