<?xml version="1.0" encoding="utf-8"?>
<!-- Generator: Adobe Illustrator 26.0.2, SVG Export Plug-In . SVG Version: 6.00 Build 0)  -->
<svg version="1.1" id="Laag_1" xmlns="http://www.w3.org/2000/svg" xmlns:xlink="http://www.w3.org/1999/xlink" x="0px" y="0px"
	 viewBox="0 0 1266.4 582.8" style="enable-background:new 0 0 1266.4 582.8;" xml:space="preserve">
<g id="_x35_qdAjD.tif">
	<g>
		<path d="M666.5,0c6.8,0.6,13.5,1.2,20.3,1.6c43.9,3,85.7,14.7,126.4,30.9c12.8,5.1,25.6,10.2,38.5,15.2c13.1,5,25.7,6.4,36.1-5.8
			c3.8,2.2,7.3,4.2,11,6.3c-20.3,44.7-40.4,89-60.6,133.6c-3.6-1.4-6.8-2.6-10-3.9c-0.8-0.3-1.8-1.2-1.8-2
			c-1.8-22-17.1-33.6-34.1-43.7c-23-13.7-48.3-21.3-74.1-27.5c-40.9-9.8-82.2-12.7-123-1.6c-73.1,19.8-119.3,67.1-136.3,140.9
			c-9.8,42.5-8.1,85.2,8.2,126.1c22.6,56.6,64.3,92.6,122.9,109.1c33.8,9.5,68.3,10,103,6.5c33.8-3.4,66.5-11.5,97.6-25.4
			c7.7-3.4,15.2-7.5,22.7-11.5c1.3-0.7,2.8-2.6,2.8-3.9c0.2-24.3,0.1-48.5,0.1-73.4c-2-0.1-3.8-0.3-5.5-0.3c-40.8,0-81.6,0-122.4,0
			c-15.7,0-22.7,4.5-27.3,19.5c-1.8,6-4.5,7.6-10,6.8c-1.3-0.2-2.6,0-4.2,0c0-43.9,0-87.4,0-131.7c3.3,0,6.7-0.2,10.1,0.1
			c1,0.1,2.2,1.7,2.6,2.9c7,20.6,11.3,23.8,33.3,23.8c78.8,0,157.5,0,236.3,0c2,0,3.9,0,6.5,0c0,3.9,0.2,7.3-0.1,10.7
			c-0.1,1-1.3,2-2.2,2.7c-0.6,0.5-1.5,0.6-2.3,0.9c-14.8,5.6-20,12.6-20.1,28.5c-0.2,23.6-0.1,47.3-0.1,70.9
			c0,15.1-0.1,30.3,0.1,45.4c0.2,16.1,5.2,22.8,20.1,28.5c1.8,0.7,4.1,2.5,4.4,4.1c0.5,3.3,1.3,7-3.2,9.4
			c-23.8,12.5-47.1,26.3-71.3,38c-46.5,22.4-95.3,38.1-146.5,46.1c-41.7,6.5-83.5,7.2-125.4,1.7c-41.5-5.4-81.1-16.8-117.3-38.3
			c-70.9-42.1-114.3-103.7-129-184.9c-9.5-52.4-8.5-104.8,6.4-156.1c22.6-78,72.6-132.9,145.2-167.8c38.1-18.3,78.8-27,120.8-30.3
			c9.1-0.7,18.2-1.3,27.3-1.9C650.5,0,658.5,0,666.5,0z"/>
		<path d="M0,37.9c38.4,0,76.9,0,115.6,0c0,3.2,0,6.1,0,9.4c-0.3,0.2-0.9,0.5-1.5,0.7c-12.4,4.8-15.8,9.3-15.8,22.8
			c0.1,75.5,0.2,151,0.7,226.6c0.1,9.7,1.2,19.7,3.3,29.2c5.4,24.5,22,39.2,44.6,47.8c23.7,9,48.4,10,73.3,8.5
			c15.5-0.9,30.7-3.7,45.2-9.7c27.4-11.4,41.5-32.2,43.2-61.5c0.9-15.3,1.6-30.6,1.7-45.9c0.2-63.7,0.1-127.4,0.1-191.1
			c0-2.8-0.2-5.6-0.3-8.5c-0.4-7.9-4.2-13.4-11.6-16.4c-6.1-2.5-6.1-2.6-5.2-11.3c36,0,72.1,0,108.2,0c2.3,7,1.8,8.8-4.4,11.2
			c-8.7,3.4-11.9,10.1-12.1,18.8c-0.1,9.6,0.1,19.3-0.2,28.9c-0.1,2.4-1,5.3-2.5,7.1c-29.9,36-47,77.6-54.5,123.5
			c-7.3,44.7-7.2,89.5,0.3,134.1c2.9,16.9,8.6,33.4,13.5,49.9c1.1,3.7,0.8,5.4-2.3,7.7c-18.9,13.6-40.1,21.5-62.7,25.9
			c-51.8,9.9-103.6,10-155.1-1.3c-22.4-5-43.5-13.5-61.9-27.7c-20.7-16-31.2-37.8-36.6-62.8c-4.2-19.8-5.6-39.8-5.6-60
			c0-73,0-146.1,0-219.1c0-2.5,0-5-0.2-7.5C16.6,55.8,11.5,50.1,0,47.9C0,44.6,0,41.3,0,37.9z"/>
		<path d="M926.1,380.1c3.3,1.9,6.3,3.7,9.3,5.3c25.5,13.6,52.8,21.1,81.7,21.9c39.2,1,77.7-3.2,115.1-15.8
			c12.7-4.3,24.6-10.1,34.8-19c4.1-3.6,6.2-7.5,6-13.4c-0.5-15-0.2-29.9-0.2-44.9c0-1.8,0-3.6,0-5.9c-2.2,0-3.9,0-5.5,0
			c-31.1,0-62.3,0-93.4,0c-14.2,0-18.4,2.9-23.1,16.4c-2.1,5.9-6.6,2.2-10.3,3.3c0-33.1,0-65.7,0-98.4c8.6-1.3,8.8-1.4,11.5,6.3
			c3,8.4,8.8,12.6,17.5,13.1c2.3,0.1,4.7,0.2,7,0.2c60.4,0,120.9,0,181.3,0c2.2,0,4.3,0,6.4,0c2.2,7.7,1.7,9-5,11.7
			c-8.4,3.3-12.5,9.3-12.4,18.4c0.1,28.6,0.1,57.2,0.1,85.8c0,15.4,2.2,18.6,16.4,24.2c4,1.6,4.3,7.7,0.2,10.8
			c-12.9,9.4-25.5,19.4-39,27.7c-42,26-87.9,41.5-137,47.4c-48.4,5.8-96.3,3.9-143.7-8.1c-5.1-1.3-10.2-3-15.1-5
			c-1.4-0.6-3.1-2.7-3.1-4.1c-0.2-25.4-0.1-50.9-0.1-76.3C925.5,381.4,925.7,381.1,926.1,380.1z"/>
		<path d="M802.3,280.3c-2.4-36.1-1.1-71.4,10.5-105.5c0.8,0,1.7,0,2.5,0c0.4,3.1,1,6.2,1.1,9.4c0,3.1,1,4.7,4.2,5.6
			c7.5,2.2,14.9,4.8,22.3,7.2c0.4,0.1,0.9,0.1,1.7,0.2c0.9-1.8,1.8-3.5,2.6-5.3c20.7-44.6,41.5-89.2,62.1-133.8
			c1.6-3.5,3.8-5.8,7.4-7.4c24.5-11.2,50.4-17,77.1-19.3c40-3.5,79.9-2.1,119.3,5.7c26,5.1,50.7,14.7,75.3,24.4
			c5.4,2.1,11,3.7,16.6,5.2c5.5,1.4,10.8,0.8,15.7-2.5c6.5-4.3,6.6-4.1,13.4,1.2c-15.8,33.3-31.6,66.8-47.4,100.2
			c-5.6-1.8-9.7-4.2-9.5-11c0.2-6.7-4-11.3-8.9-15.4c-14.1-11.7-30.6-18.6-47.8-24.1c-29.4-9.3-59.4-14.2-90.5-12.3
			c-74.2,4.5-128.8,57-139.5,121.6c-2.7,16.2-2.7,32.4-0.8,48.7c0.3,2.3,0.4,4.6,0.6,7.3C861,280.3,832,280.3,802.3,280.3z"/>
	</g>
</g>
</svg>
