<?xml version="1.0" encoding="utf-8"?>
<!-- Generator: Adobe Illustrator 25.4.1, SVG Export Plug-In . SVG Version: 6.00 Build 0)  -->
<svg version="1.1" id="Laag_1" xmlns="http://www.w3.org/2000/svg" xmlns:xlink="http://www.w3.org/1999/xlink" x="0px" y="0px"
	 viewBox="0 0 474 471" style="enable-background:new 0 0 474 471;" xml:space="preserve">
<style type="text/css">
	.st0{fill:#FFFFFF;}
</style>
<g id="_x39_rZT4F_00000132048474588032703320000007058371747711001229_">
	<g>
		<path class="st0" d="M172.2,359.3c-2.4-4.7-4.3-8.9-6.6-12.9c-8-13.8-19.9-20.1-35.9-18.3c-8.2,0.9-11.2,5.6-8.5,13.1
			c5.1,14.6,24.2,24.9,39.1,20.7c0.6,4.3,1.9,8.5,1.8,12.7c-0.1,10.6-0.3,21.2-1.6,31.7c-0.7,5.9-4.6,10.6-10.8,12.7
			c-5.7,1.9-8.2,0.2-8-5.6c0.6-16.3-1.1-32.3-8.1-47.3c-4.2-9-10-16.9-18.5-22.5c-8.6-5.6-15.8-3-18.6,6.7
			c-4.6,15.7-1.6,30.4,7.1,43.9c4.6,7,10.2,13.3,15.3,20c-8.7,3.6-17.8,1.5-24.1-6c-6.9-8.2-11.4-17.8-13.1-28.2
			c-3.1-18.3,1.4-35.6,7.6-52.7c2.2-6.1,5.6-8.8,12-8.2c2.6,0.3,5.3-0.1,8-0.4c9.5-0.8,18-3.8,22.9-12.8c3.5-6.4,2.1-10.3-4.5-13
			c-14.2-5.7-24.9-3.3-35,8.3c-2,2.3-3.7,2.6-6.8,2c-10.9-2.2-21.9-4.9-32.9-5.2c-19.5-0.5-29.7,8.9-32,28.3
			C19,344.5,27,358.2,48,357.2c4.3-0.2,8.5-0.7,12.6-1.1c0,5.3,0,10.2,0,15.2c-0.1,12.2,1,24.3,5.2,35.9c4,11,10.3,20.3,21.6,24.9
			c17,6.8,32.9,3.7,48.2-6.3c8.7,4.3,18.1,5.7,28.1,3c11.6-3.1,15-12,16.6-22.5c10.8,1.4,18.2-4.4,25.3-10.4
			c9.2,6.7,15.1,5.3,20.7-4.8c0.8-1.5,1.4-3,2.1-4.5c7.7-16.6,10.8-34.2,12-52.2c0.3-5,2.3-7.5,7.5-8.6c-0.7,2.6-1.4,4.7-1.9,6.9
			c-2.6,10.1-3.9,20.4-0.6,30.5c3.4,10.3,11.8,12.7,18.9,4.7c6.1-6.8,12.6-14.4,15.7-22.8c4.8-13,7.2-26.9,9.9-40.6
			c0.9-4.8,2.9-6.9,8-7.9c-0.8,2.3-1.5,4-2.1,5.9c-3.3,10.5-5.3,21.1-2.2,31.9c2.8,10.1,10.7,12.6,18.4,5.4
			c4.4-4.1,7.6-9.6,11.3-14.5c2.5-3.2,5-6.4,7.7-9.9c5.3,10.5,10.8,11.8,19.1,4c4.9-4.6,9.1-10.1,13.1-15.6c2.1-2.9,3.8-4.3,7.5-3.8
			c10.3,1.3,19.3-2.3,26-9.9c5.9-6.7,11.5-13.9,15.9-21.6c7.6-13.2,9.8-28.2,10.9-43.2c0.4-5,1.9-8.2,7.5-9
			c-0.7,2.5-1.3,4.9-1.9,7.3c-2.5,10-3.7,20-0.5,30.1c3.3,10.3,11.2,12.5,19,5c9.1-8.8,13.1-20.5,16.9-32.2
			c-3.5,3.7-6.5,7.8-10,11.5c-1.2,1.2-3.5,1.4-5.3,2.1c-0.5-1.8-1.6-3.7-1.4-5.3c1.6-12.2,3.7-24.4,5.3-36.6
			c0.9-6.4,1.1-12.9,1.7-19.3c-0.5-0.1-1.1-0.2-1.6-0.4c-10.6,8.2-21.3,16.2-35.8,15.3c-0.9,23.2,0,46.2-7.5,68.3
			c-0.3-1.7,0-3.3,0.1-4.9c0.2-7.8,1-15.7,0.4-23.4c-1-12.9-8.7-19.7-20.8-19.5c-9.4,0.2-15.3,5.9-19.8,13.3
			c-7.4,12.2-12.2,25.5-14.9,39.5c-2.1,10.7-3.4,21.5,6.2,30.9c-3.2,2.8-5.8,5.8-9,7.7c-2.2,1.3-5.4,2.2-7.7,1.6
			c-1.4-0.4-2.1-4-2.5-6.3c-0.4-1.7-0.1-3.7,0.2-5.5c2.3-14.5,4.7-28.9,7-43.4c0.5-3,0.4-6.1,0.6-9.3c-9.9,0.6-14.6,5.1-15.3,14
			c-1.4,17.7-4.2,35.1-11,51.6c-2,4.8-5,9.2-7.5,13.8c-0.7-0.1-1.4-0.3-2.1-0.4c-0.1-1.7-0.7-3.5-0.4-5.1
			c2.8-14.7,5.8-29.4,8.5-44.1c0.7-3.9,0.5-8,0.8-13.1c-12.2,8.5-23.4,16-36.9,14.5c-2.1,17-3.8,33.8-6.3,50.3
			c-1.1,7-3.5,13.9-6.2,20.4c-0.9,2.2-4.4,3.4-6.7,5.1c-0.6-2.3-2-4.7-1.7-7c1.6-12.4,3.7-24.7,5.3-37.1c0.7-5.7,0.7-11.5,1.1-18.3
			c-23.7,16.6-23.5,14.8-37.7,16.3c0,7.8,0.3,15.8-0.1,23.8c-0.4,8.1-0.9,16.3-2.1,24.4c-1.1,7.6-3.1,15.1-4.7,22.7
			c-0.9-0.1-1.9-0.1-2.8-0.2c-1.9-19.9-3.8-39.8-5.8-59.7C198.1,312.2,181.7,328,172.2,359.3z M173.3,175
			c-6.3-11-12.2-20.6-17.6-30.5c-8.8-16-11.3-32.6-3.7-49.9c2.2-5,4.3-10.1,6.6-15.1c3.3-7,10-9.6,16.9-6
			c7.3,3.9,14.1,8.7,21.2,13.1c11.9,7.4,22,18.1,36.7,20.3c0.9,0.1,1.8,0.8,2.7,1.3c6.9,4.7,13.8,9.3,20.3,13.8
			c0.4,6.1,0.7,12,1.2,18c0.7,8.8,1.6,17.6,2.4,26.4c0.1,1.6,0.3,3.8-0.6,4.8c-4.9,5.8-9.7,11.9-15.5,16.9
			c-13.9,12-29.6,22.4-42.3,35.5c-16.9,17.4-25.1,40.1-31.9,63.1c-1.8,6.2-3.1,12.5-4.6,18.7c0.4,0.1,0.8,0.3,1.2,0.4
			c0.9-2.1,1.8-4.1,2.7-6.2c8.3-18.1,16.4-36.4,25.1-54.4c7.4-15.3,20.5-25.9,32-38.3c1.5,7.7,3.1,14.6,4,21.7
			c1,8.3,3.4,16.7-1.8,24.7c-4.7,7.3-8.4,15.2-13.1,22.4c-9,13.8-17.4,28.1-31.5,37.7c-0.4,0.3-0.5,1-0.9,2c5,0.4,8.8-0.7,12.2-3.8
			c15-13.8,26.6-30.1,35.2-48.6c0.9-1.8,1.8-3.7,3.1-6.5c2.5,23.2,4.1,28.1,9.8,29.7c-1.1-10.8-2.3-21.8-3.5-33.6
			c9.2,0,16.8,0.3,24.4-0.1c6.5-0.4,12.4-0.7,13.4,7.8c0,0.3,0.2,0.7,0.5,0.9c1.2,0.9,2.5,1.8,3.8,2.8c0.8-1.2,2.2-2.4,2.2-3.6
			c0.2-7.3,4.8-11.6,9.9-15.7c2.3-1.9,4.3-4.1,6.4-6.3c4.6-4.8,7.1-10.4,6.2-17.2c-0.2-1.3,0.2-3.1,1-4
			c12.1-14.3,23.4-29.4,37.8-41.8c8.6-7.4,17-13.8,29.1-12.8c1.1,0.1,2.4-0.2,3.5-0.5c6.2-1.9,12.5-3.3,16.4-9.4
			c6.6-10.1,8.1-15.4-5.3-21.7c-8.1-3.8-15.9-8.2-21.9-11.3c2.3-3,5.9-6,6.9-9.7c1.6-6.1,2.7-12.9,1.8-19
			c-1.5-11-10.5-17.6-22.4-18.3c-7.7-0.5-15.8,6-19.2,15.6c-1.2,3.3-2.1,6.7-3,10.1c-0.9,3.6-2.9,5.3-6.8,4.7
			c-9.9-1.7-19.7-3.3-30.7-5.1c0-7.8,0.1-16.2,0-24.7c-0.1-7-2.1-14.4,5.7-19.2c0.7-0.4,1.2-2.6,0.7-3.4c-0.5-0.8-2.3-1.5-3.3-1.3
			c-2.3,0.4-4.5,1.3-6.6,2.3c-6.8,3.2-13.4,3.9-20.6,0.4c-8.8-4.2-18-7.9-27.2-11.3c-13.8-5.1-28-9.5-42.8-4.7
			c-6.9,2.2-13.5,5.7-20.4,8c-3.4,1.1-7.4,0.6-11.1,0.9c-2.1,0.1-4.3-0.1-6.4,0.4c-5.6,1.3-11.1,3.2-16.4-0.6
			c1.6-3.5,3-6.7,4.8-10.6c-13.4-2.4-25.9-4.7-38.3-6.9c-0.3,0.7-0.7,1.3-1,2c6,12.1,14.1,22.7,23.5,33.6c2.1-3.7,3.8-6.7,5.2-9.3
			c8,3,10.5,10.3,13.6,16.8c-2.5,5.7-5.3,11.4-7.4,17.3c-6.7,19.1-8.3,38,2.8,56.3c4,6.5,8,13.1,11.3,20c1.6,3.4,2,7.5,2.2,11.4
			c0.3,4.6-0.4,9.3,0,13.9c0.4,4,3.5,5.6,6.8,3.4c1.8-1.2,3.3-4.2,3.4-6.4c0.1-3.2,1.1-4.7,3.8-6.1c8.5-4.3,16.9-8.7,25.1-13.3
			c14.5-8.1,28.9-16.4,43.3-24.6c-0.1-0.3-0.3-0.5-0.4-0.8C220.8,152.5,197.3,163.6,173.3,175z M233.4,7.7
			c-13.4,1.8-34.3,4.5-55.2,7.4c-1.5,0.2-2.7,2.2-4.1,3.3c1.8,0.7,3.6,2.1,5.3,1.9c7.9-1,15.7-2.7,23.6-3.8
			c34.7-4.9,69.2-3.6,103,5.6c48.6,13.2,88.7,40,120.4,79c9.6,11.8,17.2,25.3,25.9,37.9c0.8,1.2,2.7,1.7,4.1,2.5
			c0.3-1.6,1.1-3.3,0.8-4.7c-0.4-1.9-1.6-3.6-2.6-5.3C405.7,51.6,334.8,10.2,233.4,7.7z M3.1,260.7c1.1,10.1,3.3,29.3,5.6,48.5
			c0.2,1.4,2.2,2.6,3.3,3.9c0.6-1.6,1.4-3.2,1.8-4.8c0.2-0.7-0.1-1.6-0.3-2.5c-8.1-48.3-6.6-95.9,9.9-142.5
			C39.1,119,65,82,102.7,53.6c1.4-1,1.8-3.3,2.7-5c-1.9,0.2-4.3-0.4-5.6,0.6c-6.7,5.2-13.6,10.3-19.7,16.2
			C27.4,116.2,3.9,179.2,3.1,260.7z M416.6,310.1c-0.7-0.6-1.4-1.1-2.1-1.7c-2.3,2.1-4.8,4-6.8,6.2c-5.8,6.3-12.5,9.8-21.4,7.6
			c-2.5-0.6-5.4-0.7-7.9-0.2c-2.4,0.4-5.4,1.2-6.9,2.9c-7.9,9.2-15.4,18.7-23,28.2c-2.9,3.6-3.5,7.6-2.3,12.2
			c1.5,5.3,2.4,10.7,3.1,16.2c0.4,3,0.1,6,0.1,10.4c-3.4-2.1-5.9-3-7.4-4.8c-5.2-5.8-9.9-12-14.9-17.9c-6-7.1-12-14.2-18.3-21.1
			c-0.8-0.9-2.9-0.6-4.4-0.9c0.1,1.6-0.4,3.8,0.4,4.8c10.2,12.9,20.6,25.6,31.2,38.2c2.2,2.6,3.1,5,1.6,8.1c-1.9,4-3.9,8.1-5.7,12.2
			c-0.7,1.6-0.9,3.4-1.4,5.1c0.5,0.3,1,0.5,1.6,0.8c2.4-3.3,5.5-6.2,7.1-9.8c3-6.8,7.5-9,14.5-7.4c3.5,0.8,5.1-0.9,4.3-4.4
			c-1.5-6.6-3.2-13.2-4.8-19.9c-1.6-6.5-3.3-13.1-0.2-19.5c4.2-8.7,10.3-15.9,17.8-21.9c4.5-3.6,15-3.9,19.8-0.6
			c-4.1,7.2-13.1,11.2-13.7,21.1c8.9-10.2,19.7-13.4,32.3-9.4c0.8-5.5-2.3-6-5.3-6.5c-7-1.1-8.3-2.6-6.2-9.2
			c0.9-2.9,3.4-5.6,5.8-7.7c2.3-2.1,5.6-2.9,8-4.9C413.6,314.7,415,312.2,416.6,310.1z M84.4,254.8c0-13.5,0-26.5,0-39.5
			c-18.5,0-36.6,0-54.9,0c0,13.3,0,26.3,0,39.5C47.9,254.8,66,254.8,84.4,254.8z M106.3,226.9c-1.5,4.8-2.9,8.8-4.2,12.9
			c-1.3,4.4-1.6,9.8-8.9,7.5c0,2.3,0,3.9,0,6.1c4.2,0,8.1-0.2,12.1,0.1c3,0.2,4.5-0.9,5.3-3.8c1.8-6.4,3.8-12.7,6-19
			c0.5-1.3,1.7-3.4,2.7-3.4c6.9-0.3,13.9-0.2,20.9-0.2c0,7.1,0,13.5,0,20.5c-4.5,0-8.7,0-13.2,0c0,2.2,0,3.7,0,5.4
			c8.6,0,17,0,25.2,0c0-11.1,0-21.9,0-33.1c-10.8,0-21.2,0-31.9,0c0.4-2,0.7-3.3,1.3-5.9c-4.1,0.8-9.8,0.5-10.4,2.2
			c-2,5-5.4,4.1-8.9,4.2c-2.9,0.1-5.9,0-9,0c0,2.5,0,4.4,0,6.5C97.6,226.9,101.4,226.9,106.3,226.9z M467.2,246
			c-0.7,0.2-1.3,0.4-2,0.6c-0.8,9.8-1.5,19.6-2.3,29.7c-10-0.7-18.3-6.6-27.7-3c-9.3,3.5-14.2,10.9-17.7,19.8
			c3.1-1.3,5.9-3.1,8.5-5.2c2.2-1.8,4-4,6.3-5.7c5.9-4.4,14.3-4,21.6,0.3c6.6,3.8,6.5,9.5,4.8,15.6c-2.7,9.8-5.6,19.5-8.4,29.2
			c-0.6,2-0.7,4.2-1.2,6.9c6-2.3,8.1-6.2,9.4-10.9c2-7.7,4-15.4,6.1-23.1c4.3-15.9,5-32.2,5-48.5C469.6,249.7,468.1,247.9,467.2,246
			z M195.1,456.5c3.3-0.5,6.9-0.2,9.7-1.6c8.2-4.2,13.9-11.1,15.5-20.2c0.6-3.4-0.4-7.8-2.3-10.6c-3.1-4.7-7.4-8.6-11.4-12.5
			c-1-1-3-1-4.5-1.4c0.2,1.7-0.1,3.8,0.8,4.9c1.8,2.4,4.3,4.1,6.4,6.3c7.1,7.2,7.5,15,1,22.7c-5.3,6.3-11.6,10.2-20.5,8.1
			c-2.1-0.5-4.6,0.7-6.9,1c0.6,2.8,0.5,6.3,2.1,8.3c1.9,2.2,5.3,4.1,8.2,4.3c9,0.5,18,0.3,26.9,0.1c1.7,0,3.5-1,5-2
			c0.4-0.3,0-2.9-0.4-3c-1.6-0.5-3.4-0.6-5-0.5c-6.8,0.7-13.5,2-20.3,2.4C194.4,463.1,193.6,461.6,195.1,456.5z M279.6,362.8
			c-0.4,0.4-0.8,0.8-1.1,1.2c1.1,1.9,1.9,4.1,3.3,5.6c2.9,3.1,6.1,6.1,9.4,8.9c6.3,5.2,12.9,10,19.1,15.2c6.2,5.1,6.9,8.1,3.3,15.6
			c-2,4.2-4.6,8.1-6.6,12.3c-1.2,2.5-1.9,5.2-2.8,7.9c0.5,0.3,1.1,0.6,1.6,0.9c2.2-2.1,5-3.9,6.4-6.5c3.2-6,5.7-12.3,8.4-18.5
			c2-4.6,0.7-8.5-2.8-11.7c-9.3-8.5-18.6-17-28.2-25.2C286.8,366,283,364.6,279.6,362.8z M232.9,449.2c3.1-10.2,10.6-11.7,19.5-11.1
			c7.5,0.5,8,0.4,8.3-7.4c0.3-9.8,3.8-16.9,13.6-20.2c1.8-0.6,3.3-2.2,5.1-3.1c1.2-0.6,2.6-0.8,3.9-1.2c-0.7-0.8-1.4-1.5-2-2.3
			c-7.2,0.6-13.7,3.4-19.5,7.6c-7.1,5.2-6,13.5-7.1,20.7c-5.6,0.9-11.1,1.3-16.3,2.7C234,436.1,231.6,442.6,232.9,449.2z
			 M347.2,221.1c-8.1,0.2-13,4.2-13.3,10.4c-0.1,3,1.2,4.7,4,5.3c5.1,1.1,13.3-3.5,14.8-8.5C354.5,223,352.8,220.9,347.2,221.1z
			 M238.9,427.9c3.8-7-10.1-26.8-19.3-27C226.2,410.3,232.4,418.9,238.9,427.9z M215.5,261.1c-9.1,11.9-18.2,23.8-27.3,35.7
			c0.4,0.3,0.8,0.6,1.1,0.9C194.8,294.4,214.7,267.9,215.5,261.1z"/>
		<path d="M172.2,359.3c9.5-31.3,25.9-47.1,46.1-44.8c1.9,19.9,3.8,39.8,5.8,59.7c0.9,0.1,1.9,0.1,2.8,0.2
			c1.6-7.6,3.6-15.1,4.7-22.7c1.2-8.1,1.7-16.2,2.1-24.4c0.3-7.9,0.1-15.9,0.1-23.8c14.1-1.5,14,0.2,37.7-16.3
			c-0.4,6.8-0.4,12.6-1.1,18.3c-1.6,12.4-3.7,24.7-5.3,37.1c-0.3,2.2,1.1,4.6,1.7,7c2.3-1.7,5.8-2.9,6.7-5.1
			c2.7-6.6,5.2-13.5,6.2-20.4c2.5-16.6,4.2-33.3,6.3-50.3c13.5,1.5,24.7-6,36.9-14.5c-0.3,5.1-0.1,9.2-0.8,13.1
			c-2.7,14.7-5.7,29.4-8.5,44.1c-0.3,1.6,0.2,3.4,0.4,5.1c0.7,0.1,1.4,0.3,2.1,0.4c2.5-4.6,5.5-9,7.5-13.8
			c6.8-16.5,9.6-33.9,11-51.6c0.7-8.9,5.4-13.4,15.3-14c-0.2,3.1-0.2,6.2-0.6,9.3c-2.3,14.5-4.7,28.9-7,43.4
			c-0.3,1.8-0.6,3.7-0.2,5.5c0.5,2.3,1.2,6,2.5,6.3c2.3,0.7,5.5-0.2,7.7-1.6c3.2-2,5.8-4.9,9-7.7c-9.6-9.4-8.3-20.2-6.2-30.9
			c2.7-14,7.5-27.3,14.9-39.5c4.5-7.4,10.4-13.1,19.8-13.3c12.1-0.2,19.8,6.7,20.8,19.5c0.6,7.8-0.2,15.6-0.4,23.4
			c0,1.6-0.3,3.2-0.1,4.9c7.4-22.1,6.6-45.1,7.5-68.3c14.5,0.9,25.2-7.1,35.8-15.3c0.5,0.1,1.1,0.2,1.6,0.4
			c-0.5,6.4-0.8,12.9-1.7,19.3c-1.6,12.2-3.7,24.4-5.3,36.6c-0.2,1.7,0.9,3.6,1.4,5.3c1.8-0.7,4.1-0.8,5.3-2.1
			c3.5-3.7,6.5-7.8,10-11.5c-3.8,11.7-7.7,23.4-16.9,32.2c-7.8,7.5-15.7,5.3-19-5c-3.2-10.1-2-20.1,0.5-30.1
			c0.6-2.4,1.2-4.7,1.9-7.3c-5.6,0.8-7.1,4-7.5,9c-1.1,15-3.3,30-10.9,43.2c-4.4,7.7-10,14.9-15.9,21.6c-6.7,7.7-15.7,11.3-26,9.9
			c-3.8-0.5-5.5,0.9-7.5,3.8c-4,5.5-8.2,11-13.1,15.6c-8.3,7.7-13.8,6.5-19.1-4c-2.7,3.5-5.2,6.7-7.7,9.9
			c-3.7,4.9-6.9,10.3-11.3,14.5c-7.7,7.2-15.6,4.7-18.4-5.4c-3.1-10.8-1.1-21.5,2.2-31.9c0.6-1.8,1.3-3.6,2.1-5.9c-5,1-7,3.1-8,7.9
			c-2.7,13.7-5.1,27.6-9.9,40.6c-3.1,8.4-9.5,16-15.7,22.8c-7.2,8-15.6,5.6-18.9-4.7c-3.3-10.2-2.1-20.4,0.6-30.5
			c0.6-2.2,1.2-4.4,1.9-6.9c-5.2,1.1-7.2,3.6-7.5,8.6c-1.2,18-4.3,35.7-12,52.2c-0.7,1.5-1.3,3.1-2.1,4.5
			c-5.6,10.1-11.5,11.5-20.7,4.8c-7.1,6-14.5,11.8-25.3,10.4c-1.6,10.5-5.1,19.3-16.6,22.5c-10.1,2.7-19.4,1.3-28.1-3
			c-15.3,10-31.2,13.1-48.2,6.3c-11.3-4.5-17.6-13.9-21.6-24.9c-4.2-11.6-5.3-23.7-5.2-35.9c0-5,0-9.9,0-15.2
			c-4.1,0.4-8.4,0.9-12.6,1.1c-21,1-29-12.7-26.9-30.6c2.2-19.3,12.4-28.7,32-28.3c11,0.3,22,3,32.9,5.2c3.1,0.6,4.7,0.3,6.8-2
			c10.1-11.6,20.7-14,35-8.3c6.7,2.7,8.1,6.6,4.5,13c-5,9-13.4,12-22.9,12.8c-2.7,0.2-5.4,0.6-8,0.4c-6.4-0.6-9.8,2.1-12,8.2
			c-6.2,17.1-10.6,34.4-7.6,52.7c1.8,10.5,6.3,20,13.1,28.2c6.3,7.5,15.4,9.7,24.1,6c-5.1-6.6-10.7-12.9-15.3-20
			c-8.7-13.5-11.7-28.2-7.1-43.9c2.8-9.7,10.1-12.3,18.6-6.7c8.5,5.5,14.2,13.4,18.5,22.5c7,15,8.7,31,8.1,47.3
			c-0.2,5.8,2.3,7.5,8,5.6c6.2-2.1,10.1-6.8,10.8-12.7c1.3-10.5,1.4-21.1,1.6-31.7c0.1-4.2-1.2-8.5-1.8-12.7
			c-14.9,4.2-34-6.1-39.1-20.7c-2.6-7.6,0.3-12.2,8.5-13.1c16-1.8,27.9,4.5,35.9,18.3C167.9,350.4,169.8,354.7,172.2,359.3z
			 M392.7,249c0-0.8,0-1.7,0-2.5c-0.3-7.3-2.9-11.5-8-13.1c-4.3-1.3-8.5,0.8-12.5,7c-8.6,13.4-11.7,27.8-7.6,43.4
			c0.7,2.8,2.7,7.4,4.3,7.5c3,0.2,6.1-2.3,9.1-3.9c1.1-0.6,1.8-1.9,2.6-3C388.3,273.9,391.9,261.9,392.7,249z M80.6,316.6
			c-7.2-2.2-13.9-4.9-20.8-6.1c-7.3-1.3-14.2,0.9-20.2,5.5c-7,5.4-9.3,16.5-5.3,24.5c3.1,6.3,12,9.6,20.5,7.6
			c6.3-1.5,8-5.5,5.2-10.6c-4.9,0.9-9.5,2-14.2,2.4c-2.8,0.2-4.9-1.3-3.6-4.8c1.8-4.9,10.2-10.2,15.7-9.9c5.3,0.2,7.8,3.1,9.6,10.8
			c0.1,0.4,0.3,0.8,0.5,1.2C72,330.7,76,324.2,80.6,316.6z M205,347.1c-19.9,3.9-30.5,20.5-25.3,38.4c2.5,8.4,10.1,11.1,17.1,5.9
			c2.2-1.7,4.2-3.9,5.5-6.3C209.3,372.8,205.6,359.9,205,347.1z M127.1,413.3c0.6-4,1.3-6.1,1.2-8.1c-0.8-13.3-4.6-25.8-12.6-36.6
			c-2.5-3.4-6-7.7-10.7-5c-4.2,2.4-2.6,7.5-1.9,11.5c2.1,11.1,7.4,20.9,14.2,29.8C119.6,407.8,123,409.9,127.1,413.3z M158.6,354.5
			c-5.1-9.3-13.6-16.9-22.6-19.9c-2.1-0.7-4.6-0.1-6.9-0.2c0.2,2.7-0.7,6.2,0.7,7.9c3.7,4.5,8,8.8,12.7,12.3
			C147.4,358.2,153.1,357.9,158.6,354.5z M109.1,310.8c5.9-0.4,10.6-2.7,14.2-6.9c2.5-2.9,1.7-5.4-1.9-6.3c-5.5-1.4-11.1-0.8-15.4,3
			c-2,1.7-2.6,5-3.9,7.5C104.4,309,106.7,309.9,109.1,310.8z M190.4,346.6c5.3,0,13.6-6.4,14.6-10.7c0.6-2.6,0.3-4.9-3.2-4.6
			c-4.7,0.4-12.5,7.5-12.8,12C188.8,344.5,190,345.8,190.4,346.6z"/>
		<path d="M173.3,175c24-11.4,47.4-22.5,70.9-33.6c0.1,0.3,0.3,0.5,0.4,0.8c-14.4,8.2-28.8,16.5-43.3,24.6
			c-8.3,4.6-16.7,9-25.1,13.3c-2.7,1.4-3.7,2.9-3.8,6.1c0,2.2-1.6,5.1-3.4,6.4c-3.2,2.2-6.4,0.5-6.8-3.4c-0.4-4.6,0.3-9.3,0-13.9
			c-0.3-3.9-0.6-8-2.2-11.4c-3.3-6.9-7.3-13.5-11.3-20c-11.1-18.3-9.5-37.2-2.8-56.3c2.1-5.9,4.9-11.6,7.4-17.3
			c-3.1-6.5-5.6-13.8-13.6-16.8c-1.5,2.6-3.1,5.6-5.2,9.3c-9.4-10.9-17.5-21.5-23.5-33.6c0.3-0.7,0.7-1.3,1-2
			c12.5,2.2,24.9,4.5,38.3,6.9c-1.7,3.9-3.2,7.1-4.8,10.6c5.3,3.8,10.8,1.8,16.4,0.6c2-0.5,4.2-0.2,6.4-0.4
			c3.7-0.2,7.6,0.2,11.1-0.9c6.9-2.2,13.5-5.7,20.4-8c14.9-4.8,29-0.4,42.8,4.7c9.2,3.4,18.3,7.1,27.2,11.3
			c7.2,3.4,13.7,2.8,20.6-0.4c2.1-1,4.3-1.9,6.6-2.3c1-0.2,2.9,0.4,3.3,1.3c0.5,0.8,0,3-0.7,3.4c-7.8,4.7-5.8,12.2-5.7,19.2
			c0.1,8.5,0,16.9,0,24.7c11,1.8,20.8,3.4,30.7,5.1c3.9,0.7,5.9-1,6.8-4.7c0.8-3.4,1.8-6.8,3-10.1c3.4-9.6,11.5-16.1,19.2-15.6
			c11.9,0.8,20.9,7.4,22.4,18.3c0.9,6.2-0.2,12.9-1.8,19c-1,3.7-4.6,6.7-6.9,9.7c6.1,3.1,13.9,7.5,21.9,11.3
			c13.3,6.3,11.8,11.6,5.3,21.7c-3.9,6.1-10.3,7.5-16.4,9.4c-1.1,0.3-2.3,0.6-3.5,0.5c-12.1-1-20.5,5.4-29.1,12.8
			c-14.4,12.4-25.7,27.4-37.8,41.8c-0.8,1-1.2,2.7-1,4c0.9,6.9-1.6,12.4-6.2,17.2c-2.1,2.2-4.1,4.4-6.4,6.3
			c-5.2,4.1-9.7,8.4-9.9,15.7c0,1.2-1.5,2.4-2.2,3.6c-1.3-0.9-2.5-1.8-3.8-2.8c-0.2-0.2-0.5-0.6-0.5-0.9c-1-8.5-7-8.2-13.4-7.8
			c-7.6,0.4-15.3,0.1-24.4,0.1c1.2,11.9,2.4,22.8,3.5,33.6c-5.7-1.7-7.4-6.6-9.8-29.7c-1.3,2.8-2.2,4.6-3.1,6.5
			c-8.6,18.5-20.2,34.8-35.2,48.6c-3.4,3.1-7.2,4.3-12.2,3.8c0.4-0.9,0.5-1.7,0.9-2c14-9.6,22.5-23.9,31.5-37.7
			c4.7-7.2,8.4-15.2,13.1-22.4c5.2-8.1,2.8-16.4,1.8-24.7c-0.9-7-2.5-14-4-21.7c-11.6,12.4-24.7,23-32,38.3
			c-8.7,18-16.7,36.2-25.1,54.4c-0.9,2-1.8,4.1-2.7,6.2c-0.4-0.1-0.8-0.3-1.2-0.4c1.5-6.3,2.7-12.6,4.6-18.7
			c6.8-23,15.1-45.7,31.9-63.1c12.7-13.2,28.4-23.5,42.3-35.5c5.7-5,10.5-11.1,15.5-16.9c0.9-1,0.7-3.2,0.6-4.8
			c-0.7-8.8-1.6-17.6-2.4-26.4c-0.5-5.9-0.8-11.9-1.2-18c-6.5-4.5-13.4-9.1-20.3-13.8c-0.8-0.6-1.7-1.2-2.7-1.3
			c-14.8-2.2-24.9-12.8-36.7-20.3c-7-4.4-13.9-9.2-21.2-13.1c-6.8-3.7-13.6-1-16.9,6c-2.3,5-4.4,10-6.6,15.1
			c-7.5,17.3-5,33.9,3.7,49.9C161.1,154.4,167,164,173.3,175z M374.6,130.5c-8.7-1.9-16.1-4.3-23.5-5c-6.1-0.6-11.7-2-14.9-6.8
			c-4.6-7.2-10.4-8.3-18-6.8c-4.7,0.9-9.9-0.3-14.3,1.1c-4.5,1.5-7.2,0.4-10-2.7c-5.6-6-12.4-9.8-20.5-11.7
			c-6.6-1.6-13.2-3.5-19.6-5.7c-3-1.1-5.6-3.2-8.4-4.9c-7.7-4.6-15-9.9-23.1-13.5c-8.1-3.7-16.9-6.2-25.5-8.5
			c-9.7-2.5-16.2-9.8-24-15c-4-2.7-7.6-3.4-11.5-1.3c-4.4,2.2-5.1,6.6-5.4,11.1c-0.3,3.7,1.3,5.3,4.9,5.2c9.7-0.3,17.9,3.3,25.7,9
			c10.4,7.5,21.2,14.4,32.2,21c2.9,1.8,6.9,1.7,10.3,2.5c2.9,0.7,6.3,0.6,8.6,2.2c13.2,8.7,26.2,17.8,39.1,26.8
			c3.8,2.7,5,5.7,4.3,9.1c-5.1-3.2-10.3-6.4-15.6-9.7c-0.4,0.3-0.7,0.7-1.1,1c2.2,5.8,4.5,11.5,6.8,17.4c1.6-0.7,2.5-1.1,4.3-1.9
			c2.3,22-14.8,34.1-23.4,50.1c5.4,7.8,27.7,20.1,34.5,17.7c-1.2-15.4,1-24.6,8.9-33.6c5.4-6.1,11-12.1,17.2-17.4
			c8.4-7.2,15-15.5,19.7-25.5c0.6-1.3,1.4-2.4,2.1-3.6c-0.3,8.5-4.4,15.3-9.4,21.5c-6.8,8.4-13.7,16.9-21.5,24.3
			c-10.1,9.7-13.1,21.9-15.1,35c0.8,0.1,1.5,0.3,2.1,0.4c11.4,0.9,18.4-6.5,25.2-13.8c6.8-7.3,12.9-15.2,19.2-23
			c2.6-3.2,5.1-6.5,7.1-10c1.6-2.9,3.4-4.6,6.9-4.9c2.2-0.2,5-0.5,6.5-1.9c3.1-2.9,6.5-2.8,10.2-2.3c3.1,0.4,6.3,0.8,9.4,0.9
			c10.8,0.4,13.5-1.9,15.2-12.6c0.6-3.9-0.2-7.3-3.8-9.5c-7.2-4.5-14.4-9-21.6-13.5c-0.7-0.5-1.7-0.5-2.6-0.8
			c-0.1,0.2-0.2,0.4-0.3,0.6C365.7,124.1,369.7,127,374.6,130.5z M181.2,48.9c-0.3,0.8-0.7,1.5-1,2.3c2.8,2.5,5.2,5.8,8.4,7.2
			c5.6,2.5,11.6,4.1,17.6,5.5c13.9,3.3,27,7.8,38.1,17.5c4.1,3.6,10.1,5.4,15.5,7.2c5,1.6,10.4,2.3,15.6,3.2
			c4.2,0.7,8.4,1.1,13.5,1.7c-0.9-9.6-1.5-18.3-2.7-27c-0.2-1.7-2.6-3.9-4.4-4.5c-15.4-5.4-30.8-10.7-46.3-15.6
			c-9.5-3-19.1-6.4-29.3-4C197.8,44.3,189.6,46.7,181.2,48.9z M259.4,244.6c4.3,1.4,9.1,3.2,14,4.4c8.5,2,17.3-1.8,21-9.7
			c2.2-4.7,3.2-10.1,3.9-15.3c0.8-6.8,0.4-7.2-6.4-7.5c-12.9-0.5-24.4-4.5-34.8-12.1c-3.9-2.8-8.2-5.1-12.4-7.5
			c-1-0.6-2.9-1.3-3.5-0.9c-3.5,2.7-7.9,5.1-7.2,10.5c1,8.7,1.9,17.5,3.6,26.1c2,10.1,10.9,13.4,19.5,7.5c3.1-2.1,5.6-5,8.4-7.5
			c0.3,0.2,0.7,0.4,1,0.6C264.2,237,262,240.5,259.4,244.6z M371.7,97.8c-0.2-0.9-0.5-3.1-0.9-5.2c-1.8-7.8-6.8-12.2-14.5-12.8
			c-6.3-0.6-11.7,2.9-14.5,9.9c-2,5.1-3.7,10.3-5,15.7c-1.8,8,7.4,18.5,15,17.3C361.4,121.1,371.6,109,371.7,97.8z M117.1,31.6
			c-0.5,0.9-1,1.7-1.5,2.6c4.9,6.1,9.7,12.2,15.4,19.3c3.3-5.3,6-9.3,8.2-13.5c0.5-1-0.1-3.9-0.7-4.1
			C131.4,34.3,124.2,33,117.1,31.6z M263.9,144.6c-0.5,0.1-1.1,0.3-1.6,0.4c0.9,5,1.8,10.1,2.7,15.1
			C271.5,151.7,271.2,149.5,263.9,144.6z"/>
		<path d="M233.4,7.7c101.4,2.5,172.3,43.9,221,123.7c1,1.7,2.2,3.5,2.6,5.3c0.3,1.4-0.5,3.1-0.8,4.7c-1.4-0.8-3.3-1.3-4.1-2.5
			c-8.7-12.6-16.2-26.1-25.9-37.9c-31.7-38.9-71.8-65.7-120.4-79c-33.9-9.2-68.3-10.5-103-5.6c-7.9,1.1-15.7,2.8-23.6,3.8
			c-1.6,0.2-3.5-1.2-5.3-1.9c1.4-1.2,2.6-3.1,4.1-3.3C199.1,12.2,220,9.5,233.4,7.7z"/>
		<path d="M3.1,260.7c0.8-81.5,24.3-144.5,77.1-195.4c6.1-5.9,12.9-11,19.7-16.2c1.3-1,3.7-0.4,5.6-0.6c-0.9,1.7-1.3,3.9-2.7,5
			C65,82,39.1,119,23.4,163.3c-16.5,46.5-17.9,94.2-9.9,142.5c0.1,0.8,0.5,1.7,0.3,2.5c-0.5,1.7-1.2,3.2-1.8,4.8
			c-1.1-1.3-3.1-2.5-3.3-3.9C6.3,290,4.2,270.8,3.1,260.7z"/>
		<path d="M416.6,310.1c-1.6,2.1-3,4.6-5,6.2c-2.4,2-5.7,2.9-8,4.9c-2.4,2.1-4.9,4.8-5.8,7.7c-2.1,6.6-0.8,8.1,6.2,9.2
			c3,0.5,6.1,0.9,5.3,6.5c-12.7-4-23.5-0.7-32.3,9.4c0.7-9.9,9.7-13.9,13.7-21.1c-4.8-3.2-15.2-2.9-19.8,0.6
			c-7.6,6-13.7,13.2-17.8,21.9c-3.1,6.5-1.4,13,0.2,19.5c1.6,6.6,3.3,13.2,4.8,19.9c0.8,3.5-0.8,5.2-4.3,4.4
			c-7-1.6-11.5,0.6-14.5,7.4c-1.6,3.6-4.7,6.6-7.1,9.8c-0.5-0.3-1-0.5-1.6-0.8c0.4-1.7,0.7-3.5,1.4-5.1c1.8-4.1,3.8-8.1,5.7-12.2
			c1.5-3.1,0.6-5.5-1.6-8.1c-10.5-12.6-20.9-25.4-31.2-38.2c-0.8-1.1-0.3-3.2-0.4-4.8c1.5,0.3,3.6,0,4.4,0.9
			c6.2,6.9,12.3,14,18.3,21.1c5,5.9,9.8,12.1,14.9,17.9c1.5,1.7,4,2.6,7.4,4.8c0-4.4,0.3-7.5-0.1-10.4c-0.8-5.4-1.7-10.9-3.1-16.2
			c-1.3-4.6-0.6-8.6,2.3-12.2c7.6-9.5,15.1-19,23-28.2c1.5-1.7,4.5-2.5,6.9-2.9c2.6-0.4,5.4-0.4,7.9,0.2c8.9,2.1,15.5-1.3,21.4-7.6
			c2.1-2.3,4.5-4.1,6.8-6.2C415.2,308.9,415.9,309.5,416.6,310.1z"/>
		<path d="M84.4,254.8c-18.4,0-36.5,0-54.9,0c0-13.2,0-26.2,0-39.5c18.3,0,36.4,0,54.9,0C84.4,228.3,84.4,241.4,84.4,254.8z
			 M35.1,221.9c0,8.7,0,16.8,0,24.8c13.4,0,26.4,0,39.4,0c0-8.5,0-16.6,0-24.8C61.2,221.9,48.3,221.9,35.1,221.9z"/>
		<path d="M106.3,226.9c-4.9,0-8.7,0-12.9,0c0-2.1,0-4,0-6.5c3.1,0,6.1,0.1,9,0c3.5-0.1,6.9,0.8,8.9-4.2c0.7-1.7,6.4-1.4,10.4-2.2
			c-0.6,2.6-0.9,4-1.3,5.9c10.7,0,21.1,0,31.9,0c0,11.2,0,21.9,0,33.1c-8.2,0-16.6,0-25.2,0c0-1.7,0-3.3,0-5.4c4.5,0,8.7,0,13.2,0
			c0-7,0-13.4,0-20.5c-7.1,0-14-0.1-20.9,0.2c-1,0-2.3,2.1-2.7,3.4c-2.1,6.3-4.2,12.6-6,19c-0.8,2.9-2.3,4-5.3,3.8
			c-3.9-0.2-7.9-0.1-12.1-0.1c0-2.2,0-3.7,0-6.1c7.3,2.3,7.5-3.1,8.9-7.5C103.4,235.8,104.8,231.7,106.3,226.9z"/>
		<path d="M467.2,246c0.8,1.9,2.3,3.8,2.3,5.7c0,16.3-0.6,32.6-5,48.5c-2.1,7.7-4.1,15.4-6.1,23.1c-1.2,4.7-3.4,8.6-9.4,10.9
			c0.5-2.7,0.6-4.9,1.2-6.9c2.7-9.7,5.7-19.4,8.4-29.2c1.7-6.1,1.8-11.8-4.8-15.6c-7.4-4.3-15.7-4.7-21.6-0.3c-2.2,1.7-4,4-6.3,5.7
			c-2.6,2.1-5.4,3.8-8.5,5.2c3.5-8.9,8.4-16.2,17.7-19.8c9.4-3.6,17.8,2.3,27.7,3c0.8-10.1,1.5-19.9,2.3-29.7
			C465.9,246.4,466.6,246.2,467.2,246z"/>
		<path d="M195.1,456.5c-1.4,5.1-0.7,6.6,4.4,6.3c6.8-0.4,13.5-1.7,20.3-2.4c1.7-0.2,3.5,0,5,0.5c0.5,0.1,0.8,2.8,0.4,3
			c-1.5,1-3.3,2-5,2c-9,0.2-18,0.4-26.9-0.1c-2.9-0.2-6.3-2.1-8.2-4.3c-1.7-2-1.5-5.5-2.1-8.3c2.3-0.4,4.8-1.5,6.9-1
			c8.9,2.1,15.2-1.8,20.5-8.1c6.5-7.7,6.1-15.5-1-22.7c-2.1-2.1-4.6-3.9-6.4-6.3c-0.9-1.2-0.6-3.3-0.8-4.9c1.5,0.5,3.5,0.5,4.5,1.4
			c4,4,8.3,7.9,11.4,12.5c1.9,2.9,2.9,7.3,2.3,10.6c-1.6,9.2-7.3,16-15.5,20.2C202,456.3,198.4,456,195.1,456.5z"/>
		<path d="M279.6,362.8c3.4,1.8,7.2,3.2,10.1,5.6c9.6,8.2,18.9,16.7,28.2,25.2c3.5,3.2,4.8,7.1,2.8,11.7c-2.8,6.2-5.2,12.5-8.4,18.5
			c-1.4,2.6-4.2,4.4-6.4,6.5c-0.5-0.3-1.1-0.6-1.6-0.9c0.9-2.6,1.5-5.4,2.8-7.9c2-4.2,4.6-8.1,6.6-12.3c3.5-7.4,2.9-10.4-3.3-15.6
			c-6.3-5.2-12.8-10-19.1-15.2c-3.3-2.7-6.5-5.7-9.4-8.9c-1.5-1.5-2.2-3.7-3.3-5.6C278.8,363.6,279.2,363.2,279.6,362.8z"/>
		<path d="M232.9,449.2c-1.3-6.6,1.1-13.1,5.5-14.3c5.2-1.4,10.7-1.8,16.3-2.7c1.1-7.1,0-15.5,7.1-20.7c5.8-4.2,12.3-7,19.5-7.6
			c0.7,0.8,1.4,1.5,2,2.3c-1.3,0.4-2.7,0.6-3.9,1.2c-1.8,0.9-3.3,2.5-5.1,3.1c-9.8,3.3-13.2,10.4-13.6,20.2
			c-0.3,7.8-0.8,7.9-8.3,7.4C243.5,437.5,236,439,232.9,449.2z"/>
		<path d="M347.2,221.1c5.6-0.2,7.2,1.9,5.6,7.3c-1.5,4.9-9.7,9.6-14.8,8.5c-2.8-0.6-4.2-2.3-4-5.3
			C334.2,225.3,339.1,221.3,347.2,221.1z"/>
		<path d="M238.9,427.9c-6.5-9-12.6-17.7-19.3-27C228.7,401.1,242.7,420.9,238.9,427.9z"/>
		<path d="M215.5,261.1c-0.8,6.8-20.8,33.3-26.2,36.5c-0.4-0.3-0.8-0.6-1.1-0.9C197.3,284.9,206.4,273,215.5,261.1z"/>
		<path class="st0" d="M392.7,249c-0.9,12.9-4.4,24.8-12.1,35.4c-0.8,1.1-1.5,2.4-2.6,3c-2.9,1.6-6.1,4.1-9.1,3.9
			c-1.6-0.1-3.6-4.6-4.3-7.5c-4.1-15.6-1-30,7.6-43.4c4-6.2,8.2-8.4,12.5-7c5.1,1.6,7.6,5.8,8,13.1
			C392.7,247.4,392.7,248.2,392.7,249z"/>
		<path class="st0" d="M80.6,316.6c-4.6,7.6-8.6,14-12.6,20.6c-0.2-0.4-0.4-0.8-0.5-1.2c-1.8-7.7-4.3-10.5-9.6-10.8
			c-5.6-0.2-13.9,5-15.7,9.9c-1.3,3.5,0.9,5,3.6,4.8c4.7-0.4,9.3-1.5,14.2-2.4c2.8,5.1,1.1,9.1-5.2,10.6c-8.5,2.1-17.3-1.2-20.5-7.6
			c-4-8-1.6-19.1,5.3-24.5c5.9-4.6,12.9-6.8,20.2-5.5C66.7,311.8,73.4,314.5,80.6,316.6z"/>
		<path class="st0" d="M205,347.1c0.6,12.9,4.4,25.7-2.7,38c-1.4,2.4-3.3,4.6-5.5,6.3c-7,5.3-14.6,2.5-17.1-5.9
			C174.4,367.5,185.1,351,205,347.1z"/>
		<path class="st0" d="M127.1,413.3c-4-3.4-7.5-5.5-9.7-8.4c-6.8-8.9-12.1-18.7-14.2-29.8c-0.8-3.9-2.3-9.1,1.9-11.5
			c4.7-2.6,8.2,1.7,10.7,5c8,10.8,11.7,23.3,12.6,36.6C128.4,407.2,127.7,409.3,127.1,413.3z"/>
		<path class="st0" d="M158.6,354.5c-5.5,3.4-11.2,3.7-16.1,0.1c-4.7-3.5-9-7.7-12.7-12.3c-1.4-1.7-0.5-5.2-0.7-7.9
			c2.3,0,4.8-0.5,6.9,0.2C145,337.6,153.6,345.3,158.6,354.5z"/>
		<path class="st0" d="M109.1,310.8c-2.4-0.9-4.7-1.8-7.1-2.7c1.3-2.6,1.9-5.8,3.9-7.5c4.4-3.8,9.9-4.4,15.4-3
			c3.7,0.9,4.4,3.4,1.9,6.3C119.7,308.1,115,310.4,109.1,310.8z"/>
		<path class="st0" d="M190.4,346.6c-0.4-0.8-1.6-2-1.5-3.2c0.3-4.5,8.1-11.7,12.8-12c3.5-0.3,3.8,2,3.2,4.6
			C204,340.2,195.7,346.6,190.4,346.6z"/>
		<path class="st0" d="M374.6,130.5c-4.9-3.5-8.9-6.3-12.8-9.2c0.1-0.2,0.2-0.4,0.3-0.6c0.9,0.2,1.9,0.3,2.6,0.8
			c7.2,4.5,14.4,9,21.6,13.5c3.6,2.2,4.4,5.6,3.8,9.5c-1.7,10.7-4.4,13-15.2,12.6c-3.2-0.1-6.3-0.5-9.4-0.9c-3.7-0.5-7-0.6-10.2,2.3
			c-1.5,1.4-4.3,1.8-6.5,1.9c-3.4,0.2-5.2,2-6.9,4.9c-2,3.6-4.5,6.9-7.1,10c-6.3,7.8-12.4,15.7-19.2,23
			c-6.8,7.3-13.8,14.8-25.2,13.8c-0.6-0.1-1.3-0.2-2.1-0.4c2-13.1,4.9-25.3,15.1-35c7.8-7.4,14.7-15.9,21.5-24.3
			c5-6.2,9.1-13,9.4-21.5c-0.7,1.2-1.5,2.4-2.1,3.6c-4.6,10-11.3,18.2-19.7,25.5c-6.2,5.3-11.8,11.3-17.2,17.4
			c-7.9,8.9-10.1,18.1-8.9,33.6c-6.8,2.4-29.1-9.9-34.5-17.7c8.7-16.1,25.7-28.1,23.4-50.1c-1.8,0.8-2.8,1.2-4.3,1.9
			c-2.3-5.9-4.5-11.6-6.8-17.4c0.4-0.3,0.7-0.7,1.1-1c5.2,3.2,10.4,6.5,15.6,9.7c0.7-3.4-0.4-6.4-4.3-9.1c-13-9-25.9-18.1-39.1-26.8
			c-2.3-1.5-5.7-1.5-8.6-2.2c-3.5-0.8-7.5-0.7-10.3-2.5c-10.9-6.6-21.8-13.5-32.2-21c-7.8-5.7-16-9.3-25.7-9
			c-3.6,0.1-5.1-1.5-4.9-5.2c0.3-4.5,1-8.8,5.4-11.1c4-2,7.5-1.3,11.5,1.3c7.9,5.2,14.4,12.5,24,15c8.7,2.3,17.4,4.8,25.5,8.5
			c8.1,3.7,15.4,9,23.1,13.5c2.8,1.7,5.4,3.8,8.4,4.9c6.4,2.2,13,4.2,19.6,5.7c8.1,1.9,14.9,5.7,20.5,11.7c2.9,3,5.5,4.1,10,2.7
			c4.4-1.5,9.6-0.2,14.3-1.1c7.6-1.5,13.4-0.3,18,6.8c3.1,4.8,8.8,6.2,14.9,6.8C358.6,126.2,365.9,128.5,374.6,130.5z"/>
		<path class="st0" d="M181.2,48.9c8.3-2.2,16.6-4.7,25-6.6c10.2-2.3,19.8,1.1,29.3,4c15.5,4.8,30.9,10.2,46.3,15.6
			c1.8,0.6,4.2,2.8,4.4,4.5c1.2,8.7,1.8,17.5,2.7,27c-5.1-0.6-9.4-1-13.5-1.7c-5.2-0.9-10.6-1.5-15.6-3.2
			c-5.4-1.8-11.4-3.5-15.5-7.2c-11.1-9.7-24.2-14.2-38.1-17.5c-6-1.4-12-3-17.6-5.5c-3.2-1.4-5.6-4.8-8.4-7.2
			C180.6,50.4,180.9,49.7,181.2,48.9z"/>
		<path class="st0" d="M259.4,244.6c2.6-4,4.8-7.6,7.1-11.2c-0.3-0.2-0.7-0.4-1-0.6c-2.8,2.5-5.3,5.4-8.4,7.5
			c-8.6,5.9-17.5,2.5-19.5-7.5c-1.7-8.6-2.6-17.4-3.6-26.1c-0.6-5.4,3.8-7.8,7.2-10.5c0.6-0.5,2.5,0.3,3.5,0.9
			c4.2,2.4,8.5,4.6,12.4,7.5c10.4,7.6,21.9,11.6,34.8,12.1c6.8,0.3,7.2,0.7,6.4,7.5c-0.6,5.2-1.7,10.6-3.9,15.3
			c-3.7,7.9-12.5,11.6-21,9.7C268.5,247.8,263.7,245.9,259.4,244.6z"/>
		<path class="st0" d="M371.7,97.8c-0.1,11.2-10.3,23.4-20,24.9c-7.5,1.2-16.8-9.3-15-17.3c1.2-5.3,2.9-10.6,5-15.7
			c2.8-7,8.3-10.5,14.5-9.9c7.8,0.7,12.7,5,14.5,12.8C371.2,94.7,371.5,96.8,371.7,97.8z"/>
		<path class="st0" d="M117.1,31.6c7.2,1.4,14.3,2.7,21.4,4.3c0.6,0.1,1.2,3.1,0.7,4.1c-2.2,4.2-4.9,8.1-8.2,13.5
			c-5.7-7.1-10.6-13.2-15.4-19.3C116.1,33.3,116.6,32.5,117.1,31.6z"/>
		<path class="st0" d="M263.9,144.6c7.3,4.9,7.6,7.1,1.1,15.5c-0.9-5-1.8-10.1-2.7-15.1C262.8,144.9,263.3,144.7,263.9,144.6z"/>
		<path class="st0" d="M35.1,221.9c13.2,0,26.1,0,39.4,0c0,8.2,0,16.3,0,24.8c-12.9,0-26,0-39.4,0C35.1,238.7,35.1,230.7,35.1,221.9
			z M39.8,226.9c0,5.2,0,9.9,0,14.6c8.1,0,15.8,0,23.5,0c0-5.1,0-9.8,0-14.6C55.3,226.9,47.7,226.9,39.8,226.9z"/>
		<path d="M39.8,226.9c8,0,15.6,0,23.5,0c0,4.8,0,9.5,0,14.6c-7.7,0-15.4,0-23.5,0C39.8,236.9,39.8,232.2,39.8,226.9z M50.2,235.9
			c0.1-0.3,0.3-0.5,0.4-0.8c0.8,0,1.8,0.2,2.5-0.1c1.1-0.5,2.1-1.3,3.2-2c-1.1-0.6-2.1-1.4-3.3-1.9c-0.7-0.3-1.7-0.2-2.4,0
			c-1.9,0.6-3.8,1.3-5.6,2C46.6,234,48.4,234.9,50.2,235.9z"/>
		<path class="st0" d="M50.2,235.9c-1.8-0.9-3.6-1.8-5.3-2.8c1.9-0.7,3.7-1.4,5.6-2c0.8-0.2,1.7-0.3,2.4,0c1.2,0.5,2.2,1.2,3.3,1.9
			c-1,0.7-2,1.5-3.2,2c-0.7,0.3-1.6,0.1-2.5,0.1C50.5,235.3,50.3,235.6,50.2,235.9z"/>
	</g>
</g>
</svg>
